<svg xmlns="http://www.w3.org/2000/svg" xmlns:xlink="http://www.w3.org/1999/xlink" width="92" height="92" viewBox="0 0 92 92">
  <defs>
    <clipPath id="clip-path">
      <rect id="Rectángulo_401400" data-name="Rectángulo 401400" width="51.091" height="51.088" fill="#526766"/>
    </clipPath>
  </defs>
  <g id="Grupo_1100839" data-name="Grupo 1100839" transform="translate(-759.051 -1360)">
    <circle id="Elipse_11543" data-name="Elipse 11543" cx="46" cy="46" r="46" transform="translate(759.051 1360)" fill="#dbeceb"/>
    <g id="Grupo_1100823" data-name="Grupo 1100823" transform="translate(779.502 1377.456)">
      <g id="Grupo_1100822" data-name="Grupo 1100822" clip-path="url(#clip-path)">
        <path id="Trazado_876077" data-name="Trazado 876077" d="M35.09,34.863a.723.723,0,0,0-.14-.575,8.359,8.359,0,0,0-6.756-3.43l.2-2.576a.722.722,0,0,0-.722-.779h-2.2a.722.722,0,0,0-.722.779l.2,2.576a8.359,8.359,0,0,0-6.756,3.43.722.722,0,0,0-.14.575,7.8,7.8,0,0,0-2.021,3.364,9.45,9.45,0,0,0,.032,5.4,10.321,10.321,0,0,0,3.553,5.219,11.25,11.25,0,0,0,6.959,2.238,11.25,11.25,0,0,0,6.959-2.238,10.321,10.321,0,0,0,3.553-5.219,9.45,9.45,0,0,0,.032-5.4,7.8,7.8,0,0,0-2.021-3.364m-9.432-2.525a.724.724,0,0,0,.787-.775l-.2-2.613h.642l-.2,2.613a.724.724,0,0,0,.787.775,6.743,6.743,0,0,1,4.557,1.138,10.276,10.276,0,0,0-1.945-.111.724.724,0,0,0-.559,1.14c.239.34.484.721.7,1.1a7.667,7.667,0,0,0-1.469-.406.724.724,0,0,0-.828.579,7.174,7.174,0,0,1-1.368,3.106A7.171,7.171,0,0,1,25.2,35.776a.725.725,0,0,0-.71-.589.758.758,0,0,0-.117.01A7.672,7.672,0,0,0,22.9,35.6c.22-.377.465-.758.7-1.1a.724.724,0,0,0-.559-1.14,10.277,10.277,0,0,0-1.945.111,6.743,6.743,0,0,1,4.557-1.138M35.69,43.223a9.011,9.011,0,0,1-9.123,6.418,9.012,9.012,0,0,1-9.123-6.416c-.954-3.248.03-6.394,2.506-8.051a14.87,14.87,0,0,1,1.7-.307,6.308,6.308,0,0,0-.983,2.566.724.724,0,0,0,1.279.48,4.146,4.146,0,0,1,2-1.136,8.012,8.012,0,0,0,2.119,3.7.724.724,0,0,0,1,0,8.015,8.015,0,0,0,2.119-3.7,4.146,4.146,0,0,1,2,1.136.724.724,0,0,0,1.279-.48,6.308,6.308,0,0,0-.983-2.566,14.878,14.878,0,0,1,1.7.307c2.476,1.657,3.46,4.8,2.506,8.049m10.749-23.2A12.73,12.73,0,0,0,48.5,18.325c1.9-1.9,3.31-4.314,2.189-5.435-1.073-1.074-3.334.177-5.19,1.95-.082-2.51-.8-4.9-2.287-4.9-1.424,0-2.141,2.183-2.273,4.572a10.509,10.509,0,0,0-2.253-1.581c-1.453-.721-2.208-.423-2.586-.045s-.677,1.134.044,2.587a11.5,11.5,0,0,0,2.144,2.848,13.064,13.064,0,0,0,1.938,1.61A7.012,7.012,0,0,0,37.72,21.9a6.511,6.511,0,0,0-1.325,5.485l4.747,21.947a2.148,2.148,0,0,0,4.226,0l4.748-21.947a6.406,6.406,0,0,0-1.3-5.47,7.01,7.01,0,0,0-2.373-1.892m3.206-6.08c.005.408-.534,1.733-2.164,3.362a9.549,9.549,0,0,1-2.6,1.933,8.461,8.461,0,0,0,.527-2.16,12.32,12.32,0,0,1,.875-.971c1.63-1.63,2.957-2.168,3.362-2.164m-6.429-2.51c.293.284.848,1.6.848,3.908s-.555,3.621-.848,3.906c-.292-.284-.848-1.6-.848-3.906s.555-3.623.848-3.908m-6.063,2.51c.406-.006,1.733.534,3.363,2.164.158.159.31.322.458.484A9.669,9.669,0,0,0,41.459,19a10.6,10.6,0,0,1-2.143-1.7c-1.63-1.628-2.169-2.954-2.164-3.362M48.7,27.077l-1.313,6.068H43.626a.724.724,0,0,0,0,1.449h3.448l-3.122,14.43a.7.7,0,0,1-1.4,0l-1.685-7.791h2.4a.723.723,0,1,0,0-1.447H40.559L38,27.953h5.271a.723.723,0,1,0,0-1.447H37.719a5.014,5.014,0,0,1,1.128-3.7,5.585,5.585,0,0,1,4.369-2.08,5.7,5.7,0,0,1,4.47,2.094A4.985,4.985,0,0,1,48.7,27.077M18.563,21.6a.724.724,0,0,0-.724-.723h-4.7a.724.724,0,0,0-.724.723v6.94H6.144V21.6a.723.723,0,0,0-.724-.723H.724a.723.723,0,1,0,0,1.447H4.7V46.5a4.585,4.585,0,1,0,9.171,0V22.328h3.972a.724.724,0,0,0,.724-.723M9.281,49.641A3.142,3.142,0,0,1,6.144,46.5V29.993h6.275V46.5a3.142,3.142,0,0,1-3.138,3.139M5.1,18.113A2.662,2.662,0,1,0,2.434,15.45,2.666,2.666,0,0,0,5.1,18.113m0-3.877A1.214,1.214,0,1,1,3.881,15.45,1.215,1.215,0,0,1,5.1,14.236m8.678,3.595a2.417,2.417,0,1,0-2.417,2.418,2.419,2.419,0,0,0,2.417-2.418m-3.386,0a.969.969,0,1,1,.969.969.97.97,0,0,1-.969-.969M7.018,23.69a2.01,2.01,0,1,0,2.01-2.01,2.013,2.013,0,0,0-2.01,2.01m2.571,0a.562.562,0,1,1-.562-.561.562.562,0,0,1,.562.561M12.038,9.86h4.334v1.179a2,2,0,0,0,4,0V9.86h4.773c.035,0,.076,0,.121,0l.217,0a5.087,5.087,0,0,0,2.936-.785l.188-.134A1.682,1.682,0,0,1,30.069,8.5a1.981,1.981,0,0,0,0-3.961,1.681,1.681,0,0,1-1.462-.445l-.188-.134a5.311,5.311,0,0,0-3.153-.783l-.121,0H20.372V2a2,2,0,0,0-4,0V3.178H12.038a3.341,3.341,0,1,0,0,6.682M25.145,4.625h.139a3.962,3.962,0,0,1,2.3.515l.183.132a2.954,2.954,0,0,0,2.3.715.533.533,0,0,1,.532.532.539.539,0,0,1-.532.532,2.955,2.955,0,0,0-2.3.715l-.183.132a3.962,3.962,0,0,1-2.3.515H20.372V4.625ZM17.82,2a.552.552,0,0,1,1.1,0v9.04a.552.552,0,0,1-1.1,0ZM12.038,4.625h4.334V8.413H12.038a1.894,1.894,0,0,1,0-3.788M30.4,11.581a.724.724,0,0,0-.617.344l-1.555,2.535c-.819,1.336-1,3.382.105,4.491a2.93,2.93,0,0,0,4.134,0c1.11-1.109.925-3.156.105-4.491l-1.555-2.535a.723.723,0,0,0-.617-.344m1.043,6.346a1.478,1.478,0,0,1-2.086,0c-.552-.552-.4-1.886.105-2.71L30.4,13.69l.938,1.527c.505.824.657,2.158.105,2.71" fill="#526766"/>
      </g>
    </g>
  </g>
</svg>
