<svg id="Grupo_1100876" data-name="Grupo 1100876" xmlns="http://www.w3.org/2000/svg" xmlns:xlink="http://www.w3.org/1999/xlink" width="249.047" height="154.938" viewBox="0 0 249.047 154.938">
  <defs>
    <clipPath id="clip-path">
      <rect id="Rectángulo_401563" data-name="Rectángulo 401563" width="249.047" height="154.938" fill="none"/>
    </clipPath>
    <clipPath id="clip-path-3">
      <rect id="Rectángulo_401559" data-name="Rectángulo 401559" width="24.774" height="71.758" fill="none"/>
    </clipPath>
  </defs>
  <g id="Enmascarar_grupo_1100875" data-name="Enmascarar grupo 1100875" clip-path="url(#clip-path)">
    <g id="Grupo_1100874" data-name="Grupo 1100874" transform="translate(0 0)">
      <g id="Grupo_1100873" data-name="Grupo 1100873" clip-path="url(#clip-path)">
        <path id="Trazado_876585" data-name="Trazado 876585" d="M158.668,154.933l77.331-.4,20.613-.006,6.829,0,20.652-.006,94.352-.026s21.581-27.651-1.471-53.914c-23.9-27.229-36.036-3.983-53.686-49.865C284.549-49.99,132.773,16.87,180.73,98.969c17.268,29.561-33.99,13.849-22.062,55.964" transform="translate(-141.664 0.005)" fill="#fce7d5"/>
        <path id="Trazado_876589" data-name="Trazado 876589" d="M1504.138,403.036c1.011,2.663,9.674,9.658,9.674,9.658s2.823-2.294,5.438-4.765c1.957-1.829,3.786-3.754,4.219-4.893a5.136,5.136,0,0,0-3.85-7.075c-3.77-.642-5.807,3.3-5.807,3.3s-2.037-3.947-5.823-3.3a5.146,5.146,0,0,0-1.733.61,5.288,5.288,0,0,0-2.118,6.465" transform="translate(-1358.206 -357.566)" fill="#f99746"/>
        <path id="Trazado_876590" data-name="Trazado 876590" d="M1068.865,178.9c-.179-.545-2.321-6.355-11.448-4.052,0,0,4.6-.755,5.93.976,0,0-3.724-1.539-5.964-.05s-2.439,6.225-2.043,7.649,3.089,5.606,4.765,5.543a4.97,4.97,0,0,0,1.895-.545,22.181,22.181,0,0,0-.587,2.518c-1.466,8.445,4.345,14.6,7.166,12.922,1.81-1.079,3.33,2.1,3.33,2.1l14.57-20.9s-11.167-12.437-17.614-6.164" transform="translate(-953.031 -157.433)" fill="#2c3a64"/>
        <path id="Trazado_876591" data-name="Trazado 876591" d="M982.1,537.662c-.074,2.248,3.915,9.583,6.2,15.922h0c1.476,4.091,2.934,7.884,3.718,9.9a23.656,23.656,0,0,1,1.142,3.867,133.332,133.332,0,0,1,2.158,21.765c0,.152.009.305.013.458l-20.613-.006-.082-.452-.452-2.476,0-.014.438-10.766-1.3-2-3.727,1.406-1.65,13.85-.053.45-20.652-.006c0-.148,0-.3,0-.444-.006-3.609-.01-6.688-.011-9.312a74.357,74.357,0,0,1,4.753-26.218c2.4-6.371,5.942-13.036,5.2-16.167a107.424,107.424,0,0,1-3.857-13.1c-.124-.629-.246-1.261-.368-1.891-.031.123-.06.246-.089.37-1.911,7.979-4.4,18.33-4.87,20.043-.782,2.847-7.983,24.757-7.983,24.757h-3.505s2.191-21.471,4.163-26.948,2.941-25.943,4.819-34.836c.977-4.62,2.515-6.638,5.043-7.964h0a28.149,28.149,0,0,1,4.723-1.75c1.183-.363,2.492-.755,3.943-1.242,2.093-.7,4.039-1.777,4.623-3.908a29.146,29.146,0,0,0,.914-7.4h0q.007-.91-.033-1.88h0v0l.62.1.594.094,9.816,1.565h0s0,.12-.01.337c0,.033,0,.07,0,.109v.017c0,.034,0,.071,0,.11,0,.069,0,.145-.006.226,0,.055,0,.113,0,.173,0,.195-.009.414-.012.656,0,.063,0,.126,0,.191,0,.032,0,.064,0,.1,0,.1,0,.2,0,.3v.015c0,.188,0,.382,0,.583,0,.423,0,.875,0,1.343q0,.3.006.614c0,.047,0,.093,0,.141,0,.2.007.4.012.6.006.27.013.54.023.809.061,1.755-.194,3.053.283,3.948.522.982,3.28,1.679,6.306,2.951a21.7,21.7,0,0,1,4.586,2.515,10.185,10.185,0,0,1,3.938,5.494c2.411,8.764,4,30.517,5.97,35.994s4.163,26.948,4.163,26.948h-3.505s-7.2-21.91-7.983-24.757c-.241-.88-1.016-4.043-1.972-7.993-.873-3.607-1.9-7.869-2.8-11.649q-.129-.539-.255-1.065c-.047.991-.092,1.982-.136,2.955-.272,5.933-2.169,10.993-2.221,12.577" transform="translate(-845.847 -435.035)" fill="#ffb27d"/>
        <path id="Trazado_876592" data-name="Trazado 876592" d="M1244.6,484.336s-.113,3.261-.005,6.324c-5.788.054-9.043-5.106-10.405-7.983Z" transform="translate(-1114.713 -435.952)" fill="#ed985f"/>
        <path id="Trazado_876593" data-name="Trazado 876593" d="M1228.2,315.23s-13.672.739-14-7.782-2.316-14.165,6.4-15,10.538,2.354,11.34,5.171-.19,17.2-3.738,17.609" transform="translate(-1096.268 -264.017)" fill="#ffb27d"/>
        <path id="Trazado_876594" data-name="Trazado 876594" d="M1191.6,276.9c-2.211-2.484-3.788-1.861-4.654-1.057a9.569,9.569,0,0,0-12.223,2.429,16.289,16.289,0,0,1-4.963,9.817s2.551,1.447,8.245-.247a9.778,9.778,0,0,0,4.536-3.388,31.943,31.943,0,0,1-5.241,6.915c6.747-3.432,9.146-13.086,9.383-14.106a10.727,10.727,0,0,1,3.133,3.864c.763,2.144,1.238,6.6,2.534,6.4,0,0,2.567-6.9-.749-10.627" transform="translate(-1056.523 -248.015)" fill="#2c3a64"/>
        <path id="Trazado_876595" data-name="Trazado 876595" d="M908.02,1362.033s-3,4.87-3.115,6.3.3,6.323.3,6.323,1.117-.309,1.349-2.606,3.757-3.678,4.466-5.185.432-4.636.432-4.636Z" transform="translate(-817.287 -1230.18)" fill="#ffb27d"/>
        <path id="Trazado_876596" data-name="Trazado 876596" d="M952.781,1367.489s.969,3.91.55,5.225-.871,3.4-1.529,3.188-1.223-4.159-1.223-4.159Z" transform="translate(-858.558 -1235.108)" fill="#ffb27d"/>
        <path id="Trazado_876597" data-name="Trazado 876597" d="M894.63,1428.268c-.035.2-1.94,5.649-1.94,5.649s1.573.011,1.675-.745.264-4.9.264-4.9" transform="translate(-806.273 -1290.003)" fill="#ffb27d"/>
        <path id="Trazado_876598" data-name="Trazado 876598" d="M1568.774,1367.489s3,4.871,3.115,6.3-.3,6.323-.3,6.323-1.117-.309-1.349-2.607-3.757-3.677-4.466-5.184-.474-4.834-.474-4.834Z" transform="translate(-1413.732 -1235.108)" fill="#ffb27d"/>
        <path id="Trazado_876599" data-name="Trazado 876599" d="M1559.414,1372.945s-.969,3.91-.551,5.224.872,3.4,1.529,3.188,1.223-4.159,1.223-4.159Z" transform="translate(-1407.862 -1240.036)" fill="#ffb27d"/>
        <path id="Trazado_876600" data-name="Trazado 876600" d="M1626.122,1433.724c.035.2,1.94,5.649,1.94,5.649s-1.573.011-1.675-.745-.265-4.9-.265-4.9" transform="translate(-1468.704 -1294.931)" fill="#ffb27d"/>
        <path id="Trazado_876601" data-name="Trazado 876601" d="M1033.294,1224.6s14.141,4.351,36.32,0c0,0,6.3,9.231,8.91,35.529h-22.615l-2.1-12.682-2.574.041-1.511,12.641h-23.192s.654-23.641,6.761-35.529" transform="translate(-927.159 -1106.054)" fill="#f99746"/>
        <path id="Trazado_876602" data-name="Trazado 876602" d="M1115.8,645.385c.256,2.733,1.127,5.325-.237,12.453q-.171.9-.391,1.89a59.957,59.957,0,0,1-30.746,0s-.1-.284-.251-.77c-.124-.391-.283-.912-.457-1.521-.7-2.447-1.642-6.306-1.406-8.746.368-3.8,2.923-11.324-.928-16.2h0a28.144,28.144,0,0,1,4.723-1.75s3.422,10.491,8.09,11.042a50.487,50.487,0,0,0,8.78.23s5.52.186,7.6-3.613a33.348,33.348,0,0,0,2.587-7.111,21.7,21.7,0,0,1,4.586,2.515c-.591,1.423-2.387,7-1.956,11.584" transform="translate(-976.704 -569.678)" fill="#fff"/>
        <path id="Trazado_876603" data-name="Trazado 876603" d="M1557.344,658.882l-.011-.034c.01-.007.015,0,.011.034" transform="translate(-1406.574 -595.065)" fill="#fff"/>
        <path id="Trazado_876604" data-name="Trazado 876604" d="M767.38,271.412c-.182.037-2.029-4.152-6.641-2.428,0,0-.728-4.613-6.1-4.344-4.364.218-4.806,5-4.806,5s-3.843-.809-5.39,1.776Z" transform="translate(-672.373 -239.011)" fill="#fff"/>
        <path id="Trazado_876605" data-name="Trazado 876605" d="M731.446,270.068a10.219,10.219,0,0,0-9.356-10.182,10.763,10.763,0,1,1,0,20.364,10.219,10.219,0,0,0,9.356-10.182" transform="translate(-652.188 -234.202)" fill="#afcdfb"/>
        <path id="Trazado_876606" data-name="Trazado 876606" d="M483.5,332.12c-.333.067-3.709-7.588-12.138-4.438,0,0-1.331-8.431-11.156-7.94-7.977.4-8.783,9.132-8.783,9.132s-7.023-1.479-9.852,3.247Z" transform="translate(-398.826 -288.77)" fill="#fff"/>
        <path id="Trazado_876607" data-name="Trazado 876607" d="M1163.54,986.686c-3.5,3.915-3.624,9.577-.383,12.893a.535.535,0,0,0,.781-.059.594.594,0,0,0,.028-.8c-2.826-2.924-2.705-7.889.364-11.325,3.2-3.58,8.406-4.164,11.608-1.3l.788-.882c-3.638-3.25-9.553-2.585-13.185,1.48" transform="translate(-1048.444 -887.97)" fill="#fff"/>
        <path id="Trazado_876608" data-name="Trazado 876608" d="M1304.646,995.159l2.508.164a.322.322,0,0,0,.327-.383l-.556-2.347a.239.239,0,0,0-.422-.074l-1.991,2.228a.238.238,0,0,0,.135.413" transform="translate(-1178.161 -896.35)" fill="#fff"/>
        <path id="Trazado_876609" data-name="Trazado 876609" d="M1240.874,1046.488c3.5-3.915,3.624-9.577.384-12.894a.536.536,0,0,0-.781.059.6.6,0,0,0-.028.8c2.827,2.924,2.706,7.889-.364,11.325-3.2,3.58-8.406,4.165-11.608,1.3l-.788.882c3.638,3.25,9.553,2.586,13.185-1.48" transform="translate(-1108.842 -933.407)" fill="#fff"/>
        <path id="Trazado_876610" data-name="Trazado 876610" d="M1219.714,1165.619l-2.508-.164a.322.322,0,0,0-.327.384l.556,2.347a.239.239,0,0,0,.423.074l1.991-2.229a.238.238,0,0,0-.134-.413" transform="translate(-1099.071 -1052.632)" fill="#fff"/>
        <path id="Trazado_876611" data-name="Trazado 876611" d="M370.931,1416.894a8.781,8.781,0,0,0-4.536-7.689v-1.1h-4.249a8.785,8.785,0,0,0,0,17.57H366.4v-1.1a8.781,8.781,0,0,0,4.536-7.689" transform="translate(-319.155 -1271.795)" fill="#f99746"/>
        <path id="Trazado_876612" data-name="Trazado 876612" d="M397.25,1416.894a8.785,8.785,0,1,1,8.785,8.785,8.785,8.785,0,0,1-8.785-8.785" transform="translate(-358.794 -1271.795)" fill="#ef7e29"/>
        <path id="Trazado_876613" data-name="Trazado 876613" d="M480.942,1469.038H453.594a3.58,3.58,0,1,1,0-7.159h27.349a3.58,3.58,0,0,1,0,7.159" transform="translate(-406.45 -1320.36)" fill="#ea6c2d"/>
        <path id="Trazado_876614" data-name="Trazado 876614" d="M606.854,1416.894a8.781,8.781,0,0,0-4.536-7.689v-1.1H598.07a8.785,8.785,0,0,0,0,17.57h4.249v-1.1a8.781,8.781,0,0,0,4.536-7.689" transform="translate(-532.239 -1271.795)" fill="#f99746"/>
        <path id="Trazado_876615" data-name="Trazado 876615" d="M633.174,1416.894a8.785,8.785,0,1,1,8.785,8.785,8.785,8.785,0,0,1-8.785-8.785" transform="translate(-571.879 -1271.795)" fill="#ef7e29"/>
        <path id="Trazado_876616" data-name="Trazado 876616" d="M688.975,1463.481a3.791,3.791,0,1,1,3.791,3.792,3.791,3.791,0,0,1-3.791-3.792" transform="translate(-622.278 -1318.383)" fill="#f99746"/>
        <path id="Trazado_876617" data-name="Trazado 876617" d="M1482.322,443.3l-.893-4.691-.39,2h-5.265v-.317h5l.654-3.363.934,4.906.42-1.656h.909l.62-2.888.794,4.4.417-1.686h1.878l.691-2.266.6,3.968.486-1.7h1.554l.456-2.488.981,3.914.355-1.426h2.01l.1,1.188,1.107-4.327.727,3.15h3.268v.317h-3.52l-.491-2.126-1.243,4.861-.243-2.746h-1.472l-.6,2.417-.933-3.727-.24,1.31h-1.579l-.819,2.869-.614-4.027-.353,1.158h-1.865l-.714,2.885-.773-4.284-.337,1.569h-.919Z" transform="translate(-1332.91 -394.578)" fill="#fff"/>
        <path id="Trazado_876618" data-name="Trazado 876618" d="M635.4,734.175h-7.493l-3.746-6.489,3.746-6.489H635.4l3.746,6.489Zm-7.21-.49h6.926l3.463-6-3.463-6h-6.926l-3.463,6Z" transform="translate(-563.737 -651.381)" fill="#78acea"/>
        <path id="Trazado_876619" data-name="Trazado 876619" d="M450.828,863.045l-.424-.245,3.534-6.121-3.463-6h-7.068v-.49h7.351l3.746,6.489Z" transform="translate(-400.482 -767.887)" fill="#78acea"/>
        <path id="Trazado_876620" data-name="Trazado 876620" d="M415.144,734.175h-7.493l-3.675-6.366.425-.245,3.534,6.121h6.926l3.463-6-3.463-6h-7.068v-.49h7.351l3.746,6.489Z" transform="translate(-364.869 -651.381)" fill="#78acea"/>
        <path id="Trazado_876621" data-name="Trazado 876621" d="M738.8,798.549l-3.675-6.366,3.746-6.489h7.493l3.675,6.366-.424.245-3.534-6.121h-6.927l-3.463,6,3.534,6.121Z" transform="translate(-663.961 -709.634)" fill="#78acea"/>
        <path id="Trazado_876622" data-name="Trazado 876622" d="M525.616,798.672h-7.351v-.49h7.068l3.463-6-3.463-6h-6.926l-3.534,6.121-.424-.245,3.675-6.366h7.493l3.746,6.489Z" transform="translate(-464.647 -709.635)" fill="#78acea"/>
        <path id="Trazado_876623" data-name="Trazado 876623" d="M746.223,669.679h-7.351l-3.747-6.489,3.747-6.489h7.351v.49h-7.068l-3.463,6,3.463,6h7.068Z" transform="translate(-663.961 -593.129)" fill="#78acea"/>
        <path id="Trazado_876624" data-name="Trazado 876624" d="M621.424,780.87a.633.633,0,1,1,.633.633.633.633,0,0,1-.633-.633" transform="translate(-561.267 -704.705)" fill="#78acea"/>
        <path id="Trazado_876625" data-name="Trazado 876625" d="M547.573,780.87a.633.633,0,1,1,.633.633.633.633,0,0,1-.633-.633" transform="translate(-494.565 -704.705)" fill="#78acea"/>
        <path id="Trazado_876626" data-name="Trazado 876626" d="M547.573,910.678a.633.633,0,1,1,.633.633.633.633,0,0,1-.633-.633" transform="translate(-494.565 -821.947)" fill="#78acea"/>
        <path id="Trazado_876627" data-name="Trazado 876627" d="M510.436,974.573a.633.633,0,1,1,.633.633.633.633,0,0,1-.633-.633" transform="translate(-461.023 -879.656)" fill="#78acea"/>
        <path id="Trazado_876628" data-name="Trazado 876628" d="M621.424,910.678a.633.633,0,1,1,.633.633.633.633,0,0,1-.633-.633" transform="translate(-561.267 -821.947)" fill="#78acea"/>
        <path id="Trazado_876629" data-name="Trazado 876629" d="M658.139,845.775a.633.633,0,1,1,.633.633.633.633,0,0,1-.633-.633" transform="translate(-594.427 -763.327)" fill="#78acea"/>
        <path id="Trazado_876630" data-name="Trazado 876630" d="M731.357,845.775a.633.633,0,1,1,.633.633.633.633,0,0,1-.633-.633" transform="translate(-660.557 -763.327)" fill="#78acea"/>
        <path id="Trazado_876631" data-name="Trazado 876631" d="M512.476,845.775a.633.633,0,1,1,.633.633.633.633,0,0,1-.633-.633" transform="translate(-462.865 -763.327)" fill="#78acea"/>
        <path id="Trazado_876632" data-name="Trazado 876632" d="M436.865,845.775a.633.633,0,1,1,.633.633.633.633,0,0,1-.633-.633" transform="translate(-394.574 -763.327)" fill="#78acea"/>
        <path id="Trazado_876633" data-name="Trazado 876633" d="M400.715,784.247a.633.633,0,1,1,.633.633.633.633,0,0,1-.633-.633" transform="translate(-361.924 -707.755)" fill="#78acea"/>
        <path id="Trazado_876634" data-name="Trazado 876634" d="M439.117,717.823a.633.633,0,1,1,.633.633.633.633,0,0,1-.633-.633" transform="translate(-396.608 -647.761)" fill="#78acea"/>
        <path id="Trazado_876635" data-name="Trazado 876635" d="M731.357,717.823a.633.633,0,1,1,.633.633.633.633,0,0,1-.633-.633" transform="translate(-660.557 -647.761)" fill="#78acea"/>
        <path id="Trazado_876636" data-name="Trazado 876636" d="M658.139,717.823a.633.633,0,1,1,.633.633.633.633,0,0,1-.633-.633" transform="translate(-594.427 -647.761)" fill="#78acea"/>
        <path id="Trazado_876637" data-name="Trazado 876637" d="M768.283,782.318a.633.633,0,1,1,.633.633.633.633,0,0,1-.633-.633" transform="translate(-693.909 -706.013)" fill="#78acea"/>
        <path id="Trazado_876638" data-name="Trazado 876638" d="M843.219,782.318a.633.633,0,1,1,.633.633.633.633,0,0,1-.633-.633" transform="translate(-761.591 -706.013)" fill="#78acea"/>
        <path id="Trazado_876639" data-name="Trazado 876639" d="M880.626,846.182a.633.633,0,1,1,.633.633.633.633,0,0,1-.633-.633" transform="translate(-795.376 -763.695)" fill="#78acea"/>
        <path id="Trazado_876640" data-name="Trazado 876640" d="M843.219,653.214a.633.633,0,1,1,.633.633.633.633,0,0,1-.633-.633" transform="translate(-761.591 -589.407)" fill="#78acea"/>
        <path id="Trazado_876641" data-name="Trazado 876641" d="M768.283,910.678a.633.633,0,1,1,.633.633.633.633,0,0,1-.633-.633" transform="translate(-693.909 -821.947)" fill="#78acea"/>
        <path id="Trazado_876642" data-name="Trazado 876642" d="M1963.9,764.108a18.347,18.347,0,0,1-4.118-3.276,13.169,13.169,0,0,1-3.942-9.507,12.393,12.393,0,0,1,3.893-9.159,10.321,10.321,0,0,1,7.546-2.736c5.141.343,4.975,5.826,4.973,5.881l-.612-.025c.008-.206.137-4.942-4.4-5.245a9.711,9.711,0,0,0-7.093,2.578,11.793,11.793,0,0,0-3.692,8.723c-.237,7.814,7.66,12.183,7.74,12.227Zm8.045-18.809-.306-.012h0Z" transform="translate(-1766.495 -667.83)" fill="#ef7e29"/>
        <path id="Trazado_876643" data-name="Trazado 876643" d="M1993.423,866.446V917.79a4.327,4.327,0,0,1-4.327,4.327H1967.6a5.112,5.112,0,0,1-5.111-5.111v-50.4a10.339,10.339,0,0,1,7.062-9.806,5.2,5.2,0,0,0,3.492-4.672l.093-1.772h9.638l.139,1.732a5.488,5.488,0,0,0,3.674,4.744,10.177,10.177,0,0,1,6.834,9.612" transform="translate(-1772.512 -768.039)" fill="#fff"/>
        <g id="Grupo_1100872" data-name="Grupo 1100872" transform="translate(196.138 82.32)" opacity="0.5">
          <g id="Grupo_1100871" data-name="Grupo 1100871">
            <g id="Grupo_1100870" data-name="Grupo 1100870" clip-path="url(#clip-path-3)">
              <path id="Trazado_876644" data-name="Trazado 876644" d="M2050.872,866.446V917.79a4.327,4.327,0,0,1-4.328,4.327h-15.336a5.112,5.112,0,0,1-5.111-5.111v-50.4a10.338,10.338,0,0,1,7.065-9.806,5.193,5.193,0,0,0,3.489-4.672l.1-1.772h3.478l.139,1.732a5.488,5.488,0,0,0,3.674,4.744,10.178,10.178,0,0,1,6.834,9.612" transform="translate(-2026.098 -850.359)" fill="#afcdfb"/>
            </g>
          </g>
        </g>
        <path id="Trazado_876645" data-name="Trazado 876645" d="M1999.443,1071.933v44.195a4.126,4.126,0,0,1-4.125,4.125h-3.1a7.7,7.7,0,0,1-5.443-1.743c-1.445-1.156-4.625-.966-5.686.384s-4.1,1.359-4.1,1.359h-2.163a4.874,4.874,0,0,1-4.871-4.874v-43.77a30.715,30.715,0,0,1,12,.165,57.791,57.791,0,0,0,17.49.159" transform="translate(-1779.254 -967.412)" fill="#afcdfb"/>
        <path id="Trazado_876646" data-name="Trazado 876646" d="M2076.5,802.668h-10.985v-3.646a2.438,2.438,0,0,1,2.438-2.438h6.007a2.54,2.54,0,0,1,2.54,2.54Z" transform="translate(-1865.563 -719.47)" fill="#f99746"/>
        <rect id="Rectángulo_401560" data-name="Rectángulo 401560" width="30.932" height="46.079" transform="translate(189.98 97.523)" fill="#f99746"/>
        <rect id="Rectángulo_401561" data-name="Rectángulo 401561" width="22.236" height="46.079" transform="translate(196.138 97.523)" fill="#ef7e29"/>
        <path id="Trazado_876647" data-name="Trazado 876647" d="M2062.827,843.219H2051.47a1.266,1.266,0,0,1,0-2.533h11.357a1.266,1.266,0,0,1,0,2.533" transform="translate(-1851.733 -759.302)" fill="#ef7e29"/>
        <path id="Trazado_876648" data-name="Trazado 876648" d="M1721.189,1331.235s-1.508,1.735-5.292,2.313h0a19.808,19.808,0,0,1-6.032-.1c-8.287,1.289-11.328-2.212-11.328-2.212-8.5-6.768-8.593-20.977,0-24.192a9.656,9.656,0,0,1,6.506-.21,15.649,15.649,0,0,0,9.644,0,9.657,9.657,0,0,1,6.506.21,8.956,8.956,0,0,1,3.023,1.875l.1.094c5.276,5.112,4.175,16.412-3.122,22.224" transform="translate(-1528.318 -1179.903)" fill="#95c38b"/>
        <path id="Trazado_876649" data-name="Trazado 876649" d="M1765.4,1333.219s-1.508,1.735-5.292,2.313h0c-4.376.367-2.458-1.377-7.209-1.377s-7.572-1.563-10.524-8.835-.563-14.133,4.117-14.925,7.042,2.9,12.96-.936c4.09-2.654,8.974,1.443,8.974,1.443l.1.094c5.276,5.112,4.175,16.412-3.122,22.224" transform="translate(-1572.529 -1181.887)" fill="#a8d29f"/>
        <path id="Trazado_876650" data-name="Trazado 876650" d="M1773.909,1228.69c-1.736-1.034-3.494.419-5.533,1.216a21.417,21.417,0,0,1-5.966.782,28.483,28.483,0,0,1,4.261-4.633c2.646-2.309,7.238,2.635,7.238,2.635" transform="translate(-1591.799 -1106.811)" fill="#a8d29f"/>
        <path id="Trazado_876651" data-name="Trazado 876651" d="M1773.909,1228.69c-1.632-1.34-4.65-2.108-6.123-1.505a44.461,44.461,0,0,0-5.376,3.5,28.483,28.483,0,0,1,4.261-4.633c2.646-2.309,7.238,2.635,7.238,2.635" transform="translate(-1591.799 -1106.811)" fill="#82b378"/>
        <path id="Trazado_876652" data-name="Trazado 876652" d="M1868.257,1212.64h0c-1.112-2.458-.511-5.506.189-7.631a48.369,48.369,0,0,1,2.151-5.059.283.283,0,0,1,.523.036l.212.64a2.313,2.313,0,0,1-.215,1.922c-1.075,1.777-3.234,5.932-2.262,9.352.11.385-.4,1.18-.6.74" transform="translate(-1686.843 -1083.643)" fill="#558949"/>
        <path id="Trazado_876653" data-name="Trazado 876653" d="M1966.77,1333.858s3.417,1.028,3.5,3.612-2.388,2.344-3.649,1.024-1.872-4.726.145-4.636" transform="translate(-1775.195 -1204.731)" fill="#d1f2c9"/>
        <path id="Trazado_876654" data-name="Trazado 876654" d="M248.755,1592.326H.292a.293.293,0,0,1-.292-.292v-.124a.293.293,0,0,1,.292-.292H248.755a.293.293,0,0,1,.292.292v.124a.293.293,0,0,1-.292.292" transform="translate(0 -1437.539)" fill="#2e3552"/>
        <path id="Trazado_876655" data-name="Trazado 876655" d="M1082.037,1211.154s-2.04,4.1-1.795,4.186,25.41,5.393,38.728-1.389l-1.38-3.505s-13.747,6.009-35.553.708" transform="translate(-975.65 -1093.267)" fill="#ef7e29"/>
        <path id="Trazado_876656" data-name="Trazado 876656" d="M1073.257,828.979c-12.339-2.773-24.481,3.93-27.757,15.055a1.315,1.315,0,0,0,1.029,1.623,1.45,1.45,0,0,0,1.736-.931c2.923-9.742,13.583-15.6,24.412-13.166,11.284,2.536,18.548,13.127,16.192,23.61l2.779.624c2.675-11.906-5.576-23.937-18.391-26.817" transform="translate(-944.245 -748.164)" fill="#31a854"/>
        <path id="Trazado_876657" data-name="Trazado 876657" d="M1466.294,1083.934l2.555,5.651a.76.76,0,0,0,1.191.237l4.329-4.1a.6.6,0,0,0-.332-1.01l-7.024-1.578a.6.6,0,0,0-.719.8" transform="translate(-1324.3 -978.264)" fill="#31a854"/>
        <path id="Trazado_876658" data-name="Trazado 876658" d="M1051.887,1114.267c12.339,2.772,24.481-3.93,27.757-15.056a1.314,1.314,0,0,0-1.029-1.623,1.45,1.45,0,0,0-1.736.931c-2.923,9.742-13.583,15.6-24.412,13.166-11.284-2.536-18.548-13.127-16.192-23.61l-2.78-.625c-2.675,11.906,5.576,23.937,18.391,26.817" transform="translate(-932.992 -982.178)" fill="#31a854"/>
        <path id="Trazado_876659" data-name="Trazado 876659" d="M1017.082,1050.966l-2.555-5.651a.759.759,0,0,0-1.191-.237l-4.329,4.1a.6.6,0,0,0,.332,1.01l7.024,1.578a.6.6,0,0,0,.719-.8" transform="translate(-911.168 -943.733)" fill="#31a854"/>
        <path id="Trazado_876660" data-name="Trazado 876660" d="M1285.719,1129.8c0,.491-.224.888-.5.888s-.5-.4-.5-.888.224-.889.5-.889.5.4.5.889" transform="translate(-1160.35 -1019.63)" fill="#ed985f"/>
      </g>
    </g>
  </g>
</svg>
