<svg id="Grupo_1100880" data-name="Grupo 1100880" xmlns="http://www.w3.org/2000/svg" xmlns:xlink="http://www.w3.org/1999/xlink" width="217.949" height="106.075" viewBox="0 0 217.949 106.075">
  <defs>
    <clipPath id="clip-path">
      <rect id="Rectángulo_401573" data-name="Rectángulo 401573" width="217.949" height="106.075" fill="none"/>
    </clipPath>
  </defs>
  <g id="Grupo_1100879" data-name="Grupo 1100879" clip-path="url(#clip-path)">
    <path id="Trazado_876714" data-name="Trazado 876714" d="M122.3,144.388a21.366,21.366,0,0,1,7.106-16.878c6.81-6,15.545-8.365,22.652-5.552s14.953,7.995,18.432,8.809,7.4,2,12.658.962c5.552-2.369,11.463-3.2,16.2,1.171s5.281,12.119,2,19.074c-3.283-3.557-8.205-6.92-15.163-5.958s-8.291,5.108-8.883,7.032-3.7,17.248,2.221,22.578c-4.96-.039-20.061.518-24.872-.962S122.3,144.388,122.3,144.388" transform="translate(-85.193 -84.137)" fill="#a0d9e6"/>
    <path id="Trazado_876715" data-name="Trazado 876715" d="M280.619,182.211a1.079,1.079,0,1,1-1.079-1.079,1.079,1.079,0,0,1,1.079,1.079" transform="translate(-193.98 -126.179)" fill="#fff"/>
    <path id="Trazado_876716" data-name="Trazado 876716" d="M311.206,159.074a1.079,1.079,0,1,1-1.079-1.079,1.079,1.079,0,0,1,1.079,1.079" transform="translate(-215.287 -110.061)" fill="#fff"/>
    <path id="Trazado_876717" data-name="Trazado 876717" d="M250.4,148.569a1.079,1.079,0,1,1-1.079-1.079,1.079,1.079,0,0,1,1.079,1.079" transform="translate(-172.926 -102.743)" fill="#fff"/>
    <path id="Trazado_876718" data-name="Trazado 876718" d="M333.438,182.211a1.079,1.079,0,1,1-1.079-1.079,1.079,1.079,0,0,1,1.079,1.079" transform="translate(-230.774 -126.179)" fill="#fff"/>
    <path id="Trazado_876719" data-name="Trazado 876719" d="M353.6,150.04a1.079,1.079,0,1,1-1.079-1.079,1.079,1.079,0,0,1,1.079,1.079" transform="translate(-244.818 -103.768)" fill="#fff"/>
    <path id="Trazado_876720" data-name="Trazado 876720" d="M370.626,189.92a1.079,1.079,0,1,1-1.079-1.079,1.079,1.079,0,0,1,1.079,1.079" transform="translate(-256.68 -131.549)" fill="#fff"/>
    <path id="Trazado_876721" data-name="Trazado 876721" d="M388.7,167.067a1.079,1.079,0,1,1-1.079-1.079,1.079,1.079,0,0,1,1.079,1.079" transform="translate(-269.267 -115.629)" fill="#fff"/>
    <path id="Trazado_876722" data-name="Trazado 876722" d="M251.091,272.97a1.079,1.079,0,1,1-1.079-1.079,1.079,1.079,0,0,1,1.079,1.079" transform="translate(-173.41 -189.402)" fill="#fff"/>
    <path id="Trazado_876723" data-name="Trazado 876723" d="M278.889,239.264a1.079,1.079,0,1,1-1.079-1.079,1.079,1.079,0,0,1,1.079,1.079" transform="translate(-192.775 -165.922)" fill="#fff"/>
    <path id="Trazado_876724" data-name="Trazado 876724" d="M290.031,284.512a1.079,1.079,0,1,1-1.079-1.079,1.079,1.079,0,0,1,1.079,1.079" transform="translate(-200.536 -197.443)" fill="#fff"/>
    <path id="Trazado_876725" data-name="Trazado 876725" d="M250.221,210.263a1.079,1.079,0,1,1-1.079-1.079,1.079,1.079,0,0,1,1.079,1.079" transform="translate(-172.804 -145.72)" fill="#fff"/>
    <path id="Trazado_876726" data-name="Trazado 876726" d="M223.639,120.075A1.079,1.079,0,1,1,222.561,119a1.079,1.079,0,0,1,1.079,1.079" transform="translate(-154.287 -82.894)" fill="#fff"/>
    <path id="Trazado_876727" data-name="Trazado 876727" d="M155.532,140.924a1.079,1.079,0,1,1-1.079-1.079,1.079,1.079,0,0,1,1.079,1.079" transform="translate(-106.843 -97.418)" fill="#fff"/>
    <path id="Trazado_876728" data-name="Trazado 876728" d="M194.8,144.4a1.079,1.079,0,1,1-1.079-1.079A1.079,1.079,0,0,1,194.8,144.4" transform="translate(-134.196 -99.838)" fill="#fff"/>
    <path id="Trazado_876729" data-name="Trazado 876729" d="M138.933,180.538a1.079,1.079,0,1,1-1.079-1.079,1.079,1.079,0,0,1,1.079,1.079" transform="translate(-95.28 -125.013)" fill="#fff"/>
    <path id="Trazado_876730" data-name="Trazado 876730" d="M333.438,245.519a1.079,1.079,0,1,1-1.079-1.079,1.079,1.079,0,0,1,1.079,1.079" transform="translate(-230.774 -170.28)" fill="#fff"/>
    <path id="Trazado_876731" data-name="Trazado 876731" d="M303.04,210.263a1.079,1.079,0,1,1-1.079-1.079,1.079,1.079,0,0,1,1.079,1.079" transform="translate(-209.598 -145.72)" fill="#fff"/>
    <path id="Trazado_876732" data-name="Trazado 876732" d="M419.221,40.225a5.089,5.089,0,0,1-4.835,2.861A4.274,4.274,0,0,0,416.49,39c-.825,2.332-4.179,2.793-6.3,1.524s-3.318-3.607-4.5-5.782A85.506,85.506,0,0,0,398.2,22.959a2.714,2.714,0,0,0,2.393-3.169c-2.292,1.18-6.21-.065-9.741-2.8-7.805-6.347-18.8-8.79-29.657-8.521l-.2-.006a33.381,33.381,0,0,0-19.436,5.744c-5.649,3.9-8.694,10.142-9.979,17.172-.387-1.355-3.622-3.048-5.029-3.124s-2.469-.255-3.589.6a10.982,10.982,0,0,0-3.936,8.174c.054,2.73.026,6.024,4.4,7.274-4.76,2.221-6.242,8.886-6.242,8.886,2.856,1.481,8.736,7.732,3.235,19.263-3.7-4.76-12.439-8.26-21.431-2.019a35.6,35.6,0,0,0-4.337,17.773c-.952,3.491-.106,5.4,2.116,5.607.529,2.645,7.617,8.569,16.82,8.992s11.108-.423,11.108-.423c1.8,2.962,5.078,4.337,9.2,4.443a11.047,11.047,0,0,1,8.252,3.808c1.269,1.587,3.914,1.9,4.126.106s-2.962-4.655-3.7-5.924-.529-2.433,3.279-.317,5.184,1.481,5.713.635,1.693-4.338,1.375-6.03c.069.069,2.873.184,4.792.255a4.055,4.055,0,0,1,1.775-1.025c.92-.271,1.819-.6,2.729-.893q.653-.248,1.308-.487a10.908,10.908,0,0,1,4.693-2.053c1.647-.526,20.355-3.415,25.538-9.868.092-.114.179-.236.263-.363a54.659,54.659,0,0,0,9.57-11.368,36.107,36.107,0,0,0,5.705-19.356c3-1.068,5.986-2.484,8.089-4.874s3.131-5.946,1.82-8.847" transform="translate(-204.986 -5.887)" fill="#ffdbcf"/>
    <path id="Trazado_876733" data-name="Trazado 876733" d="M18.889,178.081c-1.539-2.034-3.571-7.228-6.259-7.324-2.2-2.008-4.442-3.206-6.119-1.986-1.587,1.8-1.375,2.962-1.375,2.962-2.01.212-3.386,2.539-2.751,4.02-3.068,1.8-2.856,5.184-1.164,8.357s9.1,5.29,9.1,5.29c-.423,2.116-.741,5.289-.741,5.289-1.058,1.9,0,3.386,1.269,3.6-.317,1.9,1.693,2.539,2.327,2.539a2.7,2.7,0,0,0,3.6,2.645c.317,1.269,3.385,2.751,4.549,1.693s.317-4.337.317-4.337l3.6-4.443c.741,1.375,11.214,6.877,19.465,7.511s9.733.211,9.733.211,12.635,3.378,17.161-4.764,4.209-21.154.506-28.137-11.743-13.224-21.052-10.156-7.617,10.791-7.617,10.791c-3.7-.952-12.483.846-16.5,2.645A2.844,2.844,0,0,0,22.8,175.86a26.621,26.621,0,0,0-3.914,2.222" transform="translate(0 -111.63)" fill="#ffdbcf"/>
    <path id="Trazado_876734" data-name="Trazado 876734" d="M414.575,171.925c2.4-.525,1.61,3.264-.769,2.866a4.167,4.167,0,0,1-2.585-2.033c-1.234-2.033-.73-6.054,2.525-5.139,4.051,1.139,5.709,7.8,4.006,11.184-2.261,4.5-6.976,2.322-8.755-1.238-1.627-3.257-2.129-8.274-.573-11.661,2.274-4.95,7.97-1.338,10.133,1.743,2.014,2.871,2.849,8.229-1.07,10.061-4.277,2-7.557-3.879-5.662-7.364a3,3,0,0,1,5.632.842c.333,1.526-.745,3.853-2.666,2.763a2.5,2.5,0,0,1-1.147-2.152q-.2-1.572,1.666-1.316l-.914,1.189,3.328.555c1.018.17,1.457-1.389.43-1.56l-3.328-.555a.821.821,0,0,0-.913,1.188,1.765,1.765,0,0,0,3.278-1.306c-.764-2.922-4.244-1.838-4.978.472-.813,2.561,1.187,5.866,4.1,5.328,2.947-.545,3.4-4.359,2.066-6.534a4.5,4.5,0,0,0-7.039-.931c-2.119,2.082-2.2,5.8-.691,8.241a6.12,6.12,0,0,0,7.165,2.747c3.121-1.182,4.434-4.878,3.984-7.966-.769-5.28-9.026-13.564-13.919-7.612-2.147,2.612-2.133,6.669-1.692,9.83.491,3.526,2.048,7.384,5.493,8.962a5.6,5.6,0,0,0,7.189-2.406c1.873-3.045,1.343-7.031-.315-10.048-1.337-2.434-4.15-5.169-7.173-3.887-2.863,1.214-2.976,5.041-1.554,7.388,1.481,2.443,5.316,4.3,7.3,1.331,1.387-2.072-.321-6.56-3.23-5.011-2.247,1.2-1.395,5.457,1.373,4.8,2.712-.647,1.626-4.93-1.126-4.328-1.017.222-.586,1.783.43,1.56" transform="translate(-282.788 -112.622)" fill="#ffc6c8"/>
    <path id="Trazado_876735" data-name="Trazado 876735" d="M492.378,278.527a22.268,22.268,0,0,1,4.466-1.754,10.915,10.915,0,0,0-.7-.972c1.252-4.252-5.676-8.278-9.332-7.586a5.277,5.277,0,0,0-2.91,1.58,6.071,6.071,0,0,1,1.5,1.819,3.183,3.183,0,0,1,.961-.208,4.134,4.134,0,0,1,.467,0,2.874,2.874,0,0,0-.249.266,3.209,3.209,0,0,0-.608,1.128,19,19,0,0,1,.883,2.893c.029.125.049.251.076.376a7.9,7.9,0,0,0,4.549,2.457Zm-4.722-8.647a5.539,5.539,0,0,0-.6-.072,6.231,6.231,0,0,1,3.98.761c1.261.679,2.913,1.892,3.366,3.4-.226-.215-.462-.431-.7-.644a8.508,8.508,0,0,0-2.137-1.681q-.373-.254-.754-.483a2.731,2.731,0,0,0-.712-.4,8.783,8.783,0,0,0-2.442-.883m3.811,5.506a2.4,2.4,0,0,0,.378-1.351c.227.177.461.364.7.561a10.658,10.658,0,0,1,.807,1,5.647,5.647,0,0,1,.509.885c-.879.8-2.444.49-3.656-.066a2.425,2.425,0,0,0,1.261-1.027" transform="translate(-337.093 -186.787)" fill="#ffc6c8"/>
    <path id="Trazado_876736" data-name="Trazado 876736" d="M533.613,286.662q3.238-.757,6.431-1.691c-.206.06-.866-.275-1.079-.344q-.539-.175-1.076-.356c-.382-.129-.768-.252-1.146-.393-.182-.069-.43-.233-.633-.174-.429.125-.861,1.123-1.12,1.474a7.657,7.657,0,0,1-1.376,1.485" transform="translate(-371.721 -197.622)" fill="#8f5d5e"/>
    <path id="Trazado_876737" data-name="Trazado 876737" d="M225.564,284.715c1.154,4.561,15.036,3.991,22.226,3.511.32-.639,1.917,1.758,1.917,1.758l-31.637.319s5.256-2.872,7.493-5.589" transform="translate(-151.911 -198.336)" fill="#8f5d5e"/>
    <path id="Trazado_876738" data-name="Trazado 876738" d="M380.24,231.617c-.065.259-.259,4.462,2,6.6-3.363-.711-4.463-1.746-4.463-1.746Z" transform="translate(-263.167 -161.347)" fill="#8f5d5e"/>
    <path id="Trazado_876739" data-name="Trazado 876739" d="M472.4,256.573a24.279,24.279,0,0,1,2.8,4.034c.035.052,3.086-1.514,3.386-1.533-2.521-.32-2.265-1.17-3.338-1.864a4.327,4.327,0,0,0-2.846-.637" transform="translate(-329.077 -178.712)" fill="#8f5d5e"/>
    <path id="Trazado_876740" data-name="Trazado 876740" d="M240.109,178.411c.348.9.628,1.832.914,2.786.111.369.228.73.339,1.087a14.832,14.832,0,0,0-1.784-10.99.81.81,0,0,0-1.4.817,13.263,13.263,0,0,1,1.928,6.3" transform="translate(-165.836 -119.056)" fill="#8f5d5e"/>
    <path id="Trazado_876741" data-name="Trazado 876741" d="M453.014,150.031a12.42,12.42,0,0,0,8.458,15.244c1,.305,1.425-1.256.43-1.56a10.768,10.768,0,0,1-7.328-13.253.81.81,0,0,0-1.56-.43" transform="translate(-315.266 -104.113)" fill="#8f5d5e"/>
    <path id="Trazado_876742" data-name="Trazado 876742" d="M534.461,1.62c7.621.377,15.483,2.244,21.975,6.4,3.816,2.441,7.464,6.726,12.538,5.639,1.018-.218.587-1.778-.43-1.56-5,1.07-9.162-4.391-13.155-6.575A48.6,48.6,0,0,0,534.461,0c-1.041-.052-1.038,1.567,0,1.618" transform="translate(-371.768 -0.001)" fill="#8f5d5e"/>
    <path id="Trazado_876743" data-name="Trazado 876743" d="M515.861,1.724q.314-.019.628-.035A.822.822,0,0,0,517.3.88a.82.82,0,0,0-.809-.809q-.314.016-.628.035a.823.823,0,0,0-.809.809.82.82,0,0,0,.809.809" transform="translate(-358.791 -0.049)" fill="#8f5d5e"/>
    <path id="Trazado_876744" data-name="Trazado 876744" d="M376.654,45.767a12.61,12.61,0,0,1,6.336-6.823c.87-.418.227-1.649-.623-1.479-4.956.99-4.362-7.664-2.977-10.292.912-1.732,2.775-3.462,4.821-3.564,1.624-.081,2.574,1.1,3.463,2.266a.817.817,0,0,0,1.508-.408c.059-4.026,2.647-8.235,5.1-11.233C398.945,8.553,405.58,5.255,412.741,4c1.024-.18.59-1.739-.43-1.56a31.5,31.5,0,0,0-19.424,10.965c-2.626,3.275-5.26,7.717-5.323,12.062l1.508-.408c-1.21-1.592-2.554-3.108-4.726-3.086-2.861.028-5.415,2.376-6.58,4.836-1.9,4.018-1.432,13.508,5.031,12.217l-.623-1.479a14.159,14.159,0,0,0-7.08,7.79c-.343.986,1.22,1.409,1.56.43" transform="translate(-261.26 -1.69)" fill="#8f5d5e"/>
    <path id="Trazado_876745" data-name="Trazado 876745" d="M504.261,150.089c1.624,1.1,2.51,3.6,3.365,5.293.47.929,1.867.111,1.4-.817-1.016-2.007-2.016-4.561-3.945-5.874-.863-.587-1.674.814-.817,1.4" transform="translate(-351.019 -103.482)" fill="#8f5d5e"/>
    <path id="Trazado_876746" data-name="Trazado 876746" d="M560.195,248.743c.732.93.675,2.5.654,3.621a.809.809,0,0,0,1.618,0,7.356,7.356,0,0,0-1.128-4.765c-.644-.818-1.782.334-1.144,1.144" transform="translate(-390.107 -172.285)" fill="#8f5d5e"/>
    <path id="Trazado_876747" data-name="Trazado 876747" d="M483.186,237.31c1.153,1.467,2.677,3.521,1.82,5.48a2.968,2.968,0,0,1-5.141.454c-.622-.818-2.028-.013-1.4.817,1.779,2.339,5.171,2.94,7.255.607,2.43-2.72.469-6.133-1.393-8.5-.643-.818-1.781.334-1.144,1.144" transform="translate(-333.195 -164.32)" fill="#8f5d5e"/>
    <path id="Trazado_876748" data-name="Trazado 876748" d="M332.729,245.788c7.313-2.366,15.447-.426,21.5,4.122.833.626,1.64-.779.817-1.4-6.376-4.788-15.069-6.771-22.752-4.285-.987.319-.565,1.882.43,1.56" transform="translate(-231.092 -169.382)" fill="#8f5d5e"/>
    <path id="Trazado_876749" data-name="Trazado 876749" d="M395.293,295.28l-.108.108a.809.809,0,0,0,1.144,1.144l.109-.109a.809.809,0,1,0-1.144-1.144" transform="translate(-275.127 -205.534)" fill="#8f5d5e"/>
    <path id="Trazado_876750" data-name="Trazado 876750" d="M396.3,296.8a9.732,9.732,0,0,0,5.223,6.2c3.07,1.4,6.541.9,9.7,1.927,2,.645,2.889,2.15,4.54,3.231a3.149,3.149,0,0,0,3.1.383c1.862-.922,1.567-3.335.524-4.771-.9-1.238-2.431-2.011-3.171-3.375q-.719-.269-.066-.094.257.071.506.165a15.959,15.959,0,0,1,1.618.692c1.724.811,3.748,2.34,5.763,1.691,2.073-.667,2.274-2.789,1.129-4.4a20.412,20.412,0,0,0-7.741-6.142c-.933-.453-1.754.942-.817,1.4a21.139,21.139,0,0,1,6.32,4.607c.723.774,1.914,2.5.426,2.972a2.417,2.417,0,0,1-1.721-.26c-.724-.3-1.413-.719-2.12-1.06-1.21-.584-6.039-2.774-4.9.78.568,1.771,4.366,3.463,4.012,5.355-.526,2.815-3.533-.834-4.321-1.42a9.047,9.047,0,0,0-2.657-1.312c-2.423-.778-5.009-.633-7.472-1.2a8.222,8.222,0,0,1-6.325-5.8.81.81,0,0,0-1.56.43" transform="translate(-276.04 -203.562)" fill="#8f5d5e"/>
    <path id="Trazado_876751" data-name="Trazado 876751" d="M337.2,167.24c1.847-6.437,2.517-14.592-2.643-19.751-6.032-6.033-15.094-3-21.868-.239-.952.388-.536,1.954.43,1.56,6.179-2.518,14.718-5.735,20.293-.177,4.736,4.721,3.9,12.33,2.226,18.177a.81.81,0,0,0,1.56.43" transform="translate(-217.449 -100.307)" fill="#8f5d5e"/>
    <path id="Trazado_876752" data-name="Trazado 876752" d="M377.5,231.33c.771-1.984,1.635-3.932,2.449-5.9.4-.961-1.167-1.38-1.56-.43-.814,1.967-1.678,3.915-2.449,5.9-.377.971,1.187,1.392,1.561.43" transform="translate(-261.841 -156.365)" fill="#8f5d5e"/>
    <path id="Trazado_876753" data-name="Trazado 876753" d="M183.014,126.348c-6.225-.309-10.662-4-15.865-6.861-5.16-2.841-10.958-4.906-16.929-4.436A23.732,23.732,0,0,0,128.587,136.5c-.1,1.035,1.516,1.028,1.618,0a22.079,22.079,0,0,1,24.063-19.783c5.935.619,11.372,3.519,16.3,6.72a25.19,25.19,0,0,0,12.449,4.525c1.041.052,1.038-1.566,0-1.618" transform="translate(-89.572 -80.099)" fill="#8f5d5e"/>
    <path id="Trazado_876754" data-name="Trazado 876754" d="M81.113,201.091a1.632,1.632,0,0,1,2.474-.822.81.81,0,0,0,.817-1.4,3.273,3.273,0,0,0-4.851,1.788c-.343.985,1.219,1.409,1.56.43" transform="translate(-55.383 -138.189)" fill="#8f5d5e"/>
    <path id="Trazado_876755" data-name="Trazado 876755" d="M98.616,193.669a31.989,31.989,0,0,1,18.642-1.977c5.927,1.192,12.734,4.112,14.314,10.553.248,1.011,1.809.582,1.56-.43-1.6-6.528-8.024-9.888-14.088-11.381a33.442,33.442,0,0,0-20.859,1.674c-.946.4-.53,1.963.43,1.56" transform="translate(-68.025 -131.999)" fill="#8f5d5e"/>
    <path id="Trazado_876756" data-name="Trazado 876756" d="M93.093,178.727c3.165,5.755,8.436,10.165,13.889,13.664,8.086,5.188,18,10.013,27.436,5.372,5.946-2.923,7.428-9.4,7.828-15.552.567-8.72-1.552-19.672-9.15-25.114-7.818-5.6-21-4.5-23.619,6.085-.25,1.011,1.31,1.442,1.56.43,2.354-9.527,14.34-10.192,21.242-5.118s8.773,15.118,8.383,23.116c-.281,5.742-1.473,12.021-7.061,14.756-8.688,4.252-17.831-.361-25.275-5.038-5.423-3.407-10.7-7.722-13.836-13.418-.5-.913-1.9-.1-1.4.817" transform="translate(-64.775 -107.116)" fill="#8f5d5e"/>
    <path id="Trazado_876757" data-name="Trazado 876757" d="M87.783,219.272a7.43,7.43,0,0,0,.208,1.011.809.809,0,1,0,1.56-.43c-.052-.189-.1-.378-.139-.57-.021-.1-.068-.445-.011-.011a.831.831,0,0,0-.809-.809c-.391.018-.868.36-.809.809" transform="translate(-61.147 -152.183)" fill="#8f5d5e"/>
    <path id="Trazado_876758" data-name="Trazado 876758" d="M98.771,224.411c-.917,6.275,4.68,11.17,9.085,14.608,6.987,5.453,15.246,9.752,24.327,9.474,1.039-.032,1.043-1.65,0-1.618-8.4.257-16.083-3.6-22.626-8.572-2.758-2.1-5.713-4.33-7.518-7.334a11.8,11.8,0,0,1-1.642-4.476,9.367,9.367,0,0,1-.076-1.251c0-.1.064-.761.012-.4.149-1.018-1.41-1.458-1.56-.43" transform="translate(-68.736 -155.919)" fill="#8f5d5e"/>
    <path id="Trazado_876759" data-name="Trazado 876759" d="M48.149,206.939a20.824,20.824,0,0,0-12.007,19.043.81.81,0,0,0,1.618,0,19.241,19.241,0,0,1,11.206-17.646c.946-.433.124-1.828-.817-1.4" transform="translate(-25.176 -144.099)" fill="#8f5d5e"/>
    <path id="Trazado_876760" data-name="Trazado 876760" d="M36.3,275.228a2.73,2.73,0,0,0,4.616-1.5.838.838,0,0,0-.565-1,.814.814,0,0,0-1,.565,1.122,1.122,0,0,1-1.911.79c-.756-.716-1.9.426-1.144,1.144" transform="translate(-25.114 -189.968)" fill="#8f5d5e"/>
    <path id="Trazado_876761" data-name="Trazado 876761" d="M42.2,284.69a2.867,2.867,0,0,0,5.079-.649c.39-.965-1.174-1.385-1.56-.43a1.231,1.231,0,0,1-2.122.262c-.612-.828-2.017-.022-1.4.817" transform="translate(-29.291 -197.191)" fill="#8f5d5e"/>
    <path id="Trazado_876762" data-name="Trazado 876762" d="M49.669,291.636a3.117,3.117,0,0,0,5.618-1.086c.222-1.015-1.338-1.448-1.561-.43a1.488,1.488,0,0,1-2.66.7c-.615-.826-2.02-.02-1.4.817" transform="translate(-34.492 -201.696)" fill="#8f5d5e"/>
    <path id="Trazado_876763" data-name="Trazado 876763" d="M64.558,283.43v.1a.809.809,0,0,0,1.618,0v-.1a.809.809,0,1,0-1.618,0" transform="translate(-44.972 -196.876)" fill="#8f5d5e"/>
    <path id="Trazado_876764" data-name="Trazado 876764" d="M62.749,291.975a3.522,3.522,0,0,0,5.03-4.929c-.677-.793-1.817.356-1.144,1.144a1.9,1.9,0,0,1-2.742,2.641c-.772-.695-1.92.446-1.144,1.144" transform="translate(-43.532 -199.773)" fill="#8f5d5e"/>
    <path id="Trazado_876765" data-name="Trazado 876765" d="M79.428,264.7a66.632,66.632,0,0,1,7.393-7.576c.785-.687-.363-1.827-1.144-1.144a66.632,66.632,0,0,0-7.393,7.576c-.661.8.477,1.946,1.144,1.144" transform="translate(-54.394 -178.174)" fill="#8f5d5e"/>
    <path id="Trazado_876766" data-name="Trazado 876766" d="M13.64,217.367c-2.46-1-5.042-2.138-6.659-4.342-1.693-2.308-1.826-5.715.96-7.231.915-.5.1-1.9-.817-1.4a6.092,6.092,0,0,0-2.454,7.861c1.5,3.573,5.16,5.3,8.539,6.67.964.391,1.384-1.173.43-1.56" transform="translate(-2.875 -142.311)" fill="#8f5d5e"/>
    <path id="Trazado_876767" data-name="Trazado 876767" d="M24.014,184.2a2.127,2.127,0,0,1,1.2-3.954,4.009,4.009,0,0,1,3.241,2.339.84.84,0,0,0,.914.372c2.341-.347,3.669,3.655,4.31,5.271.38.956,1.945.539,1.56-.43-1.088-2.741-2.673-6.939-6.3-6.4l.914.372c-1.347-2.342-4.3-4.3-6.884-2.52a3.742,3.742,0,0,0,.234,6.348c.884.557,1.7-.843.817-1.4" transform="translate(-14.847 -124.384)" fill="#8f5d5e"/>
    <path id="Trazado_876768" data-name="Trazado 876768" d="M14.867,197.647a1.668,1.668,0,0,1-.613-3.143.81.81,0,0,0-.817-1.4,3.3,3.3,0,0,0,1.429,6.158c1.036.1,1.029-1.521,0-1.618" transform="translate(-8.19 -134.44)" fill="#8f5d5e"/>
    <path id="Trazado_876769" data-name="Trazado 876769" d="M10.409,218.656v.1a.809.809,0,0,0,1.618,0v-.1a.809.809,0,1,0-1.618,0" transform="translate(-7.251 -151.754)" fill="#8f5d5e"/>
    <path id="Trazado_876770" data-name="Trazado 876770" d="M90.91,277.119a39.953,39.953,0,0,0,25.1,6.279c1.031-.082,1.04-1.7,0-1.618a38.525,38.525,0,0,1-24.287-6.058c-.867-.582-1.678.819-.817,1.4" transform="translate(-63.073 -191.974)" fill="#8f5d5e"/>
    <path id="Trazado_876771" data-name="Trazado 876771" d="M83.542,301.862h72.741a.809.809,0,0,0,0-1.618H83.542a.809.809,0,0,0,0,1.618" transform="translate(-57.652 -209.153)" fill="#8f5d5e"/>
    <path id="Trazado_876772" data-name="Trazado 876772" d="M15.554,301.862h9.636a.809.809,0,0,0,0-1.618H15.554a.809.809,0,0,0,0,1.618" transform="translate(-10.291 -209.153)" fill="#8f5d5e"/>
    <path id="Trazado_876773" data-name="Trazado 876773" d="M309.506,289.4c6.505,7.754,16.11,8.054,25.511,7.626,1.037-.047,1.043-1.666,0-1.618-8.973.409-18.136.274-24.367-7.152-.67-.8-1.809.351-1.144,1.144" transform="translate(-215.465 -200.612)" fill="#8f5d5e"/>
    <path id="Trazado_876774" data-name="Trazado 876774" d="M302.216,217.531a29.676,29.676,0,0,0-2.277,14.54c.127,1.02,1.747,1.032,1.618,0a28.644,28.644,0,0,1,2.22-14.109c.388-.966-1.176-1.386-1.56-.43" transform="translate(-208.819 -151.158)" fill="#8f5d5e"/>
    <path id="Trazado_876775" data-name="Trazado 876775" d="M310.538,188.192a19.919,19.919,0,0,0-3.4,6.773.81.81,0,0,0,1.56.43,18.742,18.742,0,0,1,3.238-6.386c.627-.832-.777-1.639-1.4-.817" transform="translate(-213.932 -130.858)" fill="#8f5d5e"/>
    <path id="Trazado_876776" data-name="Trazado 876776" d="M299.743,263.589a6.494,6.494,0,0,0-.23,4.982,3.084,3.084,0,0,0,3.77,1.692c.976-.343.556-1.906-.43-1.56-2.753.967-2.076-3.357-1.549-4.683.384-.968-1.18-1.388-1.56-.43" transform="translate(-208.361 -183.242)" fill="#8f5d5e"/>
    <path id="Trazado_876777" data-name="Trazado 876777" d="M410.651,255.221a55.048,55.048,0,0,1,10.241-3.789c1.845-.5,3.709-1.008,5.494-.027,1.759.966,2.8,2.8,3.792,4.468a.81.81,0,0,0,1.4-.816c-1.935-3.253-4.37-6.332-8.559-5.76a44.133,44.133,0,0,0-13.183,4.528c-.931.466-.113,1.862.817,1.4" transform="translate(-285.209 -173.614)" fill="#8f5d5e"/>
    <path id="Trazado_876778" data-name="Trazado 876778" d="M463.444,267.318a12.446,12.446,0,0,1,5.034,2.39c2.047,1.858,3.454,4.405,2.775,7.217-.244,1.012,1.316,1.444,1.56.43.733-3.039-.4-5.714-2.4-7.98-1.8-2.033-4.029-2.835-6.54-3.617-1-.31-1.423,1.251-.43,1.56" transform="translate(-322.447 -185.102)" fill="#8f5d5e"/>
    <path id="Trazado_876779" data-name="Trazado 876779" d="M516.333,189.705c.875,5.021,5.242,8.288,10.1,9.036,5.431.837,10.986-1.055,15.894-3.235,5.428-2.412,9.534-6.194,13.454-10.585a42.708,42.708,0,0,0,7.674-11.424,37.888,37.888,0,0,0,2.7-13.113c.054-1.041-1.565-1.038-1.618,0a35.313,35.313,0,0,1-2.872,13.179c-2.345,5.061-6.051,9.36-9.935,13.3a36.313,36.313,0,0,1-16.853,9.61c-6.442,1.75-15.592.8-16.986-7.2-.178-1.024-1.738-.59-1.56.43" transform="translate(-359.673 -111.183)" fill="#8f5d5e"/>
    <path id="Trazado_876780" data-name="Trazado 876780" d="M511.27,289.341a16.819,16.819,0,0,0,8.977-5.573c.68-.783-.46-1.932-1.144-1.144a15.391,15.391,0,0,1-8.263,5.157c-1.015.23-.585,1.791.431,1.56" transform="translate(-355.453 -196.694)" fill="#8f5d5e"/>
    <path id="Trazado_876781" data-name="Trazado 876781" d="M308.252,201.811a16.361,16.361,0,0,1,23.952,2.824c.6.839,2,.032,1.4-.817a18.011,18.011,0,0,0-26.493-3.152c-.8.668.349,1.807,1.144,1.144" transform="translate(-213.746 -136.719)" fill="#8f5d5e"/>
    <path id="Trazado_876782" data-name="Trazado 876782" d="M436.227,240.519a5.362,5.362,0,0,1-.556-4.8c.343-.985-1.22-1.409-1.56-.43a6.929,6.929,0,0,0,.719,6.042c.559.875,1.96.064,1.4-.817" transform="translate(-302.136 -163.521)" fill="#8f5d5e"/>
    <path id="Trazado_876783" data-name="Trazado 876783" d="M475.874,249.081a.809.809,0,0,0,0-1.618.809.809,0,0,0,0,1.618" transform="translate(-330.954 -172.385)" fill="#8f5d5e"/>
    <path id="Trazado_876784" data-name="Trazado 876784" d="M479.376,268.729A17.84,17.84,0,0,1,496,272.65c.776.689,1.925-.451,1.144-1.144a19.509,19.509,0,0,0-18.2-4.337.81.81,0,0,0,.43,1.56" transform="translate(-333.239 -185.639)" fill="#8f5d5e"/>
    <path id="Trazado_876785" data-name="Trazado 876785" d="M210.619,236.9l-.083.083a.809.809,0,0,0,1.144,1.144l.083-.083a.809.809,0,1,0-1.144-1.144" transform="translate(-146.499 -164.865)" fill="#8f5d5e"/>
    <path id="Trazado_876786" data-name="Trazado 876786" d="M251.575,192.528c-.187.437-.414.857-.627,1.282a.809.809,0,0,0,1.4.816c.212-.424.44-.845.627-1.282a.832.832,0,0,0-.29-1.107.818.818,0,0,0-1.107.29" transform="translate(-174.744 -133.846)" fill="#8f5d5e"/>
    <path id="Trazado_876787" data-name="Trazado 876787" d="M457.369,259.941a4.262,4.262,0,0,1,1.555,2.171c.218,1.018,1.778.587,1.56-.43a5.683,5.683,0,0,0-1.971-2.885c-.744-.73-1.889.414-1.144,1.144" transform="translate(-318.44 -180.118)" fill="#8f5d5e"/>
    <path id="Trazado_876788" data-name="Trazado 876788" d="M472.442,282.163c2.4,1.287,5.128,4.368,5.112,7.209a.81.81,0,0,0,1.618,0c.019-3.408-3.015-7.053-5.914-8.606-.918-.492-1.736.9-.817,1.4" transform="translate(-328.828 -195.512)" fill="#8f5d5e"/>
    <path id="Trazado_876789" data-name="Trazado 876789" d="M639.935,51.47a49.432,49.432,0,0,1,4.676,6.2A21.63,21.63,0,0,1,647.04,62.6a11.057,11.057,0,0,0,2.444,4.438c1.795,1.885,4.826,3.449,7.426,2.323,2.179-.944,3.5-3.525,1.753-5.483-.694-.779-1.836.369-1.144,1.144,1.059,1.189-.423,2.648-1.586,2.978a4.891,4.891,0,0,1-3.776-.839c-2.657-1.674-3.1-4.278-4.286-6.921a40.641,40.641,0,0,0-6.791-9.913c-.691-.782-1.832.366-1.144,1.144" transform="translate(-445.638 -34.876)" fill="#8f5d5e"/>
    <path id="Trazado_876790" data-name="Trazado 876790" d="M636.989,121.771a13.137,13.137,0,0,0,24.291-3.781c.234-1.013-1.326-1.446-1.56-.43a11.522,11.522,0,0,1-21.334,3.395.81.81,0,0,0-1.4.817" transform="translate(-443.65 -81.489)" fill="#8f5d5e"/>
    <path id="Trazado_876791" data-name="Trazado 876791" d="M614.872,106.669a13.308,13.308,0,0,0,1.72,9.277.81.81,0,0,0,1.4-.817,11.568,11.568,0,0,1-1.557-8.03c.173-1.018-1.386-1.456-1.56-.43" transform="translate(-428.183 -73.899)" fill="#8f5d5e"/>
    <path id="Trazado_876792" data-name="Trazado 876792" d="M676.354,119.267c3.266.662,6.424.172,8.641-2.5.661-.8-.478-1.946-1.144-1.144-1.846,2.221-4.335,2.634-7.067,2.08-1.017-.206-1.451,1.353-.43,1.56" transform="translate(-470.75 -80.358)" fill="#8f5d5e"/>
    <path id="Trazado_876793" data-name="Trazado 876793" d="M398.669,86.26a4.283,4.283,0,0,0-7.206-3.082c-.781.692.367,1.833,1.144,1.144a2.643,2.643,0,0,1,4.444,1.937c.033,1.038,1.651,1.043,1.618,0" transform="translate(-272.516 -57.144)" fill="#8f5d5e"/>
    <path id="Trazado_876794" data-name="Trazado 876794" d="M400.425,96.191c-.369-.325-.169-.737.3-.7a.816.816,0,0,0,.809-.809.825.825,0,0,0-.809-.809,1.978,1.978,0,0,0-1.449,3.464c.779.686,1.927-.454,1.144-1.144" transform="translate(-277.675 -65.388)" fill="#8f5d5e"/>
    <path id="Trazado_876795" data-name="Trazado 876795" d="M557.523,275.147a131.163,131.163,0,0,0-36.2.055c-11.271,1.565-22.56,4.526-32.614,9.966-.916.5-.1,1.893.817,1.4,9.73-5.265,20.662-8.144,31.563-9.709a128.6,128.6,0,0,1,36-.149c1.018.143,1.459-1.416.43-1.56" transform="translate(-340.16 -190.815)" fill="#8f5d5e"/>
    <path id="Trazado_876796" data-name="Trazado 876796" d="M640.905,232.326c-6.966,1.433-13.43,4.591-19.507,8.206a.81.81,0,0,0,.816,1.4c5.967-3.55,12.279-6.635,19.12-8.043,1.019-.21.588-1.77-.43-1.56" transform="translate(-432.603 -161.827)" fill="#8f5d5e"/>
  </g>
</svg>
