<svg xmlns="http://www.w3.org/2000/svg" xmlns:xlink="http://www.w3.org/1999/xlink" width="295" height="166.086" viewBox="0 0 295 166.086">
  <defs>
    <clipPath id="clip-path">
      <rect id="Rect치ngulo_401376" data-name="Rect치ngulo 401376" width="294.933" height="166.086" fill="none"/>
    </clipPath>
    <clipPath id="clip-path-2">
      <path id="Trazado_876040" data-name="Trazado 876040" d="M744.687,859.453a4.054,4.054,0,0,0-1.517,1.822,4.594,4.594,0,0,0,.03,2.277l.49,1.285,2.978-.031,3.8,0,.48-1.194.112-.859a3.216,3.216,0,0,0-1-2.669,4.8,4.8,0,0,0-2-1.119,5.274,5.274,0,0,0-1.18-.143,4.145,4.145,0,0,0-2.2.632" transform="translate(-743.042 -858.821)" fill="none"/>
    </clipPath>
    <linearGradient id="linear-gradient" x1="-14.159" y1="4.167" x2="-14.14" y2="4.167" gradientUnits="objectBoundingBox">
      <stop offset="0" stop-color="#499531"/>
      <stop offset="1" stop-color="#29af52"/>
    </linearGradient>
  </defs>
  <g id="Grupo_1100807" data-name="Grupo 1100807" transform="translate(0 0.146)">
    <path id="Trazado_875953" data-name="Trazado 875953" d="M0,0V165.978H295V0Z" transform="translate(0 -0.037)" fill="#f08c32"/>
    <g id="Grupo_1100802" data-name="Grupo 1100802" transform="translate(0.067 -0.146)">
      <g id="Grupo_1100801" data-name="Grupo 1100801" clip-path="url(#clip-path)">
        <path id="Trazado_875954" data-name="Trazado 875954" d="M1316.8,753.907a1.312,1.312,0,0,1,.976.066c.417.283.431.567.537,1.015a1.223,1.223,0,0,1-.61.884,1.462,1.462,0,0,1-1.152-.184,1.192,1.192,0,0,1-.344-.844c.041-.494.259-.63.593-.937" transform="translate(-1102.928 -631.548)" fill="#f6f6f7"/>
        <path id="Trazado_875955" data-name="Trazado 875955" d="M538.647,557.4a2.991,2.991,0,0,1,1.062-.052,1.651,1.651,0,0,1,.791.7,1.334,1.334,0,0,1,.119,1.156,1.526,1.526,0,0,1-.978.931,2.126,2.126,0,0,1-.509.057,1.523,1.523,0,0,1-1.119-.58,1.6,1.6,0,0,1-.3-1.278,1.88,1.88,0,0,1,.933-.937" transform="translate(-450.613 -466.881)" fill="#f6f6f7"/>
        <path id="Trazado_875956" data-name="Trazado 875956" d="M544,562.918a.836.836,0,0,1,.666.073l.136.359-.2.432-.3.081c-.349-.158-.349-.163-.508-.513Z" transform="translate(-455.716 -471.536)" fill="#f6c071"/>
        <path id="Trazado_875957" data-name="Trazado 875957" d="M1329.871,458.028a1.916,1.916,0,0,1,1.084.1,1.618,1.618,0,0,1,.814.846,1.886,1.886,0,0,1,.026,1.367,1.828,1.828,0,0,1-1.128.915,2.473,2.473,0,0,1-.989-.047,1.682,1.682,0,0,1-.966-.961,1.774,1.774,0,0,1,.011-1.366,1.717,1.717,0,0,1,1.147-.855" transform="translate(-1113.301 -383.647)" fill="#f6f6f7"/>
        <path id="Trazado_875958" data-name="Trazado 875958" d="M1335.783,464.742l.514-.114.36.258a.936.936,0,0,1-.216.819c-.355.107-.36.058-.677-.1-.185-.415-.136-.429.02-.865" transform="translate(-1119.22 -389.209)" fill="#f6c071"/>
        <path id="Trazado_875959" data-name="Trazado 875959" d="M1228.314,194.858a1.366,1.366,0,0,1,.716,0,1.839,1.839,0,0,1,1.188.9,1.8,1.8,0,0,1,.123,1.392,1.761,1.761,0,0,1-1.133,1.082,3.841,3.841,0,0,1-.94.007,1.742,1.742,0,0,1-1.141-.92,1.787,1.787,0,0,1-.127-1.354,2.137,2.137,0,0,1,1.313-1.1" transform="translate(-1028.12 -163.124)" fill="#f6f6f7"/>
        <path id="Trazado_875960" data-name="Trazado 875960" d="M1234.809,202.666l.4-.086c.334.17.335.17.473.518l-.29.432-.4.069a.675.675,0,0,1-.394-.573Z" transform="translate(-1034.544 -169.636)" fill="#f6c071"/>
        <path id="Trazado_875961" data-name="Trazado 875961" d="M1369.42,811.428l7.229-.026.018,2.725-2.23-.449a2.555,2.555,0,0,1-.974-.612,4.928,4.928,0,0,0-2.613-.39,7.5,7.5,0,0,1-1.43-1.248" transform="translate(-1147.52 -679.775)" fill="#e56552"/>
        <path id="Trazado_875962" data-name="Trazado 875962" d="M440.328,581.024l.182-5.8a10.335,10.335,0,0,1,.252-3.3l.36-.285c.308.067.381.06.55.355.405.7.458,7.737.47,9.015Z" transform="translate(-369.023 -478.881)" fill="#f6f6f7"/>
        <path id="Trazado_875963" data-name="Trazado 875963" d="M414.3,580.712l.159-5.933c.027-.947-.174-2.636.437-3.377l.383-.116a1.277,1.277,0,0,1,.564.98l.3,8.441Z" transform="translate(-347.212 -478.579)" fill="#f6f6f7"/>
        <path id="Trazado_875964" data-name="Trazado 875964" d="M387.827,580.8l.292-6.388a5.992,5.992,0,0,1,.412-2.787l.318-.208c.3.08.39.068.556.359.393.688.382,7.829.371,9.045Z" transform="translate(-325.032 -478.686)" fill="#f6f6f7"/>
        <path id="Trazado_875965" data-name="Trazado 875965" d="M415.519,686.057l1.375-.06.074,20.546a9.477,9.477,0,0,1-.358,1.2,1.723,1.723,0,0,1-1.111-.565Z" transform="translate(-348.218 -574.697)" fill="#f6f6f7"/>
        <path id="Trazado_875966" data-name="Trazado 875966" d="M487.107,741.322a16.724,16.724,0,0,1-3.472-4.475,7.266,7.266,0,0,1-.847-1.627,14.213,14.213,0,0,0,2.423,1.06c.962.29,1.964.421,2.916.749a8.119,8.119,0,0,1,5.235,5.356l-.918.467a8.215,8.215,0,0,1-5.336-1.53" transform="translate(-404.601 -615.941)" fill="#31aa5e"/>
        <path id="Trazado_875967" data-name="Trazado 875967" d="M1111.474,427.615c2.425-2.611,6.54-5.1,10.192-5.2a2.322,2.322,0,0,1,.781.123l.154.277a15.2,15.2,0,0,1-6.6,5.7c-.843.381-1.742.61-2.613.914-.541.029-1.169.162-1.6-.232l-.368-.374-5.252,2.683c-.681.362-1.407,1.127-2.165,1.24-.272-.223-.235-.3-.29-.633a15.436,15.436,0,0,1,2.786-1.987Z" transform="translate(-924.887 -353.839)" fill="#f6f6f7"/>
        <path id="Trazado_875968" data-name="Trazado 875968" d="M218.586,630.6a2.337,2.337,0,0,1-1.43-.446,16.227,16.227,0,0,1-.11-3.294,6.558,6.558,0,0,1,.166-2.172,2.492,2.492,0,0,1,.424-.349,9.9,9.9,0,0,1,2.248-.019,78.286,78.286,0,0,1,7.835,0,1.092,1.092,0,0,1,.482.213,2.8,2.8,0,0,1,.285.432,25.369,25.369,0,0,1,0,5,.792.792,0,0,1-.411.5,3.316,3.316,0,0,1-1.04.169Z" transform="translate(-181.908 -522.923)" fill="#2e2d49"/>
        <path id="Trazado_875969" data-name="Trazado 875969" d="M384.579,638.4a6.842,6.842,0,0,1-4.054-1.919c-2.112-2.128-1.977-4.413-1.931-7.181.324-.271,1.044-.154,1.48-.149l1.948.021h2.343l1.84-.005,2.379.016,1.814-.008h1.741c.04,2.564.212,5.095-1.725,7.108a6.575,6.575,0,0,1-4.46,2.057Z" transform="translate(-317.278 -527.042)" fill="#df4731"/>
        <path id="Trazado_875970" data-name="Trazado 875970" d="M421.572,777.508a10.7,10.7,0,0,1,5.876-6.109,9.188,9.188,0,0,1,7.616.253,13.663,13.663,0,0,1,3.19,2.977,11.723,11.723,0,0,0-2.956,6.895c-1.592-.066-13.638-.442-14.3-.967l.016-.659a3.186,3.186,0,0,1,.205-1.191,9.482,9.482,0,0,0,.358-1.2" transform="translate(-352.823 -645.663)" fill="#df4731"/>
        <path id="Trazado_875971" data-name="Trazado 875971" d="M471.78,780.709a6.606,6.606,0,0,1,3.019.633,1.433,1.433,0,0,1,.757,1.053l-.169.284a2.892,2.892,0,0,1-1.239.37l-1.575-.09a3.625,3.625,0,0,1-2.411-1,.82.82,0,0,1,.171-.788,3.42,3.42,0,0,1,1.446-.461" transform="translate(-393.997 -654.057)" fill="#eb8870"/>
        <path id="Trazado_875972" data-name="Trazado 875972" d="M192.456,439.806a9.509,9.509,0,0,1,5.982-4.168,9.731,9.731,0,0,1,7.761,1.6,9.34,9.34,0,0,1,3.687,5.905,9.469,9.469,0,0,1-1.563,7.06,9.661,9.661,0,0,1-3.062,2.819,9.261,9.261,0,0,1-2.269.96,9.833,9.833,0,0,1-7.585-1.1,9.562,9.562,0,0,1-4.368-6.081,9.436,9.436,0,0,1,1.417-7" transform="translate(-159.98 -364.729)" fill="#ef783d"/>
        <path id="Trazado_875973" data-name="Trazado 875973" d="M1577.16,570.4a38.929,38.929,0,0,1,2.35-10.169,47.969,47.969,0,0,1,4.266-9.466,15.367,15.367,0,0,1,2.567-3.4,5.967,5.967,0,0,1,4.208-1.634,4.165,4.165,0,0,1,2.955,1.612,6.667,6.667,0,0,1,1.253,5,28.489,28.489,0,0,1-2.211,7.854,43.484,43.484,0,0,1-4.8,9.282c-.626.873-1.413,1.513-2.084,2.323a9.267,9.267,0,0,1-4.592,2.022l-.255,0-.34-.143c-.932-.433-2.955-1.732-3.31-2.725Z" transform="translate(-1321.588 -457.165)" fill="#18845a"/>
        <path id="Trazado_875974" data-name="Trazado 875974" d="M1592.308,588.125,1590.87,582l.264-.2c.37.293.35.686.439,1.137l.589,2.99a3.709,3.709,0,0,0,.3,1.083c.579-1.256.9-2.625,1.386-3.92l1.034-2.673a4.15,4.15,0,0,0,.345-1.07,7.008,7.008,0,0,0-.361-1.256c-.24-.945-1.491-5.463-1.209-6.088l.243.055,1.595,6.881,1.866-5.26a9.157,9.157,0,0,0,.666-1.969,8.256,8.256,0,0,0-.28-1.489l-.814-3.933a5.7,5.7,0,0,1-.266-1.453c.028-.07.127-.083.19-.125.583.482,1.183,5.259,1.428,6.406a36.679,36.679,0,0,0,2.34-6.227,11.856,11.856,0,0,1,.81-2.105l.177.27-2.879,8.264,3.926-3.246.222.085c-.219,1.051-3.537,2.9-4.386,3.77-.457.468-2.273,5.835-2.533,6.752l2.953-2.417a7.26,7.26,0,0,1,1.368-1.031l.131.287a5.045,5.045,0,0,1-1.2,1.144l-2.5,2a4.767,4.767,0,0,0-1.032.919,9.458,9.458,0,0,0-.726,1.814l-1.616,4.656a22.085,22.085,0,0,1,3.344-2.587l.058.263-2.349,1.89c-.582.45-1.2.777-1.483,1.5a5.4,5.4,0,0,0-.344,1.012Z" transform="translate(-1333.076 -471.451)" fill="#155827"/>
        <path id="Trazado_875975" data-name="Trazado 875975" d="M1343.727,580.423l-2.016-1.643a59.73,59.73,0,0,1-6.978-8.064,28.391,28.391,0,0,1-3.333-5,7.794,7.794,0,0,1-.78-3.147,5.921,5.921,0,0,1,5.754-6.037c3.112-.018,6.15,1.754,8.608,3.506a20.373,20.373,0,0,1,2.5,1.964l3.681,3.4-.107,4.677-.133.054c.032,2.54.026,5.106.29,7.632a13.292,13.292,0,0,0,.89,4.178c.183.4.352.766.572,1.15l-.18.323-1.691-.31a21.428,21.428,0,0,1-7.08-2.685" transform="translate(-1115.009 -466.214)" fill="#42b57f"/>
        <path id="Trazado_875976" data-name="Trazado 875976" d="M1379.993,607.25l-.953-4.634a7.725,7.725,0,0,0-.327-1.638c-.2-.409-.775-.138-1.165-.3-.259-.11-.469-.013-.718-.077-.948-.244-1.929-.323-2.88-.561-.178-.045-.4.03-.577-.017-.778-.2-1.968-.093-2.592-.56l.071-.2a2.038,2.038,0,0,1,.8.1,4.183,4.183,0,0,0,.992.122l2.2.37a8.237,8.237,0,0,1,1.4.205c.313.109.606.063.877.162.373.135.7.05,1.062.151l.081.029c-.786-.992-1.728-1.931-2.449-2.954-.225-.32-.632-.542-.854-.864-.339-.494-.815-.828-1.148-1.3a9.013,9.013,0,0,0-1.684-1.8c-.423-.332-.759-.148-1.212-.506l.143-.143h.5l.075-.145-6.2-7.06.287-.287a.71.71,0,0,1,.143.143,14.657,14.657,0,0,0,1.684,2.124,8.582,8.582,0,0,1,.907.9c.339.492.822.829,1.148,1.3a17.833,17.833,0,0,0,2.167,2.449c.013-.506-.109-.926-.13-1.379a7.052,7.052,0,0,0-.138-1.935,3.936,3.936,0,0,1,.125-1.872c.279.279.041.534.142.863a15.857,15.857,0,0,1,.281,3.664c.008.177.131.3.141.481a5.115,5.115,0,0,0,.01.9,8.436,8.436,0,0,0,1.1,1.091l5.386,6.113.055-.384-.207-4.088c-.159-1.649-.482-3.275-.79-4.9l-.653-2.94a8.512,8.512,0,0,1-.434-1.724l3.681,3.4-.107,4.677-.133.054c.033,2.54.026,5.106.29,7.632a13.293,13.293,0,0,0,.89,4.178c.183.4.352.766.572,1.15l-.18.323Z" transform="translate(-1144.194 -490.357)" fill="#31aa5e"/>
        <path id="Trazado_875977" data-name="Trazado 875977" d="M1433.636,701.559l1.764-4.794c.593.065,2.551.47,2.943.191l.01.569c.355.993,2.378,2.292,3.31,2.725l.34.143.254,0a9.267,9.267,0,0,0,4.592-2.022c.3,2.191-.053,4.461.1,6.663l.031,1.121,0,1.79,0,1.506-1.446.571a36.981,36.981,0,0,1-8.125,1.638,69.4,69.4,0,0,1-17.661-.326,27.856,27.856,0,0,1-8.015-2.131l-.027-1.6a6.535,6.535,0,0,1-.1-1.629l-.005-1.682-.117-6.361a21.428,21.428,0,0,0,7.08,2.685l1.691.31a23.594,23.594,0,0,0,3,.353,64.581,64.581,0,0,0,10.38.283" transform="translate(-1182.771 -583.72)" fill="#f6f6f7"/>
        <path id="Trazado_875978" data-name="Trazado 875978" d="M1548.12,701.559l1.764-4.794c.593.065,2.551.47,2.943.191l.01.569c.355.993,2.378,2.292,3.31,2.725l.34.143.255,0a10.982,10.982,0,0,1-2.354.507,37.637,37.637,0,0,1-4.59.563Z" transform="translate(-1297.255 -583.72)" fill="#9b8e92"/>
        <path id="Trazado_875979" data-name="Trazado 875979" d="M1548.12,701.559l1.764-4.794c.593.065,2.551.47,2.943.191l.01.569c-1.094.656-2.8,1.833-3.14,3.119a2.2,2.2,0,0,0-.057.634l.157.181Z" transform="translate(-1297.255 -583.72)" fill="#c7a495"/>
        <path id="Trazado_875980" data-name="Trazado 875980" d="M1412.21,743.185c4.252,2.184,8.934,2.856,13.659,3.12a68.237,68.237,0,0,0,11.011-.135,72.108,72.108,0,0,0,8.447-1.521,17.025,17.025,0,0,1,2.229-.722l.031,1.121v1.79l0,1.506-1.446.571a36.978,36.978,0,0,1-8.126,1.638,69.409,69.409,0,0,1-17.661-.325,27.859,27.859,0,0,1-8.015-2.131l-.027-1.6a6.535,6.535,0,0,1-.1-1.629Z" transform="translate(-1183.375 -622.616)" fill="#f6f6f7"/>
        <path id="Trazado_875981" data-name="Trazado 875981" d="M1412.21,743.185c4.252,2.184,8.934,2.856,13.659,3.12a68.237,68.237,0,0,0,11.011-.135,72.108,72.108,0,0,0,8.447-1.521,17.025,17.025,0,0,1,2.229-.722l.031,1.121-2.708,1.081-.22.093a30.675,30.675,0,0,1-7.375,1.42,69.22,69.22,0,0,1-11.63.142c-4.536-.294-9.3-.947-13.437-2.918Z" transform="translate(-1183.375 -622.616)" fill="#42b57f"/>
        <path id="Trazado_875982" data-name="Trazado 875982" d="M1616.428,747.766l.031,1.121-2.709,1.081a11.378,11.378,0,0,1,1.814-1.083,1.474,1.474,0,0,1-.126-.387l-.016-.117a2.282,2.282,0,0,1-1.12.125l-.1-.017a17.067,17.067,0,0,1,2.229-.722" transform="translate(-1352.247 -626.454)" fill="#87d486"/>
        <path id="Trazado_875983" data-name="Trazado 875983" d="M1412.888,765.215l-.028-1.6c3.467,1.863,7.8,2.336,11.666,2.632,7.369.565,15.021.4,22.161-1.719l1.446-.571,0,1.506-1.446.571a36.972,36.972,0,0,1-8.125,1.638,69.409,69.409,0,0,1-17.661-.325,27.855,27.855,0,0,1-8.015-2.131" transform="translate(-1183.919 -639.734)" fill="#42b57f"/>
        <path id="Trazado_875984" data-name="Trazado 875984" d="M1456.14,473.625c.426-4.181.84-8.322,1.632-12.453.853-4.432,2.078-9.556,5.728-12.547a7.2,7.2,0,0,1,10.284,1.195,10.932,10.932,0,0,1,1.569,3.172c1.6,4.745.856,10.46.318,15.353l-.81,7.033-2.25,12.1-1.764,4.794a64.578,64.578,0,0,1-10.38-.284,23.565,23.565,0,0,1-3-.353l.18-.323c-.221-.384-.389-.753-.572-1.15a13.293,13.293,0,0,1-.89-4.178c-.264-2.526-.258-5.092-.29-7.632l.133-.054Z" transform="translate(-1219.983 -374.436)" fill="#42b57f"/>
        <path id="Trazado_875985" data-name="Trazado 875985" d="M196.547,663.638l8.447.041.033,4.936a9.579,9.579,0,0,1,5.224,5.444c.8,2.128.537,4.6.535,6.84l-.023,7.328-.1,11.315v3.777a9.323,9.323,0,0,1-.062,1.951,3.693,3.693,0,0,1-1.1,1.75,7.238,7.238,0,0,1-1.134.9l-.388.049-4.617.048a7.016,7.016,0,0,0-1.566.023l-7.332.014-1.386-.121a4.409,4.409,0,0,1-1.175-.792,3.724,3.724,0,0,1-.987-1.73,28.689,28.689,0,0,1-.126-5.611l.006-11.51-.009-7.356c0-2.256-.215-4.691.578-6.838a9.518,9.518,0,0,1,5.19-5.466Z" transform="translate(-159.869 -555.962)" fill="#42b57f"/>
        <path id="Trazado_875986" data-name="Trazado 875986" d="M212.4,754.547a38.7,38.7,0,0,1,6.035.037,1.061,1.061,0,0,1,.627.332,1.53,1.53,0,0,1,.529,1.284l.031,11.69a61.167,61.167,0,0,1-.051,7.168,1.414,1.414,0,0,1-.448.934,1.571,1.571,0,0,1-.783.439,12.437,12.437,0,0,1-2.371.045l-5.391-.019c-1.277.011-5.679.391-6.486-.41-.579-.574-.506-1.711-.514-2.486l.023-13.129a31.307,31.307,0,0,1,.1-4.826,1.306,1.306,0,0,1,.442-.661c.575-.576,1.795-.391,2.572-.393Z" transform="translate(-170.631 -632.044)" fill="#a9d6b1"/>
        <path id="Trazado_875987" data-name="Trazado 875987" d="M336.565,227.773a15.889,15.889,0,0,1,8.2,1.718,15.218,15.218,0,0,1,7.521,9.262,10.3,10.3,0,0,1,4.218-1.187,8.241,8.241,0,0,1,5.923,2.176,8.578,8.578,0,0,1,2.827,6.273,8.67,8.67,0,0,1-2.538,6.149c-2.7,2.7-5.831,2.487-9.345,2.476l-12.69.012a39,39,0,0,1-7.4-.2,12.306,12.306,0,0,1-5.042-2.356,13.535,13.535,0,0,1-5.131-8.571,14.04,14.04,0,0,1,2.824-10.259c2.732-3.438,6.344-5.018,10.628-5.491" transform="translate(-270.724 -190.724)" fill="#f6f6f7"/>
        <path id="Trazado_875988" data-name="Trazado 875988" d="M1227.452,195.542l1.086-.065a15.15,15.15,0,0,1,11.391,4.367,13.753,13.753,0,0,1,4.276,9.893,13.547,13.547,0,0,1-3.9,9.893,13.4,13.4,0,0,1-6.206,3.455c-2.7.665-5.85.312-8.628.3l-10.792.012c-3.532,0-7.573.522-10.743-1.281a9.461,9.461,0,0,1-4.213-5.946,8.476,8.476,0,0,1,1.187-6.384,8.947,8.947,0,0,1,5.467-3.941c2.974-.68,5.352.208,7.85,1.745a10.757,10.757,0,0,0,.686-2.05,14.708,14.708,0,0,1,2.034-3.753,15.721,15.721,0,0,1,10.508-6.248" transform="translate(-1005.148 -163.683)" fill="#f6f6f7"/>
        <path id="Trazado_875989" data-name="Trazado 875989" d="M339.992,775.8a11.32,11.32,0,0,1,8.662.427,13.185,13.185,0,0,1,6.177,6.1,12.067,12.067,0,0,0,.661,1.623c.94-.027,2.994-.141,3.707.542.26.249.246.345.269.681a14.036,14.036,0,0,1-4.889,10.146,13.839,13.839,0,0,1-6.34,3.075l.037,2.983-23.2.086-.041-.076-25.4-.048a7.237,7.237,0,0,0,1.134-.9,3.693,3.693,0,0,0,1.1-1.75,9.321,9.321,0,0,0,.062-1.951v-3.777l.1-11.316c1.65,0,16.018-.083,16.163,0a1.319,1.319,0,0,1,.223.213,1.722,1.722,0,0,0,1.111.565,3.187,3.187,0,0,0-.205,1.191l-.016.659c.666.525,12.712.9,14.3.967a11.723,11.723,0,0,1,2.956-6.895l2.41-2.055.918-.467Z" transform="translate(-251.134 -649.388)" fill="#75a7d5"/>
        <path id="Trazado_875990" data-name="Trazado 875990" d="M456.3,918.679c3.586,1.021,7.522.67,11.208.686,3.835.016,8.325.517,12-.726l.037,2.983-23.2.086-.041-.076Z" transform="translate(-382.408 -769.631)" fill="#506da5"/>
        <path id="Trazado_875991" data-name="Trazado 875991" d="M385.22,828.141a1.633,1.633,0,0,1,.126-.625c.165-.3.641-.438.958-.525.909-.25,3.969-.726,4.731-.319l-.016.659c.666.525,12.712.9,14.3.967a113.087,113.087,0,0,0,14.283-.127l4.891-.307a10.439,10.439,0,0,0,2.3-.318c.273-.095.288-.291.407-.543.94-.027,2.994-.141,3.707.542.26.249.246.345.269.681a4.574,4.574,0,0,1-.819.294,66.7,66.7,0,0,1-11.217,1.393,173.086,173.086,0,0,1-26.576-.49l-4.177-.427a7.79,7.79,0,0,1-3.172-.853" transform="translate(-322.847 -692.437)" fill="#84bae3"/>
        <path id="Trazado_875992" data-name="Trazado 875992" d="M515.628,775.8a11.32,11.32,0,0,1,8.662.427,13.185,13.185,0,0,1,6.176,6.1,12.055,12.055,0,0,0,.661,1.623c-.119.253-.133.449-.406.543a10.436,10.436,0,0,1-2.3.318l-4.891.307a113.087,113.087,0,0,1-14.283.127,11.723,11.723,0,0,1,2.956-6.895l2.41-2.055.918-.467Z" transform="translate(-426.77 -649.388)" fill="#fdc82d"/>
        <path id="Trazado_875993" data-name="Trazado 875993" d="M548.265,780.6a4.572,4.572,0,0,1,2.811.468.919.919,0,0,1,.484.711,3.748,3.748,0,0,1-2.548.924c-.771.049-2.561.215-3.19-.22-.293-.2-.274-.3-.327-.632l.128-.176a4,4,0,0,1,2.642-1.076" transform="translate(-457.144 -653.945)" fill="#f4e7c0"/>
        <path id="Trazado_875994" data-name="Trazado 875994" d="M302.029,815.152c1.65,0,16.018-.083,16.163,0a1.317,1.317,0,0,1,.223.213,1.722,1.722,0,0,0,1.111.565,3.187,3.187,0,0,0-.205,1.191c-.762-.406-3.822.069-4.731.319-.317.087-.793.228-.958.525a1.632,1.632,0,0,0-.126.626,28.5,28.5,0,0,0,.611,3.184,14.742,14.742,0,0,0,5.456,7.7,15.2,15.2,0,0,0,5.455,2.463l0,2.953-25.4-.048a7.241,7.241,0,0,0,1.134-.9,3.693,3.693,0,0,0,1.1-1.75,9.321,9.321,0,0,0,.062-1.951v-3.777Z" transform="translate(-251.134 -682.888)" fill="#e56552"/>
        <path id="Trazado_875995" data-name="Trazado 875995" d="M596.521,398.47c3.969,4.762,9.4,9.247,15.835,9.823l1.9.173.135.015L614.371,415l4.511.469,3.386,1.864-5.977,10.108L608.637,440.2l-3.74,6.2a32.634,32.634,0,0,1-1.958,3.2,10.255,10.255,0,0,1-2.274-2.448l-17.39,15.5,3.819,4.1-8.533-.049-15.1.011a13.186,13.186,0,0,0-6.177-6.1,11.32,11.32,0,0,0-8.662-.427,59.387,59.387,0,0,1,3.163-14.541c3.9-10.729,11.515-20.912,22.033-25.841v-.012a25.46,25.46,0,0,1,4.847-2.145,54.893,54.893,0,0,1,14.931-2.654l2.958-.025.042-14.684-.1-.13a6.4,6.4,0,0,0,.027-1.685" transform="translate(-459.761 -333.775)" fill="#42b57f"/>
        <path id="Trazado_875996" data-name="Trazado 875996" d="M754.523,573.627c-.74-.346-1.483-.7-2.255-.977a8.175,8.175,0,0,1-1.986-.737l.072-.3.249-.132a15.757,15.757,0,0,1,4.236,1.7,24.538,24.538,0,0,1,5.529,4.088c2.677,2.6,4.93,5.968,7.157,8.96,1.167,1.568,2.855,3.323,3.477,5.189a7.138,7.138,0,0,1-2.042-2.228l-2.6-3.505c-1.654-2.211-3.343-4.568-5.181-6.621a30.164,30.164,0,0,0-6.655-5.437" transform="translate(-628.737 -478.739)" fill="#18845a"/>
        <path id="Trazado_875997" data-name="Trazado 875997" d="M829.021,398.47c3.969,4.762,9.4,9.247,15.835,9.823l1.9.173.135.015L846.871,415l4.511.469a12.449,12.449,0,0,1-2.093,7.51,11.263,11.263,0,0,1-7.59,4.492,13.564,13.564,0,0,1-9.717-2.607,14.761,14.761,0,0,1-5.888-9.875l2.958-.025.042-14.684-.1-.13a6.4,6.4,0,0,0,.027-1.685" transform="translate(-692.261 -333.775)" fill="#e56552"/>
        <path id="Trazado_875998" data-name="Trazado 875998" d="M844.013,398.47c3.969,4.762,9.4,9.247,15.835,9.823l1.9.173.048,5.942a18.139,18.139,0,0,1-7.118-2.072,23.579,23.579,0,0,1-8.224-7.584,16.441,16.441,0,0,1-2.371-4.466l-.1-.13a6.391,6.391,0,0,0,.027-1.685" transform="translate(-707.253 -333.775)" fill="#df4731"/>
        <path id="Trazado_875999" data-name="Trazado 875999" d="M548.619,570.479a59.387,59.387,0,0,1,3.163-14.541c3.9-10.729,11.515-20.912,22.033-25.841l-.07.085c-.785.935-1.94,1.6-2.795,2.512a16.694,16.694,0,0,0-4.262,12.994,25.133,25.133,0,0,0,2.2,8.2c.383.871.909,1.728,1.218,2.621a99.5,99.5,0,0,0,10.272,15.5,9.979,9.979,0,0,0,1.79,2.043l1.11-1.113,3.819,4.1L578.561,577l-15.1.011a13.186,13.186,0,0,0-6.177-6.1,11.32,11.32,0,0,0-8.662-.427" transform="translate(-459.761 -444.067)" fill="#1aa27b"/>
        <path id="Trazado_876000" data-name="Trazado 876000" d="M689.316,713.553a5,5,0,0,1,.4-1.081,26.826,26.826,0,0,1-3.322-3.5,27.2,27.2,0,0,1-5.321-12.328,12.671,12.671,0,0,1-.22-3.58,99.5,99.5,0,0,0,10.272,15.5,9.977,9.977,0,0,0,1.79,2.043l1.11-1.113,3.819,4.1Z" transform="translate(-570.516 -580.622)" fill="#18845a"/>
        <path id="Trazado_876001" data-name="Trazado 876001" d="M731.073,148.589c-2.755.361-5.915,1.217-8.411-.522a6.879,6.879,0,0,1-2.717-4.953,10.923,10.923,0,0,1-5.5-.957,5.448,5.448,0,0,1-2.583-3.486,7.7,7.7,0,0,1,1-6.23,8.457,8.457,0,0,1-3.247-4.543,7.749,7.749,0,0,1,.576-6.189c1.31-2.371,3.255-3.334,5.733-4.033l-.5-1.668a9.987,9.987,0,0,1,1.06-7.828,8.544,8.544,0,0,1,5.612-3.958c2.3-.537,4.25.223,6.176,1.412a10.119,10.119,0,0,1,3.376-4.962,10.868,10.868,0,0,1,8.03-2.368,11.511,11.511,0,0,1,7.831,4.544,13.429,13.429,0,0,1,8.376-3.027,13.787,13.787,0,0,1,9.99,4.188,13.2,13.2,0,0,1,3.856,9.888c-.041,3.621-1.76,6.164-4.258,8.6a44.1,44.1,0,0,1,1.514,12.354,21.393,21.393,0,0,1-.11,3.519l-.165,2.487a31.676,31.676,0,0,1-1.078,4.432,18.175,18.175,0,0,1-6.881,8.744,16.79,16.79,0,0,1-9.785,2.88l-.135-.015-1.9-.173c-6.434-.576-11.867-5.061-15.835-9.823a6.394,6.394,0,0,1-.026,1.685" transform="translate(-594.34 -82.209)" fill="#2e2d49"/>
        <path id="Trazado_876002" data-name="Trazado 876002" d="M792.909,257.339l-2.334-3.352a8.007,8.007,0,0,0-1.175.341,4.763,4.763,0,0,1-1.788.044,5.466,5.466,0,0,1-3.623-2.328,5.782,5.782,0,0,1-.855-4.571,5.324,5.324,0,0,1,2.171-3.38,5.1,5.1,0,0,1,3.99-.726c1.449.321,2.4,1.671,3.138,2.852a8.942,8.942,0,0,0,3.652-2.4c3.554-3.585,3.642-9.076,3.626-13.783a22.884,22.884,0,0,0,13.2,6.4c5.022.616,10.338-.336,14.377-3.5a44.1,44.1,0,0,1,1.514,12.354,21.386,21.386,0,0,1-.11,3.519l-.165,2.487a31.684,31.684,0,0,1-1.078,4.432,18.175,18.175,0,0,1-6.881,8.744,16.79,16.79,0,0,1-9.785,2.88l-.135-.015-1.9-.173c-6.434-.576-11.867-5.061-15.835-9.823" transform="translate(-656.149 -192.643)" fill="#eb8870"/>
        <path id="Trazado_876003" data-name="Trazado 876003" d="M959.509,370.219c.471-.024.879.742,1.316,1.014a3.673,3.673,0,0,0,1.669.489c1.27.056,1.917-.645,2.779-1.436l.216.144-.049.365a3.718,3.718,0,0,1-.818.9,3.819,3.819,0,0,1-2.762.577,3.3,3.3,0,0,1-2.25-1.423c-.192-.277-.163-.3-.1-.625" transform="translate(-804.013 -310.103)" fill="#482b45"/>
        <path id="Trazado_876004" data-name="Trazado 876004" d="M983.468,323.846l.214-.03c.513.373.3,2.021.662,2.685.293.535,1.139.875,1.576,1.325a1.193,1.193,0,0,1,.417,1.063l-.394.313a4.874,4.874,0,0,1-3.246.192c-.306-.136-.308-.157-.464-.433l.248-.269.821.187a3.017,3.017,0,0,0,2.315-.222l-.039-.3-1.692-1.322c-.223-.843-.726-2.364-.418-3.191" transform="translate(-823.092 -271.221)" fill="#482b45"/>
        <path id="Trazado_876005" data-name="Trazado 876005" d="M932.908,325.069a1.716,1.716,0,0,1,.746-1.236,1.537,1.537,0,0,1,1.087-.149,2.209,2.209,0,0,1,.94,1.588,2.108,2.108,0,0,1-.365,1.465,2.223,2.223,0,0,1-.9.591l-.264-.072a1.427,1.427,0,0,1-.711-.358,2.447,2.447,0,0,1-.53-1.829" transform="translate(-781.762 -271.088)" fill="#15161c"/>
        <path id="Trazado_876006" data-name="Trazado 876006" d="M1022.879,327.3l-.274-.05a1.425,1.425,0,0,1-1-.724,2.474,2.474,0,0,1-.112-1.784,1.694,1.694,0,0,1,.99-1.151c.392-.007.7-.081,1.031.168a2.4,2.4,0,0,1,.739,1.77,2.51,2.51,0,0,1-.929,1.578Z" transform="translate(-855.895 -271.016)" fill="#15161c"/>
        <path id="Trazado_876007" data-name="Trazado 876007" d="M921.272,288.21a2.024,2.024,0,0,1,.981.23,1.536,1.536,0,0,1,.657.979,1,1,0,0,1-.133.753c-.583.911-2.508.987-3.516,1.141l-.524.021a1.272,1.272,0,0,1-1.022-.438,1.347,1.347,0,0,1-.058-1.063,5.645,5.645,0,0,1,3.615-1.623" transform="translate(-768.913 -241.386)" fill="#2e2d49"/>
        <path id="Trazado_876008" data-name="Trazado 876008" d="M1016.18,288.269l.193-.029a5.75,5.75,0,0,1,3.564,1.311,1.261,1.261,0,0,1,.457,1.1,1.462,1.462,0,0,1-.838.761,12.023,12.023,0,0,1-3.441-.514,1.538,1.538,0,0,1-1.032-.823,1.149,1.149,0,0,1,.036-1.009,1.556,1.556,0,0,1,1.062-.792" transform="translate(-850.533 -241.408)" fill="#2e2d49"/>
        <path id="Trazado_876009" data-name="Trazado 876009" d="M1031.99,333.8a2.715,2.715,0,0,1,2.342-.148,3.8,3.8,0,0,1,1.84,1.8l-.165,2.487-.133.145a2.887,2.887,0,0,1-4.478.362c-.874-.884-.776-1.712-.781-2.878l.447-.193a2.51,2.51,0,0,0,.929-1.578" transform="translate(-863.63 -279.289)" fill="#df4731"/>
        <path id="Trazado_876010" data-name="Trazado 876010" d="M905.585,332.186c-.5.379-.326,1.488-.613,2.147a3.644,3.644,0,0,1-1.834,1.692,3.944,3.944,0,0,1-2.765-.178,3.524,3.524,0,0,1-1.7-1.923,3.562,3.562,0,0,1,.188-2.621,3.088,3.088,0,0,1,2-1.721,3.553,3.553,0,0,1,2.97.589l.256-.244a2.448,2.448,0,0,0,.53,1.828,1.427,1.427,0,0,0,.711.358Z" transform="translate(-752.934 -275.945)" fill="#e56552"/>
        <path id="Trazado_876011" data-name="Trazado 876011" d="M664.9,439.321c.515-1.326.678-2.906,1.1-4.287a17.947,17.947,0,0,1,4.394-6.8,22.682,22.682,0,0,1,2.444-2.393,5.771,5.771,0,0,1,1.193-.805c.5-.046,1.162.354,1.655.3.666-.074.879-.889,1.8-.553.6.218.794.851,1.431.924a2.806,2.806,0,0,1,.882-.453,2.3,2.3,0,0,1,1.71.54,33.405,33.405,0,0,1,5.281,2.5,17.18,17.18,0,0,0,2.185,1.236l-4.968,2.508a15.43,15.43,0,0,0-2.786,1.987c.055.337.018.41.29.633.759-.113,1.485-.877,2.165-1.24l5.252-2.683.368.374c.428.394,1.055.261,1.6.232a26.543,26.543,0,0,1,3.563,7.667l11.591,28.635,2.976,7.35c.449,1.109.986,2.19,1.337,3.335a18.852,18.852,0,0,1,.705,4.332,9.421,9.421,0,0,1,3.127,1.461l.585.264a4.8,4.8,0,0,1,2.328-1.695c1.25-.334,2.243.266,3.289.835a2.306,2.306,0,0,1,1.274,1.185.828.828,0,0,1,.039.182l.209,1.474c.66.239,1.689.409,2.146.966l.227.073a7.5,7.5,0,0,0,1.43,1.248,4.929,4.929,0,0,1,2.613.39,2.554,2.554,0,0,0,.974.612l2.23.449c1.626.352,5.94,1.191,6.83,2.621a1.548,1.548,0,0,1,.182.456c.454,1.509-.345,3.563-1.05,4.87-1.232,2.285-3.007,3.644-5.012,5.185a26.275,26.275,0,0,1-9.062,3.017,2.4,2.4,0,0,1-.742,1.342c-1.481.241-3.187.185-4.611.536a26.983,26.983,0,0,0-3.879-.037c-2.225,0-4.519-.111-6.736.07l-5.832-.6a47.447,47.447,0,0,1-5.746.039l-10.148,0-35.156.07-28.664.008-22.377.067-.037-2.983a13.838,13.838,0,0,0,6.34-3.075,14.036,14.036,0,0,0,4.889-10.146c-.023-.336-.009-.432-.269-.681-.713-.682-2.766-.568-3.707-.542a12.078,12.078,0,0,1-.661-1.623l15.1-.011,8.533.049-3.819-4.1,17.39-15.5a10.26,10.26,0,0,0,2.274,2.448,32.644,32.644,0,0,0,1.958-3.2l3.74-6.2,7.655-12.755Z" transform="translate(-502.397 -355.759)" fill="#e56552"/>
        <path id="Trazado_876012" data-name="Trazado 876012" d="M1135.97,836.59a.951.951,0,0,1,.2-.633c1.214-1.345,8.211-1.837,10.051-1.924l.227.244a3.764,3.764,0,0,0-2.595,1.683,5.584,5.584,0,0,0-.357,2.491c-2.242-.306-5.723-.42-7.531-1.862" transform="translate(-951.91 -698.738)" fill="#506da5"/>
        <path id="Trazado_876013" data-name="Trazado 876013" d="M1084.681,519.207a8.811,8.811,0,0,1,1.895,3.856l1.895,11.389c-2.234-2.4-4.391-5.344-7.061-7.262Z" transform="translate(-906.193 -434.942)" fill="#f6c071"/>
        <path id="Trazado_876014" data-name="Trazado 876014" d="M1124.63,739.959c.791,4.926,1.447,9.029,5.444,12.453l-9.735.006.2-6.335a7.36,7.36,0,0,1,1.186-1.956Z" transform="translate(-938.813 -619.912)" fill="#144d44"/>
        <path id="Trazado_876015" data-name="Trazado 876015" d="M1186.541,788.492a4.712,4.712,0,0,1,2.1-.978,1.735,1.735,0,0,0,.373-.091,1.946,1.946,0,0,0,.212-.108,7.082,7.082,0,0,0,.018-.792,3.969,3.969,0,0,1,.279-1.321,3.463,3.463,0,0,1,1.746-1.7,3.289,3.289,0,0,1,2.529-.147,3.618,3.618,0,0,1,1.857,2.1,4.353,4.353,0,0,1-.3,1.372c-1.441.943-2.705,1.514-3.094,3.393l-.214.912c-1.157.7-2.593,1.463-2.939,2.893-.186.774-.319,1.493-.567,2.255l-6.107-.455a5.583,5.583,0,0,1,.357-2.491,3.764,3.764,0,0,1,2.595-1.683c.405-.589-.151-1.646.415-2.3Z" transform="translate(-990.839 -656.11)" fill="#f59f43"/>
        <path id="Trazado_876016" data-name="Trazado 876016" d="M1231.088,782.283a9.42,9.42,0,0,1,3.127,1.461,2.944,2.944,0,0,0-.251,1.792c0,.038.008.395,0,.409a11.609,11.609,0,0,1-1.19.507,4.694,4.694,0,0,0-1.115,1,3.891,3.891,0,0,0-.956,1.56c-.058.224-.12,1.358-.2,1.466a4.512,4.512,0,0,1-.75.456,5.478,5.478,0,0,0-1.862,1.728c-.434.775-.177,1.858-.656,2.777a1.014,1.014,0,0,0-.1.369,42.2,42.2,0,0,1-6.871-.257l-.148-.011c.248-.762.381-1.48.567-2.255.345-1.43,1.781-2.2,2.939-2.893l.214-.912c.389-1.879,1.653-2.45,3.094-3.393a4.352,4.352,0,0,0,.3-1.372,3.928,3.928,0,0,0,.982-.62l.053-.09a3.868,3.868,0,0,1,2.828-1.727" transform="translate(-1022.412 -655.376)" fill="#f59f43"/>
        <path id="Trazado_876017" data-name="Trazado 876017" d="M1228.206,793.493l-.037.154a10.373,10.373,0,0,0-.128,2.546,3.937,3.937,0,0,0-2.849,1.6,3.206,3.206,0,0,0-.323,2.1,3.2,3.2,0,0,1,0,.6c-.036.066-.235.116-.3.13a3.718,3.718,0,0,0-2.867,1.681l-.164,2.558a7.2,7.2,0,0,1-1.28.1l-.148-.011c.248-.762.381-1.48.567-2.255.345-1.43,1.781-2.2,2.939-2.893l.214-.912c.389-1.879,1.653-2.45,3.094-3.393a4.353,4.353,0,0,0,.3-1.372,3.928,3.928,0,0,0,.982-.62" transform="translate(-1022.412 -664.769)" fill="#ef783d"/>
        <path id="Trazado_876018" data-name="Trazado 876018" d="M1104.391,464.611l5.252-2.683.368.374c.428.394,1.055.261,1.6.232a26.544,26.544,0,0,1,3.563,7.667,15.977,15.977,0,0,1-3.939,1.738l-7.746,3.13a8.81,8.81,0,0,0-1.895-3.856,15.765,15.765,0,0,1,1.023-2.507Z" transform="translate(-923.102 -386.947)" fill="#df4731"/>
        <path id="Trazado_876019" data-name="Trazado 876019" d="M1071.891,568.459c2.67,1.917,4.827,4.862,7.061,7.262a32.614,32.614,0,0,1,1.044,5.487l2.5,15.049-2.906,4.169a7.361,7.361,0,0,0-1.186,1.956,60.654,60.654,0,0,0-4.419-22.178,30.7,30.7,0,0,0-3.931-7.369Z" transform="translate(-896.675 -476.211)" fill="#18845a"/>
        <path id="Trazado_876020" data-name="Trazado 876020" d="M986.765,595.457a30.707,30.707,0,0,1,3.931,7.369A60.654,60.654,0,0,1,995.114,625l-.2,6.335-24.256-.016c-.077-.694.535-1.546.849-2.193l2.979-5.988Z" transform="translate(-813.39 -498.833)" fill="#1aa27b"/>
        <path id="Trazado_876021" data-name="Trazado 876021" d="M1164.3,783.664a4.8,4.8,0,0,1,2.328-1.695c1.25-.334,2.243.266,3.289.835a2.306,2.306,0,0,1,1.274,1.185.832.832,0,0,1,.039.182l.209,1.474c.66.239,1.689.409,2.146.966l.227.073a7.507,7.507,0,0,0,1.43,1.248,4.928,4.928,0,0,1,2.613.39,2.555,2.555,0,0,0,.974.612l2.23.449c1.626.352,5.941,1.191,6.83,2.621a1.547,1.547,0,0,1,.182.456c.454,1.509-.345,3.563-1.05,4.87-1.232,2.285-3.007,3.644-5.012,5.185a26.272,26.272,0,0,1-9.062,3.017,2.4,2.4,0,0,1-.742,1.342c-1.482.241-3.187.185-4.611.536a26.968,26.968,0,0,0-3.879-.037c-2.225,0-4.519-.111-6.736.07l-5.832-.6a2.812,2.812,0,0,1-.786-1.209c-4.072-1.01-8.242-2.432-11.265-5.5a10.394,10.394,0,0,1-3.122-7.251c1.807,1.441,5.289,1.555,7.531,1.862l6.108.455.147.011a42.206,42.206,0,0,0,6.871.257,1.011,1.011,0,0,1,.1-.369c.48-.919.222-2,.656-2.777a5.48,5.48,0,0,1,1.862-1.728,4.513,4.513,0,0,0,.75-.456c.081-.108.143-1.242.2-1.466a3.9,3.9,0,0,1,.956-1.56,4.7,4.7,0,0,1,1.115-1,11.635,11.635,0,0,0,1.19-.507c.011-.015,0-.372,0-.409a2.945,2.945,0,0,1,.251-1.793Z" transform="translate(-951.908 -655.033)" fill="#84bae3"/>
        <path id="Trazado_876022" data-name="Trazado 876022" d="M1224.73,927.94a10.421,10.421,0,0,1,1.83.2l3.286.342,8.886.161a44.338,44.338,0,0,0,8.586-.812,2.4,2.4,0,0,1-.742,1.342c-1.482.241-3.187.185-4.611.536a26.966,26.966,0,0,0-3.879-.037c-2.225,0-4.519-.111-6.736.07l-5.832-.6a2.812,2.812,0,0,1-.786-1.209" transform="translate(-1026.283 -777.337)" fill="#506da5"/>
        <path id="Trazado_876023" data-name="Trazado 876023" d="M1400.37,825.443l2.23.449c1.626.352,5.941,1.191,6.831,2.621a1.551,1.551,0,0,1,.181.456,7.089,7.089,0,0,1-2.741,1.062c-1.634.394-3.329.708-4.994.939a7.454,7.454,0,0,0-.065-1.292c-.147-.794-.6-1.033-1.22-1.484a5.5,5.5,0,0,0-.222-2.751" transform="translate(-1173.454 -691.541)" fill="#506da5"/>
        <path id="Trazado_876024" data-name="Trazado 876024" d="M1360.187,819.262a4.929,4.929,0,0,1,2.613.39,2.554,2.554,0,0,0,.974.612,5.5,5.5,0,0,1,.222,2.751c.619.451,1.073.69,1.22,1.484a7.443,7.443,0,0,1,.065,1.292l-1.622.224-1.19.133-5.689.5a10.324,10.324,0,0,1,.011-2.716,4.2,4.2,0,0,1,3.028-1.846,8.046,8.046,0,0,0,.159-2.491l-.01-.068Z" transform="translate(-1136.858 -686.362)" fill="#f59f43"/>
        <path id="Trazado_876025" data-name="Trazado 876025" d="M1391.39,849.063l-.18-.123a3.157,3.157,0,0,0,.355-1.152l.078-.853.71-.325.193.081.034,2.239Z" transform="translate(-1165.778 -709.277)" fill="#ef783d"/>
        <path id="Trazado_876026" data-name="Trazado 876026" d="M1320.937,796.054l.209,1.474c.66.239,1.689.409,2.146.966l.227.073a7.5,7.5,0,0,0,1.43,1.248l-.219.266.01.068a8.034,8.034,0,0,1-.159,2.491,4.2,4.2,0,0,0-3.028,1.846,10.333,10.333,0,0,0-.011,2.716l-1.793.064-5.109.089c.183-.885-.092-1.845.057-2.719.12-.711,1.363-1.6,2.02-1.8.366-.109.754,0,1.071-.238l-.021-2.137a4.395,4.395,0,0,1,3.214-2.269Z" transform="translate(-1101.62 -666.915)" fill="#f59f43"/>
        <path id="Trazado_876027" data-name="Trazado 876027" d="M1349.7,811.109l.227.073a7.5,7.5,0,0,0,1.43,1.248l-.219.266.01.068a8.05,8.05,0,0,1-.159,2.491,4.2,4.2,0,0,0-3.028,1.846,10.322,10.322,0,0,0-.011,2.716l-1.793.064c.276-.377.736-.884.749-1.357.058-2.092,1-2.667,2.593-3.762a1.909,1.909,0,0,0,.744-.713c.449-1.068-.2-1.983-.543-2.942" transform="translate(-1128.031 -679.53)" fill="#ef783d"/>
        <path id="Trazado_876028" data-name="Trazado 876028" d="M1271.082,783.664a4.8,4.8,0,0,1,2.328-1.695c1.25-.334,2.243.266,3.289.835a2.306,2.306,0,0,1,1.274,1.185.825.825,0,0,1,.039.182l.044,2.141a4.395,4.395,0,0,0-3.214,2.269l.021,2.137c-.318.237-.7.129-1.071.238-.656.2-1.9,1.087-2.02,1.8-.149.874.126,1.834-.057,2.719l-1.639,0-5.159,0-1.506-.011a1.006,1.006,0,0,1,.1-.369c.48-.919.222-2,.656-2.777a5.478,5.478,0,0,1,1.862-1.728,4.508,4.508,0,0,0,.75-.456c.081-.108.143-1.242.2-1.466a3.893,3.893,0,0,1,.956-1.56,4.693,4.693,0,0,1,1.115-1,11.658,11.658,0,0,0,1.19-.507c.011-.015,0-.372,0-.409a2.946,2.946,0,0,1,.251-1.793Z" transform="translate(-1058.693 -655.033)" fill="#f59f43"/>
        <path id="Trazado_876029" data-name="Trazado 876029" d="M1270.5,791.294l.585.264.053,2.654a3.707,3.707,0,0,0-2.725,1.508,3.87,3.87,0,0,0-.357,2.748.712.712,0,0,1-.417.23,3.919,3.919,0,0,0-2.5,1.727,6.745,6.745,0,0,0-.224,2.948l-1.506-.011a1.006,1.006,0,0,1,.1-.369c.48-.919.222-2,.656-2.777a5.481,5.481,0,0,1,1.862-1.728,4.508,4.508,0,0,0,.75-.456c.081-.108.143-1.242.2-1.466a3.893,3.893,0,0,1,.956-1.56,4.7,4.7,0,0,1,1.115-1,11.673,11.673,0,0,0,1.19-.507c.011-.015,0-.372,0-.409a2.946,2.946,0,0,1,.251-1.792" transform="translate(-1058.693 -662.927)" fill="#ef783d"/>
        <path id="Trazado_876030" data-name="Trazado 876030" d="M1311.153,787.616a2.306,2.306,0,0,1,1.274,1.185.84.84,0,0,1,.039.182l.044,2.141a4.395,4.395,0,0,0-3.214,2.269l.021,2.137c-.318.237-.705.129-1.072.238-.656.2-1.9,1.087-2.02,1.8-.149.874.126,1.834-.057,2.719l-1.639,0a6.882,6.882,0,0,1,.533-.994,5.66,5.66,0,0,0,.2-1.858,6.248,6.248,0,0,1,1.336-1.556,15.794,15.794,0,0,0,1.53-.911,5.48,5.48,0,0,0,.219-1.246c.348-1.976,1.81-2.366,3.178-3.405.357-.943-.209-1.7-.355-2.611Z" transform="translate(-1093.148 -659.845)" fill="#ef783d"/>
        <path id="Trazado_876031" data-name="Trazado 876031" d="M633.026,787.653c3.987-3.658,8.551-6.363,14.139-6.214a18.971,18.971,0,0,1,12.346,5.726,11.388,11.388,0,0,1,2.706,2.609l1.179,1.548.59.317a3.316,3.316,0,0,1,1.869,2.023l.308.96c.859.227,1.725-.419,2.593.362a2.9,2.9,0,0,1,1.062,1.057,2.943,2.943,0,0,1-.614,2.326.618.618,0,0,1-.128.13,5.644,5.644,0,0,1,.31,1.649l3.879-.04a2.552,2.552,0,0,1,1.569.248c.2.387.186.382.065.8-.786.73-3.963.319-5.091.293a7.692,7.692,0,0,1-4.692,4.269l-1.65.35a3.891,3.891,0,0,1-1.137.222.711.711,0,0,0-.292.068,8.472,8.472,0,0,1-2.332.1c-1.056.011-8.9-.073-9.121.127l-28.664.008-22.377.067-.037-2.983a13.838,13.838,0,0,0,6.34-3.075,14.036,14.036,0,0,0,4.889-10.146c-.023-.336-.009-.432-.269-.681-.713-.682-2.766-.568-3.707-.542a12.078,12.078,0,0,1-.661-1.623l15.1-.011,8.533.049Z" transform="translate(-502.397 -654.664)" fill="#c1bcc7"/>
        <path id="Trazado_876032" data-name="Trazado 876032" d="M741.853,933.216l37.478.034a3.894,3.894,0,0,1-1.137.222.71.71,0,0,0-.292.068,8.469,8.469,0,0,1-2.332.1c-1.056.011-8.9-.073-9.121.127l-28.664.008c.161-.239,3.22.026,3.753-.19l.322-.126.146-.006Z" transform="translate(-618.265 -781.845)" fill="#e76864"/>
        <path id="Trazado_876033" data-name="Trazado 876033" d="M736.814,891.228a3.179,3.179,0,0,1,.533-.674c.5-.394,2.576-.233,3.236-.213l.359.515-.076.29a12.851,12.851,0,0,0,2.425.086H747.4l.04.141a8.323,8.323,0,0,0,1.387-.016l3.879-.04a2.552,2.552,0,0,1,1.569.248c.2.387.186.382.065.8-.786.73-3.963.319-5.091.293l-49.528-.142a33.2,33.2,0,0,1-4.874-.039,1.4,1.4,0,0,1-.534-.9l.253-.322a20.123,20.123,0,0,1,3.122-.077l5.173.029,2.978-.031,3.8,0,2.86.047a4.311,4.311,0,0,1,1.279.083,2.7,2.7,0,0,0,1.35-.028,6.739,6.739,0,0,1,1.772-.068l4.709,0,3.342.008.861.048Z" transform="translate(-581.837 -745.878)" fill="#f6f6f7"/>
        <path id="Trazado_876034" data-name="Trazado 876034" d="M956.539,891.228a3.179,3.179,0,0,1,.533-.674c.5-.394,2.576-.233,3.236-.213l.359.515-.076.29a12.852,12.852,0,0,0,2.425.086h4.106l.04.141Z" transform="translate(-801.562 -745.878)" fill="#a9d6b1"/>
        <path id="Trazado_876035" data-name="Trazado 876035" d="M905.674,842.441l.59.317a3.316,3.316,0,0,1,1.869,2.023l.308.96c.859.227,1.725-.419,2.593.362a2.9,2.9,0,0,1,1.062,1.057,2.943,2.943,0,0,1-.614,2.326.618.618,0,0,1-.128.13,5.644,5.644,0,0,1,.31,1.649,8.323,8.323,0,0,1-1.387.016l-.04-.141H906.13a12.841,12.841,0,0,1-2.425-.086l.076-.29-.359-.516c-.66-.021-2.737-.181-3.236.213a3.182,3.182,0,0,0-.533.674l-11,.03a4.423,4.423,0,0,1,.623-1.334,4.478,4.478,0,0,1,1.933-1.138,19.725,19.725,0,0,1,6.379-1.112c1.238-.04,2.488.058,3.72-.086l.159-.019a3.206,3.206,0,0,0,1.131-.395c.107-.122,0-1.649.051-1.952a3.025,3.025,0,0,1,.482-1.077,4.251,4.251,0,0,1,2.548-1.609" transform="translate(-744.676 -705.783)" fill="#31aa5e"/>
        <path id="Trazado_876036" data-name="Trazado 876036" d="M963.841,852.371a18.2,18.2,0,0,0,.084,2.988,6.03,6.03,0,0,1,2.227,1.733,7.957,7.957,0,0,1,2.5-2.554c-.146.888-1.548,1.658-2.039,2.458a6.348,6.348,0,0,1,.838-.577c.869-.444,2.2-1.687,3.234-1.443v.143a16.683,16.683,0,0,1-2.355,1.358c-.718.467-1.394.754-1.6,1.673a3.263,3.263,0,0,0-.015.977,6.69,6.69,0,0,0,4.723-2.04,2.265,2.265,0,0,0,.522-1.928,1.1,1.1,0,0,0-.243-.569l.036-.168a2.9,2.9,0,0,1,1.062,1.057,2.943,2.943,0,0,1-.614,2.326.618.618,0,0,1-.128.13,5.642,5.642,0,0,1,.31,1.649,8.324,8.324,0,0,1-1.388.016l-.04-.141h-4.106a12.845,12.845,0,0,1-2.425-.086l.076-.29-.359-.515c-.239-.31-.366-.68-.638-.979a4.881,4.881,0,0,0-2.39-1.243l.071-.215a.793.793,0,0,1,.588-.015l.131.027.31.067a4.29,4.29,0,0,1,2.5,2.382l.648.1.384-.3a2.056,2.056,0,0,0-.537-1.406,3.169,3.169,0,0,0-1.071-.982c-.2-.077-.5-.015-.72-.084a3.581,3.581,0,0,0-1.235-.123,3.2,3.2,0,0,0,1.131-.395c.107-.122,0-1.649.051-1.952a3.023,3.023,0,0,1,.482-1.076" transform="translate(-805.391 -714.104)" fill="#1aa27b"/>
        <path id="Trazado_876037" data-name="Trazado 876037" d="M1021.83,888.23l.019-.073.037-.12a2.346,2.346,0,0,1,1.062-1.331,5.642,5.642,0,0,1,.309,1.649,8.329,8.329,0,0,1-1.387.016Z" transform="translate(-856.27 -742.874)" fill="#c1bcc7"/>
        <path id="Trazado_876038" data-name="Trazado 876038" d="M901.461,873.482a3.578,3.578,0,0,1,1.235.123c.216.07.519.007.72.084a3.168,3.168,0,0,1,1.071.982,2.056,2.056,0,0,1,.537,1.406l-.384.3-.648-.1a4.29,4.29,0,0,0-2.5-2.382l-.31-.067-.13-.027a.793.793,0,0,0-.588.015l-.071.215a4.881,4.881,0,0,1,2.39,1.243c.272.3.4.67.638.979-.66-.021-2.737-.181-3.236.213a3.181,3.181,0,0,0-.533.674l-11,.03a4.423,4.423,0,0,1,.623-1.334A4.479,4.479,0,0,1,891.2,874.7a19.722,19.722,0,0,1,6.379-1.112c1.238-.04,2.488.058,3.72-.086Z" transform="translate(-744.676 -731.792)" fill="#31aa5e"/>
        <path id="Trazado_876039" data-name="Trazado 876039" d="M621.2,819.45l8.533.049,3.3.009-5.234,6.466a4.794,4.794,0,0,1,2,1.119,3.217,3.217,0,0,1,1,2.669l-.113.859-.48,1.194-3.8,0-2.978.031-5.173-.029a20.136,20.136,0,0,0-3.122.077l-.253.322a1.4,1.4,0,0,0,.534.9,33.213,33.213,0,0,0,4.874.039,6.706,6.706,0,0,0,5.708,4.729l.151.23-.146.007-.322.126c-.533.216-3.592-.048-3.753.19l-22.377.067-.037-2.983a13.839,13.839,0,0,0,6.34-3.075,14.036,14.036,0,0,0,4.889-10.146c-.023-.336-.009-.432-.269-.681-.713-.682-2.766-.568-3.707-.542a12.075,12.075,0,0,1-.661-1.623Z" transform="translate(-502.397 -686.519)" fill="#e56552"/>
      </g>
    </g>
    <g id="Grupo_1100804" data-name="Grupo 1100804" transform="translate(120.438 139.167)">
      <g id="Grupo_1100803" data-name="Grupo 1100803" clip-path="url(#clip-path-2)">
        <rect id="Rect치ngulo_401377" data-name="Rect치ngulo 401377" width="8.49" height="6.482" transform="translate(-0.414 0.02) rotate(-3.345)" fill="url(#linear-gradient)"/>
      </g>
    </g>
    <g id="Grupo_1100806" data-name="Grupo 1100806" transform="translate(0.067 -0.146)">
      <g id="Grupo_1100805" data-name="Grupo 1100805" clip-path="url(#clip-path)">
        <path id="Trazado_876041" data-name="Trazado 876041" d="M768.665,866.6a3.217,3.217,0,0,1,1,2.669l-.112.859-.56-.181c-.411.316-.464.407-1.006.376a1.979,1.979,0,0,1-.6-.111,3.645,3.645,0,0,1-1.729-1.342l.036-.391-.452-.971.12.028a.662.662,0,0,1,.333.25c.648.682,1.555.582,2.2,1.489h.36l.288-.36-.072-.288a1.887,1.887,0,0,0-.74-.186c-.305-.338-.464-.6-.955-.624l-.133-.007a.592.592,0,0,1-.333-.121l.135-.09a3.355,3.355,0,0,0,.513-.461l.36-.018a2.707,2.707,0,0,1,.4.426c.164.355-.193.275.245.648a2.251,2.251,0,0,0,.534-.14,3.573,3.573,0,0,1-.33-1.012c.215-.067.355-.279.5-.443" transform="translate(-641.27 -726.031)" fill="#31aa5e"/>
        <path id="Trazado_876042" data-name="Trazado 876042" d="M744.2,871.341c.337-.281.406-.288.481-.713a2.175,2.175,0,0,0,.784-.6l.079-.091a3.549,3.549,0,0,1,.863.058c-.36.287-.552.417-.593.909l0,.253a1.752,1.752,0,0,1,1.027.1l.1.4.122.006a3.645,3.645,0,0,0,1.729,1.342,1.975,1.975,0,0,0,.6.111c.542.031.594-.06,1.006-.376l.56.181-.48,1.194-3.8,0-2.978.031-.49-1.285a4.594,4.594,0,0,1-.03-2.277,1.927,1.927,0,0,1,1.031.755" transform="translate(-622.671 -728.819)" fill="#1aa27b"/>
        <path id="Trazado_876043" data-name="Trazado 876043" d="M744.021,882.9l.062-.118a1.348,1.348,0,0,1,.4-.664.918.918,0,0,1,.843-.183,5.744,5.744,0,0,1,.382,1.242.93.93,0,0,0-.032.8,8.03,8.03,0,0,1,1.789.078l.021.1-2.978.031Z" transform="translate(-623.491 -738.853)" fill="#31aa5e"/>
        <path id="Trazado_876044" data-name="Trazado 876044" d="M779.272,787.653c3.987-3.658,8.551-6.363,14.139-6.214a18.971,18.971,0,0,1,12.346,5.726,11.388,11.388,0,0,1,2.706,2.609l1.179,1.548a4.251,4.251,0,0,0-2.548,1.609,3.024,3.024,0,0,0-.482,1.076c-.055.3.055,1.83-.051,1.952a3.2,3.2,0,0,1-1.131.395l-.158.019c-1.232.144-2.482.047-3.72.086a19.727,19.727,0,0,0-6.379,1.112,4.479,4.479,0,0,0-1.933,1.138,4.428,4.428,0,0,0-.623,1.334l-.861-.047-3.342-.008-4.709,0a6.737,6.737,0,0,0-1.772.068,2.7,2.7,0,0,1-1.35.028,4.3,4.3,0,0,0-1.279-.082l-2.86-.047.48-1.194.113-.859a3.217,3.217,0,0,0-1-2.669,4.8,4.8,0,0,0-2-1.119Z" transform="translate(-648.643 -654.664)" fill="#df4731"/>
        <path id="Trazado_876045" data-name="Trazado 876045" d="M869.839,788.889l.268.1c.3.717-.3,3.565-.595,4.363l-.318,0a.676.676,0,0,1-.095-.292c-.02-.773.272-3.74.738-4.178" transform="translate(-728.295 -660.912)" fill="#67393d"/>
        <path id="Trazado_876046" data-name="Trazado 876046" d="M927.046,796.889c.195.032.2.083.339.216l-.458,3.615a3.009,3.009,0,0,1-.468,1.56l-.34-.2.466-3.265a5.559,5.559,0,0,1,.461-1.922" transform="translate(-776.073 -667.615)" fill="#67393d"/>
        <path id="Trazado_876047" data-name="Trazado 876047" d="M898.936,792.419a.96.96,0,0,1,.451.091l.014.073a4.9,4.9,0,0,1-.412,1.869,11.031,11.031,0,0,1-1.02,3.01l-.313,0-.118-.213Z" transform="translate(-752.126 -663.865)" fill="#67393d"/>
        <path id="Trazado_876048" data-name="Trazado 876048" d="M806.145,828.954l1.031-.144c-1.314-1.668-2.4-2.867-2.6-5.094a7.283,7.283,0,0,1,6.574-7.819,6.989,6.989,0,0,1,5.2,1.908,7.8,7.8,0,0,1,2.972,5.152,7.574,7.574,0,0,1-1.943,5.853l-.056.051-3.342-.008-4.709,0a6.741,6.741,0,0,0-1.772.068,2.7,2.7,0,0,1-1.35.029" transform="translate(-674.206 -683.528)" fill="#f4e7c0"/>
        <path id="Trazado_876049" data-name="Trazado 876049" d="M865.088,827.751a7.8,7.8,0,0,1,2.972,5.153,7.575,7.575,0,0,1-1.943,5.853l-.056.051-3.342-.008c1.781-1.273,2.956-2.326,3.549-4.525a8.513,8.513,0,0,0-1.179-6.523" transform="translate(-722.949 -693.474)" fill="#f6c071"/>
        <path id="Trazado_876050" data-name="Trazado 876050" d="M826.929,836.68a3.317,3.317,0,0,1,3.653,2.579,3.563,3.563,0,0,1-.314,2.675,3.4,3.4,0,0,1-2.391,1.654,6.429,6.429,0,0,1-1.815-.139l-.083-.025a3.167,3.167,0,0,1-.543-.2,3.123,3.123,0,0,1-1.388-1.831,4.027,4.027,0,0,1,.4-3.051,3.77,3.77,0,0,1,2.479-1.664" transform="translate(-690.429 -700.954)" fill="#f6c071"/>
        <path id="Trazado_876051" data-name="Trazado 876051" d="M801.422,439.321c.515-1.326.678-2.906,1.1-4.287a17.946,17.946,0,0,1,4.394-6.8,22.669,22.669,0,0,1,2.444-2.393,5.775,5.775,0,0,1,1.193-.805c.5-.046,1.162.354,1.655.3.666-.074.878-.889,1.8-.553.6.218.794.851,1.431.924a2.806,2.806,0,0,1,.882-.453,2.3,2.3,0,0,1,1.71.54,33.408,33.408,0,0,1,5.281,2.5,17.176,17.176,0,0,0,2.185,1.236l-4.968,2.508a15.43,15.43,0,0,0-2.786,1.987c.055.337.018.41.29.633.759-.113,1.485-.877,2.166-1.24l-1.778,4.094a15.758,15.758,0,0,0-1.023,2.507l-3.271,7.983-1.841,4.376-12.277,27.686-2.979,5.988c-.314.647-.926,1.5-.849,2.193l-.157.01a18.972,18.972,0,0,0-12.346-5.726c-5.588-.148-10.152,2.556-14.139,6.214l-3.3-.009-3.819-4.1,17.39-15.5a10.257,10.257,0,0,0,2.274,2.448,32.632,32.632,0,0,0,1.958-3.2l3.74-6.2,7.655-12.755Z" transform="translate(-638.914 -355.759)" fill="#eb8870"/>
        <path id="Trazado_876052" data-name="Trazado 876052" d="M1080.192,431.445a33.409,33.409,0,0,1,5.281,2.5,17.181,17.181,0,0,0,2.185,1.236l-4.968,2.508a10.113,10.113,0,0,0,.812-2.311,1.084,1.084,0,0,0-1.136-1.354l-3.9,3.85h-.143l-.008-.215,3.823-3.735a.8.8,0,0,0-.185-.808,1.6,1.6,0,0,0-.987-.57c-.93-.093-2.72,1.937-3.5,2.513a18.857,18.857,0,0,0-2.029,1.951h-.143c-.047-.509,3.177-3.248,3.822-3.762a6.652,6.652,0,0,0,1.214-.92Z" transform="translate(-901.071 -361.405)" fill="#df4731"/>
        <path id="Trazado_876053" data-name="Trazado 876053" d="M229.035,773.485a27.858,27.858,0,0,0,8.015,2.131,69.4,69.4,0,0,0,17.661.325,36.978,36.978,0,0,0,8.125-1.638l1.446-.571v6.795L295,780.5V814.09H0v-33.7l31-.066-.006,11.51a28.689,28.689,0,0,0,.126,5.611,3.723,3.723,0,0,0,.987,1.73,4.409,4.409,0,0,0,1.175.792l1.386.121L42,800.077a7.016,7.016,0,0,1,1.566-.023l4.617-.048.388-.049,25.4.048.041.076,23.2-.086,22.377-.067,28.664-.008,35.156-.07,10.148,0a47.423,47.423,0,0,0,5.746-.039l5.832.6c2.217-.182,4.511-.07,6.736-.07a26.965,26.965,0,0,1,3.879.037c1.425-.351,3.13-.3,4.611-.536a2.4,2.4,0,0,0,.742-1.342,26.273,26.273,0,0,0,9.062-3.017c2.005-1.54,3.78-2.9,5.012-5.185.705-1.307,1.5-3.36,1.05-4.87a1.549,1.549,0,0,0-.182-.456c-.89-1.43-5.2-2.269-6.83-2.621l-.018-2.725Z" transform="translate(-0.067 -648.004)" fill="#31a854"/>
        <path id="Trazado_876054" data-name="Trazado 876054" d="M1331.05,936.531c1.425-.351,3.13-.3,4.611-.536l13.991.091,5.213,0a13.728,13.728,0,0,0,2.773-.119l8.048,0-.031.155c2.415-.14,4.88-.036,7.3-.034l12.431-.019,4.916-.012a7.725,7.725,0,0,1,1.563-.005,1.563,1.563,0,0,1,.287.206l-.008.288c-.353.252-1.032.147-1.462.148l-4.5,0-20.942-.047-24.188-.021-6.362-.006a20.379,20.379,0,0,1-3.637-.1" transform="translate(-1115.37 -784.153)" fill="#67393d"/>
        <path id="Trazado_876055" data-name="Trazado 876055" d="M1369.3,909.223c.045.544.015,1,.446,1.392a6.836,6.836,0,0,0,2.013,1.076,25.908,25.908,0,0,0,6.608,1.515,21.188,21.188,0,0,1,3.105.353,13.731,13.731,0,0,1-2.773.119l-5.213,0-13.991-.091a2.4,2.4,0,0,0,.742-1.342,26.273,26.273,0,0,0,9.062-3.017" transform="translate(-1139.208 -761.741)" fill="#e56552"/>
        <path id="Trazado_876056" data-name="Trazado 876056" d="M290.865,935.934l5.832.6a29.337,29.337,0,0,1-4.005.1l-6.367-.029-20.9-.037-82.8.165-61.542.047c-1.4,0-11.251.175-11.622-.063-.157-.1-.142-.241-.18-.415.664-.453,13.634-.181,15.565-.216l1.386.121,7.332-.014a7.016,7.016,0,0,1,1.566-.023l4.617-.048.388-.049,25.4.048.041.076,23.2-.086,22.377-.067,28.664-.008,35.156-.07,10.148,0a47.448,47.448,0,0,0,5.746-.039" transform="translate(-91.632 -784.122)" fill="#67393d"/>
        <path id="Trazado_876057" data-name="Trazado 876057" d="M221.194,937.178a7.02,7.02,0,0,1,1.566-.023l4.617-.048-.591.387c-.543.37-6.424.174-7.6.118-1.435.007-4.14.359-5.324-.421Z" transform="translate(-179.264 -785.105)" fill="#603f40"/>
        <path id="Trazado_876058" data-name="Trazado 876058" d="M1413.03,773.485a27.858,27.858,0,0,0,8.015,2.131,69.4,69.4,0,0,0,17.661.325,36.972,36.972,0,0,0,8.125-1.638l1.446-.571v6.795l.029,12.063,0,2.49a2.774,2.774,0,0,1-.047.922,3.952,3.952,0,0,1-.669.726,7.34,7.34,0,0,1-3.138,1.552c-3.334.986-6.673,1.078-10.079,1.543l-8.048,0a21.2,21.2,0,0,0-3.106-.353,25.91,25.91,0,0,1-6.608-1.515,6.839,6.839,0,0,1-2.013-1.076c-.431-.387-.4-.848-.446-1.392,2.005-1.54,3.78-2.9,5.012-5.185.705-1.307,1.5-3.36,1.05-4.87a1.547,1.547,0,0,0-.182-.456c-.89-1.43-5.2-2.269-6.83-2.621l-.018-2.725Z" transform="translate(-1184.062 -648.004)" fill="#f6f6f7"/>
      </g>
    </g>
  </g>
</svg>
