<svg id="Grupo_1100878" data-name="Grupo 1100878" xmlns="http://www.w3.org/2000/svg" xmlns:xlink="http://www.w3.org/1999/xlink" width="108.631" height="258.565" viewBox="0 0 108.631 258.565">
  <defs>
    <clipPath id="clip-path">
      <rect id="Rectángulo_401566" data-name="Rectángulo 401566" width="108.631" height="258.565" fill="none"/>
    </clipPath>
  </defs>
  <g id="Grupo_1100877" data-name="Grupo 1100877" clip-path="url(#clip-path)">
    <path id="Trazado_876661" data-name="Trazado 876661" d="M38.737,103.253c-1.388.392-10.62,1.388-12.458,6.655s-5.518,34.063-6.872,37.352-3.383,8.167-3.748,11.21-1.735,21.246-2.984,24.021-3.377,2.041-5.414,3.986A17.643,17.643,0,0,1,1,189.591c-1.622.348-1.457,2.882,1.926,2.189.687-.141,4.275-1.706,4.556-1.305s-.775,3.8-1.016,4.615-2.2,6.538-2.522,7.651c-.489,1.676-.7,2.585.067,2.937s1.354-.723,1.55-1.175,2.975-7.816,3.3-7.843.375-.137.2.415c-.159.506-1.2,4.614-1.685,6.7-.469,2.039-1.064,4.2-.27,4.353,1.213.242,1.718-1.278,1.988-2.142,0,0,2.364-7.689,2.561-8.085s.306-.425.437-.224-1.258,8.4-1.347,8.827c-.2.967-.135,1.659.505,1.831s1.011-.276,1.314-1.244c.347-1.106,1.978-8.678,1.978-8.678s.18-.423.246.04-.645,6.716-.775,7.982c-.122,1.186,1.025,1.523,1.482.691s1.586-8.41,1.651-8.672a72.028,72.028,0,0,0,1.82-8.119c.052-1.335-.224-4.267.3-6.348s5.529-17.423,7.507-21.8,1.412-9.908,2.037-12.364l4.884-17.515c.417,6.512,3.345,18.26,3.553,20.609s-.19,9.609-2.064,13.665S31.85,187.722,32.266,194.9c.528,9.1,2.806,44.579,2.806,44.579.042.712-2.781,12.787-1.9,20.854s3.554,26.4,2.956,31.275c-.372,1.566-2.088,3.876-2.135,4.933a4.268,4.268,0,0,0,.744,2.192,96.846,96.846,0,0,1-4.253,8.754c-1.209,1.762-3.906,4.463-3.673,5.911a4.39,4.39,0,0,0,1.581,2.858,8.407,8.407,0,0,0,1.581-.078c.744.548,1.162.665,1.441.626a4.926,4.926,0,0,0,.651-.156,1.946,1.946,0,0,0,1.441.7c.419.039,2.34-.16,2.34-.16.465.783,2.356.629,2.682.59a2.06,2.06,0,0,0,.7-.274l.511-.039a7.666,7.666,0,0,0,2.929-.039c1.3-.353,2.278-3.719,2.418-4.815s-.7-2.231-.93-4.658-.124-8.067-.124-8.067a21.2,21.2,0,0,0,1.24-1.993c.418-.822-.977-3.64-1.116-5.363-.741-9.388,2.9-27.954,3.542-32.841s0-11.6-.254-15.765,4.65-51.01,4.693-54.391H56.5c.043,3.381,4.946,50.227,4.693,54.391s-.9,10.878-.254,15.765,4.283,23.453,3.542,32.841c-.14,1.722-1.535,4.541-1.116,5.363a21.2,21.2,0,0,0,1.24,1.993s.108,5.64-.124,8.067-1.069,3.562-.93,4.658,1.116,4.463,2.418,4.815a7.664,7.664,0,0,0,2.929.039l.512.039a2.056,2.056,0,0,0,.7.274c.325.039,2.216.193,2.682-.59,0,0,1.921.2,2.34.16a1.946,1.946,0,0,0,1.441-.7,4.926,4.926,0,0,0,.651.156c.279.039.7-.078,1.441-.626a8.407,8.407,0,0,0,1.581.078,4.39,4.39,0,0,0,1.581-2.858c.233-1.449-2.464-4.149-3.673-5.911a96.844,96.844,0,0,1-4.253-8.754,4.271,4.271,0,0,0,.744-2.192c-.046-1.057-1.763-3.367-2.135-4.933-.6-4.872,2.077-23.208,2.956-31.275s-1.944-20.142-1.9-20.854c0,0,2.278-35.479,2.806-44.579.417-7.178-1.041-24.26-2.915-28.317s-2.272-11.317-2.064-13.665,3.137-14.1,3.553-20.609l4.884,17.515c.624,2.456.059,7.986,2.037,12.364s6.986,19.718,7.506,21.8.245,5.014.3,6.348a72.032,72.032,0,0,0,1.82,8.119c.065.263,1.193,7.841,1.651,8.672s1.6.495,1.482-.691c-.13-1.266-.841-7.517-.775-7.982s.246-.04.246-.04,1.631,7.572,1.978,8.678c.3.968.674,1.417,1.314,1.244s.708-.864.505-1.831c-.089-.424-1.477-8.625-1.347-8.827s.241-.173.437.224,2.561,8.085,2.561,8.085c.269.864.775,2.384,1.988,2.142.794-.158.2-2.314-.27-4.353-.48-2.088-1.526-6.2-1.685-6.7-.173-.552-.125-.442.2-.415s3.106,7.391,3.3,7.843.8,1.521,1.55,1.175.556-1.261.067-2.937c-.324-1.113-2.282-6.837-2.522-7.651s-1.3-4.214-1.016-4.615,3.869,1.164,4.555,1.305c3.384.694,3.547-1.841,1.926-2.189a17.643,17.643,0,0,1-6.264-3.114c-2.037-1.945-4.165-1.21-5.414-3.986s-2.62-20.979-2.984-24.021-2.395-7.921-3.748-11.21-5.032-32.085-6.871-37.352-11.07-6.263-12.458-6.655c0,0-7.7-.587-8.845-4.911a18.086,18.086,0,0,1-.677-6.157H48.259a18.079,18.079,0,0,1-.677,6.157c-1.145,4.324-8.845,4.911-8.845,4.911" transform="translate(0 -59.256)" fill="#fad9c7"/>
    <path id="Trazado_876662" data-name="Trazado 876662" d="M139.537,100.43c3.537-.342,5.739-2.8,6.971-4.353a15.8,15.8,0,0,1-.2-3.892H134.195a17.455,17.455,0,0,1-.5,5.456,6.633,6.633,0,0,0,5.845,2.789" transform="translate(-85.936 -59.256)" fill="#f7c5ab"/>
    <path id="Trazado_876663" data-name="Trazado 876663" d="M196.527,507.32a7.806,7.806,0,0,1-1.733,2.7,2.889,2.889,0,0,1,1.733-2.7" transform="translate(-125.196 -326.1)" fill="#f19975"/>
    <path id="Trazado_876664" data-name="Trazado 876664" d="M177.691,507.452a4.351,4.351,0,0,1,1.768,2.027,1.666,1.666,0,0,1,.176.926,7.288,7.288,0,0,1-1.944-2.954" transform="translate(-114.218 -326.185)" fill="#f19975"/>
    <path id="Trazado_876665" data-name="Trazado 876665" d="M189.842,709.492a5.548,5.548,0,0,1,1.571,2.773,4.733,4.733,0,0,1-.269,1.455,5.283,5.283,0,0,1-.251-1.129,1.135,1.135,0,0,0-.125-.452,11.031,11.031,0,0,1-.926-2.647" transform="translate(-122.028 -456.054)" fill="#f19975"/>
    <path id="Trazado_876666" data-name="Trazado 876666" d="M200.645,708.615c.992,1.272,1.824,2.988,1.256,4.606a.764.764,0,0,1-.512.523c.323-.359.179-.806.165-1.239-.1-1.363-.736-2.5-.909-3.889" transform="translate(-128.972 -455.49)" fill="#f19975"/>
    <path id="Trazado_876667" data-name="Trazado 876667" d="M209.5,708.615a7.28,7.28,0,0,1,1.519,2.2,1.555,1.555,0,0,1-.031,1.672,4.314,4.314,0,0,0-.775-1.847,6.726,6.726,0,0,1-.712-2.028" transform="translate(-134.662 -455.49)" fill="#f19975"/>
    <path id="Trazado_876668" data-name="Trazado 876668" d="M218.348,708.068a21.089,21.089,0,0,1,1.215,1.9,5.836,5.836,0,0,1,.41.67c.093.654-.543,1.133-1.021,1.422a5.562,5.562,0,0,0,.457-1.225,4.491,4.491,0,0,1-1.061-2.768" transform="translate(-140.352 -455.139)" fill="#f19975"/>
    <path id="Trazado_876669" data-name="Trazado 876669" d="M167.9,126.183c-2.55.533-5.145.7-7.718,1.044a9.1,9.1,0,0,0-4.2,1.66,8.009,8.009,0,0,1,2.546-1.914,16.6,16.6,0,0,1,3.124-.566,47.557,47.557,0,0,1,6.251-.225" transform="translate(-100.26 -81.097)" fill="#f19975"/>
    <path id="Trazado_876670" data-name="Trazado 876670" d="M177.108,194.972a46.447,46.447,0,0,1,4.818-.336,7.715,7.715,0,0,0,2.257-.306,19.276,19.276,0,0,0,3.752-4.056,23.56,23.56,0,0,1-1.761,2.717c-.669.847-1.436,1.9-2.578,2.089a19.961,19.961,0,0,1-6.489-.109" transform="translate(-113.843 -122.306)" fill="#f19975"/>
    <path id="Trazado_876671" data-name="Trazado 876671" d="M208.493,181.569c-.044-4.532.763-9.408,1.331-13.907.071-.3.06-.833.281-1.075l1.256-1.74c.022-.032.076,0,.053.036l-1.154,1.818c-.131.164-.1.263-.129.461l-.052.532c-.06.678-.367,4.586-.428,5.353a49.724,49.724,0,0,1-1.094,8.53.033.033,0,0,1-.064-.008" transform="translate(-134.016 -105.953)" fill="#f19975"/>
    <path id="Trazado_876672" data-name="Trazado 876672" d="M174.475,333.337a10.979,10.979,0,0,1-2.04,3.612,17.337,17.337,0,0,1-2.905,2.953c1.424-2.333,3.318-4.389,4.945-6.566" transform="translate(-108.972 -214.266)" fill="#f19975"/>
    <path id="Trazado_876673" data-name="Trazado 876673" d="M104.418,507.32a2.888,2.888,0,0,1,1.733,2.7,7.815,7.815,0,0,1-1.733-2.7" transform="translate(-67.119 -326.1)" fill="#f19975"/>
    <path id="Trazado_876674" data-name="Trazado 876674" d="M122.89,507.452a7.287,7.287,0,0,1-1.944,2.954,1.666,1.666,0,0,1,.176-.926,4.351,4.351,0,0,1,1.768-2.027" transform="translate(-77.732 -326.185)" fill="#f19975"/>
    <path id="Trazado_876675" data-name="Trazado 876675" d="M111.44,709.492a11.015,11.015,0,0,1-.926,2.647,1.135,1.135,0,0,0-.125.452,5.283,5.283,0,0,1-.251,1.129,4.736,4.736,0,0,1-.269-1.455,5.547,5.547,0,0,1,1.571-2.773" transform="translate(-70.623 -456.054)" fill="#f19975"/>
    <path id="Trazado_876676" data-name="Trazado 876676" d="M100.874,708.615c-.173,1.391-.812,2.526-.909,3.889-.014.434-.158.88.165,1.239-.51-.121-.61-.8-.667-1.231a5.553,5.553,0,0,1,1.411-3.9" transform="translate(-63.915 -455.49)" fill="#f19975"/>
    <path id="Trazado_876677" data-name="Trazado 876677" d="M91.467,708.615a6.726,6.726,0,0,1-.712,2.028,4.312,4.312,0,0,0-.776,1.847c-.524-.635-.155-1.528.209-2.146a6.732,6.732,0,0,1,1.279-1.729" transform="translate(-57.67 -455.49)" fill="#f19975"/>
    <path id="Trazado_876678" data-name="Trazado 876678" d="M82.822,708.068a4.408,4.408,0,0,1-1.055,2.744,4.581,4.581,0,0,0,.45,1.249c-.477-.288-1.113-.768-1.021-1.422a5.836,5.836,0,0,1,.41-.67,21.206,21.206,0,0,1,1.215-1.9" transform="translate(-52.187 -455.139)" fill="#f19975"/>
    <path id="Trazado_876679" data-name="Trazado 876679" d="M114.76,126.183a47.557,47.557,0,0,1,6.251.225,16.592,16.592,0,0,1,3.123.566,8.01,8.01,0,0,1,2.547,1.913,9.094,9.094,0,0,0-4.2-1.66c-2.572-.346-5.168-.512-7.718-1.045" transform="translate(-73.767 -81.097)" fill="#f19975"/>
    <path id="Trazado_876680" data-name="Trazado 876680" d="M107.517,194.972a19.961,19.961,0,0,1-6.489.109c-1.142-.188-1.908-1.241-2.578-2.089a23.509,23.509,0,0,1-1.76-2.717,19.266,19.266,0,0,0,3.752,4.056,7.728,7.728,0,0,0,2.258.306,46.448,46.448,0,0,1,4.818.336" transform="translate(-62.151 -122.306)" fill="#f19975"/>
    <path id="Trazado_876681" data-name="Trazado 876681" d="M151.384,270.544c-.869.237-1.444.048-2.272.274.221-.994,1.717-.967,2.272-.274" transform="translate(-95.848 -173.582)" fill="#f19975"/>
    <path id="Trazado_876682" data-name="Trazado 876682" d="M89.853,179.009c-.986-3.738-.81-7.966-1.144-11.8a1.705,1.705,0,0,0-.06-.4l-.245-.386-.979-1.544c-.021-.031.03-.071.054-.036l1.067,1.478.266.369a1.314,1.314,0,0,1,.129.487c.223,1.5.373,3.035.542,4.537A44.388,44.388,0,0,1,89.917,179a.033.033,0,0,1-.064.008" transform="translate(-56.192 -105.952)" fill="#f19975"/>
    <path id="Trazado_876683" data-name="Trazado 876683" d="M120.735,333.337c1.628,2.177,3.52,4.232,4.945,6.566a17.337,17.337,0,0,1-2.905-2.953,10.979,10.979,0,0,1-2.04-3.612" transform="translate(-77.607 -214.266)" fill="#f19975"/>
    <path id="Trazado_876684" data-name="Trazado 876684" d="M151.763,151.94q.323,8.075,0,16.157-.326-8.074,0-16.157" transform="translate(-97.447 -97.665)" fill="#f19975"/>
    <path id="Trazado_876685" data-name="Trazado 876685" d="M20.881,361.995c3.464-.178,5.12-.05,7.559-2.91a.033.033,0,0,1,.057.03c-.631,2.484-3.144,3.236-5.438,3.084-.733-.035-1.451-.136-2.173-.14a.032.032,0,0,1-.006-.064" transform="translate(-13.405 -230.809)" fill="#f19975"/>
    <path id="Trazado_876686" data-name="Trazado 876686" d="M269.467,362.059c-2.9.231-6.613.578-7.61-2.944a.033.033,0,0,1,.057-.03,6.912,6.912,0,0,0,5.382,2.793c.716.052,1.449.018,2.176.118a.032.032,0,0,1-.006.064" transform="translate(-168.318 -230.809)" fill="#f19975"/>
    <path id="Trazado_876687" data-name="Trazado 876687" d="M150.2,108.4a3.293,3.293,0,0,0,.827,1.622.02.02,0,0,1-.009.036,1.048,1.048,0,0,1-.866-1.649c.008-.019.037-.039.047-.01" transform="translate(-96.403 -69.671)" fill="#f19975"/>
    <path id="Trazado_876688" data-name="Trazado 876688" d="M182.7,55.981c-.785-1.675-2.3.209-2.3.209l-.68,6.8c1.466.209,4-4.839,2.983-7.014" transform="translate(-115.521 -35.538)" fill="#fad9c7"/>
    <path id="Trazado_876689" data-name="Trazado 876689" d="M132.5,43.432h.209c2.617,0,7.642-4.815,8.793-6.8s1.675-8.793,1.884-11.253c0,0,2.689-15.748-10.684-15.748s-10.881,15.748-10.881,15.748c.209,2.46.733,9.264,1.884,11.253s6.176,6.8,8.793,6.8" transform="translate(-78.188 -6.188)" fill="#fad9c7"/>
    <path id="Trazado_876690" data-name="Trazado 876690" d="M119.626,62.995l-.68-6.8s-1.518-1.884-2.3-.21c-1.019,2.175,1.518,7.223,2.983,7.014" transform="translate(-74.826 -35.538)" fill="#fad9c7"/>
    <path id="Trazado_876691" data-name="Trazado 876691" d="M140.692,84.575a21.534,21.534,0,0,0,8.32,0,8.674,8.674,0,0,1-8.32,0" transform="translate(-90.435 -54.364)" fill="#f19975"/>
    <path id="Trazado_876692" data-name="Trazado 876692" d="M146.755,91.047a10.681,10.681,0,0,0,3.988,0,4.113,4.113,0,0,1-3.988,0" transform="translate(-94.333 -58.524)" fill="#f19975"/>
    <path id="Trazado_876693" data-name="Trazado 876693" d="M148.769,55.448a7.682,7.682,0,0,1,.764,4.33c-.261-1.465-.528-2.862-.764-4.33" transform="translate(-95.627 -35.641)" fill="#f19975"/>
    <path id="Trazado_876694" data-name="Trazado 876694" d="M165.584,57.786a1.274,1.274,0,1,0-1.274,1.274,1.274,1.274,0,0,0,1.274-1.274" transform="translate(-104.798 -36.325)" fill="#595753"/>
    <path id="Trazado_876695" data-name="Trazado 876695" d="M167.479,58.042a.486.486,0,1,0-.485.485.485.485,0,0,0,.485-.485" transform="translate(-107.03 -36.997)" fill="#fff"/>
    <path id="Trazado_876696" data-name="Trazado 876696" d="M160.795,55.463a2.288,2.288,0,0,1,4.061-.96,2.747,2.747,0,0,1,.648,1.507c-1.27-1.974-3.1-2.478-4.709-.547" transform="translate(-103.357 -34.456)" fill="#595753"/>
    <path id="Trazado_876697" data-name="Trazado 876697" d="M148.582,75.879a1.345,1.345,0,0,0-.461.388,2.67,2.67,0,0,1,.51-.1,2.48,2.48,0,0,1,.558.145s-.388-.51-.607-.437" transform="translate(-95.211 -48.77)" fill="#f19975"/>
    <path id="Trazado_876698" data-name="Trazado 876698" d="M153.621,75.879c-.219-.073-.607.437-.607.437a2.48,2.48,0,0,1,.558-.145,2.67,2.67,0,0,1,.51.1,1.341,1.341,0,0,0-.461-.388" transform="translate(-98.356 -48.77)" fill="#f19975"/>
    <path id="Trazado_876699" data-name="Trazado 876699" d="M158.872,48.042a36.286,36.286,0,0,1,3.684-.846,10.471,10.471,0,0,1,2.921.737,8.885,8.885,0,0,0-3.213-1.521,13.51,13.51,0,0,0-4.149.792c-.218.164.211.893.757.838" transform="translate(-101.598 -29.829)" fill="#595753"/>
    <path id="Trazado_876700" data-name="Trazado 876700" d="M136.551,57.786a1.274,1.274,0,1,0-1.274,1.274,1.274,1.274,0,0,0,1.274-1.274" transform="translate(-86.136 -36.325)" fill="#595753"/>
    <path id="Trazado_876701" data-name="Trazado 876701" d="M138.25,58.042a.485.485,0,1,0-.485.485.485.485,0,0,0,.485-.485" transform="translate(-88.241 -36.997)" fill="#fff"/>
    <path id="Trazado_876702" data-name="Trazado 876702" d="M134.9,55.463c-1.614-1.933-3.441-1.425-4.709.547a2.747,2.747,0,0,1,.648-1.507,2.288,2.288,0,0,1,4.061.96" transform="translate(-83.687 -34.456)" fill="#595753"/>
    <path id="Trazado_876703" data-name="Trazado 876703" d="M132.34,47.2a13.51,13.51,0,0,0-4.148-.792,6.5,6.5,0,0,0-2.846,1.521,10.467,10.467,0,0,1,2.92-.737,36.3,36.3,0,0,1,3.685.846c.546.055.608-.675.39-.838" transform="translate(-80.57 -29.829)" fill="#595753"/>
    <path id="Trazado_876704" data-name="Trazado 876704" d="M115.344,13.211a5.247,5.247,0,0,1,.808-.851,23.663,23.663,0,0,0-.2,4.659,3.253,3.253,0,0,1,.648-.957c.155,1.709,1.334,6.39,1.334,6.39a18.171,18.171,0,0,1,.561-5.749,23.892,23.892,0,0,1,2.555-2.893,10.886,10.886,0,0,1-.644,1.364,13.36,13.36,0,0,0,5.131-2.838,10.312,10.312,0,0,1-1.419,2.129,9.028,9.028,0,0,0,4.531-2.129,5.473,5.473,0,0,1-.778,1.834,10.925,10.925,0,0,0,4.312-3.5,8.178,8.178,0,0,0,3.967,4.165c-.265-.651-.687-1.864-.687-1.864a10.675,10.675,0,0,0,3.12,3.3,17.358,17.358,0,0,1,.492,6.223,62.135,62.135,0,0,0,1.448-6.427c.337.518.565.866.565.866a17.13,17.13,0,0,0-.221-5.028,9,9,0,0,1,.7.9c-.222-3.223-2.649-8.363-5.331-9.339a6.508,6.508,0,0,1,1.353-.056,6.1,6.1,0,0,0-4.32-1.322A2.669,2.669,0,0,0,131.98,0c.228.682.341,1.591.152,1.44a9.261,9.261,0,0,0-6.935-.8,11.4,11.4,0,0,1,1.866.57c-7.038-.213-8.465,3.572-10.436,4.5a3.835,3.835,0,0,0,1.29-.074,10.678,10.678,0,0,0-2.573,7.574" transform="translate(-74.132)" fill="#595753"/>
    <path id="Trazado_876705" data-name="Trazado 876705" d="M157.539,12.836a7.505,7.505,0,0,1-5.067,3.92,13.419,13.419,0,0,0,1.965-3.427,6.219,6.219,0,0,1-.951,3.06l-.329-.458a14.4,14.4,0,0,0,4.382-3.1" transform="translate(-98.007 -8.251)" fill="#908882"/>
    <path id="Trazado_876706" data-name="Trazado 876706" d="M131.518,13.3a12.874,12.874,0,0,1-6.288,4.105,36.781,36.781,0,0,0,2.087-3.328l.477.381a13.707,13.707,0,0,1-2.673,1.84,11.493,11.493,0,0,1-4.081,1.343,10.024,10.024,0,0,0,2.63-2.913l.314.3a22.279,22.279,0,0,0-4.529,2.8,17.559,17.559,0,0,1,4.314-3.2l.634-.367a9.745,9.745,0,0,1-1.144,1.988,8.094,8.094,0,0,1-1.052,1.142l-.236-.492a15.911,15.911,0,0,0,6.777-4.1,32.522,32.522,0,0,1-2.7,4.313l-.263-.4a15.049,15.049,0,0,0,5.736-3.411" transform="translate(-76.784 -8.226)" fill="#908882"/>
    <path id="Trazado_876707" data-name="Trazado 876707" d="M168.658,18.2a17.691,17.691,0,0,0,3.362,3.311l-.487.339a14.3,14.3,0,0,1-.564-3.09l-.342-1.486.89,1.23a18.5,18.5,0,0,0,3.036,3.243,9.833,9.833,0,0,1-3.529-2.87l.548-.255a19.231,19.231,0,0,0,.542,3.024l.375,1.107c-1.448-1.321-3.134-2.666-3.832-4.553" transform="translate(-108.412 -11.104)" fill="#908882"/>
    <path id="Trazado_876708" data-name="Trazado 876708" d="M180.451,62.932c-.039.839-.1,1.676-.178,2.513a5.143,5.143,0,0,1-.6,2.447,21.962,21.962,0,0,1,.341-2.48l.4-2.483a.016.016,0,0,1,.032,0" transform="translate(-115.494 -40.441)" fill="#f19975"/>
    <path id="Trazado_876709" data-name="Trazado 876709" d="M122.639,62.849c.212,1.438.637,3.531.742,4.963a5.2,5.2,0,0,1-.6-2.447,20.405,20.405,0,0,1-.146-2.516" transform="translate(-78.822 -40.399)" fill="#f19975"/>
    <path id="Trazado_876710" data-name="Trazado 876710" d="M186.025,187.246a1.425,1.425,0,1,0-1.8-1.054,1.478,1.478,0,0,0,1.8,1.054" transform="translate(-118.396 -118.551)" fill="#ecad8f"/>
    <path id="Trazado_876711" data-name="Trazado 876711" d="M113.3,186.192a1.533,1.533,0,1,0-1.8,1.054,1.478,1.478,0,0,0,1.8-1.054" transform="translate(-70.889 -118.551)" fill="#ecad8f"/>
    <path id="Trazado_876712" data-name="Trazado 876712" d="M116.142,334.654c1.349-.905,3.2-4.111,5.919-6.407a66.084,66.084,0,0,1,12.976-8.584c-.278-2.489-.593-4.786-.947-6.712a140.077,140.077,0,0,1-40.654.056s-.68,3.8-.947,6.656a66.059,66.059,0,0,1,12.927,8.584c2.718,2.3,4.692,5.5,5.99,6.407a4.468,4.468,0,0,0,4.736,0" transform="translate(-59.452 -201.161)" fill="#8c9ab2"/>
    <path id="Trazado_876713" data-name="Trazado 876713" d="M134.683,307.806a158.229,158.229,0,0,1-39.908.1c-.276,1.213-.535,2.672-.772,4.283a157.686,157.686,0,0,0,41.459-.093c-.239-1.616-.5-3.076-.78-4.285" transform="translate(-60.425 -197.854)" fill="#636e80"/>
  </g>
</svg>
