<svg xmlns="http://www.w3.org/2000/svg" width="95.09" height="120.447" viewBox="0 0 95.09 120.447">
  <g id="reshot-icon-water-Y3JHBQ59UT" transform="translate(-53.894)">
    <path id="Trazado_877413" data-name="Trazado 877413" d="M107.21,126.749c-25.238,0-45.77-21.67-45.77-48.306,0-10.2,6.576-23.721,19.547-40.181a273.937,273.937,0,0,1,24.824-27.141h0a2.029,2.029,0,0,1,2.8,0h0a273.776,273.776,0,0,1,24.824,27.137c12.97,16.46,19.547,29.98,19.547,40.186C152.98,105.08,132.448,126.749,107.21,126.749Z" transform="translate(-5.771 -8.077)" fill="#b1d2e5"/>
    <path id="Trazado_877414" data-name="Trazado 877414" d="M127.5,114.371c-25.238,0-45.77-21.67-45.77-48.306,0-10.2,6.576-23.721,19.547-40.181,3.4-4.31,6.88-8.376,10.163-12.022-1.124-1.107-2.082-2.031-2.826-2.739h0a2.029,2.029,0,0,0-2.8,0A274,274,0,0,0,80.987,38.263C68.016,54.724,61.44,68.243,61.44,78.444c0,26.636,20.532,48.306,45.77,48.306a44.449,44.449,0,0,0,32.243-14.055A43.408,43.408,0,0,1,127.5,114.371Z" transform="translate(-5.771 -8.078)" fill="#94c5dd"/>
    <g id="Grupo_1100923" data-name="Grupo 1100923" transform="translate(75.955 24.342)">
      <path id="Trazado_877415" data-name="Trazado 877415" d="M260.659,124.267a5.2,5.2,0,1,1,0-10.4h6a5.2,5.2,0,0,1,1.605-10.143h7.591l1.187-.255.785.939a177.794,177.794,0,0,1,12.52,16.719l2.043,3.136Z" transform="translate(-230.104 -103.473)" fill="#ebf2fa"/>
      <path id="Trazado_877416" data-name="Trazado 877416" d="M152.87,179.626a5.2,5.2,0,0,1,0-10.4h5.071a5.2,5.2,0,0,1,0,10.4Z" transform="translate(-147.672 -153.76)" fill="#ebf2fa"/>
    </g>
    <path id="Trazado_877417" data-name="Trazado 877417" d="M149.867,258.893h-.006c-4.333,0-6.444-1.987-8.679-4.09-2.2-2.068-4.274-4.023-8.535-4.023s-6.337,1.954-8.535,4.023c-2.236,2.1-4.347,4.092-8.709,4.092s-6.473-1.988-8.708-4.092c-2.2-2.068-4.274-4.023-8.535-4.023s-6.336,1.954-8.534,4.023c-2.236,2.1-4.347,4.092-8.708,4.092s-6.472-1.987-8.707-4.091c-2.2-2.067-4.27-4.019-8.52-4.023l-2.807.59.394-2.855a41.241,41.241,0,0,1,2.5-9.176l.623-1.6,1.684.352c2.841.594,4.522,2.177,6.3,3.852,2.2,2.069,4.274,4.023,8.534,4.023s6.336-1.954,8.534-4.023c2.236-2.1,4.347-4.092,8.708-4.092s6.473,1.988,8.708,4.092c2.2,2.069,4.274,4.023,8.535,4.023s6.337-1.954,8.535-4.023c2.236-2.1,4.347-4.092,8.709-4.092s6.473,1.988,8.709,4.092c2.194,2.065,4.266,4.015,8.509,4.023l1.945-.268.344,1.943a27.776,27.776,0,0,1,.4,4.538c0,1.644-.08,3.3-.237,4.931l-.219,2.272Z" transform="translate(-5.345 -181.808)" fill="#05668d"/>
    <path id="Trazado_877418" data-name="Trazado 877418" d="M85.251,258.258a50.018,50.018,0,0,1-3.1-12.3c-.243.014-.492.022-.75.022-4.26,0-6.336-1.954-8.534-4.023-1.78-1.675-3.461-3.258-6.3-3.852l-1.661-.348q-.251.6-.484,1.181l-.162.417a46.43,46.43,0,0,0-1.87,5.886l-.012.053q-.122.511-.227,1.012c-.018.087-.034.173-.052.26-.053.265-.1.528-.151.789-.022.126-.042.251-.062.375-.037.225-.073.45-.1.671a27.746,27.746,0,0,0-.266,2.952l2.659-.559c4.251,0,6.325,1.956,8.52,4.023,2.235,2.1,4.347,4.091,8.707,4.091A10.71,10.71,0,0,0,85.251,258.258Z" transform="translate(-5.825 -181.826)" fill="#055f7a"/>
    <path id="Trazado_877419" data-name="Trazado 877419" d="M107.169,338.971c-25.091,0-45.622-21.543-45.767-48.024l-.016-2.882,2.7.951c4.342.008,6.45,1.992,8.681,4.091,2.2,2.069,4.274,4.023,8.534,4.023s6.336-1.954,8.534-4.023c2.236-2.1,4.347-4.092,8.708-4.092s6.473,1.988,8.708,4.092c2.2,2.069,4.274,4.023,8.535,4.023s6.337-1.954,8.535-4.023c2.236-2.1,4.347-4.092,8.709-4.092s6.473,1.988,8.709,4.092c2.181,2.053,4.242,3.992,8.442,4.021l2.4.016-.416,2.364a49.074,49.074,0,0,1-15.552,28.109A44.354,44.354,0,0,1,107.169,338.971Z" transform="translate(-5.73 -220.299)" fill="#427aa1"/>
    <path id="Trazado_877420" data-name="Trazado 877420" d="M108.785,339.1c.187-.007.375-.013.562-.023.223-.011.446-.025.668-.039l.334-.022c.277-.02.554-.042.831-.068l.1-.009a44.314,44.314,0,0,0,21.833-8.309c.14-.1.282-.2.421-.307.1-.071.191-.145.286-.217.2-.154.406-.308.607-.465.064-.05.128-.1.192-.152q.344-.272.683-.55l.143-.119q.357-.3.71-.6l.124-.108q.358-.312.711-.631l.112-.1q.352-.321.7-.65l.115-.109q.341-.326.676-.66l.118-.117q.332-.333.657-.673l.09-.093a43.415,43.415,0,0,1-11.956,1.675c-19.138,0-35.567-12.462-42.392-30.1a10.446,10.446,0,0,1-3.759.641c-4.26,0-6.336-1.954-8.534-4.023-2.231-2.1-4.338-4.083-8.681-4.091l-2.555-.9c-.084.847-.131,1.676-.133,2.482l0,.322c0,.02,0,.039,0,.059q0,.6.021,1.2s0,.005,0,.008c.757,25.5,20.408,46.116,44.572,46.764q.585.016,1.173.016c.362,0,.723-.006,1.084-.014C108.46,339.115,108.622,339.108,108.785,339.1Z" transform="translate(-5.775 -220.462)" fill="#17688c"/>
    <path id="Trazado_877421" data-name="Trazado 877421" d="M166.184,367.939a7.734,7.734,0,1,1,7.734-7.734A7.743,7.743,0,0,1,166.184,367.939Z" transform="translate(-79.959 -269.553)" fill="#b1d2e5"/>
    <path id="Trazado_877422" data-name="Trazado 877422" d="M162.924,355.548a7.732,7.732,0,1,0,9.55,11.5A47.977,47.977,0,0,1,162.924,355.548Z" transform="translate(-79.96 -271.906)" fill="#94c5dd"/>
    <path id="Trazado_877423" data-name="Trazado 877423" d="M271.438,416.763a5.2,5.2,0,1,1,5.2-5.2A5.2,5.2,0,0,1,271.438,416.763Z" transform="translate(-162.392 -310.769)" fill="#b1d2e5"/>
    <path id="Trazado_877424" data-name="Trazado 877424" d="M272.511,439.528a5.163,5.163,0,0,0,2.812-.833,43.649,43.649,0,0,1-7.68-2.561A5.2,5.2,0,0,0,272.511,439.528Z" transform="translate(-163.465 -333.535)" fill="#94c5dd"/>
    <path id="Trazado_877425" data-name="Trazado 877425" d="M125.726,24.944A276.916,276.916,0,0,0,102.725.5a1.9,1.9,0,0,0-2.571,0,276.8,276.8,0,0,0-23,24.443C61.719,43.595,53.894,58.877,53.894,70.366c0,27.615,21.329,50.081,47.545,50.081s47.545-22.466,47.545-50.081C148.984,58.877,141.159,43.595,125.726,24.944Zm-3.6,1.639A176.483,176.483,0,0,1,134.5,43.107H106.511a3.17,3.17,0,1,1,0-6.339h7.607a1.9,1.9,0,0,0,0-3.8,3.17,3.17,0,1,1,0-6.339h7.607A1.886,1.886,0,0,0,122.125,26.582ZM101.439,4.513c2.809,2.675,9.847,9.551,17.475,18.308h-4.8a6.972,6.972,0,0,0-6.211,10.143h-1.4a6.973,6.973,0,0,0,0,13.946h30.369a66.688,66.688,0,0,1,7.067,15.451c-3.15-.167-4.739-1.661-6.718-3.524-2.278-2.144-4.86-4.574-9.925-4.574s-7.647,2.43-9.925,4.574c-2.1,1.978-3.762,3.54-7.319,3.54s-5.216-1.562-7.318-3.54c-2.278-2.144-4.86-4.574-9.925-4.574s-7.647,2.43-9.925,4.574c-2.1,1.978-3.762,3.54-7.318,3.54s-5.216-1.562-7.317-3.54a15.014,15.014,0,0,0-6.422-4.118C71.58,33.7,95.611,10.066,101.439,4.513Zm43.107,70.544c-3.557,0-5.217-1.562-7.318-3.54-2.278-2.144-4.86-4.574-9.925-4.574s-7.647,2.43-9.925,4.574c-2.1,1.978-3.762,3.54-7.319,3.54a8.289,8.289,0,0,1-3.826-.827,1.9,1.9,0,0,0-2.207.335l-.028.028a1.879,1.879,0,0,0,.456,3,12.014,12.014,0,0,0,5.605,1.268c5.065,0,7.647-2.43,9.925-4.574,2.1-1.978,3.761-3.54,7.318-3.54s5.217,1.562,7.319,3.54c2.262,2.129,4.824,4.538,9.818,4.573-3.781,21.475-21.623,37.784-43,37.784-24.033,0-43.6-20.613-43.738-46.006a1.893,1.893,0,0,0,.631.109c3.556,0,5.216,1.562,7.317,3.54,2.278,2.144,4.86,4.574,9.924,4.574s7.647-2.43,9.925-4.574c2.1-1.978,3.761-3.54,7.318-3.54A8.118,8.118,0,0,1,97.1,71.82a1.869,1.869,0,0,0,2.258-.307l.027-.027a1.888,1.888,0,0,0-.4-2.969,11.872,11.872,0,0,0-6.167-1.574c-5.065,0-7.647,2.43-9.925,4.574-2.1,1.978-3.762,3.54-7.318,3.54s-5.216-1.562-7.317-3.54c-2.278-2.144-4.86-4.574-9.924-4.574a1.908,1.908,0,0,0-.391.04,39.145,39.145,0,0,1,2.381-8.719c2.272.475,3.663,1.777,5.327,3.343,2.278,2.144,4.86,4.574,9.924,4.574s7.647-2.43,9.925-4.574c2.1-1.978,3.761-3.54,7.318-3.54s5.216,1.562,7.318,3.54c2.278,2.144,4.86,4.574,9.925,4.574s7.647-2.43,9.925-4.574c2.1-1.978,3.762-3.54,7.319-3.54s5.217,1.562,7.319,3.54c2.278,2.144,4.86,4.574,9.925,4.574a1.94,1.94,0,0,0,.263-.02,25.61,25.61,0,0,1,.371,4.2q0,2.4-.227,4.736A1.908,1.908,0,0,0,144.546,75.058Z"/>
    <path id="Trazado_877426" data-name="Trazado 877426" d="M160.414,344.927a9.509,9.509,0,1,0,9.509,9.509A9.52,9.52,0,0,0,160.414,344.927Zm0,15.214a5.705,5.705,0,1,1,5.705-5.705A5.712,5.712,0,0,1,160.414,360.141Z" transform="translate(-74.189 -263.784)"/>
    <path id="Trazado_877427" data-name="Trazado 877427" d="M265.668,398.821a6.973,6.973,0,1,0,6.973,6.973A6.981,6.981,0,0,0,265.668,398.821Zm0,10.143a3.17,3.17,0,1,1,3.17-3.17A3.173,3.173,0,0,1,265.668,408.964Z" transform="translate(-156.622 -304.999)"/>
    <path id="Trazado_877428" data-name="Trazado 877428" d="M147.1,175.631h5.071a6.973,6.973,0,0,0,0-13.946H147.1a6.973,6.973,0,0,0,0,13.946Zm0-10.143h5.071a3.17,3.17,0,0,1,0,6.339H147.1a3.17,3.17,0,0,1,0-6.339Z" transform="translate(-65.947 -123.649)"/>
  </g>
</svg>
