<svg xmlns="http://www.w3.org/2000/svg" width="172.694" height="153.302" viewBox="0 0 172.694 153.302">
  <g id="Grupo_1102092" data-name="Grupo 1102092" transform="translate(-1080.239 -3548.91)">
    <path id="Trazado_882455" data-name="Trazado 882455" d="M-1796.464-8039.621h55.052" transform="translate(2932 11626)" fill="none" stroke="#31a854" stroke-width="1"/>
    <path id="Trazado_882456" data-name="Trazado 882456" d="M-1796.464-8039.621h55.052" transform="translate(2934 11710)" fill="none" stroke="#31a854" stroke-width="1"/>
    <path id="Trazado_882457" data-name="Trazado 882457" d="M-1724.994-8033.081l22.994,26.208" transform="translate(2932 11626)" fill="none" stroke="#31a854" stroke-width="1"/>
    <path id="Trazado_882458" data-name="Trazado 882458" d="M-1724.994-8006.873l22.994-26.208" transform="translate(2932 11669.977)" fill="none" stroke="#31a854" stroke-width="1"/>
    <path id="Trazado_882459" data-name="Trazado 882459" d="M-1702-8033.081l-22.994,26.208" transform="translate(2822.994 11626)" fill="none" stroke="#31a854" stroke-width="1"/>
    <path id="Trazado_882460" data-name="Trazado 882460" d="M-1702-8006.873l-22.994-26.208" transform="translate(2822.994 11669.977)" fill="none" stroke="#31a854" stroke-width="1"/>
    <path id="Trazado_882461" data-name="Trazado 882461" d="M-1807-8062.293v15.041" transform="translate(2934 11626)" fill="none" stroke="#31a854" stroke-width="1"/>
    <path id="Trazado_882462" data-name="Trazado 882462" d="M-1807-8062.293v15.041" transform="translate(2934 11657)" fill="none" stroke="#31a854" stroke-width="1"/>
    <path id="Trazado_882463" data-name="Trazado 882463" d="M-1807-8062.293v15.041" transform="translate(2934 11706.293)" fill="none" stroke="#31a854" stroke-width="1"/>
    <path id="Trazado_882464" data-name="Trazado 882464" d="M-1807-8062.293v15.041" transform="translate(2934 11737.293)" fill="none" stroke="#31a854" stroke-width="1"/>
    <path id="Trazado_882472" data-name="Trazado 882472" d="M8.477-3.158A3.662,3.662,0,0,1,7.311-.721,3.82,3.82,0,0,1,4.7.137,3.507,3.507,0,0,1,1.876-1.128,5.088,5.088,0,0,1,.813-4.512v-.957a5.671,5.671,0,0,1,.5-2.44,3.7,3.7,0,0,1,1.4-1.617,3.911,3.911,0,0,1,2.105-.564A3.6,3.6,0,0,1,7.362-9.2,3.706,3.706,0,0,1,8.477-6.754H7.157a2.847,2.847,0,0,0-.742-1.723,2.248,2.248,0,0,0-1.6-.533,2.349,2.349,0,0,0-1.972.93,4.265,4.265,0,0,0-.714,2.646v.964A4.384,4.384,0,0,0,2.81-1.894,2.187,2.187,0,0,0,4.7-.937a2.526,2.526,0,0,0,1.678-.5,2.75,2.75,0,0,0,.776-1.726ZM17.917,0H16.6V-4.6H11.58V0H10.268V-9.953H11.58v4.279H16.6V-9.953h1.319ZM31.37-4.655A6.157,6.157,0,0,1,30.878-2.1,3.728,3.728,0,0,1,29.483-.437a3.837,3.837,0,0,1-2.105.574,3.8,3.8,0,0,1-2.085-.578,3.817,3.817,0,0,1-1.412-1.647,5.908,5.908,0,0,1-.516-2.478v-.718a6.084,6.084,0,0,1,.5-2.536,3.8,3.8,0,0,1,1.412-1.685,3.788,3.788,0,0,1,2.088-.584,3.858,3.858,0,0,1,2.109.578,3.721,3.721,0,0,1,1.4,1.675,6.187,6.187,0,0,1,.492,2.553ZM30.064-5.3a4.463,4.463,0,0,0-.711-2.717,2.345,2.345,0,0,0-1.989-.947,2.32,2.32,0,0,0-1.958.947,4.371,4.371,0,0,0-.735,2.628v.731a4.469,4.469,0,0,0,.721,2.7,2.329,2.329,0,0,0,1.986.981A2.32,2.32,0,0,0,29.347-1.9a4.444,4.444,0,0,0,.718-2.656ZM40.988,0H39.669V-4.6H34.651V0H33.339V-9.953h1.313v4.279h5.018V-9.953h1.319Z" transform="translate(1125 3559)" fill="#12263f"/>
    <path id="Trazado_882475" data-name="Trazado 882475" d="M5.249,0H.591V-.649L3.052-3.384a5.847,5.847,0,0,0,.754-1.008,1.683,1.683,0,0,0,.208-.8,1.276,1.276,0,0,0-.337-.913,1.178,1.178,0,0,0-.9-.356,1.4,1.4,0,0,0-1.047.383,1.464,1.464,0,0,0-.374,1.067h-.9A2.1,2.1,0,0,1,1.086-6.6a2.344,2.344,0,0,1,1.692-.605,2.252,2.252,0,0,1,1.567.52A1.774,1.774,0,0,1,4.922-5.3,4.067,4.067,0,0,1,3.584-2.8L1.68-.737H5.249Z" transform="translate(1144 3566)" fill="#12263f"/>
    <path id="Trazado_882479" data-name="Trazado 882479" d="M5.12-9.481A4.2,4.2,0,0,1,8.248-8.111,4.732,4.732,0,0,1,9.57-4.689,4.873,4.873,0,0,1,8.237-1.183,4.3,4.3,0,0,1,5.011.212a4.275,4.275,0,0,1-3.216-1.36,4.881,4.881,0,0,1-1.3-3.521A4.69,4.69,0,0,1,2-8.271,4.437,4.437,0,0,1,5.12-9.481Zm-.13.5a2.446,2.446,0,0,0-2,.923A5.218,5.218,0,0,0,2.058-4.7,5.506,5.506,0,0,0,3.028-1.2,2.4,2.4,0,0,0,5-.273,2.69,2.69,0,0,0,7.154-1.292,4.967,4.967,0,0,0,8-4.5a5.611,5.611,0,0,0-.937-3.548A2.526,2.526,0,0,0,4.99-8.982Z" transform="translate(1197 3592)" fill="#12263f"/>
    <path id="Trazado_882473" data-name="Trazado 882473" d="M8.429-9.481,8.641-6.33H8.429a3.966,3.966,0,0,0-1.21-2.037,2.947,2.947,0,0,0-1.887-.622,3.07,3.07,0,0,0-1.668.468A3.1,3.1,0,0,0,2.492-7.027a6.653,6.653,0,0,0-.427,2.55,5.414,5.414,0,0,0,.4,2.181A3.022,3.022,0,0,0,3.681-.882,3.49,3.49,0,0,0,5.53-.39,3.207,3.207,0,0,0,7.123-.776,5.25,5.25,0,0,0,8.641-2.311l.212.137A4.867,4.867,0,0,1,7.226-.362,4.118,4.118,0,0,1,5.018.212,4.179,4.179,0,0,1,1.449-1.5,4.886,4.886,0,0,1,.506-4.491a5.317,5.317,0,0,1,.622-2.55,4.5,4.5,0,0,1,1.712-1.8,4.627,4.627,0,0,1,2.382-.639,4.366,4.366,0,0,1,1.982.492,1.076,1.076,0,0,0,.41.15.451.451,0,0,0,.321-.13,1.065,1.065,0,0,0,.253-.513Z" transform="translate(1125 3592)" fill="#12263f"/>
    <path id="Trazado_882482" data-name="Trazado 882482" d="M8.429-9.481,8.641-6.33H8.429a3.966,3.966,0,0,0-1.21-2.037,2.947,2.947,0,0,0-1.887-.622,3.07,3.07,0,0,0-1.668.468A3.1,3.1,0,0,0,2.492-7.027a6.653,6.653,0,0,0-.427,2.55,5.414,5.414,0,0,0,.4,2.181A3.022,3.022,0,0,0,3.681-.882,3.49,3.49,0,0,0,5.53-.39,3.207,3.207,0,0,0,7.123-.776,5.25,5.25,0,0,0,8.641-2.311l.212.137A4.867,4.867,0,0,1,7.226-.362,4.118,4.118,0,0,1,5.018.212,4.179,4.179,0,0,1,1.449-1.5,4.886,4.886,0,0,1,.506-4.491a5.317,5.317,0,0,1,.622-2.55,4.5,4.5,0,0,1,1.712-1.8,4.627,4.627,0,0,1,2.382-.639,4.366,4.366,0,0,1,1.982.492,1.076,1.076,0,0,0,.41.15.451.451,0,0,0,.321-.13,1.065,1.065,0,0,0,.253-.513Z" transform="translate(1125 3672)" fill="#12263f"/>
    <path id="Trazado_882483" data-name="Trazado 882483" d="M8.429-9.481,8.641-6.33H8.429a3.966,3.966,0,0,0-1.21-2.037,2.947,2.947,0,0,0-1.887-.622,3.07,3.07,0,0,0-1.668.468A3.1,3.1,0,0,0,2.492-7.027a6.653,6.653,0,0,0-.427,2.55,5.414,5.414,0,0,0,.4,2.181A3.022,3.022,0,0,0,3.681-.882,3.49,3.49,0,0,0,5.53-.39,3.207,3.207,0,0,0,7.123-.776,5.25,5.25,0,0,0,8.641-2.311l.212.137A4.867,4.867,0,0,1,7.226-.362,4.118,4.118,0,0,1,5.018.212,4.179,4.179,0,0,1,1.449-1.5,4.886,4.886,0,0,1,.506-4.491a5.317,5.317,0,0,1,.622-2.55,4.5,4.5,0,0,1,1.712-1.8,4.627,4.627,0,0,1,2.382-.639,4.366,4.366,0,0,1,1.982.492,1.076,1.076,0,0,0,.41.15.451.451,0,0,0,.321-.13,1.065,1.065,0,0,0,.253-.513Z" transform="translate(1197 3672)" fill="#12263f"/>
    <path id="Trazado_882484" data-name="Trazado 882484" d="M8.429-9.481,8.641-6.33H8.429a3.966,3.966,0,0,0-1.21-2.037,2.947,2.947,0,0,0-1.887-.622,3.07,3.07,0,0,0-1.668.468A3.1,3.1,0,0,0,2.492-7.027a6.653,6.653,0,0,0-.427,2.55,5.414,5.414,0,0,0,.4,2.181A3.022,3.022,0,0,0,3.681-.882,3.49,3.49,0,0,0,5.53-.39,3.207,3.207,0,0,0,7.123-.776,5.25,5.25,0,0,0,8.641-2.311l.212.137A4.867,4.867,0,0,1,7.226-.362,4.118,4.118,0,0,1,5.018.212,4.179,4.179,0,0,1,1.449-1.5,4.886,4.886,0,0,1,.506-4.491a5.317,5.317,0,0,1,.622-2.55,4.5,4.5,0,0,1,1.712-1.8,4.627,4.627,0,0,1,2.382-.639,4.366,4.366,0,0,1,1.982.492,1.076,1.076,0,0,0,.41.15.451.451,0,0,0,.321-.13,1.065,1.065,0,0,0,.253-.513Z" transform="translate(1232 3633)" fill="#12263f"/>
    <path id="Trazado_882477" data-name="Trazado 882477" d="M8.429-9.481,8.641-6.33H8.429a3.966,3.966,0,0,0-1.21-2.037,2.947,2.947,0,0,0-1.887-.622,3.07,3.07,0,0,0-1.668.468A3.1,3.1,0,0,0,2.492-7.027a6.653,6.653,0,0,0-.427,2.55,5.414,5.414,0,0,0,.4,2.181A3.022,3.022,0,0,0,3.681-.882,3.49,3.49,0,0,0,5.53-.39,3.207,3.207,0,0,0,7.123-.776,5.25,5.25,0,0,0,8.641-2.311l.212.137A4.867,4.867,0,0,1,7.226-.362,4.118,4.118,0,0,1,5.018.212,4.179,4.179,0,0,1,1.449-1.5,4.886,4.886,0,0,1,.506-4.491a5.317,5.317,0,0,1,.622-2.55,4.5,4.5,0,0,1,1.712-1.8,4.627,4.627,0,0,1,2.382-.639,4.366,4.366,0,0,1,1.982.492,1.076,1.076,0,0,0,.41.15.451.451,0,0,0,.321-.13,1.065,1.065,0,0,0,.253-.513Z" transform="translate(1087 3635)" fill="#12263f"/>
    <path id="Trazado_882474" data-name="Trazado 882474" d="M2.878-4.97H7.185V-7.622A3.1,3.1,0,0,0,7.1-8.559a.612.612,0,0,0-.287-.294,1.257,1.257,0,0,0-.622-.164H5.858V-9.27H9.823v.253H9.5a1.3,1.3,0,0,0-.622.157.574.574,0,0,0-.3.332,3.3,3.3,0,0,0-.079.906v5.981a3.069,3.069,0,0,0,.089.93.616.616,0,0,0,.28.294A1.3,1.3,0,0,0,9.5-.253h.328V0H5.858V-.253h.328a.981.981,0,0,0,.827-.335,2.009,2.009,0,0,0,.171-1.053V-4.464H2.878v2.823a3.069,3.069,0,0,0,.089.93.612.612,0,0,0,.287.294,1.257,1.257,0,0,0,.622.164h.335V0H.239V-.253H.567A.99.99,0,0,0,1.4-.588a2.082,2.082,0,0,0,.164-1.053V-7.622a3.1,3.1,0,0,0-.089-.937.616.616,0,0,0-.28-.294,1.3,1.3,0,0,0-.629-.164H.239V-9.27H4.211v.253H3.876a1.3,1.3,0,0,0-.622.157.592.592,0,0,0-.294.332,3.164,3.164,0,0,0-.082.906Z" transform="translate(1085 3598)" fill="#12263f"/>
    <path id="Trazado_882481" data-name="Trazado 882481" d="M2.878-4.97H7.185V-7.622A3.1,3.1,0,0,0,7.1-8.559a.612.612,0,0,0-.287-.294,1.257,1.257,0,0,0-.622-.164H5.858V-9.27H9.823v.253H9.5a1.3,1.3,0,0,0-.622.157.574.574,0,0,0-.3.332,3.3,3.3,0,0,0-.079.906v5.981a3.069,3.069,0,0,0,.089.93.616.616,0,0,0,.28.294A1.3,1.3,0,0,0,9.5-.253h.328V0H5.858V-.253h.328a.981.981,0,0,0,.827-.335,2.009,2.009,0,0,0,.171-1.053V-4.464H2.878v2.823a3.069,3.069,0,0,0,.089.93.612.612,0,0,0,.287.294,1.257,1.257,0,0,0,.622.164h.335V0H.239V-.253H.567A.99.99,0,0,0,1.4-.588a2.082,2.082,0,0,0,.164-1.053V-7.622a3.1,3.1,0,0,0-.089-.937.616.616,0,0,0-.28-.294,1.3,1.3,0,0,0-.629-.164H.239V-9.27H4.211v.253H3.876a1.3,1.3,0,0,0-.622.157.592.592,0,0,0-.294.332,3.164,3.164,0,0,0-.082.906ZM15.23-9.481a4.2,4.2,0,0,1,3.127,1.371,4.732,4.732,0,0,1,1.323,3.421,4.873,4.873,0,0,1-1.333,3.507A4.3,4.3,0,0,1,15.121.212,4.275,4.275,0,0,1,11.9-1.148a4.881,4.881,0,0,1-1.3-3.521,4.69,4.69,0,0,1,1.5-3.6A4.437,4.437,0,0,1,15.23-9.481Zm-.13.5a2.446,2.446,0,0,0-2,.923A5.218,5.218,0,0,0,12.168-4.7,5.506,5.506,0,0,0,13.139-1.2a2.4,2.4,0,0,0,1.969.93,2.69,2.69,0,0,0,2.157-1.019A4.967,4.967,0,0,0,18.115-4.5a5.611,5.611,0,0,0-.937-3.548A2.526,2.526,0,0,0,15.1-8.982Z" transform="translate(1080 3668)" fill="#12263f"/>
    <path id="Trazado_882485" data-name="Trazado 882485" d="M5.12-9.481A4.2,4.2,0,0,1,8.248-8.111,4.732,4.732,0,0,1,9.57-4.689,4.873,4.873,0,0,1,8.237-1.183,4.3,4.3,0,0,1,5.011.212a4.275,4.275,0,0,1-3.216-1.36,4.881,4.881,0,0,1-1.3-3.521A4.69,4.69,0,0,1,2-8.271,4.437,4.437,0,0,1,5.12-9.481Zm-.13.5a2.446,2.446,0,0,0-2,.923A5.218,5.218,0,0,0,2.058-4.7,5.506,5.506,0,0,0,3.028-1.2,2.4,2.4,0,0,0,5-.273,2.69,2.69,0,0,0,7.154-1.292,4.967,4.967,0,0,0,8-4.5a5.611,5.611,0,0,0-.937-3.548A2.526,2.526,0,0,0,4.99-8.982Zm8,4.013h4.307V-7.622a3.1,3.1,0,0,0-.089-.937.612.612,0,0,0-.287-.294,1.257,1.257,0,0,0-.622-.164h-.328V-9.27h3.965v.253h-.328a1.3,1.3,0,0,0-.622.157.574.574,0,0,0-.3.332,3.3,3.3,0,0,0-.079.906v5.981a3.069,3.069,0,0,0,.089.93.616.616,0,0,0,.28.294,1.3,1.3,0,0,0,.629.164h.328V0H15.969V-.253H16.3a.981.981,0,0,0,.827-.335,2.009,2.009,0,0,0,.171-1.053V-4.464H12.988v2.823a3.069,3.069,0,0,0,.089.93.612.612,0,0,0,.287.294,1.257,1.257,0,0,0,.622.164h.335V0H10.35V-.253h.328a.99.99,0,0,0,.834-.335,2.082,2.082,0,0,0,.164-1.053V-7.622a3.1,3.1,0,0,0-.089-.937.616.616,0,0,0-.28-.294,1.3,1.3,0,0,0-.629-.164H10.35V-9.27h3.972v.253h-.335a1.3,1.3,0,0,0-.622.157.592.592,0,0,0-.294.332,3.164,3.164,0,0,0-.082.906Z" transform="translate(1233 3663)" fill="#12263f"/>
    <path id="Trazado_882486" data-name="Trazado 882486" d="M2.878-4.97H7.185V-7.622A3.1,3.1,0,0,0,7.1-8.559a.612.612,0,0,0-.287-.294,1.257,1.257,0,0,0-.622-.164H5.858V-9.27H9.823v.253H9.5a1.3,1.3,0,0,0-.622.157.574.574,0,0,0-.3.332,3.3,3.3,0,0,0-.079.906v5.981a3.069,3.069,0,0,0,.089.93.616.616,0,0,0,.28.294A1.3,1.3,0,0,0,9.5-.253h.328V0H5.858V-.253h.328a.981.981,0,0,0,.827-.335,2.009,2.009,0,0,0,.171-1.053V-4.464H2.878v2.823a3.069,3.069,0,0,0,.089.93.612.612,0,0,0,.287.294,1.257,1.257,0,0,0,.622.164h.335V0H.239V-.253H.567A.99.99,0,0,0,1.4-.588a2.082,2.082,0,0,0,.164-1.053V-7.622a3.1,3.1,0,0,0-.089-.937.616.616,0,0,0-.28-.294,1.3,1.3,0,0,0-.629-.164H.239V-9.27H4.211v.253H3.876a1.3,1.3,0,0,0-.622.157.592.592,0,0,0-.294.332,3.164,3.164,0,0,0-.082.906Z" transform="translate(1232 3600)" fill="#12263f"/>
    <path id="Trazado_882487" data-name="Trazado 882487" d="M2.878-4.97H7.185V-7.622A3.1,3.1,0,0,0,7.1-8.559a.612.612,0,0,0-.287-.294,1.257,1.257,0,0,0-.622-.164H5.858V-9.27H9.823v.253H9.5a1.3,1.3,0,0,0-.622.157.574.574,0,0,0-.3.332,3.3,3.3,0,0,0-.079.906v5.981a3.069,3.069,0,0,0,.089.93.616.616,0,0,0,.28.294A1.3,1.3,0,0,0,9.5-.253h.328V0H5.858V-.253h.328a.981.981,0,0,0,.827-.335,2.009,2.009,0,0,0,.171-1.053V-4.464H2.878v2.823a3.069,3.069,0,0,0,.089.93.612.612,0,0,0,.287.294,1.257,1.257,0,0,0,.622.164h.335V0H.239V-.253H.567A.99.99,0,0,0,1.4-.588a2.082,2.082,0,0,0,.164-1.053V-7.622a3.1,3.1,0,0,0-.089-.937.616.616,0,0,0-.28-.294,1.3,1.3,0,0,0-.629-.164H.239V-9.27H4.211v.253H3.876a1.3,1.3,0,0,0-.622.157.592.592,0,0,0-.294.332,3.164,3.164,0,0,0-.082.906Z" transform="translate(1123 3702)" fill="#12263f"/>
    <path id="Trazado_882488" data-name="Trazado 882488" d="M5.12-9.481A4.2,4.2,0,0,1,8.248-8.111,4.732,4.732,0,0,1,9.57-4.689,4.873,4.873,0,0,1,8.237-1.183,4.3,4.3,0,0,1,5.011.212a4.275,4.275,0,0,1-3.216-1.36,4.881,4.881,0,0,1-1.3-3.521A4.69,4.69,0,0,1,2-8.271,4.437,4.437,0,0,1,5.12-9.481Zm-.13.5a2.446,2.446,0,0,0-2,.923A5.218,5.218,0,0,0,2.058-4.7,5.506,5.506,0,0,0,3.028-1.2,2.4,2.4,0,0,0,5-.273,2.69,2.69,0,0,0,7.154-1.292,4.967,4.967,0,0,0,8-4.5a5.611,5.611,0,0,0-.937-3.548A2.526,2.526,0,0,0,4.99-8.982Zm8,4.013h4.307V-7.622a3.1,3.1,0,0,0-.089-.937.612.612,0,0,0-.287-.294,1.257,1.257,0,0,0-.622-.164h-.328V-9.27h3.965v.253h-.328a1.3,1.3,0,0,0-.622.157.574.574,0,0,0-.3.332,3.3,3.3,0,0,0-.079.906v5.981a3.069,3.069,0,0,0,.089.93.616.616,0,0,0,.28.294,1.3,1.3,0,0,0,.629.164h.328V0H15.969V-.253H16.3a.981.981,0,0,0,.827-.335,2.009,2.009,0,0,0,.171-1.053V-4.464H12.988v2.823a3.069,3.069,0,0,0,.089.93.612.612,0,0,0,.287.294,1.257,1.257,0,0,0,.622.164h.335V0H10.35V-.253h.328a.99.99,0,0,0,.834-.335,2.082,2.082,0,0,0,.164-1.053V-7.622a3.1,3.1,0,0,0-.089-.937.616.616,0,0,0-.28-.294,1.3,1.3,0,0,0-.629-.164H10.35V-9.27h3.972v.253h-.335a1.3,1.3,0,0,0-.622.157.592.592,0,0,0-.294.332,3.164,3.164,0,0,0-.082.906Z" transform="translate(1193 3702)" fill="#12263f"/>
    <path id="Trazado_882480" data-name="Trazado 882480" d="M2.878-4.97H7.185V-7.622A3.1,3.1,0,0,0,7.1-8.559a.612.612,0,0,0-.287-.294,1.257,1.257,0,0,0-.622-.164H5.858V-9.27H9.823v.253H9.5a1.3,1.3,0,0,0-.622.157.574.574,0,0,0-.3.332,3.3,3.3,0,0,0-.079.906v5.981a3.069,3.069,0,0,0,.089.93.616.616,0,0,0,.28.294A1.3,1.3,0,0,0,9.5-.253h.328V0H5.858V-.253h.328a.981.981,0,0,0,.827-.335,2.009,2.009,0,0,0,.171-1.053V-4.464H2.878v2.823a3.069,3.069,0,0,0,.089.93.612.612,0,0,0,.287.294,1.257,1.257,0,0,0,.622.164h.335V0H.239V-.253H.567A.99.99,0,0,0,1.4-.588a2.082,2.082,0,0,0,.164-1.053V-7.622a3.1,3.1,0,0,0-.089-.937.616.616,0,0,0-.28-.294,1.3,1.3,0,0,0-.629-.164H.239V-9.27H4.211v.253H3.876a1.3,1.3,0,0,0-.622.157.592.592,0,0,0-.294.332,3.164,3.164,0,0,0-.082.906Z" transform="translate(1199 3641)" fill="#12263f"/>
    <path id="Trazado_882478" data-name="Trazado 882478" d="M5.12-9.481A4.2,4.2,0,0,1,8.248-8.111,4.732,4.732,0,0,1,9.57-4.689,4.873,4.873,0,0,1,8.237-1.183,4.3,4.3,0,0,1,5.011.212a4.275,4.275,0,0,1-3.216-1.36,4.881,4.881,0,0,1-1.3-3.521A4.69,4.69,0,0,1,2-8.271,4.437,4.437,0,0,1,5.12-9.481Zm-.13.5a2.446,2.446,0,0,0-2,.923A5.218,5.218,0,0,0,2.058-4.7,5.506,5.506,0,0,0,3.028-1.2,2.4,2.4,0,0,0,5-.273,2.69,2.69,0,0,0,7.154-1.292,4.967,4.967,0,0,0,8-4.5a5.611,5.611,0,0,0-.937-3.548A2.526,2.526,0,0,0,4.99-8.982Zm8,4.013h4.307V-7.622a3.1,3.1,0,0,0-.089-.937.612.612,0,0,0-.287-.294,1.257,1.257,0,0,0-.622-.164h-.328V-9.27h3.965v.253h-.328a1.3,1.3,0,0,0-.622.157.574.574,0,0,0-.3.332,3.3,3.3,0,0,0-.079.906v5.981a3.069,3.069,0,0,0,.089.93.616.616,0,0,0,.28.294,1.3,1.3,0,0,0,.629.164h.328V0H15.969V-.253H16.3a.981.981,0,0,0,.827-.335,2.009,2.009,0,0,0,.171-1.053V-4.464H12.988v2.823a3.069,3.069,0,0,0,.089.93.612.612,0,0,0,.287.294,1.257,1.257,0,0,0,.622.164h.335V0H10.35V-.253h.328a.99.99,0,0,0,.834-.335,2.082,2.082,0,0,0,.164-1.053V-7.622a3.1,3.1,0,0,0-.089-.937.616.616,0,0,0-.28-.294,1.3,1.3,0,0,0-.629-.164H10.35V-9.27h3.972v.253h-.335a1.3,1.3,0,0,0-.622.157.592.592,0,0,0-.294.332,3.164,3.164,0,0,0-.082.906Z" transform="translate(1120 3641)" fill="#12263f"/>
    <path id="Trazado_882476" data-name="Trazado 882476" d="M2.878-4.97H7.185V-7.622A3.1,3.1,0,0,0,7.1-8.559a.612.612,0,0,0-.287-.294,1.257,1.257,0,0,0-.622-.164H5.858V-9.27H9.823v.253H9.5a1.3,1.3,0,0,0-.622.157.574.574,0,0,0-.3.332,3.3,3.3,0,0,0-.079.906v5.981a3.069,3.069,0,0,0,.089.93.616.616,0,0,0,.28.294A1.3,1.3,0,0,0,9.5-.253h.328V0H5.858V-.253h.328a.981.981,0,0,0,.827-.335,2.009,2.009,0,0,0,.171-1.053V-4.464H2.878v2.823a3.069,3.069,0,0,0,.089.93.612.612,0,0,0,.287.294,1.257,1.257,0,0,0,.622.164h.335V0H.239V-.253H.567A.99.99,0,0,0,1.4-.588a2.082,2.082,0,0,0,.164-1.053V-7.622a3.1,3.1,0,0,0-.089-.937.616.616,0,0,0-.28-.294,1.3,1.3,0,0,0-.629-.164H.239V-9.27H4.211v.253H3.876a1.3,1.3,0,0,0-.622.157.592.592,0,0,0-.294.332,3.164,3.164,0,0,0-.082.906Z" transform="translate(1123 3622)" fill="#12263f"/>
    <path id="Trazado_882465" data-name="Trazado 882465" d="M-1807-8062.293v15.041" transform="translate(3043.5 11664.772)" fill="none" stroke="#31a854" stroke-width="1"/>
    <path id="Trazado_882466" data-name="Trazado 882466" d="M-1807-8062.293v15.041" transform="translate(3043.5 11698.252)" fill="none" stroke="#31a854" stroke-width="1"/>
    <path id="Trazado_882467" data-name="Trazado 882467" d="M-1807-8062.293v15.041" transform="translate(3008.5 11737.252)" fill="none" stroke="#31a854" stroke-width="1"/>
    <path id="Trazado_882468" data-name="Trazado 882468" d="M-1807-8062.293v15.041" transform="translate(2897 11664.772)" fill="none" stroke="#31a854" stroke-width="1"/>
    <path id="Trazado_882469" data-name="Trazado 882469" d="M-1807-8062.293v15.041" transform="translate(2897 11700.252)" fill="none" stroke="#31a854" stroke-width="1"/>
    <path id="Trazado_882470" data-name="Trazado 882470" d="M-1807-8062.293v15.041" transform="translate(3008.5 11705.752)" fill="none" stroke="#31a854" stroke-width="1"/>
  </g>
</svg>
