<svg xmlns="http://www.w3.org/2000/svg" xmlns:xlink="http://www.w3.org/1999/xlink" width="92" height="92" viewBox="0 0 92 92">
  <defs>
    <clipPath id="clip-path">
      <rect id="Rectángulo_401401" data-name="Rectángulo 401401" width="58.024" height="58.024" fill="#526766"/>
    </clipPath>
  </defs>
  <g id="Grupo_1100838" data-name="Grupo 1100838" transform="translate(-1069.051 -1360)">
    <circle id="Elipse_11544" data-name="Elipse 11544" cx="46" cy="46" r="46" transform="translate(1069.051 1360)" fill="#dbeceb"/>
    <g id="Grupo_1100825" data-name="Grupo 1100825" transform="translate(1086.488 1377.104)">
      <g id="Grupo_1100824" data-name="Grupo 1100824" clip-path="url(#clip-path)">
        <path id="Trazado_876078" data-name="Trazado 876078" d="M55.439,40.523H2.584A2.587,2.587,0,0,0,0,43.107v1A2.588,2.588,0,0,0,2.584,46.7H26.908L22.1,55.027a2,2,0,0,0,1.73,3H34.2a1.995,1.995,0,0,0,1.73-3L31.115,46.7H55.439a2.588,2.588,0,0,0,2.584-2.584v-1a2.587,2.587,0,0,0-2.584-2.584M34.5,56.2a.339.339,0,0,1-.307.176H23.828a.35.35,0,0,1-.3-.529l5.183-8.98a.354.354,0,0,1,.611,0l5.185,8.98a.338.338,0,0,1,0,.353M56.38,44.112a.941.941,0,0,1-.941.939H2.584a.94.94,0,0,1-.939-.939v-1a.941.941,0,0,1,.939-.941H55.439a.941.941,0,0,1,.941.941Zm-46.8-9.654H30.111A6.824,6.824,0,0,0,35.7,37.632a6.3,6.3,0,0,0,3.186-.878,6.3,6.3,0,0,0,3.186.878c3.965,0,7.194-3.83,7.194-8.535a8.914,8.914,0,0,0-3.631-7.411,7.087,7.087,0,0,0,3.4-5.929.826.826,0,0,0-.426-.74,7.164,7.164,0,0,0-8.9,1.65V15.621a.823.823,0,0,0-1.646,0v5.412a6.225,6.225,0,0,0-2.362-.471,6.1,6.1,0,0,0-1.119.1V6.545a.811.811,0,0,0-.2-.538L29.4.283A.816.816,0,0,0,28.781,0H9.579a.823.823,0,0,0-.824.822V33.636a.823.823,0,0,0,.824.822M42.424,16.517a5.453,5.453,0,0,1,4.935-.283,5.5,5.5,0,0,1-3.64,4.555,6.157,6.157,0,0,0-2.268-.2l2.5-1.44a.823.823,0,1,0-.822-1.426L39.952,19.56a5.429,5.429,0,0,1,2.472-3.043m-4.008,6.571a.82.82,0,0,0,.943,0,4.746,4.746,0,0,1,2.715-.883c3.06,0,5.55,3.092,5.55,6.892s-2.491,6.892-5.55,6.892A4.732,4.732,0,0,1,39.36,35.1a.828.828,0,0,0-.943,0,4.719,4.719,0,0,1-2.713.885c-3.062,0-5.55-3.092-5.55-6.892s2.488-6.892,5.55-6.892a4.733,4.733,0,0,1,2.713.883M29.6,3.02l2.353,2.7H29.6ZM10.4,1.646H27.96v4.9a.821.821,0,0,0,.822.822h4.157V21.218A8.688,8.688,0,0,0,28.507,29.1a9.794,9.794,0,0,0,.721,3.717H10.4ZM17.482,7.84a.823.823,0,0,1,.822-.824h6.732a.823.823,0,0,1,0,1.646H18.3a.821.821,0,0,1-.822-.822m5.009,18.781a.821.821,0,0,1-.822.822H13.884a.822.822,0,1,1,0-1.643H21.67a.821.821,0,0,1,.822.822M13.062,12.533a.821.821,0,0,1,.822-.822H29.455a.823.823,0,0,1,0,1.646H13.884a.823.823,0,0,1-.822-.824m0,9.392a.821.821,0,0,1,.822-.822H29.455a.822.822,0,1,1,0,1.643H13.884a.821.821,0,0,1-.822-.822m0-4.7a.821.821,0,0,1,.822-.822H29.455a.822.822,0,0,1,0,1.643H13.884a.821.821,0,0,1-.822-.822" fill="#526766"/>
      </g>
    </g>
  </g>
</svg>
