<svg xmlns="http://www.w3.org/2000/svg" xmlns:xlink="http://www.w3.org/1999/xlink" width="92" height="92" viewBox="0 0 92 92">
  <defs>
    <clipPath id="clip-path">
      <rect id="Rectángulo_401402" data-name="Rectángulo 401402" width="58.988" height="58.99" fill="#526766"/>
    </clipPath>
  </defs>
  <g id="Grupo_1100836" data-name="Grupo 1100836" transform="translate(6913 10248)">
    <circle id="Elipse_11545" data-name="Elipse 11545" cx="46" cy="46" r="46" transform="translate(-6913 -10248)" fill="#dbeceb"/>
    <g id="Grupo_1100827" data-name="Grupo 1100827" transform="translate(-6896 -10234)">
      <g id="Grupo_1100826" data-name="Grupo 1100826" clip-path="url(#clip-path)">
        <path id="Trazado_876079" data-name="Trazado 876079" d="M27.171,15.423c.595.945,1.159,1.837,1.6,2.644a.835.835,0,0,0,1.466,0c.378-.692.9-1.516,1.461-2.387a31.322,31.322,0,0,0,3.57-6.758c.949-2.92.545-5.285-1.207-7.037a6.452,6.452,0,0,0-9.114,0c-1.728,1.728-2.161,4.024-1.283,6.823a30.863,30.863,0,0,0,3.508,6.715M26.127,3.067a4.78,4.78,0,0,1,6.754,0c2.977,2.977-.112,7.822-2.594,11.713-.269.424-.533.838-.778,1.233-.29-.478-.6-.973-.923-1.483-2.522-4-5.38-8.538-2.458-11.463M32.4,6.106a2.908,2.908,0,1,0-2.908,2.906A2.911,2.911,0,0,0,32.4,6.106m-4.143,0a1.235,1.235,0,1,1,1.235,1.235,1.238,1.238,0,0,1-1.235-1.235m9.428,37.123a.839.839,0,0,0-.033-.854l-3.1-4.8a.837.837,0,0,0-.7-.381H27.8a.837.837,0,0,0-.838.835v4.8a.837.837,0,0,0,.838.835h9.148a.837.837,0,0,0,.735-.435M28.64,41.994V38.87h4.755l2.023,3.125Zm12.246,9.571V43.377a2.59,2.59,0,0,0-.433-1.461l-3.865-5.973a2.651,2.651,0,0,0-2.261-1.228H26.169V28.766a.835.835,0,0,0-.835-.835H19.718a5.93,5.93,0,0,0,.424-2.161V20.741a.832.832,0,0,0-.685-.821,9.977,9.977,0,0,1-3.772-1.606.845.845,0,0,0-.469-.145H11.884a.839.839,0,0,0-.469.145A9.986,9.986,0,0,1,7.641,19.92a.835.835,0,0,0-.685.821V25.77a5.933,5.933,0,0,0,.426,2.161H1.766a.837.837,0,0,0-.838.835V51.713A1.761,1.761,0,0,0,0,53.265v1.43a1.768,1.768,0,0,0,1.766,1.763H5.823a5.007,5.007,0,0,0,8.7,0h12.76a5,5,0,0,0,8.7,0h4.426a1.766,1.766,0,0,0,1.763-1.763v-1.43a1.768,1.768,0,0,0-1.295-1.7M8.629,21.412a11.772,11.772,0,0,0,3.508-1.571h2.827a11.772,11.772,0,0,0,3.508,1.571V25.77c0,2.461-2.544,5-4.921,5.859-2.377-.861-4.921-3.4-4.921-5.859ZM1.766,54.785a.094.094,0,0,1-.093-.09v-1.43a.094.094,0,0,1,.093-.093H5.231a4.917,4.917,0,0,0,0,1.613Zm8.41,2.532a3.339,3.339,0,1,1,3.339-3.339,3.341,3.341,0,0,1-3.339,3.339m0-8.348A5.014,5.014,0,0,0,5.823,51.5H2.6V29.6H8.293A10.158,10.158,0,0,0,13.3,33.306a.808.808,0,0,0,.25.04.819.819,0,0,0,.25-.04A10.169,10.169,0,0,0,18.807,29.6H24.5V51.5H14.528a5.014,5.014,0,0,0-4.352-2.532m4.945,5.816a5.1,5.1,0,0,0,0-1.613H26.693a5.1,5.1,0,0,0,0,1.613Zm16.517,2.532a3.339,3.339,0,1,1,3.339-3.339,3.343,3.343,0,0,1-3.339,3.339m0-8.348A5.017,5.017,0,0,0,27.286,51.5H26.169V36.388h8.158a.977.977,0,0,1,.857.464l3.867,5.971a.94.94,0,0,1,.162.554V51.5H35.99a5.011,5.011,0,0,0-4.352-2.532m8.869,5.726a.094.094,0,0,1-.09.09H36.583a4.917,4.917,0,0,0,0-1.613h3.834a.094.094,0,0,1,.09.093Zm-8.869-2.967a2.252,2.252,0,1,0,2.254,2.251,2.256,2.256,0,0,0-2.254-2.251m0,2.832a.579.579,0,1,1,.581-.581.579.579,0,0,1-.581.581M10.176,51.727a2.252,2.252,0,1,0,2.251,2.251,2.254,2.254,0,0,0-2.251-2.251m0,2.832a.579.579,0,1,1,.581-.581.58.58,0,0,1-.581.581m48.812-27.34V42.994a5.619,5.619,0,0,1-5.614,5.611H44.529a.835.835,0,1,1,0-1.671h8.845a3.946,3.946,0,0,0,3.941-3.941V27.219a3.946,3.946,0,0,0-3.941-3.941H29.5a.835.835,0,1,1,0-1.671H53.374a5.619,5.619,0,0,1,5.614,5.611M13.55,29.6a2.9,2.9,0,0,0,2.894-2.891V24.4a.835.835,0,0,0-.671-.819v-.262a2.224,2.224,0,1,0-4.448,0v.262a.835.835,0,0,0-.669.819V26.71A2.9,2.9,0,0,0,13.55,29.6m1.221-2.891a1.221,1.221,0,1,1-2.442,0V25.239h2.442ZM13.55,22.771a.559.559,0,0,1,.552.552v.245H13v-.245a.559.559,0,0,1,.552-.552" fill="#526766"/>
      </g>
    </g>
  </g>
</svg>
