<svg xmlns="http://www.w3.org/2000/svg" xmlns:xlink="http://www.w3.org/1999/xlink" width="92" height="92" viewBox="0 0 92 92">
  <defs>
    <clipPath id="clip-path">
      <rect id="Rectángulo_401404" data-name="Rectángulo 401404" width="58.93" height="58.714" fill="#526766"/>
    </clipPath>
  </defs>
  <g id="Grupo_1100832" data-name="Grupo 1100832" transform="translate(6241 10248)">
    <circle id="Elipse_11547" data-name="Elipse 11547" cx="46" cy="46" r="46" transform="translate(-6241 -10248)" fill="#dbeceb"/>
    <g id="Grupo_1100831" data-name="Grupo 1100831" transform="translate(-6224 -10231)">
      <g id="Grupo_1100830" data-name="Grupo 1100830" clip-path="url(#clip-path)">
        <path id="Trazado_876081" data-name="Trazado 876081" d="M58.706,38.651a3.987,3.987,0,0,0-2.832-2.544,10.038,10.038,0,0,0-5.057.189c-2.026-3.372-6.476-5.329-12.389-5.43-1.453-2.84-1.113-3.841-.554-5.471a14.488,14.488,0,0,0,.858-3.811A12.205,12.205,0,0,0,55.624,10.577a.838.838,0,0,0-.433-.75,12.113,12.113,0,0,0-10.984-.389A12.1,12.1,0,0,0,38.381.121a.833.833,0,0,0-.865,0,12.11,12.11,0,0,0-5.83,9.316A12.109,12.109,0,0,0,20.7,9.827a.833.833,0,0,0-.433.75A12.178,12.178,0,0,0,37.049,21.632a12.965,12.965,0,0,1-.756,3.224,6.767,6.767,0,0,0,.292,6.038c-4.084.2-7.387,1.3-9.645,3.23-4.5-2.525-7.3-1.424-11.207.489-2.109,1.031-4.2,2.027-6.179,2.961l-.414-1a2.607,2.607,0,0,0-3.4-1.4L1.606,36.894A2.595,2.595,0,0,0,.2,40.3l7,16.818a2.6,2.6,0,0,0,3.4,1.4L14.739,56.8a2.591,2.591,0,0,0,1.4-3.4l-.468-1.126,2.7-1.311A4.056,4.056,0,0,1,21.4,50.7L30,53.2a6.993,6.993,0,0,0,1.954.262,19.452,19.452,0,0,0,6.7-1.717l.521-.2L55.32,45.32a5.675,5.675,0,0,0,3.385-6.669m-4.774-27.6A10.536,10.536,0,0,1,39.693,20.17l7.033-4.061a.835.835,0,1,0-.834-1.446l-3.153,1.82a12.156,12.156,0,0,0,1.5-5.189,10.452,10.452,0,0,1,9.693-.239M37.948,1.826a10.534,10.534,0,0,1,.834,16.841V10.559a.834.834,0,1,0-1.669,0v8.109a10.535,10.535,0,0,1,.834-16.841M27.207,19.441a10.455,10.455,0,0,1-5.242-8.387,10.452,10.452,0,0,1,9.693.239,12.153,12.153,0,0,0,1.5,5.189L30,14.663a.836.836,0,0,0-.837,1.446L36.2,20.17a10.444,10.444,0,0,1-9-.729M37.948,32.532c5.3,0,9.3,1.532,11.191,4.239l-9.89,2.9c-.045-.092-.1-.184-.147-.273a4.462,4.462,0,0,0-2.725-2.1l-7.658-2.052-.273-.189c2.194-1.638,5.516-2.53,9.5-2.53M14.606,54.753a.928.928,0,0,1-.506.5L9.963,56.973a.931.931,0,0,1-1.215-.5l-7-16.818a.922.922,0,0,1,.5-1.217l4.137-1.717a.919.919,0,0,1,.354-.071.93.93,0,0,1,.861.572l7,16.818a.929.929,0,0,1,0,.714M54.719,43.762,38.573,49.984l-.528.2c-2.366.921-5.311,2.066-7.582,1.407l-8.6-2.5a5.733,5.733,0,0,0-4.222.36l-2.608,1.268L10.2,39.118c2-.947,4.127-1.957,6.269-3,4.115-2.013,6.493-2.9,11.409.587a.822.822,0,0,0,.269.125l7.8,2.09a2.826,2.826,0,0,1-1.462,5.459L24.113,41.6a.835.835,0,0,0-.433,1.613l10.368,2.778a4.5,4.5,0,0,0,5.506-3.179,4.439,4.439,0,0,0,.138-1.527l10.8-3.169c3.569-1.047,6.046-.646,6.628,1.073a4.037,4.037,0,0,1-2.406,4.575" transform="translate(0 0)" fill="#526766"/>
      </g>
    </g>
  </g>
</svg>
