<svg xmlns="http://www.w3.org/2000/svg" xmlns:xlink="http://www.w3.org/1999/xlink" width="92" height="92" viewBox="0 0 92 92">
  <defs>
    <clipPath id="clip-path">
      <rect id="Rectángulo_401405" data-name="Rectángulo 401405" width="53.807" height="59.517" fill="#526766"/>
    </clipPath>
  </defs>
  <g id="Grupo_1100835" data-name="Grupo 1100835" transform="translate(6913 9848)">
    <circle id="Elipse_11548" data-name="Elipse 11548" cx="46" cy="46" r="46" transform="translate(-6913 -9848)" fill="#dbeceb"/>
    <g id="Grupo_1100834" data-name="Grupo 1100834" transform="translate(-6895.41 -9832.647)">
      <g id="Grupo_1100833" data-name="Grupo 1100833" clip-path="url(#clip-path)">
        <path id="Trazado_876082" data-name="Trazado 876082" d="M53.6,16.7l-7.54-8.663a.837.837,0,0,0-.636-.291H27.275a.216.216,0,0,0,.022-.024,1.748,1.748,0,0,0,0-2.471L25.349,3.306a1.748,1.748,0,0,0-2.471,0,2.172,2.172,0,0,1-2.4.475,2.175,2.175,0,0,1-1.361-2.034A1.751,1.751,0,0,0,17.367,0H14.613a1.751,1.751,0,0,0-1.748,1.748A2.175,2.175,0,0,1,11.5,3.782a2.172,2.172,0,0,1-2.4-.475,1.748,1.748,0,0,0-2.471,0L4.685,5.254a1.748,1.748,0,0,0,0,2.471,2.206,2.206,0,0,1-1.558,3.763,1.75,1.75,0,0,0-1.748,1.748v2.754a1.75,1.75,0,0,0,1.748,1.748A2.206,2.206,0,0,1,4.685,21.5a1.748,1.748,0,0,0,0,2.471l1.947,1.947a1.748,1.748,0,0,0,2.471,0,2.2,2.2,0,0,1,3.763,1.558,1.75,1.75,0,0,0,1.748,1.748h.9V58.271a.842.842,0,0,0,.843.843H52.964a.842.842,0,0,0,.843-.843V17.257A.853.853,0,0,0,53.6,16.7m-7.333-5.856,4.845,5.568H46.268ZM14.553,27.476a3.835,3.835,0,0,0-2.4-3.595,3.967,3.967,0,0,0-1.513-.3,3.841,3.841,0,0,0-2.728,1.15.061.061,0,0,1-.086,0L5.876,22.78a.066.066,0,0,1,0-.086,3.891,3.891,0,0,0-2.749-6.642.064.064,0,0,1-.062-.062V13.235a.062.062,0,0,1,.062-.06,3.832,3.832,0,0,0,3.592-2.4,3.829,3.829,0,0,0-.843-4.238.066.066,0,0,1,0-.086L7.823,4.5a.061.061,0,0,1,.086,0,3.833,3.833,0,0,0,4.24.84,3.832,3.832,0,0,0,2.4-3.592.059.059,0,0,1,.06-.06h2.754a.059.059,0,0,1,.06.06,3.832,3.832,0,0,0,2.4,3.592,3.829,3.829,0,0,0,4.238-.84.061.061,0,0,1,.086,0L26.1,6.447a.055.055,0,0,1,.019.043.06.06,0,0,1-.019.043,3.893,3.893,0,0,0,2.752,6.642.062.062,0,0,1,.062.06v2.754a.064.064,0,0,1-.062.062A3.892,3.892,0,0,0,26.1,22.693a.055.055,0,0,1,.019.043.06.06,0,0,1-.019.043l-1.947,1.947a.061.061,0,0,1-.086,0,3.891,3.891,0,0,0-6.642,2.749.062.062,0,0,1-.06.062H14.613a.062.062,0,0,1-.06-.062M17.2,57.426v-28.2h.17a1.75,1.75,0,0,0,1.748-1.748,2.206,2.206,0,0,1,3.763-1.558,1.748,1.748,0,0,0,2.471,0L27.3,23.971a1.748,1.748,0,0,0,0-2.471,2.206,2.206,0,0,1,1.558-3.763A1.75,1.75,0,0,0,30.6,15.989V13.235a1.75,1.75,0,0,0-1.748-1.748,2.175,2.175,0,0,1-2.034-1.361,2.283,2.283,0,0,1-.163-.689H44.582v7.821a.842.842,0,0,0,.843.843h6.7V57.426ZM3.907,28.209A3.911,3.911,0,0,0,0,32.115V53.526a.826.826,0,0,0,.12.432L3.182,59.1a.843.843,0,0,0,1.45,0l3.061-5.146a.826.826,0,0,0,.12-.432V32.115a3.911,3.911,0,0,0-3.907-3.907m0,1.686a2.222,2.222,0,0,1,2.219,2.221V33.71H1.688V32.115a2.222,2.222,0,0,1,2.219-2.221M1.688,35.4H6.125V52.683H1.688ZM3.907,57.025l-1.58-2.653h3.16ZM23.45,14.613a7.459,7.459,0,1,0-7.46,7.458,7.469,7.469,0,0,0,7.46-7.458m-7.46,5.772a5.772,5.772,0,1,1,5.772-5.772,5.781,5.781,0,0,1-5.772,5.772M47.144,30.679a.844.844,0,0,1-.845.843H23.017a.843.843,0,1,1,0-1.686H46.3a.844.844,0,0,1,.845.843m0,6.274a.844.844,0,0,1-.845.843H23.017a.843.843,0,1,1,0-1.686H46.3a.844.844,0,0,1,.845.843m0,6.274a.844.844,0,0,1-.845.843H23.017a.843.843,0,1,1,0-1.686H46.3a.844.844,0,0,1,.845.843M35.5,49.5a.844.844,0,0,1-.843.845H23.017a.844.844,0,1,1,0-1.688H34.658a.842.842,0,0,1,.843.843" fill="#526766"/>
      </g>
    </g>
  </g>
</svg>
