<svg xmlns="http://www.w3.org/2000/svg" xmlns:xlink="http://www.w3.org/1999/xlink" width="116" height="115" viewBox="0 0 116 115">
  <defs>
    <clipPath id="clip-path">
      <rect id="Rectángulo_401578" data-name="Rectángulo 401578" width="70" height="80" transform="translate(0 0)" fill="none"/>
    </clipPath>
  </defs>
  <g id="Grupo_1100884" data-name="Grupo 1100884" transform="translate(-847.051 -1178)">
    <rect id="Rectángulo_401575" data-name="Rectángulo 401575" width="116" height="115" rx="8" transform="translate(847.051 1178)" fill="#f9d0ac"/>
    <g id="Grupo_1100883" data-name="Grupo 1100883" transform="translate(870.051 1195.996)">
      <g id="Grupo_1100882" data-name="Grupo 1100882" transform="translate(0 0.004)" clip-path="url(#clip-path)">
        <path id="Trazado_876797" data-name="Trazado 876797" d="M62.479,138.669h-42.5a2.5,2.5,0,0,1-2.5-2.5V72.419a2.5,2.5,0,0,1,2.5-2.5h42.5a2.5,2.5,0,0,1,2.5,2.5v63.75a2.5,2.5,0,0,1-2.5,2.5" transform="translate(-16.229 -64.919)" fill="#73ceff"/>
        <rect id="Rectángulo_401576" data-name="Rectángulo 401576" width="37.5" height="63.75" transform="translate(6.25 5)" fill="#f0f0f0"/>
        <path id="Trazado_876798" data-name="Trazado 876798" d="M224.746,21.232H223.5a3.75,3.75,0,1,0-7.5,0h-6.25v6.25h20v-6.25Z" transform="translate(-194.746 -16.232)" fill="#8c8c8e"/>
        <path id="Trazado_876799" data-name="Trazado 876799" d="M561.844,734.115a13.123,13.123,0,0,0-5,.983,13.123,13.123,0,0,0-5-.983,9.76,9.76,0,0,0-10,10c0,5.638,5.451,16.25,11.25,16.25a7.676,7.676,0,0,0,3.75-1.009,7.676,7.676,0,0,0,3.75,1.009c5.8,0,11.25-10.612,11.25-16.25a9.76,9.76,0,0,0-10-10" transform="translate(-503.094 -681.615)" fill="#ff8c8b"/>
        <path id="Trazado_876800" data-name="Trazado 876800" d="M753.345,631.118c-1.754,1.875-1.754,5.625-1.754,5.625s3.509,0,5.263-1.875,1.754-5.625,1.754-5.625-3.509,0-5.263,1.875" transform="translate(-697.841 -584.243)" fill="#b8f09c"/>
        <rect id="Rectángulo_401577" data-name="Rectángulo 401577" width="12.5" height="5" transform="translate(18.75 18.75)" fill="#b8f09c"/>
        <path id="Trazado_876801" data-name="Trazado 876801" d="M211,404.517h17.5a1.25,1.25,0,0,0,0-2.5H211a1.25,1.25,0,1,0,0,2.5" transform="translate(-194.746 -373.267)" fill="#4e5c6f"/>
        <path id="Trazado_876802" data-name="Trazado 876802" d="M228.5,751.594H211a1.25,1.25,0,0,0,0,2.5h17.5a1.25,1.25,0,0,0,0-2.5" transform="translate(-194.746 -697.844)" fill="#4e5c6f"/>
        <path id="Trazado_876803" data-name="Trazado 876803" d="M176.038,474.432h22.5a1.25,1.25,0,0,0,0-2.5h-22.5a1.25,1.25,0,0,0,0,2.5" transform="translate(-162.288 -438.182)" fill="#4e5c6f"/>
        <path id="Trazado_876804" data-name="Trazado 876804" d="M176.038,544.348h22.5a1.25,1.25,0,0,0,0-2.5h-22.5a1.25,1.25,0,0,0,0,2.5" transform="translate(-162.288 -503.098)" fill="#4e5c6f"/>
        <path id="Trazado_876805" data-name="Trazado 876805" d="M176.038,614.263h22.5a1.25,1.25,0,1,0,0-2.5h-22.5a1.25,1.25,0,1,0,0,2.5" transform="translate(-162.288 -568.013)" fill="#4e5c6f"/>
        <path id="Trazado_876806" data-name="Trazado 876806" d="M198.539,681.679h-22.5a1.25,1.25,0,0,0,0,2.5h22.5a1.25,1.25,0,0,0,0-2.5" transform="translate(-162.289 -632.929)" fill="#4e5c6f"/>
        <path id="Trazado_876807" data-name="Trazado 876807" d="M60.065,51.325c1.9-2.2,1.952-5.9,1.952-6.322a1.25,1.25,0,0,0-1.25-1.25A9.722,9.722,0,0,0,55,45.632V43.753a1.25,1.25,0,1,0-2.5,0v7.985A15.664,15.664,0,0,0,50,51.31V7.5a3.754,3.754,0,0,0-3.75-3.75H29.842a5,5,0,0,0-9.684,0H3.75A3.754,3.754,0,0,0,0,7.5v63.75A3.754,3.754,0,0,0,3.75,75H42.228c2.142,2.884,4.849,5,7.772,5a9.717,9.717,0,0,0,3.75-.826A9.718,9.718,0,0,0,57.5,80C64.341,80,70,68.416,70,62.5a10.965,10.965,0,0,0-9.935-11.178m-3.648-3.593A5.529,5.529,0,0,1,59.4,46.391a6.622,6.622,0,0,1-1.3,3.383,5.53,5.53,0,0,1-2.985,1.341,6.62,6.62,0,0,1,1.3-3.383M45,6.253h1.25A1.251,1.251,0,0,1,47.5,7.5V51.317a11.664,11.664,0,0,0-2.5.532Zm-23.75,0A1.25,1.25,0,0,0,22.5,5a2.5,2.5,0,0,1,5,0,1.25,1.25,0,0,0,1.25,1.25h5V10H16.25V6.253Zm-13.75,0h6.25v5A1.25,1.25,0,0,0,15,12.5H35a1.25,1.25,0,0,0,1.25-1.25v-5H42.5V53.041a11.052,11.052,0,0,0-5,9.462,17.036,17.036,0,0,0,.917,5H7.5ZM3.75,72.5a1.251,1.251,0,0,1-1.25-1.25V7.5a1.251,1.251,0,0,1,1.25-1.25H5v62.5A1.25,1.25,0,0,0,6.25,70H39.365a27.428,27.428,0,0,0,1.246,2.5Zm53.75,5a6.593,6.593,0,0,1-3.029-.78,1.25,1.25,0,0,0-1.441,0A6.593,6.593,0,0,1,50,77.5c-2.14,0-4.6-1.976-6.738-5.421C41.311,68.944,40,65.094,40,62.5a8.558,8.558,0,0,1,8.75-8.75,11.8,11.8,0,0,1,4.476.868,1.25,1.25,0,0,0,1.048,0,11.8,11.8,0,0,1,4.476-.868A8.558,8.558,0,0,1,67.5,62.5c0,2.591-1.311,6.441-3.262,9.579C62.1,75.527,59.64,77.5,57.5,77.5" transform="translate(0 -0.003)" fill="#4e5c6f"/>
        <path id="Trazado_876808" data-name="Trazado 876808" d="M245.954,252.207h12.5a1.25,1.25,0,0,0,1.25-1.25v-5a1.25,1.25,0,0,0-1.25-1.25h-12.5a1.25,1.25,0,0,0-1.25,1.25v5a1.25,1.25,0,0,0,1.25,1.25m1.25-5h10v2.5h-10Z" transform="translate(-227.204 -227.207)" fill="#4e5c6f"/>
      </g>
    </g>
  </g>
</svg>
