<svg xmlns="http://www.w3.org/2000/svg" xmlns:xlink="http://www.w3.org/1999/xlink" width="190" height="129" viewBox="0 0 190 129">
  <defs>
    <clipPath id="clip-path">
      <rect id="Rect치ngulo_401417" data-name="Rect치ngulo 401417" width="98.509" height="112" fill="none"/>
    </clipPath>
  </defs>
  <g id="Grupo_1100863" data-name="Grupo 1100863" transform="translate(-1230.051 -398)">
    <rect id="Rect치ngulo_401416" data-name="Rect치ngulo 401416" width="190" height="129" rx="8" transform="translate(1230.051 398)" fill="#f08c32"/>
    <g id="Grupo_1100862" data-name="Grupo 1100862" transform="translate(1275.796 403)">
      <g id="Grupo_1100861" data-name="Grupo 1100861" clip-path="url(#clip-path)">
        <path id="Trazado_876575" data-name="Trazado 876575" d="M65.37,94.343a31.392,31.392,0,0,1,61.188,0h5.178a36.456,36.456,0,0,0-71.543,0Z" transform="translate(-46.709 -50.377)" fill="#fddf7f"/>
        <path id="Trazado_876576" data-name="Trazado 876576" d="M111.933,129.424a21.256,21.256,0,0,1,40.125,0h5.308a26.326,26.326,0,0,0-50.741,0Z" transform="translate(-82.741 -85.459)" fill="#83e1e5"/>
        <path id="Trazado_876577" data-name="Trazado 876577" d="M88.529,111.884a26.326,26.326,0,0,1,50.741,0h5.223a31.392,31.392,0,0,0-61.188,0h5.223Z" transform="translate(-64.645 -67.919)" fill="#ecf4f7"/>
        <path id="Trazado_876578" data-name="Trazado 876578" d="M47.941,338.813a12.1,12.1,0,0,1-1.609-1.994l-6.5,6.5c-.015-.016-.027-.033-.042-.048a3.258,3.258,0,1,0-1.831,5.524,3.257,3.257,0,1,0,5.524-1.831c-.015-.015-.032-.027-.047-.042l6.5-6.5a12.053,12.053,0,0,1-1.994-1.609" transform="translate(-26.56 -261.371)" fill="#ecf4f7"/>
        <path id="Trazado_876579" data-name="Trazado 876579" d="M98.341,243.787a6.962,6.962,0,0,1,4.325,1.5h0a8.544,8.544,0,0,1,8.3-10.136A12.053,12.053,0,0,0,90.88,223.218l-7.657,7.657a12.049,12.049,0,0,0,8.154,20.565c-.02-.216-.034-.434-.034-.655a7,7,0,0,1,7-7" transform="translate(-61.842 -170.478)" fill="#fddf7f"/>
        <path id="Trazado_876580" data-name="Trazado 876580" d="M306.813,305.619a8.247,8.247,0,0,0,1.87-5.23v-5.861a8.248,8.248,0,0,0-12.411-7.12l-2.981,1.743-2.981-1.743a8.248,8.248,0,0,0-12.411,7.12v.94a6.995,6.995,0,0,1,5.495,11h.022a7,7,0,0,1,6.994,6.84h10.1l.012-.014Z" transform="translate(-215.65 -222.154)" fill="#fddf7f"/>
        <path id="Trazado_876581" data-name="Trazado 876581" d="M350.8,234.481c3.26-1.206,6.467-.658,7.164,1.225s-1.382,4.386-4.642,5.592-6.467.658-7.164-1.225,1.382-4.386,4.642-5.592" transform="translate(-268.515 -181.46)" fill="#83e1e5"/>
        <path id="Trazado_876582" data-name="Trazado 876582" d="M5,406.947a11.866,11.866,0,0,0,11.866,11.866H28.494a7.879,7.879,0,0,0-7.323,7.858H85.1a7.879,7.879,0,0,0-7.323-7.858H89.4a11.866,11.866,0,0,0,11.866-11.866Z" transform="translate(-3.88 -315.791)" fill="#ecf4f7"/>
        <path id="Trazado_876583" data-name="Trazado 876583" d="M106.018,315.2h25.5c0-.043-.006-.087-.008-.131,0,.044,0,.087.008.131h25.513a7,7,0,0,0-6.994-6.84h-.022a6.994,6.994,0,0,0-10.083-9.486,8.57,8.57,0,1,0-16.837-.018h0a6.994,6.994,0,0,0-10.06,9.5h-.022a7,7,0,0,0-6.994,6.84" transform="translate(-82.27 -224.047)" fill="#83e1e5"/>
        <path id="Trazado_876584" data-name="Trazado 876584" d="M3.5,110.88A1.12,1.12,0,0,1,2.38,112H1.12a1.12,1.12,0,1,1,0-2.24H2.38a1.12,1.12,0,0,1,1.12,1.12m93.889-1.12h-1.26a1.12,1.12,0,1,0,0,2.24h1.26a1.12,1.12,0,0,0,0-2.24M46.8,4.7h1.338V6.037a1.12,1.12,0,1,0,2.24,0V4.7h1.338a1.12,1.12,0,0,0,0-2.24H50.374V1.12a1.12,1.12,0,1,0-2.24,0V2.458H46.8a1.12,1.12,0,0,0,0,2.24M81.549,23.287h1.338v1.338a1.12,1.12,0,1,0,2.24,0V23.287h1.338a1.12,1.12,0,1,0,0-2.24H85.127V19.708a1.12,1.12,0,1,0-2.24,0v1.338H81.549a1.12,1.12,0,1,0,0,2.24m-69.5,0h1.338v1.338a1.12,1.12,0,0,0,2.24,0V23.287h1.338a1.12,1.12,0,1,0,0-2.24H15.622V19.708a1.12,1.12,0,1,0-2.24,0v1.338H12.044a1.12,1.12,0,1,0,0,2.24M66.823,83.681l-1.6,2.123a1.12,1.12,0,1,0,1.79,1.347l1.271-1.689a5.843,5.843,0,0,1,4.457,2.733A1.12,1.12,0,1,0,74.64,87a8.077,8.077,0,0,0-5.117-3.617A8.117,8.117,0,0,0,58.923,72.8a9.689,9.689,0,0,0-19.357-.008,8.119,8.119,0,0,0-10.58,10.594A8.078,8.078,0,0,0,23.869,87a1.12,1.12,0,1,0,1.9,1.191A5.842,5.842,0,0,1,30.2,85.462l1.27,1.688a1.12,1.12,0,1,0,1.79-1.347l-1.5-1.992a1.093,1.093,0,0,0-.082-.137,5.875,5.875,0,0,1,8.437-7.993l.011.011a5.983,5.983,0,0,1,.941.928l.04.051c.048.06.094.122.14.183l.071.1c.032.046.064.093.095.14s.057.087.084.131.045.074.067.112c.031.053.062.105.092.159l.037.07a5.822,5.822,0,0,1,.3.665c.009.022.018.044.026.067.023.063.044.126.065.19.011.035.023.07.034.1.018.059.034.118.05.177.011.042.022.084.033.125s.027.112.039.168.019.095.028.142.02.107.029.16.015.105.023.158.014.1.019.151.011.118.015.177.008.092.011.138c0,.08.006.16.007.24,0,.025,0,.05,0,.076a5.941,5.941,0,0,1-1.061,3.366l0,.006-1.6,2.124A1.12,1.12,0,1,0,41.5,87.15l1.272-1.69a5.861,5.861,0,0,1,3.306,1.4,1.12,1.12,0,0,0,1.464-1.7,8.1,8.1,0,0,0-3.535-1.776c.019-.045.035-.091.052-.136s.03-.076.044-.115c.061-.164.119-.33.169-.5l0-.013c.049-.164.091-.33.129-.5q.014-.06.027-.121a8.129,8.129,0,0,0,.153-1.047c0-.04.006-.081.009-.121.012-.177.019-.356.019-.535,0-.061,0-.121,0-.182,0-.08,0-.161-.006-.241s-.011-.153-.017-.229-.009-.127-.015-.191c-.009-.086-.021-.17-.032-.256-.007-.052-.013-.1-.021-.156-.014-.093-.032-.185-.05-.278-.008-.042-.015-.084-.024-.125-.021-.1-.044-.2-.069-.3-.008-.032-.015-.064-.023-.1-.027-.105-.058-.21-.089-.313l-.021-.07q-.052-.164-.111-.326l-.017-.047q-.062-.169-.132-.335l-.012-.028q-.073-.172-.154-.341l-.006-.012a8.062,8.062,0,0,0-1.151-1.753c-.056-.065-.11-.129-.168-.192l-.053-.056q-.123-.132-.251-.259l-.025-.024q-.147-.143-.3-.279h0a7.154,7.154,0,0,1-.068-.977,7.45,7.45,0,1,1,14.9,0,7.162,7.162,0,0,1-.071,1l-.01.01c-.091.081-.18.165-.267.25l-.049.047c-.075.075-.149.152-.221.229a8.094,8.094,0,0,0-1,1.319l-.005.009q-.1.161-.188.326l-.01.019q-.087.161-.168.327l-.015.031q-.077.16-.146.324l-.02.048c-.044.1-.086.21-.125.317-.009.023-.017.046-.025.07-.036.1-.071.2-.1.3-.01.032-.019.064-.029.1-.029.1-.057.192-.082.289-.011.042-.02.084-.031.126-.022.089-.043.178-.062.267-.011.054-.02.108-.03.162-.015.08-.03.16-.043.241s-.018.136-.027.2-.019.139-.026.208c-.009.086-.014.172-.021.259,0,.054-.009.107-.012.161q-.011.212-.011.426c0,.177.008.354.019.529q0,.067.01.133c.014.172.031.343.056.513v.01c.025.173.058.345.095.515l.028.127c.038.164.079.326.127.487l.006.021c.05.166.107.33.167.492.015.041.031.082.047.123s.033.088.051.132a8.1,8.1,0,0,0-3.536,1.776,1.12,1.12,0,0,0,1.464,1.7,5.861,5.861,0,0,1,3.287-1.4l1.271,1.689a1.12,1.12,0,0,0,1.79-1.347l-1.5-1.992a1.131,1.131,0,0,0-.082-.138,5.838,5.838,0,0,1-1.061-3.366c0-.107,0-.213.009-.32,0-.036.006-.071.008-.107,0-.07.01-.139.018-.209,0-.043.011-.086.017-.129.008-.06.016-.12.026-.18s.017-.095.026-.142.021-.108.032-.161.023-.1.035-.151.024-.1.037-.144.03-.107.046-.16.027-.084.04-.125c.019-.057.037-.114.058-.171.012-.033.025-.065.038-.1a5.851,5.851,0,0,1,.3-.655l.027-.053c.03-.056.063-.11.095-.165.02-.034.04-.069.061-.1s.059-.093.09-.14.056-.084.084-.126.054-.077.082-.115.077-.1.116-.154l.063-.08c.06-.074.122-.147.186-.219l.007-.008a6.012,6.012,0,0,1,.729-.687l.006-.006a5.875,5.875,0,0,1,8.462,7.973.035.035,0,0,1,0,.008m23.337-30.3a1.119,1.119,0,0,1,.389,1.052,8.386,8.386,0,0,1-11.789,6.194v4.417l1.3-.758a9.368,9.368,0,0,1,14.1,8.087v5.861a9.392,9.392,0,0,1-2.124,5.94L89,87.866a1.12,1.12,0,1,1-1.732-1.42l3.026-3.69a7.148,7.148,0,0,0,1.616-4.52V72.375a7.128,7.128,0,0,0-10.726-6.154l-2.981,1.743a1.123,1.123,0,0,1-.114.057l-.019.01a1.128,1.128,0,0,1-.183.057l-.049.01a1.117,1.117,0,0,1-.4,0l-.049-.01a1.115,1.115,0,0,1-.183-.057l-.019-.01a1.146,1.146,0,0,1-.114-.057l-2.981-1.743A7.128,7.128,0,0,0,64,69.453a1.12,1.12,0,1,1-2.043-.918,9.368,9.368,0,0,1,13.272-4.247l1.3.758V52a1.12,1.12,0,0,1,2.24,0v2.032a8.369,8.369,0,0,1,11.4-.647m-7.489.689a6.171,6.171,0,0,0-3.777,4.078,6.144,6.144,0,0,0,9.3-3.44,6.17,6.17,0,0,0-5.521-.638M34.958,56.347l-.48.48a1.12,1.12,0,1,0,1.584,1.584l.48-.48a1.12,1.12,0,0,0-1.584-1.584m6.707,7.666.48-.48a1.12,1.12,0,0,0-1.584-1.584l-.48.48a1.12,1.12,0,1,0,1.584,1.584M31.482,62.989l.48-.48a1.12,1.12,0,0,0-1.584-1.584l-.48.48a1.12,1.12,0,1,0,1.584,1.584M35.5,67.009a1.12,1.12,0,1,0,1.584,1.584l.48-.48a1.12,1.12,0,0,0-1.584-1.584Zm-8.12-1.5a1.12,1.12,0,0,0-1.584,0l-.48.48A1.12,1.12,0,1,0,26.9,67.569l.48-.48a1.119,1.119,0,0,0,0-1.584m58.141,38.636H79.291a9.017,9.017,0,0,1,2.975,5.618h9.49a1.12,1.12,0,0,1,0,2.24h-85a1.12,1.12,0,1,1,0-2.24h9.49a9.017,9.017,0,0,1,2.975-5.618H12.986A13,13,0,0,1,0,91.156a1.12,1.12,0,0,1,1.12-1.12H10.8a4.3,4.3,0,0,1-.513-1.5,4.376,4.376,0,1,1,2.9-8.079l5.178-5.178a13.18,13.18,0,0,1,2.227-15.668l7.657-7.657a13.186,13.186,0,0,1,18.628,0,13.038,13.038,0,0,1,3.76,7.707,1.12,1.12,0,0,1-2.223.272,10.821,10.821,0,0,0-3.12-6.395,10.945,10.945,0,0,0-15.46,0l-7.657,7.657a10.95,10.95,0,0,0-1.446,13.672q.145.224.3.44l.017.025a11.141,11.141,0,0,0,.728.9q.194.216.4.421a11.016,11.016,0,0,0,1.81,1.46l0,0a10.825,10.825,0,0,0,1.835.95,1.12,1.12,0,1,1-.834,2.079,13.138,13.138,0,0,1-1.434-.683L18.37,85.64a4.379,4.379,0,0,1,.066,4.4H97.389a1.12,1.12,0,0,1,1.12,1.12,13,13,0,0,1-12.986,12.986M11.236,86.317a1.12,1.12,0,0,1,1.27,1.27,2.136,2.136,0,1,0,3.646-1.178l-.052-.047a1.12,1.12,0,0,1-.017-1.6l5.572-5.572,0,0q-.251-.2-.492-.418l-.058-.049q-.261-.235-.512-.485t-.48-.507c-.022-.024-.043-.05-.064-.075q-.208-.234-.4-.476l-.006-.008L14.063,82.74a1.12,1.12,0,0,1-1.6-.017l-.048-.052a2.138,2.138,0,1,0-1.178,3.646M85.523,101.9a10.762,10.762,0,0,0,10.688-9.626H2.3A10.762,10.762,0,0,0,12.986,101.9H57.814a1.12,1.12,0,1,1,0,2.24H24.668A6.781,6.781,0,0,0,18.5,109.76h61.5a6.781,6.781,0,0,0-6.165-5.618H67.286a1.12,1.12,0,0,1,0-2.24H85.523Zm-22.549,0H61.869a1.12,1.12,0,1,0,0,2.24h1.105a1.12,1.12,0,1,0,0-2.24M13.268,45.065a1.121,1.121,0,0,0,1.314-.884,35.336,35.336,0,0,1,69.345,0,1.12,1.12,0,1,0,2.2-.43,37.576,37.576,0,0,0-73.741,0,1.12,1.12,0,0,0,.885,1.314m15.552-.043a1.12,1.12,0,0,0,1.428-.686,20.136,20.136,0,0,1,38.012,0,1.12,1.12,0,1,0,2.114-.742,22.376,22.376,0,0,0-42.239,0,1.12,1.12,0,0,0,.685,1.428m20.434-24.3a30.5,30.5,0,0,1,29.5,23.491,1.12,1.12,0,0,0,2.183-.5,32.517,32.517,0,0,0-63.371,0,1.12,1.12,0,0,0,2.183.5,30.5,30.5,0,0,1,29.5-23.491m-25.67,24.32a1.12,1.12,0,0,0,1.378-.78,25.206,25.206,0,0,1,48.582,0,1.12,1.12,0,0,0,2.158-.6,27.446,27.446,0,0,0-52.9,0,1.12,1.12,0,0,0,.78,1.378" fill="#1c1d21"/>
      </g>
    </g>
  </g>
</svg>
