<svg id="Grupo_1101759" data-name="Grupo 1101759" xmlns="http://www.w3.org/2000/svg" xmlns:xlink="http://www.w3.org/1999/xlink" width="295" height="205.239" viewBox="0 0 295 205.239">
  <defs>
    <clipPath id="clip-path">
      <rect id="Rectángulo_401938" data-name="Rectángulo 401938" width="295" height="205.239" fill="none"/>
    </clipPath>
    <clipPath id="clip-path-3">
      <rect id="Rectángulo_401928" data-name="Rectángulo 401928" width="15.373" height="9.413" fill="none"/>
    </clipPath>
    <clipPath id="clip-path-4">
      <rect id="Rectángulo_401929" data-name="Rectángulo 401929" width="15.14" height="10.552" fill="none"/>
    </clipPath>
    <clipPath id="clip-path-5">
      <rect id="Rectángulo_401930" data-name="Rectángulo 401930" width="11.001" height="14.725" fill="none"/>
    </clipPath>
    <clipPath id="clip-path-6">
      <rect id="Rectángulo_401931" data-name="Rectángulo 401931" width="12.358" height="13.373" fill="none"/>
    </clipPath>
    <clipPath id="clip-path-7">
      <rect id="Rectángulo_401932" data-name="Rectángulo 401932" width="14.95" height="10.764" fill="none"/>
    </clipPath>
    <clipPath id="clip-path-8">
      <rect id="Rectángulo_401933" data-name="Rectángulo 401933" width="6.469" height="18.28" fill="none"/>
    </clipPath>
    <clipPath id="clip-path-9">
      <rect id="Rectángulo_401934" data-name="Rectángulo 401934" width="20.319" height="6.951" fill="none"/>
    </clipPath>
    <clipPath id="clip-path-10">
      <rect id="Rectángulo_401935" data-name="Rectángulo 401935" width="31.961" height="18.512" fill="none"/>
    </clipPath>
    <clipPath id="clip-path-11">
      <rect id="Rectángulo_401936" data-name="Rectángulo 401936" width="96.977" height="53.661" fill="none"/>
    </clipPath>
  </defs>
  <g id="Grupo_1101758" data-name="Grupo 1101758" clip-path="url(#clip-path)">
    <g id="Grupo_1101757" data-name="Grupo 1101757">
      <g id="Grupo_1101756" data-name="Grupo 1101756" clip-path="url(#clip-path)">
        <path id="Trazado_877784" data-name="Trazado 877784" d="M188.171,183.968c-44.892-23.113-52.2-14.231-91.41,3.707-42.478,19.433-68.966,5.1-72.516-21.75C16.98,111,102.391,130.63,91.787,72.506,83.973,29.682,106.537,9.325,137.551,3.077c30.687-6.182,74.117.316,73,41.388-.619,22.721,38.175,29.671,63.5,38.983,38.086,14,33.815,56.267,19.084,76.129-24.762,33.385-62.994,46-104.963,24.391" transform="translate(-8.8 -0.393)" fill="#fce7d5"/>
        <path id="Trazado_877785" data-name="Trazado 877785" d="M212.912,130.619l5.61-5.174,53.224-1.346-1.658,4.371Z" transform="translate(-78.705 -45.874)" fill="#dbb391"/>
        <path id="Trazado_877786" data-name="Trazado 877786" d="M257.287,126.485s-4.867,17.981-13.245,8.009S234.6,35.945,238.788,7.758c.707-4.766,9.136-25.016,14.746,28.117,3.716,35.2,6.942,78.756,3.753,90.61" transform="translate(-87.389 0)" fill="#df8025"/>
        <path id="Trazado_877787" data-name="Trazado 877787" d="M258.988,123.885c-.93,6.944-5.1,17.339-7.139,5.613-5.171-29.684,1.435-30.173-6.368-116.959-.6-6.7,5.556-21.8,10.119,27.681,3.022,32.78,5.768,65.892,3.388,83.665" transform="translate(-90.729 -1.861)" fill="#f19b34"/>
        <path id="Trazado_877788" data-name="Trazado 877788" d="M244.042,139.043c2.746,3.268,5.111,3.525,7.055,2.405-16.845-5.012-12.309-129.141-12.309-129.141-4.184,28.188-3.115,116.775,5.253,126.736" transform="translate(-87.389 -4.549)" fill="#d37120"/>
        <path id="Trazado_877789" data-name="Trazado 877789" d="M244.455,80.635s6.554-13.526,8.58-23.272c0,0-9.9,9.1-8.58,23.272" transform="translate(-90.32 -21.205)" fill="#df8025"/>
        <path id="Trazado_877790" data-name="Trazado 877790" d="M253.037,57.362s-7.822,14.409-8.58,23.272a29.656,29.656,0,0,1,8.58-23.272" transform="translate(-90.322 -21.204)" fill="#d37120"/>
        <path id="Trazado_877791" data-name="Trazado 877791" d="M246.231,114.425s6.555-13.526,8.58-23.272c0,0-9.9,9.1-8.58,23.272" transform="translate(-90.977 -33.695)" fill="#df8025"/>
        <path id="Trazado_877792" data-name="Trazado 877792" d="M254.814,91.152s-7.822,14.409-8.58,23.272a29.656,29.656,0,0,1,8.58-23.272" transform="translate(-90.979 -33.695)" fill="#d37120"/>
        <path id="Trazado_877793" data-name="Trazado 877793" d="M248.044,147.238s6.554-13.526,8.58-23.272c0,0-9.9,9.1-8.58,23.272" transform="translate(-91.647 -45.825)" fill="#df8025"/>
        <path id="Trazado_877794" data-name="Trazado 877794" d="M256.626,123.965s-7.822,14.409-8.58,23.272a29.656,29.656,0,0,1,8.58-23.272" transform="translate(-91.649 -45.825)" fill="#d37120"/>
        <path id="Trazado_877795" data-name="Trazado 877795" d="M249.968,181.866s6.554-13.526,8.58-23.272c0,0-9.9,9.1-8.58,23.272" transform="translate(-92.358 -58.626)" fill="#df8025"/>
        <path id="Trazado_877796" data-name="Trazado 877796" d="M258.55,158.593s-7.822,14.409-8.58,23.272a29.656,29.656,0,0,1,8.58-23.272" transform="translate(-92.36 -58.625)" fill="#d37120"/>
        <path id="Trazado_877797" data-name="Trazado 877797" d="M243.841,43.375s5.295-10.925,6.931-18.8c0,0-7.995,7.351-6.931,18.8" transform="translate(-90.102 -9.086)" fill="#df8025"/>
        <path id="Trazado_877798" data-name="Trazado 877798" d="M250.773,24.579s-6.317,11.637-6.93,18.8a23.952,23.952,0,0,1,6.93-18.8" transform="translate(-90.104 -9.086)" fill="#d37120"/>
        <path id="Trazado_877799" data-name="Trazado 877799" d="M240.9,140.31s-1.6,16.6-10.758,10.046S206.193,68.03,205.583,42.834c-.1-4.26,4.376-23.66,17.759,20.6,8.866,29.322,18.593,65.936,17.554,76.874" transform="translate(-75.995 -12.914)" fill="#ffab50"/>
        <path id="Trazado_877800" data-name="Trazado 877800" d="M240.542,138.37c.241,6.184-1.911,16.1-5.595,6.527-9.325-24.24-3.411-26.242-24.039-98.863-1.592-5.6,1.633-20.041,13.5,21.336,7.858,27.412,15.52,55.174,16.137,71" transform="translate(-77.824 -14.411)" fill="#f19b34"/>
        <path id="Trazado_877801" data-name="Trazado 877801" d="M230.139,154.987c3,2.148,5.185,1.8,6.772.375-16.054-.268-31.327-107.9-31.327-107.9.61,25.2,15.413,100.977,24.555,107.522" transform="translate(-75.996 -17.546)" fill="#df8025"/>
        <path id="Trazado_877802" data-name="Trazado 877802" d="M221.8,103.868s3.83-13.18,4.144-22.03c0,0-7.552,10.183-4.144,22.03" transform="translate(-81.665 -30.252)" fill="#df8025"/>
        <path id="Trazado_877803" data-name="Trazado 877803" d="M225.971,81.837s-4.84,14.241-4.144,22.03c0,0-3.616-10.546,4.144-22.03" transform="translate(-81.689 -30.252)" fill="#d37120"/>
        <path id="Trazado_877804" data-name="Trazado 877804" d="M228.691,132.445s3.83-13.18,4.144-22.03c0,0-7.551,10.183-4.144,22.03" transform="translate(-84.211 -40.816)" fill="#df8025"/>
        <path id="Trazado_877805" data-name="Trazado 877805" d="M232.859,110.415s-4.841,14.241-4.144,22.03c0,0-3.616-10.546,4.144-22.03" transform="translate(-84.235 -40.816)" fill="#d37120"/>
        <path id="Trazado_877806" data-name="Trazado 877806" d="M235.459,160.175s3.83-13.18,4.144-22.03c0,0-7.552,10.183-4.144,22.03" transform="translate(-86.713 -51.066)" fill="#df8025"/>
        <path id="Trazado_877807" data-name="Trazado 877807" d="M239.627,138.145s-4.841,14.241-4.145,22.03c0,0-3.616-10.546,4.145-22.03" transform="translate(-86.737 -51.066)" fill="#d37120"/>
        <path id="Trazado_877808" data-name="Trazado 877808" d="M242.61,189.436s3.83-13.18,4.144-22.03c0,0-7.552,10.183-4.144,22.03" transform="translate(-89.356 -61.883)" fill="#df8025"/>
        <path id="Trazado_877809" data-name="Trazado 877809" d="M246.778,167.406s-4.84,14.241-4.144,22.03c0,0-3.616-10.546,4.144-22.03" transform="translate(-89.381 -61.883)" fill="#d37120"/>
        <path id="Trazado_877810" data-name="Trazado 877810" d="M215.106,72.268s3.093-10.645,3.347-17.793c0,0-6.1,8.225-3.347,17.793" transform="translate(-79.252 -20.137)" fill="#df8025"/>
        <path id="Trazado_877811" data-name="Trazado 877811" d="M218.472,54.476s-3.91,11.5-3.347,17.793c0,0-2.921-8.518,3.347-17.793" transform="translate(-79.272 -20.137)" fill="#d37120"/>
        <path id="Trazado_877812" data-name="Trazado 877812" d="M286.778,143.743s-5.96,13.868-13.239,5.086-1.844-79.563,4.2-101.643c1.023-3.733,10.551-19.061,12.043,23.887.989,28.452.9,63.525-3.009,72.67" transform="translate(-99.827 -15.329)" fill="#ffab50"/>
        <path id="Trazado_877813" data-name="Trazado 877813" d="M289.96,141.559c-1.394,5.45-6.131,13.334-7.229,3.776-2.78-24.2,3.567-23.935,2.428-93.951-.088-5.4,6.9-16.847,7.653,23.083.5,26.454.717,53.145-2.852,67.092" transform="translate(-104.251 -16.867)" fill="#f19b34"/>
        <path id="Trazado_877814" data-name="Trazado 877814" d="M273.539,152.181c2.386,2.878,4.627,3.316,6.566,2.614-15.73-5.658-2.362-104.257-2.362-104.257-6.048,22.08-11.475,92.871-4.2,101.643" transform="translate(-99.827 -18.682)" fill="#df8025"/>
        <path id="Trazado_877815" data-name="Trazado 877815" d="M280.433,105.981s7.247-10.148,9.892-17.725c0,0-10.12,6.288-9.892,17.725" transform="translate(-103.663 -32.625)" fill="#df8025"/>
        <path id="Trazado_877816" data-name="Trazado 877816" d="M290.32,88.256s-8.522,10.727-9.892,17.725c0,0-.777-10.377,9.892-17.725" transform="translate(-103.658 -32.625)" fill="#d37120"/>
        <path id="Trazado_877817" data-name="Trazado 877817" d="M279.671,133.118s7.247-10.148,9.892-17.725c0,0-10.12,6.288-9.892,17.725" transform="translate(-103.381 -42.656)" fill="#df8025"/>
        <path id="Trazado_877818" data-name="Trazado 877818" d="M289.558,115.393s-8.522,10.727-9.892,17.725c0,0-.777-10.378,9.892-17.725" transform="translate(-103.376 -42.656)" fill="#d37120"/>
        <path id="Trazado_877819" data-name="Trazado 877819" d="M279.015,159.479s7.247-10.147,9.892-17.724c0,0-10.12,6.288-9.892,17.724" transform="translate(-103.139 -52.401)" fill="#df8025"/>
        <path id="Trazado_877820" data-name="Trazado 877820" d="M288.9,141.754s-8.522,10.727-9.892,17.724c0,0-.777-10.377,9.892-17.724" transform="translate(-103.134 -52.401)" fill="#d37120"/>
        <path id="Trazado_877821" data-name="Trazado 877821" d="M278.333,187.3s7.247-10.147,9.892-17.724c0,0-10.12,6.288-9.892,17.724" transform="translate(-102.887 -62.684)" fill="#df8025"/>
        <path id="Trazado_877822" data-name="Trazado 877822" d="M288.22,169.574S279.7,180.3,278.328,187.3c0,0-.777-10.378,9.892-17.725" transform="translate(-102.881 -62.684)" fill="#d37120"/>
        <path id="Trazado_877823" data-name="Trazado 877823" d="M282.737,76.094s5.853-8.2,7.99-14.316c0,0-8.174,5.079-7.99,14.316" transform="translate(-104.515 -22.837)" fill="#df8025"/>
        <path id="Trazado_877824" data-name="Trazado 877824" d="M290.723,61.778s-6.884,8.664-7.99,14.316c0,0-.628-8.382,7.99-14.316" transform="translate(-104.511 -22.837)" fill="#d37120"/>
        <path id="Trazado_877825" data-name="Trazado 877825" d="M212.912,132.927l54.549-2.586,2.627,71.611H212.957Z" transform="translate(-78.705 -48.182)" fill="#fee3c5"/>
        <path id="Trazado_877826" data-name="Trazado 877826" d="M303.736,124.1l-4.286,3.935,2.627,71.611,5.311-6.649Z" transform="translate(-110.694 -45.874)" fill="#eac5a4"/>
        <path id="Trazado_877827" data-name="Trazado 877827" d="M270.088,207.659l-2.27-61.878c-2.045,20.688-10.227,53.017-54.906,61.213l.045.665Z" transform="translate(-78.705 -53.889)" fill="#f2d2b1"/>
        <path id="Trazado_877828" data-name="Trazado 877828" d="M372.915,121.644a6.855,6.855,0,0,1-4.709,6.893,6.935,6.935,0,0,1-2.1.323c-1.8-.712-2.257-2.492-2.908-4.458a9.775,9.775,0,0,1-.344-1.35l-27.993,3.917s3.257,2.5-.248,5.928c-3.533,3.454-6.458-.417-6.458-.417l9.2,61.836,6.733-1.448,21.162-1.026s-2.094-4.741,2.435-7.129c7.713-4.065,11.143,4.891,11.143,4.891l28.219-3.009s1.89-.476-1.741-8.573-2.5-15.176-.238-29.332-4.92-30.857-4.92-30.857Z" transform="translate(-121.304 -43.559)" fill="#f6d763"/>
        <path id="Trazado_877829" data-name="Trazado 877829" d="M355.671,149.912c1.848,2.55.78,5.359-1.73,7.176s-5.51,1.958-7.358-.593a5.612,5.612,0,1,1,9.088-6.584" transform="translate(-127.711 -54.537)" fill="#fea603"/>
        <path id="Trazado_877830" data-name="Trazado 877830" d="M354.128,158.372c1.388-1.005,2.678-1.808,2.79-3.409a5.75,5.75,0,0,0-.781-1.578,5.657,5.657,0,0,0-7.889-1.325,5.539,5.539,0,0,0-2.259,4.141,5.733,5.733,0,0,0,.781,1.578c1.848,2.55,4.849,2.41,7.359.593" transform="translate(-127.897 -55.82)" fill="#fff"/>
        <path id="Trazado_877831" data-name="Trazado 877831" d="M374.125,189.4c-3.612,1.2-6.457-1.058-7.635-4.612s-.244-7.063,3.368-8.261a6.782,6.782,0,1,1,4.267,12.873" transform="translate(-135.298 -65.122)" fill="#fea603"/>
        <path id="Trazado_877832" data-name="Trazado 877832" d="M366.49,184.8c.652,1.966,1.1,3.745,2.908,4.458a6.914,6.914,0,0,0,2.1-.324,6.835,6.835,0,0,0,4.406-8.6,6.693,6.693,0,0,0-3.947-4.114,6.933,6.933,0,0,0-2.1.323c-3.612,1.2-4.547,4.706-3.368,8.261" transform="translate(-135.298 -65.142)" fill="#fff"/>
        <path id="Trazado_877833" data-name="Trazado 877833" d="M358.664,209.885c-.471,2.086-2.383,2.8-4.436,2.337s-3.471-1.932-3-4.018a3.812,3.812,0,1,1,7.435,1.681" transform="translate(-129.801 -75.844)" fill="#fea603"/>
        <path id="Trazado_877834" data-name="Trazado 877834" d="M354.228,212.883c1.135.257,2.124.555,2.99-.107a3.832,3.832,0,0,0-2.409-5.725,3.761,3.761,0,0,0-3.125.707,3.884,3.884,0,0,0-.454,1.106c-.472,2.086.946,3.555,3,4.018" transform="translate(-129.801 -76.505)" fill="#f5f6f8"/>
        <path id="Trazado_877835" data-name="Trazado 877835" d="M423.433,201c-.6,2.648-3.025,3.556-5.631,2.967s-4.406-2.452-3.807-5.1A4.839,4.839,0,1,1,423.433,201" transform="translate(-152.994 -72.09)" fill="#fea603"/>
        <path id="Trazado_877836" data-name="Trazado 877836" d="M417.8,204.805c1.442.326,2.7.7,3.8-.136a4.948,4.948,0,0,0,.577-1.4,4.878,4.878,0,0,0-3.635-5.862,4.777,4.777,0,0,0-3.968.9,4.937,4.937,0,0,0-.577,1.4c-.6,2.649,1.2,4.513,3.807,5.1" transform="translate(-152.994 -72.929)" fill="#fff"/>
        <path id="Trazado_877837" data-name="Trazado 877837" d="M426.391,144.862c-1.459,2.289-4.049,2.323-6.3.888s-3.316-3.8-1.857-6.088a4.839,4.839,0,1,1,8.16,5.2" transform="translate(-154.355 -50.779)" fill="#fea603"/>
        <path id="Trazado_877838" data-name="Trazado 877838" d="M420.087,146.3c1.247.794,2.3,1.575,3.618,1.157a4.948,4.948,0,0,0,1.019-1.126,4.878,4.878,0,0,0-1.438-6.747,4.777,4.777,0,0,0-4.037-.5,4.922,4.922,0,0,0-1.018,1.127c-1.459,2.289-.4,4.652,1.857,6.088" transform="translate(-154.355 -51.325)" fill="#fff"/>
        <path id="Trazado_877839" data-name="Trazado 877839" d="M405.691,159.755c.28,2.7-1.728,4.337-4.387,4.612s-4.959-.915-5.239-3.616a4.839,4.839,0,1,1,9.625-1" transform="translate(-146.399 -57.422)" fill="#fea603"/>
        <path id="Trazado_877840" data-name="Trazado 877840" d="M401.308,165.4c1.471-.153,2.78-.195,3.553-1.342a4.866,4.866,0,0,0-5.222-5.908,4.778,4.778,0,0,0-3.473,2.119,4.926,4.926,0,0,0-.1,1.515c.28,2.7,2.581,3.891,5.239,3.616" transform="translate(-146.402 -58.451)" fill="#fff"/>
        <path id="Trazado_877841" data-name="Trazado 877841" d="M432.03,178.113c-.758,1.189-2.1,1.207-3.274.461s-1.723-1.974-.965-3.162a2.514,2.514,0,1,1,4.239,2.7" transform="translate(-158.008 -64.402)" fill="#fea603"/>
        <path id="Trazado_877842" data-name="Trazado 877842" d="M428.756,178.858c.647.413,1.194.818,1.879.6a2.56,2.56,0,0,0,.529-.585,2.533,2.533,0,0,0-.747-3.5,2.482,2.482,0,0,0-2.1-.259,2.559,2.559,0,0,0-.528.586c-.758,1.189-.206,2.417.964,3.162" transform="translate(-158.008 -64.686)" fill="#f5f6f8"/>
        <path id="Trazado_877843" data-name="Trazado 877843" d="M392.528,181.592s-6.235-.125-6-5.7,12.273-15,15.226-10.366-3.028,15.979-9.226,16.067" transform="translate(-142.881 -60.729)" fill="#8a5e3c"/>
        <g id="Grupo_1101731" data-name="Grupo 1101731" transform="translate(243.641 111.451)" opacity="0.2" style="mix-blend-mode: overlay;isolation: isolate">
          <g id="Grupo_1101730" data-name="Grupo 1101730">
            <g id="Grupo_1101729" data-name="Grupo 1101729" clip-path="url(#clip-path-3)">
              <path id="Trazado_877844" data-name="Trazado 877844" d="M388.138,180.78a12.534,12.534,0,0,1-1.568-.675c-.017.141-.037.283-.042.418-.234,5.575,6,5.7,6,5.7,4-.057,7.891-4.807,9.366-9.413a12.464,12.464,0,0,1-13.757,3.97" transform="translate(-386.522 -176.81)"/>
            </g>
          </g>
        </g>
        <path id="Trazado_877845" data-name="Trazado 877845" d="M393.213,205.135s-4.187-4.611.033-8.269,19.352-1.391,18,3.935-13.716,8.772-18.036,4.335" transform="translate(-144.67 -72.112)" fill="#8a5e3c"/>
        <g id="Grupo_1101734" data-name="Grupo 1101734" transform="translate(246.692 124.499)" opacity="0.2" style="mix-blend-mode: overlay;isolation: isolate">
          <g id="Grupo_1101733" data-name="Grupo 1101733">
            <g id="Grupo_1101732" data-name="Grupo 1101732" clip-path="url(#clip-path-4)">
              <path id="Trazado_877846" data-name="Trazado 877846" d="M394.164,199.111a12.291,12.291,0,0,1-.584-1.6c-.117.083-.231.166-.334.255-4.219,3.659-.033,8.269-.033,8.269,2.789,2.866,8.921,2.427,13.289.337a12.461,12.461,0,0,1-12.338-7.261" transform="translate(-391.362 -197.51)"/>
            </g>
          </g>
        </g>
        <path id="Trazado_877847" data-name="Trazado 877847" d="M380.85,183.781s-4.918,3.823-8.256-.65.06-19.372,5.277-17.63,7.736,14.311,2.979,18.281" transform="translate(-137.242 -61.126)" fill="#8a5e3c"/>
        <g id="Grupo_1101737" data-name="Grupo 1101737" transform="translate(235.122 109.451)" opacity="0.2" style="mix-blend-mode: overlay;isolation: isolate">
          <g id="Grupo_1101736" data-name="Grupo 1101736">
            <g id="Grupo_1101735" data-name="Grupo 1101735" clip-path="url(#clip-path-5)">
              <path id="Trazado_877848" data-name="Trazado 877848" d="M374.65,185.377a12.53,12.53,0,0,1-1.643.462c.073.122.148.243.23.352,3.338,4.474,8.256.651,8.256.651,3.072-2.562,3.094-8.7,1.333-13.2a12.437,12.437,0,0,1-8.176,11.738" transform="translate(-373.007 -173.638)"/>
            </g>
          </g>
        </g>
        <path id="Trazado_877849" data-name="Trazado 877849" d="M323.229,218.838s19.224,3.931,48.792-32.582c.819-1.01.324-1.261.324-1.261s-23.507,27.647-47.7,31.651Z" transform="translate(-119.484 -68.385)" fill="#89890e"/>
        <path id="Trazado_877850" data-name="Trazado 877850" d="M365.67,196.362s-11.513-10.473,3.521-34.988c0,0,12.171,19.691-3.521,34.988" transform="translate(-133.615 -59.653)" fill="#afaf14"/>
        <path id="Trazado_877851" data-name="Trazado 877851" d="M365.148,212.647s9.68-12.189,35.212,1.089c0,0-18.842,13.484-35.212-1.089" transform="translate(-134.98 -76.718)" fill="#afaf14"/>
        <path id="Trazado_877852" data-name="Trazado 877852" d="M344.322,233.776s9.067-5.505,22.231,9.013c0,0-15.233,4.162-22.231-9.013" transform="translate(-127.281 -86.039)" fill="#afaf14"/>
        <path id="Trazado_877853" data-name="Trazado 877853" d="M371.643,200.28s-.071-15.557,28.177-21.093c0,0-6.279,22.273-28.177,21.093" transform="translate(-137.381 -66.238)" fill="#989b10"/>
        <path id="Trazado_877854" data-name="Trazado 877854" d="M359.516,206.294s-5.605,2.724-7.943-2.342,4.073-18.94,8.817-16.158,4.6,15.6-.874,18.5" transform="translate(-129.778 -69.285)" fill="#8a5e3c"/>
        <g id="Grupo_1101740" data-name="Grupo 1101740" transform="translate(221.643 124.368)" opacity="0.2" style="mix-blend-mode: overlay;isolation: isolate">
          <g id="Grupo_1101739" data-name="Grupo 1101739">
            <g id="Grupo_1101738" data-name="Grupo 1101738" clip-path="url(#clip-path-6)">
              <path id="Trazado_877855" data-name="Trazado 877855" d="M353.326,207.1a12.478,12.478,0,0,1-1.7.113,3.915,3.915,0,0,0,.153.392c2.337,5.067,7.942,2.342,7.942,2.342,3.534-1.871,4.829-7.871,4.039-12.642a12.447,12.447,0,0,1-10.431,9.794" transform="translate(-351.623 -197.302)"/>
            </g>
          </g>
        </g>
        <path id="Trazado_877856" data-name="Trazado 877856" d="M341.7,213.1s-11.509-10.474,3.524-34.988c0,0,12.168,19.693-3.524,34.988" transform="translate(-124.756 -65.839)" fill="#afaf14"/>
        <path id="Trazado_877857" data-name="Trazado 877857" d="M362.078,228.743s-4.011-4.763.34-8.261,19.392-.667,17.846,4.6-14.036,8.253-18.185,3.657" transform="translate(-133.222 -80.932)" fill="#8a5e3c"/>
        <g id="Grupo_1101743" data-name="Grupo 1101743" transform="translate(227.17 139.307)" opacity="0.2" style="mix-blend-mode: overlay;isolation: isolate">
          <g id="Grupo_1101742" data-name="Grupo 1101742">
            <g id="Grupo_1101741" data-name="Grupo 1101741" clip-path="url(#clip-path-7)">
              <path id="Trazado_877858" data-name="Trazado 877858" d="M363.287,222.624a12.32,12.32,0,0,1-.526-1.621,4.117,4.117,0,0,0-.344.243c-4.352,3.5-.34,8.261-.34,8.261,2.678,2.968,8.823,2.761,13.265.834a12.455,12.455,0,0,1-12.055-7.717" transform="translate(-360.392 -221.003)"/>
            </g>
          </g>
        </g>
        <path id="Trazado_877859" data-name="Trazado 877859" d="M394.424,214.721a16.5,16.5,0,1,1,17.68,15.228,16.51,16.51,0,0,1-17.68-15.228" transform="translate(-145.785 -72.815)" fill="#fb4041"/>
        <path id="Trazado_877860" data-name="Trazado 877860" d="M397.768,215.81a14.388,14.388,0,1,1,15.417,13.272,14.382,14.382,0,0,1-15.417-13.272" transform="translate(-147.023 -74.06)" fill="#ff5f67"/>
        <path id="Trazado_877861" data-name="Trazado 877861" d="M400.263,216.61a12.811,12.811,0,1,1,13.729,11.82,12.815,12.815,0,0,1-13.729-11.82" transform="translate(-147.947 -74.982)" fill="#ed323b"/>
        <path id="Trazado_877862" data-name="Trazado 877862" d="M421.092,224.36c-2.144,1.055-5.253.761-6.934,1.283-6.571,2.042-12.18-4.36-9.157-9.751,1.613-2.862-.429-5.63,5.611-9.1,3.948-2.274,11.063,2.2,12.806,5.9,2.274,4.837,1.651,9.7-2.325,11.67" transform="translate(-149.401 -76.213)" fill="#ff6955"/>
        <path id="Trazado_877863" data-name="Trazado 877863" d="M419.015,224.6s-.055-1.659-3.549.508-3.543-5.7-5.42-6.251,6.379-3.824,5.855-6.491,2.9,1.88,5.879,3.046-3.2,6.569-2.764,9.187" transform="translate(-151.473 -78.198)" fill="#f9cba1"/>
        <path id="Trazado_877864" data-name="Trazado 877864" d="M422.793,216.769s5.57-7.848,8.326-4.174,2.207,8.624-7.737,6.261c0,0-2.343.027-.588-2.086" transform="translate(-156.048 -78.225)" fill="#fb4041"/>
        <path id="Trazado_877865" data-name="Trazado 877865" d="M411.39,219.966s-8.636,4.242-9.32-.3,2.185-8.626,9.795-1.81c0,0,2.073,1.09-.475,2.113" transform="translate(-148.593 -79.193)" fill="#fb4041"/>
        <path id="Trazado_877866" data-name="Trazado 877866" d="M416.236,213.72s-7.186-6.39-3.237-8.737,8.81-1.253,5.383,8.375c0,0-.226,2.333-2.146.362" transform="translate(-152.23 -75.385)" fill="#fb4041"/>
        <path id="Trazado_877867" data-name="Trazado 877867" d="M415.089,225.994s-.229,9.622-4.573,8.124-6.653-5.914,2.912-9.515c0,0,1.922-1.343,1.661,1.391" transform="translate(-150.36 -82.905)" fill="#fb4041"/>
        <path id="Trazado_877868" data-name="Trazado 877868" d="M422.513,225.008s9.611.3,8.094,4.626-5.961,6.611-9.5-2.976c0,0-1.326-1.931,1.408-1.65" transform="translate(-155.546 -83.165)" fill="#fb4041"/>
        <path id="Trazado_877869" data-name="Trazado 877869" d="M416.933,214.776s-1.254-1.113-.563-1.529,1.536-.214.939,1.467c0,0-.038.406-.376.061" transform="translate(-153.838 -78.761)" fill="#ff6955"/>
        <path id="Trazado_877870" data-name="Trazado 877870" d="M417.606,209.518s-1.257-1.125-.567-1.527,1.536-.22.937,1.464c0,0-.038.406-.37.063" transform="translate(-154.086 -76.817)" fill="#ff6955"/>
        <path id="Trazado_877871" data-name="Trazado 877871" d="M420.353,213.371s-.782-1.487.011-1.623,1.513.337.36,1.7c0,0-.178.366-.371-.076" transform="translate(-155.26 -78.266)" fill="#ff6955"/>
        <path id="Trazado_877872" data-name="Trazado 877872" d="M419.777,217.52s-1.255-1.119-.567-1.526,1.544-.22.945,1.465c0,0-.046.4-.378.061" transform="translate(-154.888 -79.776)" fill="#ff6955"/>
        <path id="Trazado_877873" data-name="Trazado 877873" d="M411.845,223.378s-1.473.808-1.628.025.3-1.527,1.691-.4c0,0,.376.172-.063.377" transform="translate(-151.629 -82.222)" fill="#ff6955"/>
        <path id="Trazado_877874" data-name="Trazado 877874" d="M407.111,220.99s-1.473.816-1.634.031.308-1.525,1.7-.4c0,0,.375.176-.064.374" transform="translate(-149.878 -81.341)" fill="#ff6955"/>
        <path id="Trazado_877875" data-name="Trazado 877875" d="M411.615,219.69s-1.661.243-1.53-.548.831-1.318,1.727.22c0,0,.286.3-.2.328" transform="translate(-151.588 -80.724)" fill="#ff6955"/>
        <path id="Trazado_877876" data-name="Trazado 877876" d="M415.386,221.607s-1.475.813-1.634.027.3-1.529,1.693-.4c0,0,.372.168-.059.371" transform="translate(-152.937 -81.568)" fill="#ff6955"/>
        <path id="Trazado_877877" data-name="Trazado 877877" d="M417.214,230.278s.2,1.674-.592,1.525-1.3-.862.268-1.72c0,0,.3-.276.324.2" transform="translate(-153.73 -85.022)" fill="#fc492b"/>
        <path id="Trazado_877878" data-name="Trazado 877878" d="M413.215,233.764s.2,1.672-.589,1.519-1.294-.859.269-1.72c0,0,.3-.278.32.2" transform="translate(-152.254 -86.309)" fill="#fc492b"/>
        <path id="Trazado_877879" data-name="Trazado 877879" d="M413.739,229.219s-.4,1.629-1.082,1.21-.91-1.256.856-1.509c0,0,.376-.159.226.3" transform="translate(-152.354 -84.612)" fill="#ff6955"/>
        <path id="Trazado_877880" data-name="Trazado 877880" d="M416.914,226.339s.193,1.667-.594,1.517-1.295-.858.268-1.718c0,0,.3-.28.326.2" transform="translate(-153.619 -83.564)" fill="#ff6955"/>
        <path id="Trazado_877881" data-name="Trazado 877881" d="M428.026,227.281s1.682-.021,1.447.741-.991,1.2-1.682-.441c0,0-.247-.326.236-.3" transform="translate(-158.113 -84.016)" fill="#f84140"/>
        <path id="Trazado_877882" data-name="Trazado 877882" d="M431.076,231.612s1.688-.019,1.454.747-.995,1.2-1.686-.443c0,0-.243-.328.232-.3" transform="translate(-159.242 -85.617)" fill="#f84140"/>
        <path id="Trazado_877883" data-name="Trazado 877883" d="M426.628,230.449s1.578.571,1.092,1.205-1.346.779-1.42-1.01c0,0-.111-.381.328-.2" transform="translate(-157.581 -85.168)" fill="#fc492b"/>
        <path id="Trazado_877884" data-name="Trazado 877884" d="M424.071,227.181s1.68-.027,1.447.741-.989,1.2-1.678-.444c0,0-.248-.328.231-.3" transform="translate(-156.652 -83.978)" fill="#fc492b"/>
        <path id="Trazado_877885" data-name="Trazado 877885" d="M427.2,217.758s.824-1.466,1.374-.874.535,1.458-1.236,1.222c0,0-.406.044-.138-.349" transform="translate(-157.884 -80.121)" fill="#ff6955"/>
        <path id="Trazado_877886" data-name="Trazado 877886" d="M432.482,217.312s.826-1.468,1.372-.882.536,1.466-1.232,1.23c0,0-.406.052-.14-.349" transform="translate(-159.837 -79.954)" fill="#ff6955"/>
        <path id="Trazado_877887" data-name="Trazado 877887" d="M429.217,220.8s1.289-1.079,1.588-.337-.006,1.558-1.58.717c0,0-.395-.1-.008-.379" transform="translate(-158.601 -81.4)" fill="#ff6955"/>
        <path id="Trazado_877888" data-name="Trazado 877888" d="M425.112,221.112s.833-1.455,1.37-.874.538,1.464-1.228,1.228c0,0-.408.05-.142-.354" transform="translate(-157.113 -81.362)" fill="#ff6955"/>
        <path id="Trazado_877889" data-name="Trazado 877889" d="M186.616,217.9c2.072-17.766,23.587-43.656,56.341-44.1,45.115-.608,57.782,28.554,60.034,38.547,3,13.3-14.465,27.359-55.831,25.735s-62.085-6.972-60.544-20.185" transform="translate(-68.955 -64.243)" fill="#954a27"/>
        <path id="Trazado_877890" data-name="Trazado 877890" d="M247.16,250.487c41.366,1.624,58.829-12.431,55.832-25.735-.831-3.689-1.168-7.2-5.946-13.653-32.395-9.443-48.046.411-61.979,13.28-8.2,7.572-15.762,13.729-16.79,5.892-3.478-26.528-23.444-9.569-23.947-18.435-4.383,6.254-7.05,12.776-7.714,18.466-1.541,13.213,19.178,18.562,60.544,20.185" transform="translate(-68.955 -76.648)" fill="#873b1d"/>
        <path id="Trazado_877891" data-name="Trazado 877891" d="M247.16,257.93c41.366,1.624,58.829-12.431,55.832-25.735a36.481,36.481,0,0,0-1.438-4.711c-.454,17.56-28.415,23.587-53.568,24.841-38.833,1.936-51.041-12.635-55.41-17.608-2.33-2.654-4.649-2.87-5.259-.71a29.648,29.648,0,0,0-.7,3.739c-1.541,13.213,19.178,18.562,60.544,20.185" transform="translate(-68.955 -84.091)" fill="#813217"/>
        <path id="Trazado_877892" data-name="Trazado 877892" d="M253.976,173.8a60.015,60.015,0,0,0-36.427,12.843,1.433,1.433,0,0,0-.333.554c-6.054,12.328,21.47,2.634,19.268,9.937-9.636,31.95,9.132,4,33.621-2.666,17.622-4.8,33.157,1.458,28.6-6.579-9.148-7.922-23.258-14.379-44.731-14.089" transform="translate(-79.973 -64.243)" fill="#a55d35"/>
        <path id="Trazado_877893" data-name="Trazado 877893" d="M331.452,226.415c2.468,12.844-11.76,22.131-30.541,24.924s-35.669,1.188-37.263-9.529,12.709-26.486,31.491-29.279,34.269,3.244,36.313,13.885" transform="translate(-97.415 -78.312)" fill="#722814"/>
        <path id="Trazado_877894" data-name="Trazado 877894" d="M280.356,245.382c.212,1.1-1.009,1.9-2.62,2.139s-3.06.1-3.2-.818,1.091-2.272,2.7-2.513,2.94.279,3.115,1.191" transform="translate(-101.482 -90.246)" fill="#873b1d"/>
        <path id="Trazado_877895" data-name="Trazado 877895" d="M290.679,235.51c.3,1.582-1.449,2.726-3.762,3.07s-4.393.146-4.59-1.174,1.565-3.262,3.878-3.606,4.221.4,4.473,1.71" transform="translate(-104.359 -86.395)" fill="#873b1d"/>
        <path id="Trazado_877896" data-name="Trazado 877896" d="M292.467,248.762c.127.66-.6,1.137-1.57,1.281s-1.833.061-1.915-.49.653-1.361,1.618-1.5,1.761.166,1.866.714" transform="translate(-106.822 -91.68)" fill="#873b1d"/>
        <path id="Trazado_877897" data-name="Trazado 877897" d="M345.409,253.667c.176.915-.837,1.575-2.174,1.774s-2.54.084-2.652-.678.9-1.886,2.242-2.085,2.439.231,2.585.988" transform="translate(-125.896 -93.387)" fill="#873b1d"/>
        <path id="Trazado_877898" data-name="Trazado 877898" d="M353.974,245.475c.252,1.313-1.2,2.262-3.121,2.547s-3.645.122-3.808-.974,1.3-2.707,3.218-2.992,3.5.332,3.711,1.419" transform="translate(-128.283 -90.192)" fill="#873b1d"/>
        <path id="Trazado_877899" data-name="Trazado 877899" d="M355.457,256.471c.105.548-.5.944-1.3,1.063s-1.521.051-1.589-.406.542-1.13,1.343-1.249,1.462.138,1.549.592" transform="translate(-130.327 -94.577)" fill="#873b1d"/>
        <path id="Trazado_877900" data-name="Trazado 877900" d="M358.511,238.264c2.468,12.844-11.76,22.13-30.541,24.924s-35.669,1.188-37.263-9.529,12.708-26.486,31.49-29.279,34.269,3.244,36.313,13.885" transform="translate(-107.418 -82.692)" fill="#813217"/>
        <path id="Trazado_877901" data-name="Trazado 877901" d="M363.2,243.506c2.469,12.844-11.76,22.131-30.541,24.924s-35.669,1.188-37.263-9.529,12.709-26.486,31.491-29.28,34.268,3.245,36.313,13.885" transform="translate(-109.151 -84.63)" fill="#954a27"/>
        <path id="Trazado_877902" data-name="Trazado 877902" d="M312.374,260.879c.212,1.1-1.009,1.9-2.62,2.138s-3.06.1-3.2-.818,1.091-2.272,2.7-2.512,2.941.279,3.116,1.191" transform="translate(-113.317 -95.974)" fill="#873b1d"/>
        <path id="Trazado_877903" data-name="Trazado 877903" d="M322.7,251.006c.3,1.582-1.449,2.726-3.762,3.07s-4.393.146-4.59-1.174,1.566-3.262,3.879-3.606,4.221.4,4.473,1.71" transform="translate(-116.194 -92.123)" fill="#873b1d"/>
        <path id="Trazado_877904" data-name="Trazado 877904" d="M324.484,264.258c.127.66-.6,1.137-1.57,1.281s-1.833.061-1.915-.49.653-1.361,1.618-1.5,1.761.167,1.866.714" transform="translate(-118.658 -97.408)" fill="#873b1d"/>
        <path id="Trazado_877905" data-name="Trazado 877905" d="M341.8,278.494c.212,1.1-1.009,1.9-2.62,2.138s-3.06.1-3.2-.817,1.091-2.273,2.7-2.513,2.94.279,3.115,1.191" transform="translate(-124.196 -102.486)" fill="#873b1d"/>
        <path id="Trazado_877906" data-name="Trazado 877906" d="M384.907,248.595c.3,1.582-1.449,2.726-3.762,3.07s-4.393.146-4.59-1.174,1.565-3.262,3.879-3.606,4.221.4,4.473,1.71" transform="translate(-139.191 -91.232)" fill="#873b1d"/>
        <path id="Trazado_877907" data-name="Trazado 877907" d="M404.188,278.735c.127.66-.6,1.137-1.57,1.281s-1.833.061-1.915-.49.653-1.361,1.618-1.5,1.761.167,1.866.714" transform="translate(-148.121 -102.76)" fill="#873b1d"/>
        <path id="Trazado_877908" data-name="Trazado 877908" d="M342.664,260.035s-4.937-2.459-5.886-5.165a3.259,3.259,0,0,1,1.029-3.965s3.65,5.614,6.539,6.742-1.681,2.388-1.681,2.388" transform="translate(-124.398 -92.749)" fill="#ffbe9e"/>
        <path id="Trazado_877909" data-name="Trazado 877909" d="M333.669,246.526c-3.1,2.923,3.28,9.547,3.28,9.547l3.87-2.487s-4.124-9.91-7.151-7.06" transform="translate(-123.029 -90.94)" fill="#e13541"/>
        <path id="Trazado_877910" data-name="Trazado 877910" d="M346.8,262.03c2.132-.843,6.6-4.961,6.6-4.961l-1.7-.542-6.85,3.271s-.22,3.091,1.95,2.232" transform="translate(-127.474 -94.827)" fill="#ffbe9e"/>
        <path id="Trazado_877911" data-name="Trazado 877911" d="M354.665,254.653a2.614,2.614,0,0,0-.059-.608,3.251,3.251,0,0,1,.171-1.11c.056-.2-.062-.691.188-.791.408-.165.384.7.445.891a.436.436,0,0,0,.385.33.546.546,0,0,0,.315-.158,10.979,10.979,0,0,0,.8-.813c.137-.143.282-.275.427-.409.108-.1.214-.277.342-.344a.2.2,0,0,1,.292.1c.03.112-.069.166-.129.243-.132.175-.26.352-.385.532-.028.039-.179.2-.164.252.073.25.484-.177.552-.241a1.163,1.163,0,0,1,.6-.364.109.109,0,0,1,.092.016c.037.035.016.1-.011.141-.154.258-.4.453-.547.714a.139.139,0,0,0-.019.138c.105.166.431-.055.543-.119.071-.04.164-.083.228-.032a.135.135,0,0,1,.033.147.4.4,0,0,1-.088.132,3.9,3.9,0,0,1-.32.356c-.057.05-.238.184-.187.274a.072.072,0,0,0,.05.032.407.407,0,0,0,.214-.045.2.2,0,0,1,.21.019c.063.067.023.176-.028.253a3.432,3.432,0,0,1-.721.689q-.408.331-.844.623a11.7,11.7,0,0,1-1.2.706,1.823,1.823,0,0,1-1.2.273,1.534,1.534,0,0,1-.335-.133,1.575,1.575,0,0,1-.4-.258.629.629,0,0,1-.2-.415.133.133,0,0,1,.009-.063.15.15,0,0,1,.06-.055,4.282,4.282,0,0,0,.524-.352,1.082,1.082,0,0,0,.355-.553" transform="translate(-130.754 -93.011)" fill="#ffbe9e"/>
        <path id="Trazado_877912" data-name="Trazado 877912" d="M298.055,313.553a11.044,11.044,0,0,0-1.624,1.887c-.218,1.1,2.487,3.659,3.877,3.954.195.042.544-.093.529-.651s-1.25-2.323-.563-2.913-2.218-2.277-2.218-2.277" transform="translate(-109.573 -115.907)" fill="#e8a32b"/>
        <path id="Trazado_877913" data-name="Trazado 877913" d="M312.253,278.82s-.93-9.35-.739-11.356c.281-2.947,3.8-19.956,6.27-3.48.347,2.317,2,19.362-1.572,21.045-3.236,1.526-3.959-6.209-3.959-6.209" transform="translate(-115.144 -94.963)" fill="#85c2f6"/>
        <path id="Trazado_877914" data-name="Trazado 877914" d="M301.964,308.808c2.857-2.447,10.636-11.044,10.968-13.95.357-3.14-3.909-3.145-6.614.016-1.752,2.049-7.595,9.07-9.047,11.084-.352.488.7,1.715,1.469,2.258.02.013,2.4,1.3,3.224.593" transform="translate(-109.863 -108.126)" fill="#85c2f6"/>
        <path id="Trazado_877915" data-name="Trazado 877915" d="M326.3,316.892a11,11,0,0,0-.6,2.417c.3,1.085,3.87,2.144,5.243,1.78.192-.051.443-.328.178-.819s-2.163-1.51-1.816-2.346-3.007-1.032-3.007-1.032" transform="translate(-120.393 -117.142)" fill="#e8a32b"/>
        <path id="Trazado_877916" data-name="Trazado 877916" d="M325.419,281.963s-5.048-7.926-5.781-9.8c-1.079-2.757.623-6.1,4.026-5.934,2.34.117,10.515,16.379,8.089,19.491-2.2,2.821-6.334-3.756-6.334-3.756" transform="translate(-118.038 -98.411)" fill="#85c2f6"/>
        <path id="Trazado_877917" data-name="Trazado 877917" d="M330.738,307.555c1.445-3.473,4.511-14.655,3.5-17.4-1.1-2.964-4.907-1.045-5.895,3-.64,2.619-2.688,11.521-3.074,13.973-.095.594,1.394,1.216,2.329,1.353.023,0,2.726.078,3.144-.925" transform="translate(-120.235 -106.727)" fill="#85c2f6"/>
        <path id="Trazado_877918" data-name="Trazado 877918" d="M329.742,247.171c.495-3.163-3.56-5.337-7.165-6.482-2.431-.772-4.248-.755-5.891,1.946-1.048,1.722-4.436,9.847-4.36,12.477,0,0,2.789,4.054,12.677,5.64a49.528,49.528,0,0,0,4.739-13.581" transform="translate(-115.453 -88.81)" fill="#ef404d"/>
        <path id="Trazado_877919" data-name="Trazado 877919" d="M330.588,235.444s3.089,2.444,2.758,2.632-.275.922-.538,1.476a3.5,3.5,0,0,0,.037,2.3c.165.606-.746.784-1.389.605-2.772-.773-3.906-2.51-2.965-3.067a4.861,4.861,0,0,0,2.1-3.943" transform="translate(-121.309 -87.034)" fill="#ffbe9e"/>
        <path id="Trazado_877920" data-name="Trazado 877920" d="M334.055,239.44c.263-.555.206-1.29.538-1.477s-3-2.825-3-2.825a3,3,0,0,1-.051,1.775,7.645,7.645,0,0,0,2.364,3.9,3.141,3.141,0,0,1,.151-1.37" transform="translate(-122.556 -86.921)" fill="#ff9c81"/>
        <path id="Trazado_877921" data-name="Trazado 877921" d="M337.161,230.993c.853,1.7.264,5.817-1.991,6.805-1.239.543-3.6-1.844-3.933-4.521a4.865,4.865,0,0,1,1.789-3.349,3.112,3.112,0,0,1,4.136,1.065" transform="translate(-122.443 -84.852)" fill="#ffbe9e"/>
        <path id="Trazado_877922" data-name="Trazado 877922" d="M336.739,234.088c-.109.217.752-2.3-.5-3.112-.508-.332-.668.3-1.317.035-.555-.224-1.629-2.093-2.584,1.4-.045.168-.28.277-.418.379-.171.126-.09.649-.188.837s-.369-.654-.448-.466c-.121.286-.022,1.3-.475,1.208-.219-.044-.3-.472-.392-.647a7.9,7.9,0,0,1-.753-1.467,3.39,3.39,0,0,1,.07-1.851,3.192,3.192,0,0,1,.946-1.568,2.354,2.354,0,0,1,1.808-.526,8.91,8.91,0,0,0,1.135.224c.339,0,.653.113.995.115a1.321,1.321,0,0,0,.651-.2,1.8,1.8,0,0,1,1.627.02,1.5,1.5,0,0,1,.772,1.4c-.028.316-.158.674.036.925.07.092.176.154.237.252a.6.6,0,0,1,.068.318,2.489,2.489,0,0,1-.632,1.575,2.2,2.2,0,0,0-.411.557c-.081.2-.13.4-.227.6" transform="translate(-121.827 -84.379)" fill="#53424d"/>
        <path id="Trazado_877923" data-name="Trazado 877923" d="M332.9,235.561s-.556-1.348-1.22-1.365-.631,1.831.587,2.178.819-.431.632-.812" transform="translate(-122.45 -86.572)" fill="#ffbe9e"/>
        <path id="Trazado_877924" data-name="Trazado 877924" d="M335.725,236.532c-.019-.025.023.026.03.033a.641.641,0,0,0,.113.094.3.3,0,0,0,.408-.1c.07-.078.188.042.118.12a.5.5,0,0,1-.817-.07c-.065-.086.083-.163.147-.077" transform="translate(-124.043 -87.422)" fill="#201714"/>
        <path id="Trazado_877925" data-name="Trazado 877925" d="M338.681,236.849a.584.584,0,0,0,.1.164c.132.154.277.1.41-.023.079-.071.2.05.119.12a.432.432,0,0,1-.562.093.679.679,0,0,1-.227-.317c-.038-.1.125-.137.163-.038" transform="translate(-125.134 -87.532)" fill="#201714"/>
        <path id="Trazado_877926" data-name="Trazado 877926" d="M339.314,235.676a.5.5,0,0,0-.69.049c-.1.09-.224-.068-.129-.158a.7.7,0,0,1,.938-.055c.1.079-.016.245-.12.165" transform="translate(-125.115 -87.001)" fill="#4d2f20"/>
        <path id="Trazado_877927" data-name="Trazado 877927" d="M336.532,235.462a.5.5,0,0,0-.677-.14c-.117.061-.2-.127-.081-.187a.7.7,0,0,1,.918.2c.078.105-.081.231-.16.126" transform="translate(-124.101 -86.886)" fill="#4d2f20"/>
        <path id="Trazado_877928" data-name="Trazado 877928" d="M337.675,236.174a1.016,1.016,0,0,0-.217.523c-.016.273.223.483.3.741.109.355-.159.447-.533.42-.09-.006-.092-.124,0-.118.838.059.093-.652.091-1.012a1.083,1.083,0,0,1,.237-.625c.045-.061.167.01.122.071" transform="translate(-124.633 -87.269)" fill="#7c4930"/>
        <path id="Trazado_877929" data-name="Trazado 877929" d="M336.024,239.044s-.289.639.255.841a.675.675,0,0,0,.819-.365Z" transform="translate(-124.186 -88.365)" fill="#faffff"/>
        <path id="Trazado_877930" data-name="Trazado 877930" d="M334.533,237.957a.4.4,0,1,0,.4-.386.4.4,0,0,0-.4.386" transform="translate(-123.663 -87.82)" fill="#ff9c81"/>
        <path id="Trazado_877931" data-name="Trazado 877931" d="M339.572,238.412a.4.4,0,1,0-.134.55.4.4,0,0,0,.134-.55" transform="translate(-125.251 -88.06)" fill="#ff9c81"/>
        <path id="Trazado_877932" data-name="Trazado 877932" d="M336.129,226.148s-4.646-1.145-7.641.369L328.073,225s-2.695.772-2.539-1.168,2.284-2.1,2.539-1.629.265-3.492,3.13-2.638c0,0,1.388.776,1.467,1.629,0,0,2.646-2.405,3.458-1.242a2.135,2.135,0,0,1-.7,3.1Z" transform="translate(-120.334 -81.12)" fill="#ddeafa"/>
        <path id="Trazado_877933" data-name="Trazado 877933" d="M340.635,229.843a2.678,2.678,0,0,0,.16-2.768c-.843-1.319-.457,1.718-3.022,1.376Z" transform="translate(-124.861 -83.817)" fill="#53424d"/>
        <path id="Trazado_877934" data-name="Trazado 877934" d="M380.857,253.354c2.256,11.737-10.745,20.222-27.907,22.775s-32.592,1.085-34.049-8.708,11.613-24.2,28.774-26.754,31.314,2.964,33.182,12.687" transform="translate(-117.843 -88.735)" fill="#813217"/>
        <path id="Trazado_877935" data-name="Trazado 877935" d="M385.143,258.143c2.255,11.737-10.745,20.222-27.907,22.775S324.644,282,323.187,272.21s11.613-24.2,28.774-26.755,31.313,2.965,33.182,12.688" transform="translate(-119.428 -90.505)" fill="#954a27"/>
        <path id="Trazado_877936" data-name="Trazado 877936" d="M338.7,274.017c.194,1.007-.922,1.735-2.394,1.954s-2.8.093-2.922-.747,1-2.077,2.469-2.3,2.687.255,2.847,1.089" transform="translate(-123.234 -100.871)" fill="#873b1d"/>
        <path id="Trazado_877937" data-name="Trazado 877937" d="M348.131,265c.278,1.445-1.324,2.49-3.437,2.805s-4.015.134-4.194-1.072,1.43-2.981,3.544-3.3,3.857.365,4.087,1.563" transform="translate(-125.864 -97.352)" fill="#873b1d"/>
        <path id="Trazado_877938" data-name="Trazado 877938" d="M349.765,277.1c.116.6-.552,1.039-1.434,1.171s-1.675.055-1.75-.448.6-1.244,1.479-1.375,1.609.152,1.705.652" transform="translate(-128.114 -102.181)" fill="#873b1d"/>
        <path id="Trazado_877939" data-name="Trazado 877939" d="M365.589,290.113c.194,1.007-.922,1.735-2.394,1.954s-2.8.093-2.922-.747,1-2.076,2.469-2.3,2.687.255,2.847,1.089" transform="translate(-133.174 -106.821)" fill="#873b1d"/>
        <path id="Trazado_877940" data-name="Trazado 877940" d="M404.977,262.793c.278,1.445-1.324,2.49-3.437,2.805s-4.015.134-4.194-1.072,1.43-2.981,3.544-3.3,3.857.365,4.087,1.563" transform="translate(-146.877 -96.537)" fill="#873b1d"/>
        <path id="Trazado_877941" data-name="Trazado 877941" d="M314.209,254.3s-.03-5.515,1.959-7.582a3.257,3.257,0,0,1,4-.868s-3.367,5.787-3.073,8.875-2.889-.425-2.889-.425" transform="translate(-116.15 -90.752)" fill="#ffbe9e"/>
        <path id="Trazado_877942" data-name="Trazado 877942" d="M321.2,240.193c-4.008-1.454-7.044,7.231-7.044,7.231l3.964,2.334s6.989-8.147,3.08-9.565" transform="translate(-116.129 -88.729)" fill="#e13541"/>
        <path id="Trazado_877943" data-name="Trazado 877943" d="M314.752,259.283c1.713,1.524,7.4,3.658,7.4,3.658l-.283-1.764-6.006-4.641s-2.858,1.2-1.114,2.747" transform="translate(-116.142 -94.831)" fill="#ffbe9e"/>
        <path id="Trazado_877944" data-name="Trazado 877944" d="M325.257,262.877a2.581,2.581,0,0,0,.516-.327,3.248,3.248,0,0,1,1.068-.347c.205-.04.589-.367.792-.189.332.291-.455.659-.594.8a.436.436,0,0,0-.121.493.545.545,0,0,0,.282.21,11.09,11.09,0,0,0,1.088.349c.19.058.372.128.558.2a2.123,2.123,0,0,1,.462.151.2.2,0,0,1,.04.306c-.086.078-.179.013-.275,0-.216-.04-.432-.073-.649-.1-.048-.007-.26-.069-.3-.033-.19.178.376.352.464.384a1.168,1.168,0,0,1,.6.372.108.108,0,0,1,.027.089c-.014.049-.079.058-.13.054-.3-.021-.584-.151-.884-.166-.049,0-.107,0-.132.045-.1.168.243.359.35.431.068.045.148.109.131.188a.134.134,0,0,1-.116.1.4.4,0,0,1-.158-.018,3.976,3.976,0,0,1-.461-.125c-.071-.028-.272-.129-.33-.043a.074.074,0,0,0-.006.059.4.4,0,0,0,.137.171.2.2,0,0,1,.077.2c-.031.087-.147.1-.239.089a3.418,3.418,0,0,1-.94-.333q-.478-.216-.937-.473a11.544,11.544,0,0,1-1.171-.755,1.823,1.823,0,0,1-.786-.951,1.592,1.592,0,0,1-.032-.359,1.548,1.548,0,0,1,.052-.47.625.625,0,0,1,.278-.369.124.124,0,0,1,.06-.02.146.146,0,0,1,.076.028,4.374,4.374,0,0,0,.551.31,1.085,1.085,0,0,0,.654.068" transform="translate(-119.616 -96.836)" fill="#ffbe9e"/>
        <path id="Trazado_877945" data-name="Trazado 877945" d="M41.3,146.687l-1.252-.466-1.058,3.112,1.277.4Z" transform="translate(-14.414 -54.052)" fill="#85c2f6"/>
        <path id="Trazado_877946" data-name="Trazado 877946" d="M44.178,139.677l-1.2-.594a32.373,32.373,0,0,0-1.35,3.007l1.237.506a31.218,31.218,0,0,1,1.31-2.918" transform="translate(-15.389 -51.413)" fill="#85c2f6"/>
        <path id="Trazado_877947" data-name="Trazado 877947" d="M47.776,133.075l-1.106-.751a31.578,31.578,0,0,0-1.727,2.825l1.172.642a30.185,30.185,0,0,1,1.66-2.716" transform="translate(-16.614 -48.915)" fill="#85c2f6"/>
        <path id="Trazado_877948" data-name="Trazado 877948" d="M52.3,127.161l-.953-.937a26.141,26.141,0,0,0-2.18,2.517l1.064.808a24.777,24.777,0,0,1,2.069-2.388" transform="translate(-18.175 -46.66)" fill="#85c2f6"/>
        <path id="Trazado_877949" data-name="Trazado 877949" d="M57.874,122.349l-.7-1.142a22.289,22.289,0,0,0-2.673,2.034l.883,1a20.8,20.8,0,0,1,2.487-1.9" transform="translate(-20.148 -44.805)" fill="#85c2f6"/>
        <path id="Trazado_877950" data-name="Trazado 877950" d="M64.512,119.24l-.366-1.289a19.416,19.416,0,0,0-3.125,1.24l.593,1.2a18,18,0,0,1,2.9-1.15" transform="translate(-22.557 -43.602)" fill="#85c2f6"/>
        <path id="Trazado_877951" data-name="Trazado 877951" d="M71.875,118.19l-.008-1.339a18,18,0,0,0-3.347.309l.25,1.316a16.653,16.653,0,0,1,3.105-.286" transform="translate(-25.329 -43.195)" fill="#85c2f6"/>
        <path id="Trazado_877952" data-name="Trazado 877952" d="M79.335,118.884l.35-1.29a20.851,20.851,0,0,0-3.308-.613l-.11,1.334a19.539,19.539,0,0,1,3.069.57" transform="translate(-28.192 -43.243)" fill="#85c2f6"/>
        <path id="Trazado_877953" data-name="Trazado 877953" d="M86.258,121.372l.674-1.154a20.628,20.628,0,0,0-3.031-1.447l-.463,1.254a19.349,19.349,0,0,1,2.821,1.348" transform="translate(-30.843 -43.905)" fill="#85c2f6"/>
        <path id="Trazado_877954" data-name="Trazado 877954" d="M92.321,125.586l.969-.92a17.669,17.669,0,0,0-2.567-2.187l-.77,1.091a16.441,16.441,0,0,1,2.368,2.016" transform="translate(-33.252 -45.275)" fill="#85c2f6"/>
        <path id="Trazado_877955" data-name="Trazado 877955" d="M96.634,131.425l1.28-.382a9.781,9.781,0,0,0-1.6-3.064l-1.073.8a8.448,8.448,0,0,1,1.392,2.648" transform="translate(-35.207 -47.308)" fill="#85c2f6"/>
        <path id="Trazado_877956" data-name="Trazado 877956" d="M96.393,138.142l1.021.862a5.073,5.073,0,0,0,1.229-3.418l-1.336.033a3.715,3.715,0,0,1-.915,2.523" transform="translate(-35.632 -50.12)" fill="#85c2f6"/>
        <path id="Trazado_877957" data-name="Trazado 877957" d="M90.373,142.328l.35,1.29a10.554,10.554,0,0,0,3.16-1.384l-.755-1.1a9.253,9.253,0,0,1-2.756,1.2" transform="translate(-33.407 -52.17)" fill="#85c2f6"/>
        <path id="Trazado_877958" data-name="Trazado 877958" d="M83.064,143.717l-.04,1.336a20.188,20.188,0,0,0,3.357-.2l-.2-1.321a18.776,18.776,0,0,1-3.114.189" transform="translate(-30.69 -53.056)" fill="#85c2f6"/>
        <path id="Trazado_877959" data-name="Trazado 877959" d="M75.546,142.754l-.339,1.293a26.561,26.561,0,0,0,3.29.606l.143-1.329a25.432,25.432,0,0,1-3.094-.57" transform="translate(-27.801 -52.77)" fill="#85c2f6"/>
        <path id="Trazado_877960" data-name="Trazado 877960" d="M68.462,140.075l-.616,1.186a24.037,24.037,0,0,0,3.074,1.32l.432-1.264a22.789,22.789,0,0,1-2.889-1.241" transform="translate(-25.08 -51.78)" fill="#85c2f6"/>
        <path id="Trazado_877961" data-name="Trazado 877961" d="M62.2,135.9l-.88,1.006a18.235,18.235,0,0,0,2.692,2l.705-1.135A16.928,16.928,0,0,1,62.2,135.9" transform="translate(-22.668 -50.238)" fill="#85c2f6"/>
        <path id="Trazado_877962" data-name="Trazado 877962" d="M57.144,130.4l-1.1.754a22.412,22.412,0,0,0,2.137,2.588l.96-.93a21.115,21.115,0,0,1-1.993-2.412" transform="translate(-20.716 -48.205)" fill="#85c2f6"/>
        <path id="Trazado_877963" data-name="Trazado 877963" d="M53.708,123.81l-1.252.466a19.372,19.372,0,0,0,1.4,3.041l1.162-.661a17.984,17.984,0,0,1-1.312-2.846" transform="translate(-19.391 -45.767)" fill="#85c2f6"/>
        <path id="Trazado_877964" data-name="Trazado 877964" d="M51.86,116.6l-1.322.194a25.055,25.055,0,0,0,.68,3.264l1.283-.371a23.781,23.781,0,0,1-.641-3.087" transform="translate(-18.682 -43.103)" fill="#85c2f6"/>
        <path id="Trazado_877965" data-name="Trazado 877965" d="M51.411,109.116l-1.336-.032a30.692,30.692,0,0,0,.079,3.317l1.332-.113a29.409,29.409,0,0,1-.074-3.172" transform="translate(-18.5 -40.324)" fill="#85c2f6"/>
        <path id="Trazado_877966" data-name="Trazado 877966" d="M51.884,101.51l-1.32-.209c-.122,1.095-.284,2.185-.373,3.284l1.333.1c.085-1.058.243-2.114.359-3.171" transform="translate(-18.554 -37.447)" fill="#85c2f6"/>
        <path id="Trazado_877967" data-name="Trazado 877967" d="M53.309,94.045,52.018,93.7a29.345,29.345,0,0,0-.744,3.207l1.312.256a28.211,28.211,0,0,1,.724-3.12" transform="translate(-18.954 -34.638)" fill="#85c2f6"/>
        <path id="Trazado_877968" data-name="Trazado 877968" d="M55.409,86.739l-1.259-.448c-.342,1.04-.72,2.068-1.031,3.118l1.281.381c.3-1.026.676-2.033,1.01-3.051" transform="translate(-19.636 -31.898)" fill="#85c2f6"/>
        <path id="Trazado_877969" data-name="Trazado 877969" d="M58.118,79.631,56.9,79.089l-1.253,3.034,1.247.479Z" transform="translate(-20.569 -29.236)" fill="#85c2f6"/>
        <path id="Trazado_877970" data-name="Trazado 877970" d="M61.354,72.759l-1.175-.637L58.7,75.056l1.206.574Z" transform="translate(-21.7 -26.66)" fill="#85c2f6"/>
        <path id="Trazado_877971" data-name="Trazado 877971" d="M65.133,66.178l-1.119-.731-1.694,2.814,1.157.669Z" transform="translate(-23.037 -24.193)" fill="#85c2f6"/>
        <path id="Trazado_877972" data-name="Trazado 877972" d="M69.457,59.963l-1.055-.82c-.707.837-1.282,1.776-1.929,2.658l1.1.76c.633-.862,1.193-1.781,1.885-2.6" transform="translate(-24.572 -21.863)" fill="#85c2f6"/>
        <path id="Trazado_877973" data-name="Trazado 877973" d="M74.282,54.132l-.984-.9a31.344,31.344,0,0,0-2.151,2.482l1.033.848a30.287,30.287,0,0,1,2.1-2.426" transform="translate(-26.3 -19.676)" fill="#85c2f6"/>
        <path id="Trazado_877974" data-name="Trazado 877974" d="M79.57,48.724l-.905-.983c-.8.746-1.628,1.467-2.357,2.288l.959.93c.711-.8,1.521-1.506,2.3-2.236" transform="translate(-28.208 -17.648)" fill="#85c2f6"/>
        <path id="Trazado_877975" data-name="Trazado 877975" d="M85.286,43.766l-.821-1.055c-.847.695-1.719,1.36-2.545,2.079L82.8,45.8c.807-.7,1.66-1.353,2.487-2.032" transform="translate(-30.282 -15.788)" fill="#85c2f6"/>
        <path id="Trazado_877976" data-name="Trazado 877976" d="M91.405,39.287l-.732-1.119-2.69,1.888.792,1.076Z" transform="translate(-32.524 -14.109)" fill="#85c2f6"/>
        <path id="Trazado_877977" data-name="Trazado 877977" d="M97.906,35.4l-.637-1.175c-.985.484-1.9,1.085-2.84,1.65l.7,1.138c.917-.553,1.814-1.141,2.777-1.613" transform="translate(-34.906 -12.65)" fill="#85c2f6"/>
        <path id="Trazado_877978" data-name="Trazado 877978" d="M104.7,32.034l-.537-1.223c-.993.46-2.015.863-2.971,1.4l.6,1.192c.934-.527,1.933-.919,2.9-1.369" transform="translate(-37.407 -11.39)" fill="#85c2f6"/>
        <path id="Trazado_877979" data-name="Trazado 877979" d="M111.753,29.222l-.431-1.265-3.077,1.156.5,1.238Z" transform="translate(-40.014 -10.334)" fill="#85c2f6"/>
        <path id="Trazado_877980" data-name="Trazado 877980" d="M119.054,27.118l-.316-1.3c-1.074.229-2.124.544-3.169.876l.394,1.277c1.02-.323,2.044-.631,3.091-.853" transform="translate(-42.721 -9.544)" fill="#85c2f6"/>
        <path id="Trazado_877981" data-name="Trazado 877981" d="M126.513,25.639l-.188-1.323c-1.08.193-2.169.35-3.242.575l.275,1.308c1.046-.219,2.1-.371,3.155-.56" transform="translate(-45.499 -8.989)" fill="#85c2f6"/>
        <path id="Trazado_877982" data-name="Trazado 877982" d="M134.1,24.994l-.042-1.336a29.855,29.855,0,0,0-3.29.231l.142,1.329a28.752,28.752,0,0,1,3.189-.224" transform="translate(-48.339 -8.745)" fill="#85c2f6"/>
        <path id="Trazado_877983" data-name="Trazado 877983" d="M141.712,25.1l.133-1.33c-1.1-.13-2.2-.12-3.3-.185l-.011,1.336c1.06.066,2.129.053,3.181.179" transform="translate(-51.209 -8.719)" fill="#85c2f6"/>
        <path id="Trazado_877984" data-name="Trazado 877984" d="M149.13,26.155l.352-1.289c-1.084-.224-2.159-.535-3.258-.661l-.2,1.322c1.054.12,2.071.419,3.105.628" transform="translate(-53.979 -8.948)" fill="#85c2f6"/>
        <path id="Trazado_877985" data-name="Trazado 877985" d="M156.149,28.567l.644-1.171a21.284,21.284,0,0,0-3.075-1.333l-.442,1.261a19.986,19.986,0,0,1,2.872,1.244" transform="translate(-56.66 -9.634)" fill="#85c2f6"/>
        <path id="Trazado_877986" data-name="Trazado 877986" d="M162.178,32.706l1-.885a13.109,13.109,0,0,0-2.545-2.245l-.758,1.1a11.806,11.806,0,0,1,2.3,2.03" transform="translate(-59.1 -10.933)" fill="#85c2f6"/>
        <path id="Trazado_877987" data-name="Trazado 877987" d="M166.275,38.719l1.28-.385c-.2-.538-.348-1.1-.589-1.615l-.852-1.5L165,35.965l.755,1.323c.214.459.341.956.519,1.431" transform="translate(-60.994 -13.021)" fill="#85c2f6"/>
        <path id="Trazado_877988" data-name="Trazado 877988" d="M167.635,46.026l1.331.12a14.319,14.319,0,0,0-.12-3.4l-1.321.207a12.988,12.988,0,0,1,.11,3.069" transform="translate(-61.927 -15.803)" fill="#85c2f6"/>
        <path id="Trazado_877989" data-name="Trazado 877989" d="M165.993,53.352l1.258.452a17.988,17.988,0,0,0,.888-3.228l-1.314-.245a16.726,16.726,0,0,1-.831,3.021" transform="translate(-61.361 -18.605)" fill="#85c2f6"/>
        <path id="Trazado_877990" data-name="Trazado 877990" d="M162.23,59.766l.963.927a12.122,12.122,0,0,0,2.03-2.753l-1.184-.62a10.805,10.805,0,0,1-1.809,2.447" transform="translate(-59.97 -21.188)" fill="#85c2f6"/>
        <path id="Trazado_877991" data-name="Trazado 877991" d="M156.37,64.479l.566,1.211a14.623,14.623,0,0,0,2.868-1.832l-.847-1.033a13.278,13.278,0,0,1-2.587,1.655" transform="translate(-57.803 -23.223)" fill="#85c2f6"/>
        <path id="Trazado_877992" data-name="Trazado 877992" d="M149.4,66.743l-.005,1.336a11.7,11.7,0,0,0,3.4-.5l-.4-1.276a10.336,10.336,0,0,1-2.993.443" transform="translate(-55.225 -24.508)" fill="#85c2f6"/>
        <path id="Trazado_877993" data-name="Trazado 877993" d="M142.138,65.34l-.583,1.2a11.867,11.867,0,0,0,3.261,1.041l.212-1.32a10.509,10.509,0,0,1-2.89-.924" transform="translate(-52.327 -24.153)" fill="#85c2f6"/>
        <path id="Trazado_877994" data-name="Trazado 877994" d="M136.032,61.049l-.93.96a18.362,18.362,0,0,0,2.606,2.139l.726-1.122a17.047,17.047,0,0,1-2.4-1.977" transform="translate(-49.942 -22.567)" fill="#85c2f6"/>
        <path id="Trazado_877995" data-name="Trazado 877995" d="M131.914,55.171l-1.269.42a9.452,9.452,0,0,0,1.663,3.038l1.037-.843a8.1,8.1,0,0,1-1.432-2.615" transform="translate(-48.294 -20.394)" fill="#85c2f6"/>
        <path id="Trazado_877996" data-name="Trazado 877996" d="M131.152,47.959l-1.33-.134a13.051,13.051,0,0,0,.1,3.41l1.318-.219a11.688,11.688,0,0,1-.091-3.057" transform="translate(-47.967 -17.679)" fill="#85c2f6"/>
        <path id="Trazado_877997" data-name="Trazado 877997" d="M132.507,40.642l-1.235-.51a19.447,19.447,0,0,0-1.01,3.21l1.309.274a18.043,18.043,0,0,1,.937-2.974" transform="translate(-48.152 -14.835)" fill="#85c2f6"/>
        <path id="Trazado_877998" data-name="Trazado 877998" d="M135.773,34l-1.092-.77a23.255,23.255,0,0,0-1.728,2.859l1.192.605A21.87,21.87,0,0,1,135.773,34" transform="translate(-49.147 -12.285)" fill="#85c2f6"/>
        <path id="Trazado_877999" data-name="Trazado 877999" d="M140.422,28.22l-.931-.958a30.32,30.32,0,0,0-2.24,2.459l1.041.838a29.2,29.2,0,0,1,2.131-2.339" transform="translate(-50.736 -10.078)" fill="#85c2f6"/>
        <path id="Trazado_878000" data-name="Trazado 878000" d="M146.1,23.4l-.763-1.1a28.126,28.126,0,0,0-2.622,2.031l.876,1.009A26.94,26.94,0,0,1,146.1,23.4" transform="translate(-52.755 -8.244)" fill="#85c2f6"/>
        <path id="Trazado_878001" data-name="Trazado 878001" d="M152.507,19.524l-.593-1.2a31.645,31.645,0,0,0-2.9,1.609l.707,1.134a30.3,30.3,0,0,1,2.782-1.546" transform="translate(-55.086 -6.774)" fill="#85c2f6"/>
        <path id="Trazado_878002" data-name="Trazado 878002" d="M159.449,16.6l-.428-1.266c-1.037.374-2.078.736-3.08,1.2l.538,1.223c.964-.45,1.969-.8,2.97-1.16" transform="translate(-57.645 -5.669)" fill="#85c2f6"/>
        <path id="Trazado_878003" data-name="Trazado 878003" d="M166.749,14.612l-.271-1.309c-1.072.25-2.152.467-3.2.806l.376,1.283c1.014-.328,2.06-.538,3.1-.78" transform="translate(-60.356 -4.918)" fill="#85c2f6"/>
        <path id="Trazado_878004" data-name="Trazado 878004" d="M174.27,13.491l-.127-1.331c-1.094.108-2.185.226-3.267.432l.223,1.318c1.048-.2,2.108-.314,3.171-.419" transform="translate(-63.166 -4.495)" fill="#85c2f6"/>
        <path id="Trazado_878005" data-name="Trazado 878005" d="M181.894,13.147l0-1.336c-1.1-.034-2.194.038-3.29.091l.083,1.334c1.067-.051,2.133-.122,3.2-.088" transform="translate(-66.024 -4.363)" fill="#85c2f6"/>
        <path id="Trazado_878006" data-name="Trazado 878006" d="M189.516,13.371l.121-1.331-3.28-.2-.044,1.336Z" transform="translate(-68.872 -4.375)" fill="#85c2f6"/>
        <path id="Trazado_878007" data-name="Trazado 878007" d="M197.053,14.239l.223-1.317c-1.077-.2-2.158-.362-3.248-.469l-.156,1.328c1.067.1,2.126.267,3.181.459" transform="translate(-71.666 -4.603)" fill="#85c2f6"/>
        <path id="Trazado_878008" data-name="Trazado 878008" d="M40.153,219.679A21.441,21.441,0,0,1,2.4,240.014c-5.625-10.408-.911-21.879,9.515-27.494s22.615-3.249,28.24,7.159" transform="translate(0 -77.465)" fill="#f02e38"/>
        <path id="Trazado_878009" data-name="Trazado 878009" d="M37.848,213.817c.158.267.332.516.482.793a23.205,23.205,0,0,1-25.621,33.635,21.435,21.435,0,0,0,32.142-26.992,19.139,19.139,0,0,0-7-7.436" transform="translate(-4.698 -79.039)" fill="#b8232d"/>
        <path id="Trazado_878010" data-name="Trazado 878010" d="M15.381,237.233c1.119,2.071-.11,4.9-2.746,6.319s-5.679.892-6.8-1.179.11-4.9,2.746-6.32,5.679-.892,6.8,1.179" transform="translate(-2.005 -86.965)" fill="#fe6667"/>
        <path id="Trazado_878011" data-name="Trazado 878011" d="M9.285,218.677s-2.433,4.712.272,8.749c0,0,.449-5.475,1.822-7.784s1.52,5.722,5.8,7.341c0,0-3.224-7.421-1.945-9.418a6.723,6.723,0,0,1,7.062,1.429,6.661,6.661,0,0,0-5.908-4.144s1.059-5.164,8.236-5.294c0,0-9.229-.908-11.238,4.589,0,0-2.907-3.439-6.934-.223,0,0,3.608-.112,4.39,1.822,0,0-4.781-1.088-9.26,4.2,0,0,6.261-3.745,7.7-1.27" transform="translate(-0.586 -77.443)" fill="#89890e"/>
        <path id="Trazado_878012" data-name="Trazado 878012" d="M93.119,175.512c-5.271-6.218-21.824-2.332-30.551-11.419s4.5-8.807,7.433-7.1-1.782-9.269,2.482-8.187,5.205,3.414,7.226,2.138-2.494-7.308,2.78-6.525c5.266.761,2.283,9.674,7.957,8.3,2.26-.568-3.5-15.791,4.951-24.506,8.436-8.714,7.224,1.466,5.162,5.4-2.066,3.9,5.449-3.1,7.76,2.016s-7.478,6.564-5.02,8.256c5.257,3.618-4.459,7.483.112,10.217s3.553-12.047,10.855-10.471c7.332,1.589-10.715,21.412,1.357,15.123,5.3-2.785,13.356-10.7,15.247-7.016,2.842,5.567-5.8,8.119-9.108,8.708s-6.431,7.437-1.846,8.86-2.057,3.25-9.663,4.07-10.012,4.4-10.75,8.334c-.749,3.945-2.441,13.638-2.441,13.638l-5.113-.605s4.279-15.556,1.17-19.228" transform="translate(-22.045 -46.128)" fill="#afaf14"/>
        <path id="Trazado_878013" data-name="Trazado 878013" d="M111.332,203.343c-.32-8.133-15.773-15.251-17.017-27.77-1.273-12.523,8.957-4.185,10.214-1.029s4.314-8.4,7-4.925,2,5.892,4.373,6.116,2.555-7.274,6.224-3.43-4.159,9.025,1.16,11.426c2.124.959,6.976-14.584,19-16.265s4.8,5.611.746,7.42c-4.025,1.816,6.2.912,4.867,6.378-1.325,5.449-9.934.567-9.042,3.415,1.922,6.086-8.126,3.151-6.219,8.122,1.917,4.951,10.23-7.311,15.012-1.59,4.8,5.763-21.645,10.289-8.251,12.742,5.892,1.084,17.128-.206,16.349,3.858-1.187,6.129-9.57,2.835-12.539,1.268-2.98-1.584-9.672,1.9-6.924,5.837s-3.633,1.306-10.125-2.725c-6.516-4.031-10.6-2.683-13.617-.03-3.026,2.635-10.339,9.239-10.339,9.239l-3.643-3.619s12.955-9.632,12.765-14.436" transform="translate(-34.824 -61.812)" fill="#89890e"/>
        <path id="Trazado_878014" data-name="Trazado 878014" d="M101.1,210.282c2.638-5.879-5.824-16.362-2.32-25.7s7.83.176,7.621,2.858,6.012-4.462,6.714-1.036-.657,4.884.94,5.878,4.382-4.286,5.637-.258-6.144,4.949-3.2,8.526c1.175,1.423,10.1-7.921,19.231-4.891s1.423,5.67-2.076,5.532,4.068,2.832,1.212,6.239-7.262-3.085-7.623-.741c-.779,5-6.888-.605-7.271,3.577-.4,4.207,9.83-1.606,11.207,4.147,1.4,5.783-19-.273-10.353,6.162,3.81,2.832,12.247,5.862,10.257,8.472-3,3.946-7.79-1.343-9.354-3.51s-7.532-2.04-6.973,1.725-3.021-.342-6.225-5.5c-3.211-5.134-6.583-5.618-9.664-4.794s-10.6,2.94-10.6,2.94l-1.3-3.853s12.584-2.291,14.146-5.775" transform="translate(-32.145 -66.746)" fill="#989b10"/>
        <path id="Trazado_878015" data-name="Trazado 878015" d="M41.644,179.357a13.474,13.474,0,0,1,16.42-5.732c9.226,3.154,26.341,24.694,29.81,48.237.748,5.079,3.213,9.666.239,13.97-4.533,6.561-16.22,11.519-27.393,10.759-22.347-1.52-26.036-18.018-22.162-36.643,2.565-12.333-2.132-21.8,3.086-30.59" transform="translate(-13.758 -63.868)" fill="#afaf14"/>
        <path id="Trazado_878016" data-name="Trazado 878016" d="M48.513,180.57s4.242-10.889,14.451-5.067c7.641,4.356,25.445,23.6,28.551,46.169.67,4.87,2.877,9.267.214,13.393-4.059,6.291-13.068,10.81-23.03,9.637-16.212-1.909-24.812-16.6-21.344-34.453,2.3-11.824-2.013-18.511,1.157-29.678" transform="translate(-17.224 -64.243)" fill="#989b10"/>
        <path id="Trazado_878017" data-name="Trazado 878017" d="M51.782,179.474a9.631,9.631,0,0,1,6.266-5.595,9.816,9.816,0,0,1,7.083,1.009c8.1,4.173,26.275,21.1,29.472,44.97.69,5.151,1.762,10.776-1.009,15.121-2.987,4.683-8.549,9.173-18.848,8.4-20.6-1.541-24.527-17.642-23.62-35.291.37-7.207-3.957-18.149.657-28.616" transform="translate(-18.349 -64.175)" fill="#ddda7a"/>
        <path id="Trazado_878018" data-name="Trazado 878018" d="M53.713,182.187a9.1,9.1,0,0,1,5.923-5.289,9.273,9.273,0,0,1,6.694.954c7.654,3.945,23.772,20.561,26.8,43.127.652,4.868,2.729,9.567.11,13.673-2.823,4.426-8.08,8.671-17.816,7.942-19.472-1.456-23.185-16.676-22.327-33.358.35-6.813-3.74-17.156.621-27.05" transform="translate(-19.106 -65.296)" fill="#f0ef95"/>
        <path id="Trazado_878019" data-name="Trazado 878019" d="M73.233,218.255c.622-1.884,2.182-5.47,6.838-4.042s14.394,10.449,13.035,23.248-13.24,10-13.24,10-15.54-2.217-6.632-29.211" transform="translate(-26.053 -79.064)" fill="#ddda7a"/>
        <path id="Trazado_878020" data-name="Trazado 878020" d="M76.5,217.075s.98-4.612,5.636-3.184,16.533,9.66,15.174,22.459-13.24,10-13.24,10-14.823-1.8-7.57-29.28" transform="translate(-27.541 -78.965)" fill="#8a5e3c"/>
        <g id="Grupo_1101746" data-name="Grupo 1101746" transform="translate(60.728 143.788)" opacity="0.26" style="mix-blend-mode: overlay;isolation: isolate">
          <g id="Grupo_1101745" data-name="Grupo 1101745">
            <g id="Grupo_1101744" data-name="Grupo 1101744" clip-path="url(#clip-path-8)">
              <path id="Trazado_878021" data-name="Trazado 878021" d="M96.825,228.2c1.235-.674,4.195,2.7,5.444,7.275.881,3.227,1.041,10.919-2.274,10.919-4.837,0,.758-6.293-1.06-9.969-2.955-5.976-2.946-7.768-2.109-8.225" transform="translate(-96.342 -228.112)" fill="#fef098"/>
            </g>
          </g>
        </g>
        <path id="Trazado_878022" data-name="Trazado 878022" d="M109.571,197.594c1.065,4.284,1.556,6.482,4.229,10.483,1.62,2.419,6.005,2.061,7.771,1.691s-5.761-13.98-5.761-13.98-6.764-.318-6.239,1.806" transform="translate(-40.493 -72.368)" fill="#f4e0cb"/>
        <path id="Trazado_878023" data-name="Trazado 878023" d="M126.752,186.525a26.419,26.419,0,0,0-7.841-.5c-3.427.485-9.923,7.03-9.344,7.914,1.061,1.621,4.091.025,6.09,1.239,4.873,2.973,11.1-8.656,11.1-8.656" transform="translate(-40.489 -68.717)" fill="#fff5e9"/>
        <path id="Trazado_878024" data-name="Trazado 878024" d="M119.247,195.544c-.117.616,2.964,7.925,5.3,10.823,1.09,1.352,11.066-7.485,11.2-8.443.165-1.188-4.6-11.456-5.408-11.036-.881.459-10.864,7.421-11.1,8.656" transform="translate(-44.079 -69.08)" fill="#fcead2"/>
        <path id="Trazado_878025" data-name="Trazado 878025" d="M120.466,198.971s-1.166-2.327,0-3.377,10.742-7.867,10.742-7.867-.424-.742-.863-.832-10.609,6.839-11.1,8.656a17.959,17.959,0,0,0,1.217,3.42" transform="translate(-44.081 -69.087)" fill="#fffdde"/>
        <path id="Trazado_878026" data-name="Trazado 878026" d="M82.474,290.869l2.248-4.985a1.543,1.543,0,0,0-1.408-2.182,11.028,11.028,0,0,1-9.6-4.71c-3.817-5.641-5.2-9.794-8.6-11.5a1.552,1.552,0,0,0-2.01.582l-1.02,1.66a1.552,1.552,0,0,0,.516,2.131l.086.054a1.547,1.547,0,0,1-1.474,2.712,23.241,23.241,0,0,0-8.327-2.07,1.551,1.551,0,0,0-1.614,1.34l-.365,2.669a1.545,1.545,0,0,0,1.4,1.75c2.353.191,6.776.776,10.04,2.55a1.548,1.548,0,0,1-.754,2.908,21.146,21.146,0,0,0-7.216.916c-2.368.966-1.873,3.265-1.242,4.748a1.535,1.535,0,0,0,1.977.81c3.72-1.465,15.005-4.99,25.116,1.283a1.557,1.557,0,0,0,2.251-.664" transform="translate(-18.81 -98.82)" fill="#f0ef95"/>
        <path id="Trazado_878027" data-name="Trazado 878027" d="M90.607,291.2l2.248-4.985a1.543,1.543,0,0,0-1.408-2.182,11.028,11.028,0,0,1-9.6-4.71c-3.549-5.246-5-9.2-7.92-11.105-.577.268-1.013.491-1.013.491a11.866,11.866,0,0,0,4.114,9.466c4.707,4.272,10.014,7.28,11.512,7.7,3.328.926,1.306,3.764.042,4.01s-9.494-3.471-11.4-1.549v0a24.112,24.112,0,0,1,11.182,3.531,1.557,1.557,0,0,0,2.251-.664" transform="translate(-26.943 -99.147)" fill="#e2df86"/>
        <path id="Trazado_878028" data-name="Trazado 878028" d="M38.8,278.961s-1.464,4.28-5.869,3.734c-2.845-.353-9.777-5.535-5.1-14.064,2.386-4.347,4.136-8.466,2.213-10.774s-2.353-5.617-.214-7.206c1.738-1.292,6.287,1.467,10.625-1.065s7.18-4.2,10.213-3.459c3.578.871,7.8,5.582,4.209,7.83s-16.083,25-16.083,25" transform="translate(-9.705 -90.918)" fill="#89890e"/>
        <path id="Trazado_878029" data-name="Trazado 878029" d="M36.758,284.22c-.535-.274-1.657-.192-3.54-3.4A3.869,3.869,0,0,1,34.69,275.5c1.782-1.182-1.549-2.646-1.772-5.676-.272-3.687,3.783-12.136,9.518-12.207,2.648-.033,2.233-1.487,4.1-3.826s7.845-5.536,11.313-2.764-16.059,20.663-16.059,20.663Z" transform="translate(-12.076 -92.398)" fill="#7a770c"/>
        <path id="Trazado_878030" data-name="Trazado 878030" d="M36.2,278.123a9.749,9.749,0,0,1,.616-8.134c2.346-4.122,6.29-5.048,8.188-4.622,2.642.592,3.817,3.241,5.035,6.771s-.442,9.555-4.659,10.679-6.975.176-9.18-4.694" transform="translate(-13.155 -98.06)" fill="#989b10"/>
        <path id="Trazado_878031" data-name="Trazado 878031" d="M51.144,267.389a10.2,10.2,0,0,1,1.044-9.93c3.6-5.638,10.923-7.209,15.269-4.918s6.608,7,2.961,8.1-1.445,3.562-3.682,4.786-5.234-.545-6.066,1.486c-1.571,3.837-6.629,7.738-9.526.475" transform="translate(-18.598 -92.979)" fill="#afaf14"/>
        <path id="Trazado_878032" data-name="Trazado 878032" d="M51.144,267.389a10.2,10.2,0,0,1,1.044-9.93c3.6-5.638,10.923-7.209,15.269-4.918s6.608,7,2.961,8.1-1.445,3.562-3.682,4.786-5.234-.545-6.066,1.486c-1.571,3.837-6.629,7.738-9.526.475" transform="translate(-18.598 -92.979)" fill="#afaf14"/>
        <path id="Trazado_878033" data-name="Trazado 878033" d="M37.425,297.141a8.613,8.613,0,0,0-.745-2.64,4.479,4.479,0,0,1-.231-4.189c1.461-3.819,9.069-5.064,12.488-2.167s8.037,7.3,6.819,13.336c-1.09,5.4-5.505,5.418-7.925,3.011s-4.342.677-7.642-2.085a7.986,7.986,0,0,1-2.764-5.268" transform="translate(-13.323 -105.926)" fill="#afaf14"/>
        <path id="Trazado_878034" data-name="Trazado 878034" d="M63.494,307.415c1.637-5.807-2.623-5.481-4.685-3.57-4.067,3.77.049,6.028-.894,7.995,2.281.693,4.439-.376,5.579-4.424" transform="translate(-21.062 -111.859)" fill="#989b10"/>
        <path id="Trazado_878035" data-name="Trazado 878035" d="M50.454,265.271c.141.786,1.076,2.84,2.784,1.57s-1.059-5.28,1.815-7.968,9.158-.3,9.951-3.635-.458-3.769-1.846-3.711-15.114.265-12.7,13.744" transform="translate(-18.546 -92.977)" fill="#bcb817"/>
        <path id="Trazado_878036" data-name="Trazado 878036" d="M348.862,31.71s-7.938,17.449,2.035,27.352S398.275,91.71,407.39,81.478,367.76-.223,348.862,31.71" transform="translate(-127.853 -8.708)" fill="#f08c32"/>
        <path id="Trazado_878037" data-name="Trazado 878037" d="M209.675,212.047l-4.638-6.1c7.9-5.774,12.573-15.806,12.5-26.834-.061-9.148-3.4-17.175-8.7-20.948-11.213-7.972-28.014,4.194-28.182,4.318l-4.658-6.085c.876-.644,21.6-15.621,37.4-4.392,7.376,5.244,11.828,15.358,11.907,27.056.091,13.438-5.749,25.77-15.622,32.985" transform="translate(-65.058 -54.651)" fill="#b8d6f4"/>
        <path id="Trazado_878038" data-name="Trazado 878038" d="M160.757,186.289l1.863-62.545h-26.3l1.882,63.2c-20.306,3.9-35.183,16.472-35.183,31.391,0,18.029,21.715,32.645,48.5,32.645s48.5-14.616,48.5-32.645c0-15.9-16.9-29.143-39.261-32.047" transform="translate(-38.082 -45.743)" fill="#85c2f6"/>
        <path id="Trazado_878039" data-name="Trazado 878039" d="M158.558,99.312l3.759,29.465h16.054l4.781-29.465Z" transform="translate(-58.612 -36.711)" fill="#8c4123"/>
        <g id="Grupo_1101749" data-name="Grupo 1101749" transform="translate(101.855 77.17)" opacity="0.2">
          <g id="Grupo_1101748" data-name="Grupo 1101748">
            <g id="Grupo_1101747" data-name="Grupo 1101747" clip-path="url(#clip-path-9)">
              <path id="Trazado_878040" data-name="Trazado 878040" d="M161.587,123.257l.734,5.937,18.456.183,1.129-6.951Z" transform="translate(-161.587 -122.426)"/>
            </g>
          </g>
        </g>
        <path id="Trazado_878041" data-name="Trazado 878041" d="M185.492,122.147a3.21,3.21,0,0,1-3.242,3.178H151.509a3.18,3.18,0,1,1,0-6.359H182.25a3.213,3.213,0,0,1,3.242,3.181" transform="translate(-54.807 -43.977)" fill="#b8d6f4"/>
        <path id="Trazado_878042" data-name="Trazado 878042" d="M195.179,270.6c0,2.509-15.955,4.538-35.64,4.538S123.9,273.112,123.9,270.6s15.955-4.538,35.637-4.538,35.64,2.029,35.64,4.538" transform="translate(-45.801 -98.353)" fill="#fadf52"/>
        <path id="Trazado_878043" data-name="Trazado 878043" d="M123.9,273.59c3.282,13.55,17.982,23.775,35.638,23.775S191.9,287.14,195.18,273.59c-3.284,2.2-17.983,3.863-35.639,3.863s-32.357-1.66-35.638-3.863" transform="translate(-45.802 -101.135)" fill="#fbb433"/>
        <g id="Grupo_1101752" data-name="Grupo 1101752" transform="translate(74.395 147.931)" opacity="0.4" style="mix-blend-mode: overlay;isolation: isolate">
          <g id="Grupo_1101751" data-name="Grupo 1101751">
            <g id="Grupo_1101750" data-name="Grupo 1101750" clip-path="url(#clip-path-10)">
              <path id="Trazado_878044" data-name="Trazado 878044" d="M147.719,237.652c3.353-.863,2.826-2.23-.547-2.84-3.994-.729-20.183,1.4-28.182,13.433-2.9,4.368,1.329,6.359,4.806,3.855s4.262-9.373,23.922-14.447" transform="translate(-118.023 -234.684)" fill="#fef098"/>
            </g>
          </g>
        </g>
        <g id="Grupo_1101755" data-name="Grupo 1101755" transform="translate(64.959 151.578)" opacity="0.4" style="mix-blend-mode: overlay;isolation: isolate">
          <g id="Grupo_1101754" data-name="Grupo 1101754">
            <g id="Grupo_1101753" data-name="Grupo 1101753" clip-path="url(#clip-path-11)">
              <path id="Trazado_878045" data-name="Trazado 878045" d="M188.629,240.47c-1.157,13.773-17.022,35.756-57.582,37.988-11.136.614-25.6-10.228-27.993-16.433.43,17.777,21.964,32.105,48.478,32.105,26.788,0,48.5-14.616,48.5-32.645,0-8.008-4.291-15.338-11.4-21.015" transform="translate(-103.053 -240.47)"/>
            </g>
          </g>
        </g>
      </g>
    </g>
  </g>
</svg>
