<svg xmlns="http://www.w3.org/2000/svg" xmlns:xlink="http://www.w3.org/1999/xlink" width="125.168" height="153.059" viewBox="0 0 125.168 153.059">
  <defs>
    <linearGradient id="linear-gradient" x1="0.643" y1="0.597" x2="0.302" y2="0.41" gradientUnits="objectBoundingBox">
      <stop offset="0" stop-color="#828c05"/>
      <stop offset="1" stop-color="#68980c"/>
    </linearGradient>
  </defs>
  <g id="AdobeStock_843049830" transform="translate(-15.343 -3.639)">
    <path id="Trazado_878047" data-name="Trazado 878047" d="M261.4,1444.658a.684.684,0,0,1,.415.337l.053.14-1.9,4.009A11.251,11.251,0,0,0,262,1451.73a19.036,19.036,0,0,0,8.158,4.714,11.085,11.085,0,0,0,5.715-.033l2.454-4.275a1.664,1.664,0,0,1,.534.123l.078.151-2.52,4.592-.238.094c-3.07,1.081-6.653.333-9.524-1a18.337,18.337,0,0,1-3.719-2.385,10.406,10.406,0,0,1-3.629-4.435,9.031,9.031,0,0,1,1.151-2.838A19.483,19.483,0,0,1,261.4,1444.658Z" transform="translate(-236.758 -1300.916)" fill="#0e0a09"/>
    <path id="Trazado_878048" data-name="Trazado 878048" d="M369.681,1506.945a26.183,26.183,0,0,0,3.338.883c.957.174,1.927.239,2.89.363l-2.454,4.275a11.084,11.084,0,0,1-5.715.033Z" transform="translate(-334.337 -1356.971)" fill="#49a71e"/>
    <path id="Trazado_878049" data-name="Trazado 878049" d="M267.77,1448.25l.177-.131A26.4,26.4,0,0,0,278,1454.005l-1.941,5.554a19.036,19.036,0,0,1-8.158-4.714,11.251,11.251,0,0,1-2.035-2.586Z" transform="translate(-242.659 -1304.031)" fill="#86cf2a"/>
    <path id="Trazado_878050" data-name="Trazado 878050" d="M218.633,96.832a100.62,100.62,0,0,1,3.484-9.771c3.485-8.568,7.982-16.907,14.289-23.743,1.871-2.028,3.943-3.866,5.968-5.735a34.358,34.358,0,0,0,3.706-3.72,34.971,34.971,0,0,0,3.1-5.463A8.926,8.926,0,0,1,252.5,44.47l.114-.061c-1.943,2.47-3.358,5.626-2.995,8.837a34.135,34.135,0,0,0,1.04,4.946,19.943,19.943,0,0,0,.709,2.389l.091-.063a6.765,6.765,0,0,0,1.133-1.287,10.336,10.336,0,0,1,1.335-1.246c1.121-.928,2.37-1.666,3.5-2.559,1.262-.995,2.449-2.078,3.742-3.04a39.982,39.982,0,0,1,10.6-5.574,8.072,8.072,0,0,1,2.584-.745,5.787,5.787,0,0,1,.8,1.709,37.294,37.294,0,0,1,2.212,10.07,49.9,49.9,0,0,1,.316,6.12l-1.275,11.313a21.687,21.687,0,0,0,6.272-3.966,39.323,39.323,0,0,0,3.877-4.339c1.885-2.381,3.45-4.984,6.411-6.123a22.737,22.737,0,0,0-1.757,1.9,27.28,27.28,0,0,0-4.949,11.632c-.418,2.152-.687,4.322-1.163,6.465a57.653,57.653,0,0,1-2.545,8.007,98.654,98.654,0,0,1-4.6,10.479c-.685,1.309-1.372,2.621-2.109,3.9-.634,1.1-1.334,2.193-1.892,3.333,3.6-3.668,7.226-7.577,11.5-10.476A24.549,24.549,0,0,1,299.1,91.559a25.622,25.622,0,0,1,13.3,3.591,27.854,27.854,0,0,0-4.8-.328,21.7,21.7,0,0,0-12.042,4.369c-4.519,3.444-7.484,8.832-10.115,13.751-2.551,4.77-4.784,9.7-7.256,14.508-3.819,7.425-7.85,14.76-12.247,21.859-.684,1.1-1.319,2.235-2.02,3.328A142.087,142.087,0,0,1,247.6,173.809c-5.45,5.74-11.678,10.959-18.822,14.45a36.721,36.721,0,0,1-10.2,3.472,25.518,25.518,0,0,1-3.092.316,5.574,5.574,0,0,0-1.288.039c-.059.039-.079.118-.118.177l-.078-.151a1.66,1.66,0,0,0-.534-.122c-.963-.125-1.933-.189-2.89-.363a28.043,28.043,0,0,1-13.395-6.769l-.177.131-.053-.14a.685.685,0,0,0-.415-.337.82.82,0,0,0,0-.228,4.376,4.376,0,0,0-.61-.7c-.5-.588-.989-1.194-1.433-1.827a33.648,33.648,0,0,1-3.55-6.563c-3.077-7.516-3.873-15.781-3.674-23.834.275-11.123,3.081-22.189,6.7-32.661,1.743-5.04,3.721-9.982,5.753-14.911,2.014-4.887,4.314-9.884,5.284-15.1a27.91,27.91,0,0,0,0-9.947c-.867-5.087-2.7-9.471-6.437-13.109a21.844,21.844,0,0,0-7.259-4.693c-1.314-.514-2.658-.867-4-1.282a31.231,31.231,0,0,1,8.269.886,28.5,28.5,0,0,1,13.287,6.484c5.48,5.076,8.123,12.382,9.148,19.636a69.1,69.1,0,0,1,.527,7.223Z" transform="translate(-171.89 -40.77)" fill="#14180d"/>
    <path id="Trazado_878051" data-name="Trazado 878051" d="M975.256,218.213a6.379,6.379,0,0,1,.941-.363l.165.476-.246.291A2.648,2.648,0,0,1,975.256,218.213Z" transform="translate(-881.066 -196.857)" fill="#f7d70e"/>
    <path id="Trazado_878052" data-name="Trazado 878052" d="M659.189,1084.344a2.211,2.211,0,0,1-.445.592c-.306.368-.609.738-.913,1.109a2.4,2.4,0,0,1-.043-.873l.147-.071A9.209,9.209,0,0,0,659.189,1084.344Z" transform="translate(-595.347 -976.653)" fill="#f4bc09"/>
    <path id="Trazado_878053" data-name="Trazado 878053" d="M454.279,1195.009a6.927,6.927,0,0,1,.124,1.8l-1.667,2.947-.084-.1.724-4.113Z" transform="translate(-410.752 -1076.246)" fill="#f4bc09"/>
    <path id="Trazado_878054" data-name="Trazado 878054" d="M439.8,1265.637a2.128,2.128,0,0,0,.1-.813,3.162,3.162,0,0,1-.062-.46l.079-.119a12.482,12.482,0,0,1,.692-2.934l.017-.079a1.3,1.3,0,0,1-.109.718l.036.035a.614.614,0,0,0,.149-.218.937.937,0,0,1,.128-.218l.054.093c-.138.333-.331.676-.435,1.017a4.936,4.936,0,0,0-.085.645,3.413,3.413,0,0,0-.019,1.922,3.739,3.739,0,0,0,.638,1.055,5.6,5.6,0,0,0,1.673,1.168,1.5,1.5,0,0,1-.5.521A3.911,3.911,0,0,1,439.8,1265.637Z" transform="translate(-399.188 -1135.843)" fill="#0e0a09"/>
    <path id="Trazado_878055" data-name="Trazado 878055" d="M914.286,160.453l.576.373a4.629,4.629,0,0,0-1.242,2.711l-1.933.645-1.006-.518Z" transform="translate(-822.952 -145.203)" fill="#f4bc09"/>
    <path id="Trazado_878056" data-name="Trazado 878056" d="M983.1,81.433l4.489-2.031.1.262a13.239,13.239,0,0,1-3.783,3.365A4.85,4.85,0,0,1,983.1,81.433Z" transform="translate(-888.13 -72.261)" fill="#fdee30"/>
    <path id="Trazado_878057" data-name="Trazado 878057" d="M954.787,121.087a7.724,7.724,0,0,1,.79,1.161,4.357,4.357,0,0,0-1.229,2.424,3.484,3.484,0,0,0-2.465.275l-.507-.44C952.246,123.19,953.8,122.325,954.787,121.087Z" transform="translate(-859.577 -109.776)" fill="#f4bc09"/>
    <path id="Trazado_878058" data-name="Trazado 878058" d="M958.263,176.855a4.947,4.947,0,0,0,.934.811,5.812,5.812,0,0,0-1.167,2.576,9.962,9.962,0,0,1-1.142.555,3.794,3.794,0,0,1-1.746-.875,18.758,18.758,0,0,0,1.709-1.591C957.284,177.919,958.028,177.4,958.263,176.855Z" transform="translate(-862.964 -159.963)" fill="#f7d70e"/>
    <path id="Trazado_878059" data-name="Trazado 878059" d="M997.773,235.214c.383.014.411.01.672.291a2.048,2.048,0,0,1,.573,1.7,3.028,3.028,0,0,1-1.045,2.112,2.826,2.826,0,0,1-1.816.615C996.572,238.334,997.578,236.893,997.773,235.214Z" transform="translate(-899.876 -212.484)" fill="#f4bc09"/>
    <path id="Trazado_878060" data-name="Trazado 878060" d="M685.524,1004.627l2.187,1.313-3.8,4.233-1.165,1.2a21.126,21.126,0,0,0,2.153-4.357C685.149,1006.237,685.3,1005.419,685.524,1004.627Z" transform="translate(-617.82 -904.912)" fill="#f4bc09"/>
    <path id="Trazado_878061" data-name="Trazado 878061" d="M931.648,219.262a3.856,3.856,0,0,1,1.087.7l.09.086.052.054a6.125,6.125,0,0,0-1.53,2.811,5.265,5.265,0,0,1-1.393.706,6.287,6.287,0,0,1-1.426-.5Z" transform="translate(-839.013 -198.128)" fill="#f4bc09"/>
    <path id="Trazado_878062" data-name="Trazado 878062" d="M1010.7,138.381c.575.342,1.278.757,1.465,1.449a1.729,1.729,0,0,1-.144,1.4,2.775,2.775,0,0,1-1.7,1.255,6.162,6.162,0,0,1-1.285.066C1008.987,141.065,1010.244,139.743,1010.7,138.381Z" transform="translate(-911.465 -125.339)" fill="#f4bc09"/>
    <path id="Trazado_878063" data-name="Trazado 878063" d="M990.478,139.493a2.049,2.049,0,0,1-.744-.083,2.506,2.506,0,0,1-1.194-1.268,2.24,2.24,0,0,1,.083-1.674,2.333,2.333,0,0,1,1.275-1.308,2.711,2.711,0,0,1,2.243.167C991.686,136.69,990.43,138.011,990.478,139.493Z" transform="translate(-892.907 -122.286)" fill="#fdee30"/>
    <path id="Trazado_878064" data-name="Trazado 878064" d="M947.985,166.975a3.292,3.292,0,0,1-.474-.5,2.117,2.117,0,0,1-.27-1.624,3.168,3.168,0,0,1,1.371-2.061,2.471,2.471,0,0,1,1.965-.22l.018.069.032.114a5.319,5.319,0,0,0,.48,1.157c-.235.546-.979,1.064-1.413,1.477A18.756,18.756,0,0,1,947.985,166.975Z" transform="translate(-855.808 -147.015)" fill="#fdee30"/>
    <path id="Trazado_878065" data-name="Trazado 878065" d="M906.62,264.242l1.133-.682.1.113c-.061.144-.031.135-.18.216a5.175,5.175,0,0,0-2.318,3.375l-.184.835a2.78,2.78,0,0,1-2.344.584l-.412-.106-.133-.035a23.477,23.477,0,0,1,1.362-2.514,13.6,13.6,0,0,0,1.287-2.183A6.386,6.386,0,0,0,906.62,264.242Z" transform="translate(-815.398 -237.993)" fill="#f4bc09"/>
    <path id="Trazado_878066" data-name="Trazado 878066" d="M873.613,318.831a4.943,4.943,0,0,0,2.8.331,11.094,11.094,0,0,0-2.49,5.1,3.132,3.132,0,0,1-2.4.689l-.458-.056a10.2,10.2,0,0,0,2.2-3.355A14.093,14.093,0,0,0,873.613,318.831Z" transform="translate(-787.302 -287.734)" fill="#f4bc09"/>
    <path id="Trazado_878067" data-name="Trazado 878067" d="M415.909,1305.254a3.911,3.911,0,0,0,2.354,2.334,15.176,15.176,0,0,1-1.65,2.178c-.692.913-1.364,1.843-2.033,2.773a18.254,18.254,0,0,1-1.328,1.761Z" transform="translate(-375.295 -1175.46)" fill="#f4bc09"/>
    <path id="Trazado_878068" data-name="Trazado 878068" d="M936.472,105.374a17.7,17.7,0,0,1,4.019-2.7,6.6,6.6,0,0,0,.883,1.842c-.982,1.238-2.541,2.1-3.41,3.421A6.691,6.691,0,0,1,936.472,105.374Z" transform="translate(-846.163 -93.207)" fill="#fdee30"/>
    <path id="Trazado_878069" data-name="Trazado 878069" d="M992.852,187.307a4.468,4.468,0,0,1,1.407.121,1.872,1.872,0,0,1,1.124.942,1.785,1.785,0,0,1-.074,1.323,2.6,2.6,0,0,1-1.553,1.511,2.412,2.412,0,0,1-1.812-.2,1.443,1.443,0,0,1-.723-.881,2.934,2.934,0,0,1,.614-2.106A1.326,1.326,0,0,1,992.852,187.307Z" transform="translate(-895.396 -169.366)" fill="#f4bc09"/>
    <path id="Trazado_878070" data-name="Trazado 878070" d="M980.04,287.74a2.636,2.636,0,0,1,.873,1.88,3.918,3.918,0,0,1-1.322,2.589,3.383,3.383,0,0,1-2.755.723l-.066-.006c.189-1.7,1.156-3.35,1.5-5.052A6.929,6.929,0,0,0,980.04,287.74Z" transform="translate(-882.429 -259.754)" fill="#f4bc09"/>
    <path id="Trazado_878071" data-name="Trazado 878071" d="M1038.338,84.977a27.251,27.251,0,0,1,1.411,4.818,4.678,4.678,0,0,1,.18,1.547,1.938,1.938,0,0,1-1.258.607l-.12.02a3.387,3.387,0,0,1-1.1-.063,4.13,4.13,0,0,0-1.363-1.732,2.728,2.728,0,0,0,.565-.935,21.966,21.966,0,0,0,1.086-2.539A14.341,14.341,0,0,1,1038.338,84.977Z" transform="translate(-935.81 -77.279)" fill="#f4bc09"/>
    <path id="Trazado_878072" data-name="Trazado 878072" d="M456.532,1251.743a7.62,7.62,0,0,0,1.95.83l-5.154,6.336a5.6,5.6,0,0,1-1.673-1.168,6.482,6.482,0,0,0,1.057-1.014A28.507,28.507,0,0,0,456.532,1251.743Z" transform="translate(-409.855 -1127.303)" fill="#f4bc09"/>
    <path id="Trazado_878073" data-name="Trazado 878073" d="M513.053,1178.346a8.61,8.61,0,0,0,2.253.565l-5.99,6.994a7.755,7.755,0,0,1-1.732-.738A28.392,28.392,0,0,0,513.053,1178.346Z" transform="translate(-460.187 -1061.25)" fill="#f4bc09"/>
    <path id="Trazado_878074" data-name="Trazado 878074" d="M1033.6,158.544l.12.148a6.934,6.934,0,0,1,.089,3.316,1.847,1.847,0,0,1-1.138,1.091,3.879,3.879,0,0,1-2.509-.213l-.12-.441a2.428,2.428,0,0,0-1.076-1.264l.522-.269a2.941,2.941,0,0,0,1.381-2.015A5.374,5.374,0,0,0,1033.6,158.544Z" transform="translate(-929.402 -143.485)" fill="#f4bc09"/>
    <path id="Trazado_878075" data-name="Trazado 878075" d="M788.922,458.258a7.073,7.073,0,0,0,2.831.132c-.536.891-1.069,1.782-1.568,2.695-.364.666-.72,1.337-1.088,2a5.115,5.115,0,0,1-.682,1.076,2.481,2.481,0,0,1-1.156.613,5.852,5.852,0,0,1-2.137,0,8.206,8.206,0,0,0,1.393-1.56A21.2,21.2,0,0,0,788.922,458.258Z" transform="translate(-709.956 -413.211)" fill="#f4bc09"/>
    <path id="Trazado_878076" data-name="Trazado 878076" d="M891.534,134.07c.561-1.28,1.912-2.137,3.014-2.941.225-.164.672-.4.791-.652a.686.686,0,0,1,.221-.274.637.637,0,0,0-.073.214c-.129.958.983,2.151,1.569,2.813l-3.606,3.211A5.52,5.52,0,0,1,891.534,134.07Z" transform="translate(-805.721 -117.98)" fill="#fdee30"/>
    <path id="Trazado_878077" data-name="Trazado 878077" d="M466.445,1109.229a9.157,9.157,0,0,1-1.319,2.622c-.568.993-1.11,2-1.678,2.995a10.7,10.7,0,0,1-1.95,2.662l1.1-8.26A5.006,5.006,0,0,0,466.445,1109.229Z" transform="translate(-418.714 -999.049)" fill="#f4bc09"/>
    <path id="Trazado_878078" data-name="Trazado 878078" d="M560.411,853.149a4.07,4.07,0,0,0,2.48-.695c-1.052,2.107-3.224,7.327-5.46,8.04a5.591,5.591,0,0,1-3.712-.34c.459-.169.968-.25,1.437-.408a6.049,6.049,0,0,0,3.14-2.285,16.505,16.505,0,0,0,1.811-3.307A2.513,2.513,0,0,0,560.411,853.149Z" transform="translate(-501.706 -767.966)" fill="#f4bc09"/>
    <path id="Trazado_878079" data-name="Trazado 878079" d="M911.034,205.139l-.807-.527a2.54,2.54,0,0,1-1.123-1.8,3.308,3.308,0,0,1,.653-2.275,3.582,3.582,0,0,1,2.473-1.256,4.156,4.156,0,0,0,1.925,2Z" transform="translate(-821.52 -180.147)" fill="#fdee30"/>
    <path id="Trazado_878080" data-name="Trazado 878080" d="M830.1,384.435a4.762,4.762,0,0,0,2.744.156l.314-.066q-1.04,2.038-2.128,4.052a10.263,10.263,0,0,1-1.289,2.14,2.194,2.194,0,0,1-.846.418,4.456,4.456,0,0,1-2.357,0,14.652,14.652,0,0,0,2.975-4.807A9.491,9.491,0,0,0,830.1,384.435Z" transform="translate(-747.233 -346.774)" fill="#f4bc09"/>
    <path id="Trazado_878081" data-name="Trazado 878081" d="M966.313,222.611a2.856,2.856,0,0,0,2.012,1.222l.589.039c-.2,1.678-1.2,3.119-1.616,4.719a4.634,4.634,0,0,1-1.269-.273,2.819,2.819,0,0,1-1.825-1.5,2.266,2.266,0,0,1,.171-1.772l.061-.131a13.573,13.573,0,0,1,1.629-2.016Z" transform="translate(-871.018 -201.141)" fill="#fdee30"/>
    <path id="Trazado_878082" data-name="Trazado 878082" d="M750.127,529.758a5.9,5.9,0,0,0,2.767-.109,17.333,17.333,0,0,1-2.475,5.589,3.821,3.821,0,0,1-.97,1.064,4.758,4.758,0,0,1-3,.441,14.649,14.649,0,0,1,1.046-1.341A13.913,13.913,0,0,0,750.127,529.758Z" transform="translate(-675.149 -477.459)" fill="#f4bc09"/>
    <path id="Trazado_878083" data-name="Trazado 878083" d="M475.9,1013.2a11.162,11.162,0,0,0,3.985,1.688c-1.282,2.208-2.312,4.912-4.563,6.361l-.14.013-.054-.071Z" transform="translate(-430.979 -912.626)" fill="#fdee30"/>
    <path id="Trazado_878084" data-name="Trazado 878084" d="M722.194,926.929c.269.264.424.641.677.928a9.609,9.609,0,0,0,2.405,1.776l-4.718,5.167-.541.573a7.539,7.539,0,0,1-2.053-1.014C720.456,932.418,721.511,929.93,722.194,926.929Z" transform="translate(-649.517 -834.989)" fill="#f4bc09"/>
    <path id="Trazado_878085" data-name="Trazado 878085" d="M955.838,346.379a10.7,10.7,0,0,0,1.638.085,3.848,3.848,0,0,1,1.238,2.913,4.361,4.361,0,0,1-1.548,2.831,4.9,4.9,0,0,1-3.3.763,11.182,11.182,0,0,1,.576-1.979A33.376,33.376,0,0,0,955.838,346.379Z" transform="translate(-861.816 -312.526)" fill="#f4bc09"/>
    <path id="Trazado_878086" data-name="Trazado 878086" d="M612.605,771.819a6.458,6.458,0,0,0,3.687-.251c-1.406,2.27-3.462,7.347-6.141,8.007a4.59,4.59,0,0,1-2.19-.113C610.645,777.611,611.915,774.918,612.605,771.819Z" transform="translate(-550.523 -695.172)" fill="#f4bc09"/>
    <path id="Trazado_878087" data-name="Trazado 878087" d="M942.388,271.746a4.583,4.583,0,0,0,3.127,1.734c-.341,1.7-1.307,3.351-1.5,5.052a4.974,4.974,0,0,1-2.923-1.452,3.064,3.064,0,0,1-.7-2.313A4.683,4.683,0,0,1,942.388,271.746Z" transform="translate(-849.677 -245.361)" fill="#fdee30"/>
    <path id="Trazado_878088" data-name="Trazado 878088" d="M490.651,757.953a.55.55,0,0,1,.154.137,7.843,7.843,0,0,0,4.452,2.414l-.008,1.016a10.2,10.2,0,0,0-3.172,3.445,10.929,10.929,0,0,0-.927,1.87,7.022,7.022,0,0,1-.355,1.054,1.4,1.4,0,0,1-.529.014,22.692,22.692,0,0,1,.13-3.768C490.508,762.074,490.588,760.016,490.651,757.953Z" transform="translate(-444.559 -682.92)" fill="#fdee30"/>
    <path id="Trazado_878089" data-name="Trazado 878089" d="M1024.541,208.761l1.126.313a11.394,11.394,0,0,0,2.578.132,3.234,3.234,0,0,1,.455.829,4.09,4.09,0,0,1-.157,2.823,2.044,2.044,0,0,1-1.359,1.088,6.132,6.132,0,0,1-3.31-.8,3.531,3.531,0,0,0-1.048-2.044A3.549,3.549,0,0,0,1024.541,208.761Z" transform="translate(-923.876 -188.678)" fill="#f4bc09"/>
    <path id="Trazado_878090" data-name="Trazado 878090" d="M994.8,71.932l2.471-.831.594,1.388a14.341,14.341,0,0,0-.6,1.723,21.966,21.966,0,0,1-1.086,2.539,2.726,2.726,0,0,1-.565.935,6.921,6.921,0,0,0-1.34-.746,2.783,2.783,0,0,0-2.293.123,5.718,5.718,0,0,0-.867-1.506,13.239,13.239,0,0,0,3.783-3.365Z" transform="translate(-895.34 -64.792)" fill="#f7d70e"/>
    <path id="Trazado_878091" data-name="Trazado 878091" d="M1017.111,259.6a8.466,8.466,0,0,0,1.8.647c.889.216,2,.119,2.643.854a4.152,4.152,0,0,1-.091,2.295,2.538,2.538,0,0,1-1.438,1.592,4.722,4.722,0,0,1-3.471-.774,3.349,3.349,0,0,0-1.056-2.143A4.044,4.044,0,0,0,1017.111,259.6Z" transform="translate(-917.282 -234.429)" fill="#f4bc09"/>
    <path id="Trazado_878092" data-name="Trazado 878092" d="M444.588,1226.509l2.3-4.316a6.53,6.53,0,0,0,2.677,2.957,28.515,28.515,0,0,1-3.821,4.985,6.473,6.473,0,0,1-1.057,1.014,3.735,3.735,0,0,1-.638-1.055,3.414,3.414,0,0,1,.019-1.922,4.93,4.93,0,0,1,.085-.645C444.257,1227.184,444.45,1226.842,444.588,1226.509Z" transform="translate(-402.886 -1100.71)" fill="#fdee30"/>
    <path id="Trazado_878093" data-name="Trazado 878093" d="M929.068,419.054a11.487,11.487,0,0,0,2.261,0,4.052,4.052,0,0,1,.781,3.167,5.649,5.649,0,0,1-2.475,3.24,5.454,5.454,0,0,1-3.055.712,20.8,20.8,0,0,1,1.161-2.953A36.663,36.663,0,0,0,929.068,419.054Z" transform="translate(-837.261 -377.929)" fill="#f4bc09"/>
    <path id="Trazado_878094" data-name="Trazado 878094" d="M874.277,248.257c-1.184-.623-2.558-1.366-3.006-2.731a2.8,2.8,0,0,1,.252-2.1,4.923,4.923,0,0,1,2.889-2.4l.114.3a4.23,4.23,0,0,0,2.4,2.238,13.613,13.613,0,0,1-1.287,2.183A23.474,23.474,0,0,0,874.277,248.257Z" transform="translate(-787.388 -217.709)" fill="#fdee30"/>
    <path id="Trazado_878095" data-name="Trazado 878095" d="M478.994,1024.285a4.418,4.418,0,0,0,3.306-.643,16.378,16.378,0,0,1-1.812,3.557c-.443.759-.9,1.512-1.363,2.259a5.661,5.661,0,0,1-1.845,2.117,3.555,3.555,0,0,1-2.653.06l-.489-.2.1-.85.054.071.141-.013C476.683,1029.2,477.712,1026.493,478.994,1024.285Z" transform="translate(-430.088 -922.025)" fill="#f4bc09"/>
    <path id="Trazado_878096" data-name="Trazado 878096" d="M660.2,687.154a5.343,5.343,0,0,0,3.277-.053c-.306.811-.489,1.645-.766,2.462-.674,1.978-1.882,4.383-3.878,5.3a4.67,4.67,0,0,1-3.163.183,14.851,14.851,0,0,0,1.937-1.995A20.1,20.1,0,0,0,660.2,687.154Z" transform="translate(-593.456 -619.157)" fill="#f4bc09"/>
    <path id="Trazado_878097" data-name="Trazado 878097" d="M894.854,496.752a3.8,3.8,0,0,1,.539,1.044l.043.13a5.1,5.1,0,0,1-.566,3.644,4.939,4.939,0,0,1-3,2.5,6.732,6.732,0,0,1-2.4.111l3.213-7.423A12.119,12.119,0,0,0,894.854,496.752Z" transform="translate(-803.864 -447.853)" fill="#f4bc09"/>
    <path id="Trazado_878098" data-name="Trazado 878098" d="M573.09,1092.129a6.885,6.885,0,0,0,3.286.239l-.217,1.629-5.874,6.7a12.861,12.861,0,0,1-2.21-.565Z" transform="translate(-514.626 -983.66)" fill="#f4bc09"/>
    <path id="Trazado_878099" data-name="Trazado 878099" d="M854.95,577.542a7.875,7.875,0,0,0,2.518-.083,5.65,5.65,0,0,1-.436,4.473,6.722,6.722,0,0,1-3.64,3.37,6.417,6.417,0,0,1-2.355.079,17.53,17.53,0,0,0,1.5-2.631C853.4,581.043,854.15,579.28,854.95,577.542Z" transform="translate(-769.276 -520.486)" fill="#f4bc09"/>
    <path id="Trazado_878100" data-name="Trazado 878100" d="M814.429,662.966a10.833,10.833,0,0,0,3.068-.1,8.025,8.025,0,0,1-1.8,5.907,5.385,5.385,0,0,1-3.76,1.891,7.018,7.018,0,0,1-1.175-.044Z" transform="translate(-733.032 -597.347)" fill="#f4bc09"/>
    <path id="Trazado_878101" data-name="Trazado 878101" d="M768.686,745.93a8.373,8.373,0,0,0,3.083-.135,9.845,9.845,0,0,1,.232,1.627,6.586,6.586,0,0,1-1.327,3.731,5.562,5.562,0,0,1-3.471,2.431,7.018,7.018,0,0,1-2.852-.167C766.717,751.878,768.084,748.579,768.686,745.93Z" transform="translate(-691.263 -671.978)" fill="#f4bc09"/>
    <path id="Trazado_878102" data-name="Trazado 878102" d="M505.735,936.979a6.154,6.154,0,0,0,3.563-.486,21.978,21.978,0,0,1-2.216,4.111,22.293,22.293,0,0,1-2.321,3.456,3.386,3.386,0,0,1-1.006.774,4.61,4.61,0,0,1-3.553-.037l-1.277-.555.292-.071C502.767,943.194,504.061,939.86,505.735,936.979Z" transform="translate(-452.395 -843.595)" fill="#f4bc09"/>
    <path id="Trazado_878103" data-name="Trazado 878103" d="M847.765,168.64a7,7,0,0,0,3.147,3.429A4.22,4.22,0,0,0,849.7,175.1a5.7,5.7,0,0,0-2.174,1.168l-.286-.068a11.534,11.534,0,0,1-1.807-1.333,4.238,4.238,0,0,1-1.612-2.8C844.114,171.12,846.9,169.216,847.765,168.64Z" transform="translate(-762.779 -152.571)" fill="#fdee30"/>
    <path id="Trazado_878104" data-name="Trazado 878104" d="M723.848,829.75a8.918,8.918,0,0,0,3.3.036,16.011,16.011,0,0,1-2.044,6.094,5.108,5.108,0,0,1-1.327,1.454,4.284,4.284,0,0,1-3.577.483l-.943-.239C721.612,835.907,723.081,832.439,723.848,829.75Z" transform="translate(-650.684 -747.533)" fill="#f4bc09"/>
    <path id="Trazado_878105" data-name="Trazado 878105" d="M808.348,214.83l.093.14a9.116,9.116,0,0,0,3.575,3.458,6.539,6.539,0,0,0-1.222,3.182,4.576,4.576,0,0,0-1.984.865l-.521-.282c-1.592-1-2.857-2.073-3.3-3.969l.064-.208A6.105,6.105,0,0,1,808.348,214.83Z" transform="translate(-727.835 -194.139)" fill="#fdee30"/>
    <path id="Trazado_878106" data-name="Trazado 878106" d="M670.845,915.673a6.707,6.707,0,0,0,3.627.256c-.534,2.666-1.548,5.879-3.922,7.495a5.046,5.046,0,0,1-3.863.478l-1.179-.322.279-.186A13.31,13.31,0,0,0,670.845,915.673Z" transform="translate(-602.31 -824.859)" fill="#f4bc09"/>
    <path id="Trazado_878107" data-name="Trazado 878107" d="M1001.514,313.588a9.732,9.732,0,0,0,2.172.8c.515.1,1.377-.017,1.8.247a1.366,1.366,0,0,1,.576.838,5.923,5.923,0,0,1-.542,4.08,2.379,2.379,0,0,1-1.8,1.042,7.231,7.231,0,0,1-3.692-1.025,5.17,5.17,0,0,0-1.075-2.769A5.508,5.508,0,0,0,1001.514,313.588Z" transform="translate(-902.392 -283.015)" fill="#f4bc09"/>
    <path id="Trazado_878108" data-name="Trazado 878108" d="M911.331,329.868a7.141,7.141,0,0,1-3.493-1.485,2.853,2.853,0,0,1-1.233-2.2,3.517,3.517,0,0,1,.213-1.159,10.721,10.721,0,0,1,2.7-4.314l.1.167a5.273,5.273,0,0,0,3.68,2.4,33.393,33.393,0,0,1-1.4,4.613A11.193,11.193,0,0,0,911.331,329.868Z" transform="translate(-819.281 -289.423)" fill="#fdee30"/>
    <path id="Trazado_878109" data-name="Trazado 878109" d="M608.824,1002.755a11.415,11.415,0,0,0,3.594.438,13.889,13.889,0,0,1-2.168,5.539,6.475,6.475,0,0,1-1.427,1.592,4.791,4.791,0,0,1-3.826.869,9.721,9.721,0,0,1-2.549-.818,8.588,8.588,0,0,0,1.332-.753,13.261,13.261,0,0,0,4.395-5.252A6.8,6.8,0,0,0,608.824,1002.755Z" transform="translate(-545.56 -903.228)" fill="#f4bc09"/>
    <path id="Trazado_878110" data-name="Trazado 878110" d="M983.645,380.585a11.009,11.009,0,0,0,2.156.882,9.107,9.107,0,0,0,2.328.11,7.341,7.341,0,0,1,.352,1.2,6.26,6.26,0,0,1-.923,4.227,2.562,2.562,0,0,1-1.86,1.137,6.187,6.187,0,0,1-3.927-1.377,7.192,7.192,0,0,0-.967-2.54A5.451,5.451,0,0,0,983.645,380.585Z" transform="translate(-886.06 -343.31)" fill="#f4bc09"/>
    <path id="Trazado_878111" data-name="Trazado 878111" d="M713.274,311.435c.2.12.461.741.631.981a8.751,8.751,0,0,0,4.293,2.9,9.055,9.055,0,0,0-2.8,4.036c-.093.318-.115,1.026-.314,1.262l-.26-.027-.375-.111a8.287,8.287,0,0,1-4.887-3.987l.2-.967A7.367,7.367,0,0,1,713.274,311.435Z" transform="translate(-641.955 -281.078)" fill="#fdee30"/>
    <path id="Trazado_878112" data-name="Trazado 878112" d="M829.193,298.816a6.6,6.6,0,0,1-1.676-.674c-1.1-.628-2.584-1.735-2.9-3.038a3.377,3.377,0,0,1,.5-2.587,5.561,5.561,0,0,1,3.442-2.666,7.342,7.342,0,0,0,3.178,2.9,14.1,14.1,0,0,1-.347,2.71A10.2,10.2,0,0,1,829.193,298.816Z" transform="translate(-745.428 -261.654)" fill="#fdee30"/>
    <path id="Trazado_878113" data-name="Trazado 878113" d="M757.923,255.844c.267,0,.277.257.378.481a7.685,7.685,0,0,0,3.637,3.526,6.33,6.33,0,0,0-2.048,4.1,11.522,11.522,0,0,0-1.2.621c-.3.166-.56.042-.87-.05a7.389,7.389,0,0,1-4.079-3.111,1.6,1.6,0,0,1-.068-1.4C754.234,258.134,756.289,256.723,757.923,255.844Z" transform="translate(-681.541 -231.05)" fill="#fdee30"/>
    <path id="Trazado_878114" data-name="Trazado 878114" d="M767.817,836.471a3.655,3.655,0,0,1,.58.634,8.632,8.632,0,0,0,1.086,1.012,6.639,6.639,0,0,0,4.855,1.473L768.58,845.9l-1.573,1.738c-1.43-.874-2.724-1.541-3.214-3.269C766.476,842.5,767.185,839.5,767.817,836.471Z" transform="translate(-690.761 -753.581)" fill="#f4bc09"/>
    <path id="Trazado_878115" data-name="Trazado 878115" d="M954.45,449.929l.739.482a5.723,5.723,0,0,0,4.253.777,9.448,9.448,0,0,1-.09,2.926,8.259,8.259,0,0,1-1.2,2.976,3.193,3.193,0,0,1-2.165,1.368,5.941,5.941,0,0,1-1.733-.136,8.663,8.663,0,0,1-2.91-1.459,6.859,6.859,0,0,0-.721-2.471l.765-.364A6.647,6.647,0,0,0,954.45,449.929Z" transform="translate(-858.901 -405.715)" fill="#f4bc09"/>
    <path id="Trazado_878116" data-name="Trazado 878116" d="M871.028,384.117a4.539,4.539,0,0,0,.545,1.063,6.9,6.9,0,0,0,4.472,2.433,36.663,36.663,0,0,1-1.327,4.167,20.808,20.808,0,0,0-1.161,2.953,8.978,8.978,0,0,1-3.708-1.343,4.149,4.149,0,0,1-2.187-2.918Z" transform="translate(-784.237 -346.488)" fill="#fdee30"/>
    <path id="Trazado_878117" data-name="Trazado 878117" d="M480.59,1126.9l.1.248a9.009,9.009,0,0,0,4.984,4.9,28.389,28.389,0,0,1-5.47,6.821l-.108-.058a5.264,5.264,0,0,1-2.761-3.216,5.833,5.833,0,0,1,.039-2.983,9.973,9.973,0,0,1,.853-1.47C479.024,1129.736,479.805,1128.315,480.59,1126.9Z" transform="translate(-432.806 -1014.952)" fill="#fdee30"/>
    <path id="Trazado_878118" data-name="Trazado 878118" d="M926.041,527.248c1.915,1.2,3.491,1.838,5.784,1.35a8.44,8.44,0,0,1-.618,4.414,5.233,5.233,0,0,1-2.7,2.933,4.487,4.487,0,0,1-.977.154,6.5,6.5,0,0,1-4.607-2.219,10.009,10.009,0,0,0-.25-1.862l.624-.361A6.72,6.72,0,0,0,926.041,527.248Z" transform="translate(-833.742 -475.298)" fill="#f4bc09"/>
    <path id="Trazado_878119" data-name="Trazado 878119" d="M891.4,604.055l1.539,1.039a5.984,5.984,0,0,0,4.806.545,9.95,9.95,0,0,1-.478,3.2,6.816,6.816,0,0,1-3.044,4.041,4.3,4.3,0,0,1-2.477.051,6.545,6.545,0,0,1-4.058-3.4A8.858,8.858,0,0,0,891.4,604.055Z" transform="translate(-802.262 -544.42)" fill="#f4bc09"/>
    <path id="Trazado_878120" data-name="Trazado 878120" d="M667.326,367.641l.076.025.448.677a9.086,9.086,0,0,0,5.718,3.555c-2.169,1.571-3.7,3.138-4.321,5.8a.483.483,0,0,1-.12.335l-.611-.1a8.726,8.726,0,0,1-5.174-4.034l.122-1.388C663.856,370.322,665.594,368.829,667.326,367.641Z" transform="translate(-600.363 -331.661)" fill="#fdee30"/>
    <path id="Trazado_878121" data-name="Trazado 878121" d="M778.34,355.528l-.256-.083c-1.869-.641-4.02-1.809-4.88-3.7a3.147,3.147,0,0,1,.06-2.453,8.013,8.013,0,0,1,4.225-4.43,7.985,7.985,0,0,0,4.412,3.959,9.494,9.494,0,0,1-.586,1.895A14.653,14.653,0,0,1,778.34,355.528Z" transform="translate(-699.03 -311.165)" fill="#fdee30"/>
    <path id="Trazado_878122" data-name="Trazado 878122" d="M496.723,653.6c.173.08.263.553.329.754a6.223,6.223,0,0,0,1.393,2.279,8.243,8.243,0,0,0,5.1,2.726,8.16,8.16,0,0,0-1.668,1.718,18.408,18.408,0,0,0-2,3.048,9.673,9.673,0,0,0-.636,1.733,8.169,8.169,0,0,1-4.757-2.935l.243-7.245A11.784,11.784,0,0,1,496.723,653.6Z" transform="translate(-448.397 -589.009)" fill="#fdee30"/>
    <path id="Trazado_878123" data-name="Trazado 878123" d="M733.507,416.906a9.408,9.408,0,0,0,5.482,4.137A21.2,21.2,0,0,1,736.582,426a8.2,8.2,0,0,1-1.393,1.56,10.234,10.234,0,0,1-4.83-3.174,3.034,3.034,0,0,1-.673-2.5C730.031,419.817,731.9,418.078,733.507,416.906Z" transform="translate(-660.023 -375.997)" fill="#fdee30"/>
    <path id="Trazado_878124" data-name="Trazado 878124" d="M483.464,877.724c.278-3.073.419-6.182.533-9.265.035-.961.079-1.923.108-2.884a10.358,10.358,0,0,1,.081-1.7l.423-.212.11.054a5.826,5.826,0,0,0,.887,3.76,9.911,9.911,0,0,0,6.094,3.936l.122.023c-1.674,2.881-2.968,6.215-6.519,7.192l-.292.071A11.857,11.857,0,0,1,483.464,877.724Z" transform="translate(-438.481 -778.053)" fill="#fdee30"/>
    <path id="Trazado_878125" data-name="Trazado 878125" d="M622.619,434.934l.192.016.805,1.151a8.849,8.849,0,0,0,5.5,3.236,11.136,11.136,0,0,0-4.172,5.98.646.646,0,0,1-.189.42,3.649,3.649,0,0,1-.836-.052,7.73,7.73,0,0,1-4.507-3.244,3.2,3.2,0,0,1-.335-2.708A8.5,8.5,0,0,1,622.619,434.934Z" transform="translate(-560.394 -392.22)" fill="#fdee30"/>
    <path id="Trazado_878126" data-name="Trazado 878126" d="M829.461,456.087l.563,1.024c1.116,1.645,3.563,2.722,5.451,3.054l-3.213,7.423a11.955,11.955,0,0,1-3.418-1.333,5.98,5.98,0,0,1-2.942-3.814Z" transform="translate(-746.655 -411.257)" fill="#fdee30"/>
    <path id="Trazado_878127" data-name="Trazado 878127" d="M810.441,758.714c.551.424.994.978,1.576,1.389a7.615,7.615,0,0,0,5.938,1.235,19.071,19.071,0,0,1-.584,2.895,7.17,7.17,0,0,1-1.287,1.488c-.863.935-1.713,1.884-2.577,2.818l-.217.19a3.634,3.634,0,0,1-2.074.135l-.138-.022-.275-.04a7.468,7.468,0,0,1-4.53-3.216,7.722,7.722,0,0,0,1.359-.885,8.417,8.417,0,0,0,2.649-4.341A10.937,10.937,0,0,0,810.441,758.714Z" transform="translate(-728.992 -683.605)" fill="#f4bc09"/>
    <path id="Trazado_878128" data-name="Trazado 878128" d="M849.412,670.987a6.264,6.264,0,0,1,.453.588,6.766,6.766,0,0,0,4.392,2.449l.125.014a7.818,7.818,0,0,0,1.795-.042,11.213,11.213,0,0,1-1.022,4.667,5.788,5.788,0,0,1-2.96,3.032,4.322,4.322,0,0,1-1.8.049,7.9,7.9,0,0,1-5.08-3.572l1.017-.671C848.445,675.834,849.125,673.551,849.412,670.987Z" transform="translate(-764.128 -604.655)" fill="#f4bc09"/>
    <path id="Trazado_878129" data-name="Trazado 878129" d="M528.564,582.438A6.3,6.3,0,0,0,530.2,584.9a8.5,8.5,0,0,0,4.413,2.294,7.4,7.4,0,0,0,1.256,0,12.108,12.108,0,0,0-4.685,6.405l-.217,1.03a8.8,8.8,0,0,1-4.935-2.862,4.624,4.624,0,0,1-1.1-3.485C525.154,585.9,526.781,583.9,528.564,582.438Z" transform="translate(-475.779 -524.966)" fill="#fdee30"/>
    <path id="Trazado_878130" data-name="Trazado 878130" d="M691.068,497.164a9.8,9.8,0,0,1-5.683-3.584,2.626,2.626,0,0,1-.409-2.15,10.006,10.006,0,0,1,3.881-5.761,10.173,10.173,0,0,0,5.893,4.509,13.913,13.913,0,0,1-2.636,5.644A14.627,14.627,0,0,0,691.068,497.164Z" transform="translate(-619.772 -437.88)" fill="#fdee30"/>
    <path id="Trazado_878131" data-name="Trazado 878131" d="M521.313,1043.119l.342.774c1.1,2.194,3.715,3.392,5.919,4.13l-5.015,8a9.749,9.749,0,0,1-3.539-2.362,5.261,5.261,0,0,1-1.5-3.731,4.139,4.139,0,0,0-.014-.7l-.01-.1a13.471,13.471,0,0,0,1.711-2.438C519.926,1045.514,520.608,1044.31,521.313,1043.119Z" transform="translate(-469.109 -939.554)" fill="#fdee30"/>
    <path id="Trazado_878132" data-name="Trazado 878132" d="M783.836,533.85c.565-.875,1.268-1.588,1.774-2.525a19.986,19.986,0,0,0,1.315-3.193c.178-.537.3-1.1.527-1.619l.027-.06a6.838,6.838,0,0,0,.789,1.669,9.888,9.888,0,0,0,6.2,3.517c-.8,1.738-1.547,3.5-2.41,5.208a17.52,17.52,0,0,1-1.5,2.631,10.088,10.088,0,0,1-3.176-1.27A6.763,6.763,0,0,1,783.836,533.85Z" transform="translate(-708.799 -474.582)" fill="#fdee30"/>
    <path id="Trazado_878133" data-name="Trazado 878133" d="M572.484,506.209c.186.07.625,1.012.784,1.227A8.632,8.632,0,0,0,577.4,510.4a12.485,12.485,0,0,0,1.831.32,12.349,12.349,0,0,0-4.6,7.176,8.325,8.325,0,0,1-1.665-.146,7.666,7.666,0,0,1-4.344-3.01,3.461,3.461,0,0,1-.529-2.766A9.5,9.5,0,0,1,572.484,506.209Z" transform="translate(-514.568 -456.364)" fill="#fdee30"/>
    <path id="Trazado_878134" data-name="Trazado 878134" d="M703,695.176a7.3,7.3,0,0,0,.629,1.252,10.384,10.384,0,0,0,6.292,3.948c-.6,2.648-1.969,5.948-4.336,7.487l-1.795-.627a9.2,9.2,0,0,1-3.9-2.98,9.662,9.662,0,0,1-.838-1.851,12.575,12.575,0,0,0,1.5-1.6A17.131,17.131,0,0,0,703,695.176Z" transform="translate(-632.496 -626.424)" fill="#fdee30"/>
    <path id="Trazado_878135" data-name="Trazado 878135" d="M561.131,959.7a45.445,45.445,0,0,0,4.126-6.629,12.979,12.979,0,0,0,.924,1.558,11.514,11.514,0,0,0,5.4,3.414,6.794,6.794,0,0,1-.65,1.615,13.261,13.261,0,0,1-4.395,5.252,8.589,8.589,0,0,1-1.332.753l-.849-.456a6.347,6.347,0,0,1-3.207-3.657l-.03-.125a7.684,7.684,0,0,1,.014-1.612Z" transform="translate(-508.322 -858.514)" fill="#fdee30"/>
    <path id="Trazado_878136" data-name="Trazado 878136" d="M745.124,615.973l.16-.385c.246.129.6.928.815,1.207a11.435,11.435,0,0,0,5.909,3.622l-3.666,7.656a10.236,10.236,0,0,1-2.995-1.09,7.036,7.036,0,0,1-3.838-4.584l.507-.588-.142-.022.178-.178-.019-.139c-.133-.067-.1-.032-.184-.132l-.053-.066-.243.2-.15-.035a13.21,13.21,0,0,0,3.087-5.755l.4.357.119-.04.04-.138Z" transform="translate(-670.612 -554.799)" fill="#fdee30"/>
    <path id="Trazado_878137" data-name="Trazado 878137" d="M744.49,616.551l.4.358.119-.041.04-.138.078.11a12.954,12.954,0,0,1-3.107,5.838l-.142-.022.178-.178-.019-.139c-.133-.067-.1-.032-.184-.132l-.053-.066-.243.2-.15-.035A13.211,13.211,0,0,0,744.49,616.551Z" transform="translate(-670.612 -555.666)" fill="#0e0a09"/>
    <path id="Trazado_878138" data-name="Trazado 878138" d="M657.717,777.89a6.137,6.137,0,0,0,.563,1.181c1.266,1.977,4.17,3.5,6.4,4.007-.767,2.689-2.236,6.157-4.589,7.828a12.989,12.989,0,0,1-5.316-3.1,4.668,4.668,0,0,1-1.227-1.84,7.083,7.083,0,0,1-.009-1.276c.489-.68,1.037-1.3,1.486-2.015C656,781.126,656.767,779.458,657.717,777.89Z" transform="translate(-591.516 -700.862)" fill="#fdee30"/>
    <path id="Trazado_878139" data-name="Trazado 878139" d="M607.728,870.734a28.035,28.035,0,0,0,4.024-6.75c1.529,2.763,4.165,4.239,7.095,5.172a13.31,13.31,0,0,1-5.058,7.721l-.279.186a12.716,12.716,0,0,1-2.574-1.253,9.184,9.184,0,0,1-2.462-2.221,2.889,2.889,0,0,1-.611-1.164c-.092-.536.015-1.079-.115-1.619Z" transform="translate(-550.311 -778.342)" fill="#fdee30"/>
    <path id="Trazado_878140" data-name="Trazado 878140" d="M551.573,719.179a8.356,8.356,0,0,0,.513,1.271c1.225,2.259,3.9,3.55,6.263,4.222-.69,3.1-1.96,5.792-4.643,7.643a9.376,9.376,0,0,1-4.208-2.106,5.423,5.423,0,0,1-1.824-3.747C547.654,723.721,549.751,721.015,551.573,719.179Z" transform="translate(-496.266 -648.025)" fill="#fdee30"/>
    <path id="Trazado_878141" data-name="Trazado 878141" d="M597.166,638.674l.214.443c1.2,2.245,4.014,3.757,6.379,4.456a20.1,20.1,0,0,1-2.594,5.9,14.839,14.839,0,0,1-1.937,1.995,9.959,9.959,0,0,1-5.6-3.548,4.076,4.076,0,0,1-.573-3.185,9.8,9.8,0,0,1,1.648-3.409A9.282,9.282,0,0,1,597.166,638.674Z" transform="translate(-537.015 -575.575)" fill="#fdee30"/>
    <path id="Trazado_878142" data-name="Trazado 878142" d="M507.917,814.264a8.461,8.461,0,0,1-4.031-2.825,4.966,4.966,0,0,1-1-3.926,10.53,10.53,0,0,1,3.8-6.052,6.382,6.382,0,0,0,1.272,2.63,9.671,9.671,0,0,0,6.646,3.167,2.512,2.512,0,0,1-.3,1.006,16.5,16.5,0,0,1-1.811,3.307,6.049,6.049,0,0,1-3.14,2.285C508.884,814.015,508.376,814.1,507.917,814.264Z" transform="translate(-455.904 -722.075)" fill="#fdee30"/>
    <path id="Trazado_878143" data-name="Trazado 878143" d="M644.9,562.393l.18.273a10.255,10.255,0,0,0,6.388,4.265,8.1,8.1,0,0,0,2.983-.226l-.263,1.106a13.211,13.211,0,0,1-3.087,5.755,3.662,3.662,0,0,1-3.087.816l-.622-.121a11.762,11.762,0,0,1-5.8-3.689,2.739,2.739,0,0,1-.5-2.147A10.645,10.645,0,0,1,644.9,562.393Z" transform="translate(-580.311 -506.926)" fill="#fdee30"/>
    <path id="Trazado_878144" data-name="Trazado 878144" d="M708.414,605.719a8.1,8.1,0,0,0,2.983-.226l-.263,1.106a13.21,13.21,0,0,1-3.087,5.755,3.661,3.661,0,0,1-3.087.816l-.622-.121C706.482,611.283,707.736,608.352,708.414,605.719Z" transform="translate(-637.256 -545.714)" fill="#f4bc09"/>
    <path id="Trazado_878145" data-name="Trazado 878145" d="M953.518,259.864l0,.064a1.663,1.663,0,0,1-.24.537c-.232.463-.451.955-.636,1.439a35.806,35.806,0,0,0-1.536,4.984c-.7,3.157-1.115,6.382-1.978,9.5a73.394,73.394,0,0,1-3.106,8.649,125.176,125.176,0,0,1-5.432,11.373c-.908,1.679-1.855,3.3-2.88,4.905-.393.617-.762,1.27-1.2,1.858s-.99,1.156-1.49,1.712q-1.29,1.436-2.588,2.866c-1.894,2.083-3.733,4.227-5.661,6.277l.1-.869a1.343,1.343,0,0,0-.328-1.177l-.056-.058a7.584,7.584,0,0,0,1.514-1.485,10.561,10.561,0,0,0,1.914-6.842l.582-.457c2.24-2.051,2.839-4.894,2.965-7.8a11.065,11.065,0,0,0,1.382-1.71,10.751,10.751,0,0,0,1.224-6.186,7.713,7.713,0,0,0,2.333-4.5,8.249,8.249,0,0,0,.05-3.282,5.979,5.979,0,0,0,.755-.84,6.973,6.973,0,0,0,1.108-4.88l-.287-1.369a4.861,4.861,0,0,0,1.495-2.6,17.527,17.527,0,0,0,2.561-1.212,22.749,22.749,0,0,0,3.267-2.056A36.821,36.821,0,0,0,953.518,259.864Z" transform="translate(-837.184 -234.667)" fill="#3a7e12"/>
    <path id="Trazado_878146" data-name="Trazado 878146" d="M527.972,112.493l.051.052c-.3,3.442,1.065,6.917,1.933,10.2a6.944,6.944,0,0,0-2.383,3.109c-2.028,1.029-4.261,2.763-5.036,5a.967.967,0,0,0-.064.793,3.619,3.619,0,0,0-1.615.938,7.416,7.416,0,0,0-2.841,4.758,9.057,9.057,0,0,0-2.8,2.11,6.3,6.3,0,0,0-1.749,4.376,8.7,8.7,0,0,0-3.432,3.348,6.047,6.047,0,0,0-1.075,4.023l-.271.108a5.124,5.124,0,0,0-1.575,1.016,9.187,9.187,0,0,0-3.295,6.505,3.4,3.4,0,0,0-1.275.86,9.025,9.025,0,0,0-3.066,6.274l-.66.35a5.628,5.628,0,0,0-1.283,1.238l.192-6.566a6.644,6.644,0,0,0,.681-1.7c.224-.709.461-1.413.695-2.118.534-1.612,1.086-3.221,1.69-4.809a98.638,98.638,0,0,1,8.57-17.633,66.723,66.723,0,0,1,8.175-10.435c1.039-1.093,2.084-2.184,3.191-3.21a41.249,41.249,0,0,0,5.717-5.762A17.212,17.212,0,0,0,527.972,112.493Z" transform="translate(-451.147 -102.042)" fill="url(#linear-gradient)"/>
    <path id="Trazado_878147" data-name="Trazado 878147" d="M461.747,529.284a8.854,8.854,0,0,1,1.8-.079,32.816,32.816,0,0,1,6.188.747c-1.5.358-2.994.506-4.475.987-6.1,1.982-10.541,6.684-13.813,12.02-4.042,6.591-7.029,13.743-10.588,20.589-6.622,12.739-13.687,25.333-22.507,36.7-6.136,7.908-13.082,15.242-21.628,20.574a43.31,43.31,0,0,1-12.683,5.553,23.645,23.645,0,0,1-14.539-1.341,150.062,150.062,0,0,1,12.537-17.262c.82-1.016,1.654-2.019,2.49-3.022a13.952,13.952,0,0,1,1.466-1.673l48-53.8a128.969,128.969,0,0,1,11.186-11.6,41.141,41.141,0,0,1,7.67-5.735A22.243,22.243,0,0,1,461.747,529.284Z" transform="translate(-335.917 -477.052)" fill="#49a71e"/>
    <path id="Trazado_878148" data-name="Trazado 878148" d="M706.328,858.98c.015.429-.531,1.121-.738,1.513-1.77,3.354-3.8,6.5-5.869,9.679-1.872,2.871-3.729,5.709-5.821,8.429-1.624,2.111-3.4,4.087-5.215,6.034a44.866,44.866,0,0,1-11.678,8.629c-.572.314-1.138.619-1.722.91a2.591,2.591,0,0,1-.47.242l-.13,0,.314-.287c5.586-3.406,10.344-8.124,14.666-12.988A199.472,199.472,0,0,0,706.328,858.98Z" transform="translate(-610.568 -773.838)" fill="#86cf2a"/>
    <path id="Trazado_878149" data-name="Trazado 878149" d="M613.273,537.08a2.4,2.4,0,0,1-.766.483c-.4.211-.8.434-1.185.674-.883.546-1.739,1.126-2.587,1.723a46.054,46.054,0,0,0-5.459,4.83c-5.6,5.947-9.2,13.5-13.317,20.478-2.684,4.546-5.7,9.028-8.775,13.316-1.607,2.237-3.34,4.41-5.057,6.563a144.448,144.448,0,0,1-24.518,24.5c-4.394,3.4-9.1,6.414-13.607,9.665l-.1-.026a44.712,44.712,0,0,1,4.117-3.238c2.736-2.054,5.523-4.044,8.23-6.134,2.349-1.813,4.69-3.649,6.931-5.6a141.574,141.574,0,0,0,15.268-15.556c1.428-1.7,2.766-3.449,4.135-5.192a138.461,138.461,0,0,0,8.21-11.418c2.549-4.029,5.009-8.12,7.465-12.206,3.208-5.338,6.306-10.623,10.621-15.173a47.3,47.3,0,0,1,4.357-3.957c.4-.33.837-.614,1.233-.949l.051-.044a4.531,4.531,0,0,0-1.335.746,43.99,43.99,0,0,0-4.669,3.363c-.657.554-1.273,1.253-1.956,1.756l-.114-.23a10.4,10.4,0,0,1,1.636-1.515,41.781,41.781,0,0,1,8.023-5.361A26.869,26.869,0,0,1,613.273,537.08Z" transform="translate(-487.474 -484.146)" fill="#0e0a09"/>
    <path id="Trazado_878150" data-name="Trazado 878150" d="M534.333,603.856l48-53.8a128.945,128.945,0,0,1,11.186-11.6,41.14,41.14,0,0,1,7.67-5.735,22.243,22.243,0,0,1,8.9-2.658,4.948,4.948,0,0,1,.859.128l-.118.061-.137.127a1,1,0,0,1-.379.218.986.986,0,0,0-.255.168,26.85,26.85,0,0,0-3.167,1.505,41.783,41.783,0,0,0-8.023,5.361,10.4,10.4,0,0,0-1.636,1.515l.115.23c-1.026,1.029-2.085,2.044-3.048,3.132-4.491,5.074-8.151,10.869-11.8,16.556-.618.964-1.253,1.916-1.862,2.885a6.094,6.094,0,0,0-.62,1.023,199.5,199.5,0,0,1-16.664,22.164c-4.322,4.864-9.08,9.582-14.666,12.988l-.058-.087c-.359.215-.695.469-1.054.679a40.119,40.119,0,0,1-4.08,1.984c-1.979.871-4,1.68-6.052,2.363A11.4,11.4,0,0,1,534.333,603.856Z" transform="translate(-484.26 -477.831)" fill="#86cf2a"/>
    <path id="Trazado_878151" data-name="Trazado 878151" d="M725.84,620.843l.115.23c-1.026,1.029-2.085,2.044-3.048,3.132-4.491,5.074-8.151,10.869-11.8,16.556-.618.964-1.253,1.916-1.862,2.885a6.086,6.086,0,0,0-.62,1.023,199.483,199.483,0,0,1-16.664,22.163c-4.322,4.864-9.08,9.582-14.666,12.988l-.058-.087c5.715-3.791,10.587-8.9,15.039-14.072,1.588-1.844,3.193-3.676,4.7-5.588,4.74-6.014,9.017-12.362,13.2-18.768,2.483-3.8,4.95-7.584,7.634-11.248A57.973,57.973,0,0,1,725.84,620.843Z" transform="translate(-612.868 -559.528)" fill="#0e0a09"/>
    <path id="Trazado_878152" data-name="Trazado 878152" d="M209.447,220.294a6.869,6.869,0,0,1,1.459.388,29.66,29.66,0,0,1,6.838,3.086C223.8,227.5,227.38,233.787,229,240.59a59.825,59.825,0,0,1,1.4,11.883c.229,6.617-.2,13.265-.42,19.878-.448,13.266-.807,26.588-2.536,39.765-.425,3.238-.985,6.463-1.582,9.674a89.978,89.978,0,0,1-4.841,17.794,48.277,48.277,0,0,1-3.6,6.959l-3.1-1.955c-5.618-4.068-8.532-10.287-10.326-16.808a55.5,55.5,0,0,1-1.648-9.671c-1.552-17.078,3.568-33.735,9.627-49.484,1.812-4.708,3.936-9.3,5.66-14.041a42.249,42.249,0,0,0,2.467-9.218,31.382,31.382,0,0,0-.629-10.341A22.925,22.925,0,0,0,209.447,220.294Z" transform="translate(-185.235 -199.056)" fill="#86cf2a"/>
    <path id="Trazado_878153" data-name="Trazado 878153" d="M312.444,508.522a6.333,6.333,0,0,1-.165,2c-.269,1.887-.565,3.787-1.011,5.641-1.987,8.269-4.719,16.328-6.486,24.66-.745,3.512-1.373,7.058-1.88,10.613-.163,1.147-.3,2.3-.437,3.447a15.278,15.278,0,0,1-.243,1.82,6.627,6.627,0,0,1,.04-1.515c.077-1.193.181-2.388.294-3.578a117.344,117.344,0,0,1,3.586-19.694c1.453-5.34,3.343-10.555,4.763-15.9.6-2.244.974-4.492,1.43-6.76Z" transform="translate(-275.342 -458.445)" fill="#0e0a09"/>
    <path id="Trazado_878154" data-name="Trazado 878154" d="M337.2,331.2c.932-4.756,1.96-9.529,3.216-14.211.85-3.17,1.733-6.324,2.528-9.509a47.582,47.582,0,0,0,1.737-11,31.3,31.3,0,0,0-.735-6.791,23.789,23.789,0,0,0-3.442-8.409,27.651,27.651,0,0,0-4.228-4.687l.085-.042a28.972,28.972,0,0,1,3.144,2.721c3.536,3.681,5.154,8.234,5.762,13.231.6,4.9-.29,9.818-1.459,14.568-.937,3.806-2.06,7.562-3.067,11.349-1.14,4.29-2.165,8.7-2.975,13.066-1.844,9.308-2.721,18.843-1.351,28.27a38.651,38.651,0,0,0,.8,4.495.955.955,0,0,1,.059.5,57.9,57.9,0,0,1-2.011-16.336A109.218,109.218,0,0,1,337.2,331.2Z" transform="translate(-305.104 -249.684)" fill="#0e0a09"/>
  </g>
</svg>
