<svg xmlns="http://www.w3.org/2000/svg" xmlns:xlink="http://www.w3.org/1999/xlink" width="160.402" height="137.941" viewBox="0 0 160.402 137.941">
  <defs>
    <clipPath id="clip-path">
      <rect id="Rect치ngulo_401948" data-name="Rect치ngulo 401948" width="63.239" height="109.141" fill="none"/>
    </clipPath>
    <clipPath id="clip-path-2">
      <rect id="Rect치ngulo_401949" data-name="Rect치ngulo 401949" width="104.331" height="137.941" transform="translate(0 0)" fill="none"/>
    </clipPath>
  </defs>
  <g id="Grupo_1101769" data-name="Grupo 1101769" transform="translate(-298.723 -2185.198)">
    <g id="Grupo_1101766" data-name="Grupo 1101766" transform="translate(298.723 2211.432)">
      <path id="Trazado_878535" data-name="Trazado 878535" d="M13.253,1.007l-.065,7.9L0,23.326v75.1l17.437,11.625,45.8-1.627V29.836L51.15,9.377l-.232-8.37Z" transform="translate(0 -0.91)" fill="#909c4b"/>
      <g id="Grupo_1101765" data-name="Grupo 1101765" transform="translate(0 -0.002)">
        <g id="Grupo_1101764" data-name="Grupo 1101764" transform="translate(0 0)" clip-path="url(#clip-path)">
          <path id="Trazado_878536" data-name="Trazado 878536" d="M316.4,666.639a.331.331,0,0,1-.328-.283,245.939,245.939,0,0,0-7.25-31.677.331.331,0,1,1,.633-.2,246.644,246.644,0,0,1,7.273,31.776.331.331,0,0,1-.28.376.344.344,0,0,1-.048,0" transform="translate(-278.483 -571.969)" fill="#f8b365"/>
          <path id="Trazado_878537" data-name="Trazado 878537" d="M272.71,668.349c-.353.784-2.939-.258-4.521-1.468s-2.534-2.922-2.128-3.825,2.017-.653,3.6.557,3.4,3.951,3.051,4.735" transform="translate(-239.851 -597.458)" fill="#f8b365"/>
          <path id="Trazado_878538" data-name="Trazado 878538" d="M278.858,630.164c-.347.55-2.278-.609-3.407-1.756s-1.72-2.589-1.321-3.222,1.638-.216,2.767.93,2.308,3.5,1.961,4.048" transform="translate(-247.1 -563.529)" fill="#f8b365"/>
          <path id="Trazado_878539" data-name="Trazado 878539" d="M292.117,577.8c-.592.2-1.842-2.222-2.345-4.032s-.36-3.464.321-3.694,1.641,1.049,2.145,2.859.471,4.667-.12,4.868" transform="translate(-261.047 -514.074)" fill="#f8b365"/>
          <path id="Trazado_878540" data-name="Trazado 878540" d="M279.961,719.559c-.189.881-2.85.6-4.585-.136s-2.965-2.158-2.748-3.171,1.8-1.236,3.534-.5,3.987,2.925,3.8,3.805" transform="translate(-245.836 -645.077)" fill="#f8b365"/>
          <path id="Trazado_878541" data-name="Trazado 878541" d="M289.98,761.829c-.189.881-2.85.6-4.585-.136s-2.965-2.158-2.748-3.171,1.8-1.236,3.534-.5,3.987,2.925,3.8,3.805" transform="translate(-254.871 -683.196)" fill="#f8b365"/>
          <path id="Trazado_878542" data-name="Trazado 878542" d="M309.2,804.607c-.15.7-2.27.479-3.652-.109s-2.362-1.719-2.189-2.526,1.433-.984,2.815-.4,3.176,2.33,3.026,3.031" transform="translate(-273.552 -722.552)" fill="#f8b365"/>
          <path id="Trazado_878543" data-name="Trazado 878543" d="M309.722,836.6c-.209.807-2.69.4-4.286-.39s-2.695-2.174-2.454-3.1,1.73-1.044,3.326-.259,3.623,2.944,3.414,3.751" transform="translate(-273.201 -750.595)" fill="#f8b365"/>
          <path id="Trazado_878544" data-name="Trazado 878544" d="M329.81,647.528c.653.352,2.025-2.044,2.576-3.928s.387-3.741-.365-4.147-1.807.794-2.358,2.678-.507,5.044.147,5.4" transform="translate(-296.949 -576.591)" fill="#f8b365"/>
          <path id="Trazado_878545" data-name="Trazado 878545" d="M318.03,614.7c.55.306,1.732-1.7,2.214-3.282s.36-3.154-.272-3.507-1.536.646-2.019,2.23-.473,4.253.077,4.559" transform="translate(-286.417 -548.151)" fill="#f8b365"/>
          <path id="Trazado_878546" data-name="Trazado 878546" d="M341.43,688.608c.631.566,2.582-1.481,3.549-3.255s1.164-3.741.438-4.393-2.1.258-3.065,2.033-1.552,5.049-.922,5.615" transform="translate(-307.667 -613.903)" fill="#f8b365"/>
          <path id="Trazado_878547" data-name="Trazado 878547" d="M351.121,734.993c.592.63,2.7-1.18,3.792-2.828s1.433-3.571.751-4.3-2.123.024-3.22,1.672-1.916,4.821-1.324,5.451" transform="translate(-316.464 -656.148)" fill="#f8b365"/>
          <path id="Trazado_878548" data-name="Trazado 878548" d="M362.016,781.317c.473.576,2.355-.785,3.371-2.088s1.4-2.9.853-3.557-1.81-.143-2.826,1.159-1.872,3.91-1.4,4.486" transform="translate(-326.347 -699.245)" fill="#f8b365"/>
          <path id="Trazado_878549" data-name="Trazado 878549" d="M369.654,816.927c.543.6,2.54-1.025,3.595-2.529s1.4-3.286.778-3.979-1.985-.035-3.039,1.469-1.876,4.437-1.333,5.039" transform="translate(-333.201 -730.591)" fill="#f8b365"/>
          <path id="Trazado_878550" data-name="Trazado 878550" d="M438.586,710.135a.332.332,0,0,1-.323-.406,210.053,210.053,0,0,1,8.352-26.477.331.331,0,0,1,.615.246,209.327,209.327,0,0,0-8.321,26.379.331.331,0,0,1-.323.257" transform="translate(-395.22 -615.972)" fill="#f8b365"/>
          <path id="Trazado_878551" data-name="Trazado 878551" d="M501.479,714.454c.246.69,2.512-.017,3.937-.936s2.351-2.306,2.068-3.1-1.667-.692-3.092.226-3.159,3.12-2.914,3.81" transform="translate(-452.215 -640.177)" fill="#f8b365"/>
          <path id="Trazado_878552" data-name="Trazado 878552" d="M513.85,681.883c.257.491,1.975-.361,3.012-1.257s1.637-2.08,1.342-2.644-1.375-.3-2.412.6-2.2,2.81-1.941,3.3" transform="translate(-463.36 -611.141)" fill="#f8b365"/>
          <path id="Trazado_878553" data-name="Trazado 878553" d="M519.5,636.516c.488.211,1.715-1.76,2.267-3.261s.543-2.915-.019-3.157-1.465.778-2.016,2.279-.72,3.929-.231,4.139" transform="translate(-468.232 -568.193)" fill="#f8b365"/>
          <path id="Trazado_878554" data-name="Trazado 878554" d="M488.212,757.041c.1.76,2.378.706,3.9.2s2.664-1.628,2.549-2.5-1.442-1.172-2.965-.664-3.584,2.209-3.484,2.969" transform="translate(-440.269 -679.802)" fill="#f8b365"/>
          <path id="Trazado_878555" data-name="Trazado 878555" d="M476.813,792.228c.1.76,2.378.706,3.9.2s2.664-1.628,2.549-2.5-1.442-1.172-2.965-.664-3.584,2.209-3.484,2.969" transform="translate(-429.989 -711.534)" fill="#f8b365"/>
          <path id="Trazado_878556" data-name="Trazado 878556" d="M469.787,827.444c.08.606,1.894.562,3.107.158s2.122-1.3,2.031-1.994-1.149-.934-2.362-.529-2.855,1.76-2.775,2.365" transform="translate(-423.654 -743.883)" fill="#f8b365"/>
          <path id="Trazado_878557" data-name="Trazado 878557" d="M459.452,854.5c.122.7,2.256.519,3.664-.037s2.436-1.66,2.3-2.464-1.4-1-2.8-.448-3.277,2.25-3.154,2.949" transform="translate(-414.331 -767.648)" fill="#f8b365"/>
          <path id="Trazado_878558" data-name="Trazado 878558" d="M482.693,692.071c-.579.254-1.579-1.873-1.917-3.51s-.072-3.2.593-3.494,1.479.8,1.817,2.435.085,4.316-.494,4.57" transform="translate(-433.434 -617.753)" fill="#f8b365"/>
          <path id="Trazado_878559" data-name="Trazado 878559" d="M499.047,665.226c-.488.222-1.353-1.56-1.654-2.937s-.09-2.7.471-2.957,1.26.653,1.56,2.031.11,3.642-.377,3.864" transform="translate(-448.428 -594.55)" fill="#f8b365"/>
          <path id="Trazado_878560" data-name="Trazado 878560" d="M460.593,725.338c-.574.438-2.09-1.434-2.789-3.006s-.731-3.255-.071-3.758,1.763.363,2.462,1.935.971,4.391.4,4.829" transform="translate(-412.358 -647.885)" fill="#f8b365"/>
          <path id="Trazado_878561" data-name="Trazado 878561" d="M446.122,763.79c-.546.494-2.207-1.186-3.025-2.659s-.972-3.129-.344-3.7,1.8.166,2.618,1.64,1.3,4.223.75,4.717" transform="translate(-398.929 -682.884)" fill="#f8b365"/>
          <path id="Trazado_878562" data-name="Trazado 878562" d="M437.712,802.589c-.441.456-1.945-.828-2.718-2s-.988-2.553-.481-3.078,1.546,0,2.319,1.178,1.32,3.447.879,3.9" transform="translate(-391.599 -719.014)" fill="#f8b365"/>
          <path id="Trazado_878563" data-name="Trazado 878563" d="M426.739,832.171c-.5.474-2.086-1.044-2.877-2.393s-.965-2.885-.388-3.43,1.687.106,2.479,1.455,1.288,3.894.786,4.368" transform="translate(-381.584 -745.03)" fill="#f8b365"/>
          <path id="Trazado_878564" data-name="Trazado 878564" d="M144.643,108.076a.331.331,0,0,1-.331-.327l-.93-74.851L141.058,8.033a.335.335,0,0,1,0-.041L141.289.32a.331.331,0,1,1,.663.02l-.232,7.652,2.323,24.857q0,.013,0,.027l.93,74.864a.331.331,0,0,1-.327.335Z" transform="translate(-127.206 0.002)" fill="#38231b"/>
          <path id="Trazado_878565" data-name="Trazado 878565" d="M22,236.058A.33.33,0,0,1,21.82,236L6.242,225.539a.331.331,0,1,1,.37-.55l15.577,10.462a.331.331,0,0,1-.185.607" transform="translate(-5.497 -202.845)" fill="#38231b"/>
          <path id="Trazado_878566" data-name="Trazado 878566" d="M195.846,304.153a.331.331,0,0,1-.022-.662l42.082-2.79a.331.331,0,1,1,.044.661l-42.082,2.79h-.022" transform="translate(-176.316 -271.173)" fill="#38231b"/>
          <path id="Trazado_878567" data-name="Trazado 878567" d="M141.388,74.527a.331.331,0,0,1,0-.663l35.572-.465a.331.331,0,1,1,.009.663l-35.572.465h0" transform="translate(-127.206 -66.192)" fill="#38231b"/>
          <path id="Trazado_878568" data-name="Trazado 878568" d="M202.072,414.969a1.786,1.786,0,0,1,.379-.058,1.74,1.74,0,0,1,.648.09,2.872,2.872,0,0,1,.626.388,3.775,3.775,0,0,1,.589.524,2.973,2.973,0,0,1,.442.838,4.573,4.573,0,0,1,.258,1.058c0,.019,0,.059.012.119s.011.109.013.148a10.459,10.459,0,0,1-.032,1.868,2.56,2.56,0,0,1-.39,1.083,2.8,2.8,0,0,1-.311.414,1.639,1.639,0,0,1-.383.283,2.206,2.206,0,0,1-1.007.34,1.879,1.879,0,0,1-.305,0,1.823,1.823,0,0,1-.92-.286,3.068,3.068,0,0,1-.99-1.2,4.737,4.737,0,0,1-.449-1.891,5.009,5.009,0,0,1,.454-2.541,2.369,2.369,0,0,1,.489-.648,2.493,2.493,0,0,1,.423-.348,1.725,1.725,0,0,1,.454-.177m.873.432a.558.558,0,0,0-.188-.048.648.648,0,0,0-.214.078,2.242,2.242,0,0,0-.838,1.049,4.781,4.781,0,0,0-.31.744,3.872,3.872,0,0,0-.08,1.162,4.077,4.077,0,0,0,.177,1.082,4.893,4.893,0,0,0,.357.771,4.031,4.031,0,0,0,.462.7,3.3,3.3,0,0,0,.436.417.743.743,0,0,0,.447.206.843.843,0,0,0,.311-.1,1.98,1.98,0,0,0,.369-.23,2.1,2.1,0,0,0,.555-.833,1.779,1.779,0,0,0,.152-.621,11.452,11.452,0,0,0-.021-1.224,6.9,6.9,0,0,0-.159-1.351,3.312,3.312,0,0,0-.386-.918,3.233,3.233,0,0,0-.505-.481,2.677,2.677,0,0,0-.566-.4" transform="translate(-180.579 -374.167)" fill="#fff"/>
          <path id="Trazado_878569" data-name="Trazado 878569" d="M201.892,421.295a1.38,1.38,0,0,1-.162-.008,1.916,1.916,0,0,1-.963-.3,3.177,3.177,0,0,1-1.021-1.238,4.85,4.85,0,0,1-.458-1.926,5.123,5.123,0,0,1,.464-2.589,2.471,2.471,0,0,1,.508-.673,2.591,2.591,0,0,1,.44-.361,1.823,1.823,0,0,1,.478-.188,1.888,1.888,0,0,1,.4-.061,1.844,1.844,0,0,1,.683.095,2.911,2.911,0,0,1,.653.4,3.826,3.826,0,0,1,.6.538,3.083,3.083,0,0,1,.459.866,4.694,4.694,0,0,1,.263,1.08c0,.024.005.062.012.119s.012.114.014.154a10.6,10.6,0,0,1-.033,1.886,2.662,2.662,0,0,1-.4,1.12,2.857,2.857,0,0,1-.323.429,1.739,1.739,0,0,1-.4.3,2.307,2.307,0,0,1-1.048.352q-.089,0-.16,0m-.221-7.161-.084,0a1.7,1.7,0,0,0-.358.055h0a1.642,1.642,0,0,0-.429.167,2.411,2.411,0,0,0-.406.334,2.285,2.285,0,0,0-.47.621,4.939,4.939,0,0,0-.445,2.5,4.666,4.666,0,0,0,.439,1.853,2.99,2.99,0,0,0,.961,1.167,1.74,1.74,0,0,0,.872.269,1.8,1.8,0,0,0,.293,0,2.125,2.125,0,0,0,.963-.327,1.559,1.559,0,0,0,.363-.267,2.714,2.714,0,0,0,.3-.4,2.476,2.476,0,0,0,.375-1.042,10.415,10.415,0,0,0,.032-1.853c0-.037-.006-.084-.013-.142s-.011-.1-.012-.125a4.5,4.5,0,0,0-.252-1.031,2.9,2.9,0,0,0-.427-.811,3.706,3.706,0,0,0-.573-.508,2.8,2.8,0,0,0-.6-.375,1.663,1.663,0,0,0-.525-.086m-.468-.034h0Zm1.108,6.688a.851.851,0,0,1-.491-.227,3.4,3.4,0,0,1-.449-.429,4.14,4.14,0,0,1-.474-.715,5,5,0,0,1-.364-.786,4.185,4.185,0,0,1-.182-1.107,3.981,3.981,0,0,1,.083-1.192,4.816,4.816,0,0,1,.316-.761,2.3,2.3,0,0,1,.88-1.092.7.7,0,0,1,.252-.089.609.609,0,0,1,.226.053h0a2.692,2.692,0,0,1,.593.417,3.244,3.244,0,0,1,.523.5,3.413,3.413,0,0,1,.4.945,6.9,6.9,0,0,1,.162,1.372,11.574,11.574,0,0,1,.021,1.236,1.882,1.882,0,0,1-.161.653,2.157,2.157,0,0,1-.584.869,2.085,2.085,0,0,1-.385.24.922.922,0,0,1-.348.113h-.02m-.416-6.208h0a.553.553,0,0,0-.176.068,2.171,2.171,0,0,0-.8,1.006,4.724,4.724,0,0,0-.3.728,3.8,3.8,0,0,0-.077,1.132,4,4,0,0,0,.172,1.056,4.834,4.834,0,0,0,.35.756,3.961,3.961,0,0,0,.45.681,3.2,3.2,0,0,0,.424.405.646.646,0,0,0,.383.186.738.738,0,0,0,.273-.093,1.9,1.9,0,0,0,.351-.218,2.02,2.02,0,0,0,.529-.8,1.7,1.7,0,0,0,.145-.59,11.481,11.481,0,0,0-.021-1.212,6.878,6.878,0,0,0-.155-1.329,3.24,3.24,0,0,0-.374-.891,3.012,3.012,0,0,0-.487-.461,2.478,2.478,0,0,0-.539-.385.506.506,0,0,0-.148-.042" transform="translate(-179.71 -373.297)" fill="#fff"/>
          <path id="Trazado_878570" data-name="Trazado 878570" d="M265.751,413.881q.05-.079.257-.081a1.074,1.074,0,0,1,.191.014.22.22,0,0,1,.108.085,12,12,0,0,1,.99,2.446q.609,1.834,1.021,3.43a5.92,5.92,0,0,1,.17.738.171.171,0,0,1-.121.188.761.761,0,0,1-.108.025q-.185.01-.3-.4-.184-.794-.426-1.662l-.027-.094-.422.051q-.911.086-1.508.128l-1.1.077-.192.5a7.871,7.871,0,0,0-.4,1.256.945.945,0,0,1-.06.209.315.315,0,0,1-.131.1.7.7,0,0,1-.28.072l-.076,0a.369.369,0,0,1-.288-.09l-.081-.082.168-.526q.131-.4,1.025-2.667.314-.868.871-2.176a14,14,0,0,1,.72-1.546m.6,1.26-.237-.562-.02.039a.438.438,0,0,0-.044.1.651.651,0,0,0-.031.126,4.809,4.809,0,0,1-.209.576q-.106.264-.306.82-.132.39-.787,2.013l-.068.166.825-.063a6.994,6.994,0,0,0,1.863-.233,10.617,10.617,0,0,0-.371-1.244q-.363-1.1-.615-1.738" transform="translate(-237.144 -373.167)" fill="#fff"/>
          <path id="Trazado_878571" data-name="Trazado 878571" d="M262.343,420.192a.455.455,0,0,1-.357-.122l-.117-.119.186-.58c.089-.269.425-1.144,1.027-2.673.208-.577.5-1.31.872-2.178a13.882,13.882,0,0,1,.728-1.56c.053-.082.163-.122.336-.123a1.035,1.035,0,0,1,.214.016.3.3,0,0,1,.16.118,11.8,11.8,0,0,1,1.006,2.474c.405,1.221.749,2.377,1.023,3.437a4.972,4.972,0,0,1,.173.756.263.263,0,0,1-.184.283.7.7,0,0,1-.134.03c-.261.016-.365-.345-.4-.463-.123-.532-.266-1.09-.426-1.663l0-.016-.342.041c-.611.058-1.119.1-1.513.128l-1.037.073-.17.442a7.816,7.816,0,0,0-.4,1.24.882.882,0,0,1-.07.237.381.381,0,0,1-.171.136.793.793,0,0,1-.317.082l-.076,0h-.008m-.259-.292.04.041a.3.3,0,0,0,.22.062l.072,0a.605.605,0,0,0,.242-.062.264.264,0,0,0,.091-.06.858.858,0,0,0,.049-.182,8,8,0,0,1,.407-1.271l.213-.554,1.157-.081c.393-.027.9-.07,1.506-.127l.5-.06.049.172c.161.577.3,1.137.427,1.667.06.2.139.325.207.322,0,0,.019,0,.088-.022.033-.012.055-.032.051-.092a5.527,5.527,0,0,0-.167-.718c-.272-1.057-.615-2.209-1.019-3.424a11.053,11.053,0,0,0-.972-2.414c-.039-.049-.058-.055-.059-.055a.949.949,0,0,0-.171-.011c-.152,0-.176.036-.176.037l0,0a14.16,14.16,0,0,0-.711,1.529c-.369.865-.661,1.595-.87,2.171-.594,1.507-.938,2.4-1.025,2.665Zm2.677-6.889h0Zm-1.246,4.644.125-.308c.434-1.074.7-1.749.786-2.008.137-.381.237-.65.307-.825a4.4,4.4,0,0,0,.2-.557.725.725,0,0,1,.035-.141.551.551,0,0,1,.051-.115l.109-.218.318.753c.168.425.375,1.012.617,1.743a8.375,8.375,0,0,1,.376,1.269c.006.121.01.188-1.95.332Zm1.613-3.694q0,.013,0,.025a3.894,3.894,0,0,1-.215.6c-.069.172-.169.44-.3.817-.088.261-.354.94-.789,2.017l-.01.025.673-.051a13.319,13.319,0,0,0,1.766-.187c-.024-.112-.107-.406-.357-1.165-.24-.727-.446-1.31-.613-1.732Z" transform="translate(-236.155 -372.297)" fill="#fff"/>
          <path id="Trazado_878572" data-name="Trazado 878572" d="M328.454,409.727q.629-.052,2.6-.156l2.011-.106.091.081a.268.268,0,0,1,.095.148.229.229,0,0,1-.09.158.2.2,0,0,1-.171.066,4.345,4.345,0,0,0-.588.012,10.2,10.2,0,0,0-1.541.129q-.042.041.132,3.324l.175,3.3-.094.081a.544.544,0,0,1-.573.088.407.407,0,0,1-.217-.19,2.161,2.161,0,0,1-.083-.541l-.015-.277q-.247-4.667-.234-5.663l0-.134-1.207.054-1.208.045-.08-.072a.2.2,0,0,1-.073-.14q-.008-.153.253-.166l.065,0h.114q.1,0,.18,0t.223-.017q.157-.013.234-.017" transform="translate(-295.238 -369.257)" fill="#fff"/>
          <path id="Trazado_878573" data-name="Trazado 878573" d="M329.837,416.107a.542.542,0,0,1-.251-.056.493.493,0,0,1-.26-.236,1.928,1.928,0,0,1-.091-.572l-.015-.279c-.164-3.1-.243-5.007-.234-5.67v-.034l-1.105.05-1.247.046-.109-.1a.3.3,0,0,1-.1-.2c0-.092.033-.25.342-.266l.065,0h.119c.067,0,.126,0,.175,0s.116-.008.22-.016.184-.015.235-.017c.42-.035,1.295-.088,2.6-.157l2.05-.108.12.107a.346.346,0,0,1,.127.214.31.31,0,0,1-.118.231.285.285,0,0,1-.252.092,3.892,3.892,0,0,0-.568.013c-1.023.054-1.354.089-1.459.108-.005.191.018.945.14,3.246l.177,3.349-.125.109a.563.563,0,0,1-.391.158h-.04m-.655-7.045-.007.236c-.008.657.07,2.561.234,5.656l.015.277a1.963,1.963,0,0,0,.075.508.322.322,0,0,0,.17.142.45.45,0,0,0,.464-.067l.007-.007.059-.051-.172-3.256c-.176-3.326-.15-3.351-.1-3.4s.078-.076,1.6-.156a2.953,2.953,0,0,1,.615-.01c.005,0,.034.006.083-.042s.061-.085.061-.085a.25.25,0,0,0-.067-.086l-.059-.052-1.972.1c-1.3.069-2.176.121-2.594.156h0q-.075,0-.231.017c-.106.009-.181.014-.225.017s-.114,0-.184,0h-.11l-.065,0c-.076,0-.166.019-.163.067a.107.107,0,0,0,.042.075l.051.046,1.169-.043Zm-1.6-.223h0Z" transform="translate(-294.368 -368.369)" fill="#fff"/>
          <path id="Trazado_878574" data-name="Trazado 878574" d="M433.39,405.416a.521.521,0,0,1,.162-.037.339.339,0,0,1,.232.055.876.876,0,0,1,.176.45q.086.388.331,1.734.246,1.365.415,3.108.1,1.029.127,1.161.062.341.064.389a.314.314,0,0,1-.054.213.243.243,0,0,1-.192.087.207.207,0,0,1-.144-.04,5.506,5.506,0,0,1-.29-1.774q-.161-1.8-.617-4.255a1.879,1.879,0,0,0-.125-.5l-.011-.009q-.163.009-.936,1.466a7.735,7.735,0,0,1-.429.76.294.294,0,0,1-.2.106.441.441,0,0,1-.349-.211q-.129-.166-.5-.543t-.508-.543q-.232-.265-.394-.439l-.07-.082q-.084.483-.162,1.683-.016.317.073,2.418.069,1.518.073,1.8t-.049.319a.506.506,0,0,1-.27.053.538.538,0,0,1-.422-.15.944.944,0,0,1-.156-.47q-.039-.323-.1-1.5a15.207,15.207,0,0,1,.18-4.422.738.738,0,0,1,.21-.365.4.4,0,0,1,.2-.078.773.773,0,0,1,.131,0,.573.573,0,0,1,.327.107,3.407,3.407,0,0,1,.421.437q.3.357.787.868a4.258,4.258,0,0,0,.517.509q.043,0,.24-.405a10.426,10.426,0,0,1,.725-1.24,2.254,2.254,0,0,1,.581-.658" transform="translate(-386.886 -365.572)" fill="#fff"/>
          <path id="Trazado_878575" data-name="Trazado 878575" d="M428.87,412a.62.62,0,0,1-.5-.187,1.022,1.022,0,0,1-.174-.517c-.026-.218-.06-.71-.1-1.5a15.1,15.1,0,0,1,.185-4.456.813.813,0,0,1,.245-.413.493.493,0,0,1,.253-.1.885.885,0,0,1,.147,0,.66.66,0,0,1,.373.125,3.443,3.443,0,0,1,.436.451c.2.237.464.527.784.864.252.266.376.388.436.444.03-.048.082-.141.168-.317a10.568,10.568,0,0,1,.732-1.252,2.286,2.286,0,0,1,.615-.688l.01,0a.619.619,0,0,1,.191-.044.428.428,0,0,1,.3.075c.055.038.128.131.21.5.057.258.169.843.332,1.738s.3,1.958.416,3.116c.081.845.113,1.092.125,1.15.056.312.065.38.066.4a.405.405,0,0,1-.074.276.334.334,0,0,1-.262.124.3.3,0,0,1-.207-.06c-.058-.038-.167-.109-.326-1.84-.106-1.191-.314-2.62-.616-4.247-.038-.2-.064-.319-.081-.383a8.683,8.683,0,0,0-.815,1.367,4.776,4.776,0,0,1-.446.783.382.382,0,0,1-.263.133.533.533,0,0,1-.428-.247c-.084-.108-.249-.288-.491-.536s-.418-.435-.513-.548c-.124-.142-.235-.265-.328-.367-.045.332-.088.827-.13,1.475-.01.206.014,1.017.073,2.408.046,1.006.071,1.611.073,1.8,0,.269-.031.352-.085.394a.568.568,0,0,1-.328.073m-.034-6.984h-.048a.307.307,0,0,0-.154.061.64.64,0,0,0-.174.317,15.236,15.236,0,0,0-.176,4.387c.041.778.075,1.28.1,1.491a.862.862,0,0,0,.136.423.467.467,0,0,0,.352.114.487.487,0,0,0,.2-.029.811.811,0,0,0,.019-.246c0-.185-.027-.788-.073-1.792-.06-1.417-.084-2.21-.073-2.427.052-.8.107-1.371.163-1.695l.035-.2.2.237c.105.113.235.257.393.437.093.11.263.291.5.539s.415.437.5.551.186.178.269.175a.2.2,0,0,0,.137-.076,7.546,7.546,0,0,0,.415-.74c.8-1.5.929-1.512,1.015-1.516l.036,0,.033.026c.043.024.072.066.166.563.3,1.633.512,3.068.619,4.264a6.174,6.174,0,0,0,.254,1.708.12.12,0,0,0,.08.02c.087,0,.113-.039.121-.05a.225.225,0,0,0,.035-.151c0-.015-.01-.085-.063-.377-.02-.09-.062-.473-.128-1.169-.111-1.153-.251-2.2-.414-3.1s-.274-1.474-.331-1.73c-.075-.338-.132-.388-.138-.393a.257.257,0,0,0-.173-.038.426.426,0,0,0-.127.029,2.143,2.143,0,0,0-.543.625,10.4,10.4,0,0,0-.718,1.228c-.211.432-.255.454-.32.457s-.076,0-.591-.538c-.323-.34-.589-.633-.791-.872a3.357,3.357,0,0,0-.406-.423.478.478,0,0,0-.274-.088.653.653,0,0,0-.074,0m4.847,6.568,0,0,0,0" transform="translate(-386.01 -364.701)" fill="#fff"/>
          <path id="Trazado_878576" data-name="Trazado 878576" d="M496.86,397.579a.294.294,0,0,1,.129-.026.473.473,0,0,1,.287.071.565.565,0,0,1,.23.428.472.472,0,0,1-.072.281.6.6,0,0,1-.455.254.513.513,0,0,1-.209-.027.332.332,0,0,1-.279-.32.682.682,0,0,1,.368-.661m-.172,1.694q.05-.079.333-.094a.835.835,0,0,1,.345.03q.095.043.155.245a3.381,3.381,0,0,1,.086.689q.01.181.034,1.061.028,1.157.107,2.646l.066,1.241-.093.1a.416.416,0,0,1-.278.1q-.305,0-.388-.123a10.489,10.489,0,0,1-.227-2.237l-.053-1.012q-.126-2.578-.085-2.647" transform="translate(-447.738 -358.515)" fill="#fff"/>
          <path id="Trazado_878577" data-name="Trazado 878577" d="M496.577,404.518c-.245,0-.4-.056-.471-.164-.04-.06-.133-.2-.244-2.286l-.054-1.012a14.456,14.456,0,0,1-.073-2.7l0,0c.053-.083.179-.126.408-.138a.891.891,0,0,1,.389.038.445.445,0,0,1,.207.305,3.428,3.428,0,0,1,.089.711c.006.12.017.458.034,1.063.019.767.055,1.657.107,2.643l.068,1.281-.12.13a.508.508,0,0,1-.343.131m-.672-6.068c-.009.107,0,.606.092,2.6l.053,1.011a9.663,9.663,0,0,0,.211,2.189c.016.023.079.079.31.081a.323.323,0,0,0,.211-.074l.062-.068-.063-1.2c-.052-.988-.088-1.879-.107-2.648-.017-.595-.028-.941-.034-1.058a3.328,3.328,0,0,0-.082-.668c-.044-.149-.09-.18-.1-.186a.732.732,0,0,0-.3-.021.609.609,0,0,0-.25.045m.167-.636a.581.581,0,0,1-.206-.034.419.419,0,0,1-.34-.4.773.773,0,0,1,.413-.746.364.364,0,0,1,.174-.04.57.57,0,0,1,.343.086.662.662,0,0,1,.273.5.566.566,0,0,1-.087.337.694.694,0,0,1-.531.3h-.042m-.034-1.022a.589.589,0,0,0-.322.574.239.239,0,0,0,.209.234.435.435,0,0,0,.179.024.5.5,0,0,0,.385-.217.372.372,0,0,0,.053-.219.47.47,0,0,0-.194-.359.379.379,0,0,0-.223-.051.282.282,0,0,0-.085.012h0Zm-.048-.081h0Z" transform="translate(-446.868 -357.646)" fill="#fff"/>
          <path id="Trazado_878578" data-name="Trazado 878578" d="M521.456,400.58a.167.167,0,0,0,.032-.007.208.208,0,0,1,.043-.007.764.764,0,0,1,.353.077q.19.086.2.229a1.123,1.123,0,0,1-.014.144,6.153,6.153,0,0,0-.023.8q.021,1,.014,1.492-.013,2.432.039,3.415a1.747,1.747,0,0,0,.09.665q.044.017,1,0t1.594-.051l.174-.009q.109-.006.25-.018l.174-.014a.445.445,0,0,1,.3.061.2.2,0,0,1,.039.328.209.209,0,0,1-.137.089.1.1,0,0,1-.033-.008,2.711,2.711,0,0,0-.665,0q-.489.026-1.643.049a9.681,9.681,0,0,1-1.353-.034,1.163,1.163,0,0,1-.5-.17,1.021,1.021,0,0,1-.189-.473q-.046-.246-.1-1.249a4.3,4.3,0,0,1-.014-.468q.009-.029.006-.919a24.6,24.6,0,0,1,.1-3.537q.069-.338.274-.378" transform="translate(-469.909 -361.232)" fill="#fff"/>
          <path id="Trazado_878579" data-name="Trazado 878579" d="M521.872,407.038a6.22,6.22,0,0,1-.878-.04,1.2,1.2,0,0,1-.548-.194,1.057,1.057,0,0,1-.217-.522c-.032-.174-.065-.586-.1-1.264a3,3,0,0,1-.012-.493c0-.033.007-.2,0-.9a24.189,24.189,0,0,1,.1-3.56c.054-.262.171-.414.348-.449h.011l.014,0a.306.306,0,0,1,.063-.01.86.86,0,0,1,.4.085.364.364,0,0,1,.253.31.985.985,0,0,1-.015.162,6.124,6.124,0,0,0-.022.782c.014.666.018,1.169.013,1.5-.009,1.61,0,2.757.039,3.409a3.792,3.792,0,0,0,.056.581c.083,0,.314.005.935-.006s1.168-.028,1.591-.051l.174-.009q.107-.006.247-.018l.177-.014a.525.525,0,0,1,.361.081.293.293,0,0,1,.053.463.294.294,0,0,1-.2.122.168.168,0,0,1-.071-.014l-.011,0a3.359,3.359,0,0,0-.617.007c-.327.017-.866.033-1.646.049q-.272,0-.494,0m-1.57-2.473c0,.019,0,.1.016.443.035.661.068,1.077.1,1.236a.9.9,0,0,0,.16.421,1.04,1.04,0,0,0,.453.146,9.746,9.746,0,0,0,1.334.032c.767-.015,1.319-.032,1.64-.048a2.146,2.146,0,0,1,.7.009.178.178,0,0,0,.063-.053.162.162,0,0,0,.045-.1c0-.036-.04-.073-.071-.1a.354.354,0,0,0-.234-.041l-.17.014q-.143.012-.253.018l-.174.009c-.425.022-.962.04-1.6.051a5.692,5.692,0,0,1-1.033-.006c-.073-.033-.116-.086-.151-.749s-.048-1.806-.039-3.421c0-.324,0-.825-.014-1.49a6.134,6.134,0,0,1,.024-.81,1.112,1.112,0,0,0,.013-.127c0-.021,0-.085-.142-.147a.679.679,0,0,0-.309-.069l-.023,0a.276.276,0,0,1-.043.009c-.093.021-.158.123-.2.3a24.8,24.8,0,0,0-.095,3.517c0,.8,0,.911-.008.94m4.4,2.242h0Zm-4.491-2.262h0Z" transform="translate(-469.04 -360.363)" fill="#fff"/>
          <path id="Trazado_878580" data-name="Trazado 878580" d="M579.154,394.926a1.012,1.012,0,0,1,.173-.019l.272,0c0-.013.014-.007.044.017a1.045,1.045,0,0,1,.067.437q.011.2.071.939t.08,1.1q.02.372.016.516,0,.086.006.22t0,.182a.514.514,0,0,0,.02.171q.011,0,.339-.391l.667-.8q.338-.405.349-.416.185-.211.634-.79.613-.779,1.065-1.3a.206.206,0,0,1,.149-.075.224.224,0,0,1,.155.049q.08.063.082.1a3.63,3.63,0,0,1-.588.835q-.133.16-.648.833t-.731.914a4.976,4.976,0,0,0-.348.43v.019a.027.027,0,0,0-.01.02.749.749,0,0,0,.135.29q.274.445,1.028,1.812t.951,1.8a1.289,1.289,0,0,1,.13.385.178.178,0,0,1-.1.168.29.29,0,0,1-.206.011.721.721,0,0,1-.223-.3q-.183-.364-.983-1.886t-.954-1.754l-.1-.158-.093.1a9.924,9.924,0,0,1-.644.809l-.071.1.09,1.3a11.41,11.41,0,0,0,.14,1.409.226.226,0,0,1-.021.221.432.432,0,0,1-.373.163.952.952,0,0,1-.218-.008.643.643,0,0,1-.45-.263,2.987,2.987,0,0,1-.146-.911q-.076-.829-.125-1.745t-.041-1.386q.012-.6-.022-1.645a10.782,10.782,0,0,1-.011-1.234.3.3,0,0,1,.121-.179.878.878,0,0,1,.312-.084" transform="translate(-521.883 -355.957)" fill="#fff"/>
          <path id="Trazado_878581" data-name="Trazado 878581" d="M582.176,401.622a.371.371,0,0,1-.116-.019l-.012,0a.753.753,0,0,1-.266-.346c-.122-.243-.453-.878-.982-1.885s-.848-1.593-.949-1.746l-.032-.053,0,0a10.165,10.165,0,0,1-.647.812l-.046.065.088,1.263a10.384,10.384,0,0,0,.135,1.383.313.313,0,0,1-.029.3.519.519,0,0,1-.45.21,1.026,1.026,0,0,1-.241-.009.735.735,0,0,1-.512-.305,2.467,2.467,0,0,1-.161-.955c-.051-.551-.093-1.14-.125-1.748s-.046-1.084-.041-1.392c.008-.4,0-.952-.022-1.641a6.561,6.561,0,0,1-.006-1.266.386.386,0,0,1,.162-.23.935.935,0,0,1,.343-.1,1.065,1.065,0,0,1,.187-.02l.245,0a.137.137,0,0,1,.136.036c.045.036.081.1.1.506.007.133.031.448.071.936s.067.862.08,1.1.019.423.017.523c0,.051.005.126.006.217,0,.055,0,.1,0,.131l.194-.229.666-.8c.341-.409.349-.417.355-.423.116-.132.328-.4.626-.78.407-.518.767-.956,1.068-1.3a.3.3,0,0,1,.215-.107.318.318,0,0,1,.219.069c.078.062.115.115.118.17s.007.131-.609.9c-.089.107-.306.387-.647.832s-.591.758-.736.92-.255.3-.322.394l0,.029-.006.006a1,1,0,0,0,.114.215c.184.3.53.909,1.031,1.818s.82,1.513.954,1.8a1.325,1.325,0,0,1,.138.42.269.269,0,0,1-.146.254l-.013.006a.408.408,0,0,1-.156.032m-.05-.2a.2.2,0,0,0,.127-.008c.044-.028.049-.054.048-.078a1.169,1.169,0,0,0-.121-.351c-.129-.282-.448-.885-.947-1.791s-.844-1.514-1.026-1.808a.727.727,0,0,1-.149-.334.111.111,0,0,1,.008-.049v-.022l.018-.026a4.934,4.934,0,0,1,.355-.439c.142-.159.387-.465.727-.909s.561-.729.651-.837a5.349,5.349,0,0,0,.561-.765.341.341,0,0,0-.04-.036.132.132,0,0,0-.091-.029.112.112,0,0,0-.083.043c-.3.345-.657.782-1.062,1.3-.3.392-.513.652-.637.794-.01.011-.065.075-.347.414l-.667.8c-.355.422-.355.422-.407.425-.105.006-.11-.089-.119-.261q0-.049,0-.186t-.006-.216c0-.1,0-.273-.016-.516s-.039-.607-.08-1.1-.064-.807-.072-.942a2.07,2.07,0,0,0-.039-.364l-.249,0a.878.878,0,0,0-.15.015l-.012,0a.767.767,0,0,0-.275.07.208.208,0,0,0-.08.125,10.677,10.677,0,0,0,.015,1.2c.022.692.029,1.248.022,1.65-.005.3.008.768.04,1.379s.074,1.191.125,1.741a2.747,2.747,0,0,0,.13.866.55.55,0,0,0,.389.224.845.845,0,0,0,.2.006c.154-.008.254-.048.3-.118a.13.13,0,0,0,.016-.131,8.438,8.438,0,0,1-.149-1.443l-.093-1.331.091-.127a10.088,10.088,0,0,0,.642-.806l.01-.013.178-.193.161.265c.1.154.425.747.957,1.759s.861,1.644.983,1.888a.713.713,0,0,0,.176.259m-3.843-7.368h0Z" transform="translate(-521.012 -355.089)" fill="#fff"/>
          <path id="Trazado_878582" data-name="Trazado 878582" d="M239.5,874.226c-.882,1.257-39.239,1.55-40.206,1.381s-1.226-7.972-1.21-9.077,1-2.04.718-2.786-.688-1.589-.31-2.292a1.611,1.611,0,0,1,1.627-.706,4.677,4.677,0,0,1,1.73.716,5.369,5.369,0,0,0,2.4.924,1.82,1.82,0,0,0,1.935-1.356c.206-1.516-2.051-2.243-2.413-3.729a2.141,2.141,0,0,1,1.647-2.385,3.9,3.9,0,0,1,3.039.714,28.685,28.685,0,0,1,2.448,2.08,12.875,12.875,0,0,0,18.952-2.619,8.207,8.207,0,0,1,1.179-1.551,1.956,1.956,0,0,1,1.79-.54c1.086.316,1.36,1.8.979,2.862s-1.181,1.942-1.557,3.008-.091,2.548,1,2.852a2.054,2.054,0,0,0,2-.812,20.2,20.2,0,0,0,1.213-1.931,2.546,2.546,0,0,1,1.8-1.265c.759-.052,1.563.677,1.34,1.4-.306,5.382.782,13.848-.1,15.105" transform="translate(-178.633 -769.191)" fill="#fff"/>
          <path id="Trazado_878583" data-name="Trazado 878583" d="M568.035,822.23a1,1,0,1,0-.129-1.368.972.972,0,0,0,.129,1.368" transform="translate(-511.941 -739.903)" fill="#fff"/>
          <path id="Trazado_878584" data-name="Trazado 878584" d="M228.753,831.248c.731.574,1.962-.016,2.767.414s-.049-1.674-.78-2.248-2.092-.758-2.525-.206a1.521,1.521,0,0,0,.539,2.039" transform="translate(-205.61 -747.486)" fill="#fff"/>
          <path id="Trazado_878585" data-name="Trazado 878585" d="M330.342,71.611a7.634,7.634,0,0,0-7.275,3.011s-2.546,4.813-2.689,5.863a7.214,7.214,0,0,0,6.407,8.008c2.824.383,5.425,0,6.613-1.912a50.183,50.183,0,0,0,3.5-6.965,7.324,7.324,0,0,0-6.552-8.006" transform="translate(-288.862 -64.512)" fill="#683a32"/>
          <path id="Trazado_878586" data-name="Trazado 878586" d="M352.8,126.514a7.03,7.03,0,0,1-3.571-.987c-4.423-2.565-4.075-5.919-4.058-6.061a.331.331,0,0,1,.658.078c-.014.126-.292,3.076,3.732,5.41a6.317,6.317,0,0,0,5.339.553,7.679,7.679,0,0,0,2.332-1.236.331.331,0,0,1,.429.505,8.193,8.193,0,0,1-2.529,1.352,7.429,7.429,0,0,1-2.332.385" transform="translate(-311.264 -107.472)" fill="#38231b"/>
          <path id="Trazado_878587" data-name="Trazado 878587" d="M323.7,145.7a.332.332,0,0,1-.293-.487l2.273-4.288a.331.331,0,1,1,.586.31l-2.273,4.288a.331.331,0,0,1-.293.176" transform="translate(-291.617 -126.928)" fill="#38231b"/>
          <path id="Trazado_878588" data-name="Trazado 878588" d="M338.96,169.9a.332.332,0,0,1-.293-.487l2.273-4.288a.331.331,0,1,1,.586.31l-2.273,4.288a.331.331,0,0,1-.293.176" transform="translate(-305.378 -148.754)" fill="#38231b"/>
          <path id="Trazado_878589" data-name="Trazado 878589" d="M360.533,186.214a.332.332,0,0,1-.293-.487l2.273-4.288a.331.331,0,0,1,.586.31l-2.273,4.288a.331.331,0,0,1-.293.176" transform="translate(-324.832 -163.463)" fill="#38231b"/>
          <path id="Trazado_878590" data-name="Trazado 878590" d="M386.841,193.054a.332.332,0,0,1-.293-.487l2.273-4.288a.331.331,0,1,1,.586.31l-2.273,4.288a.331.331,0,0,1-.293.176" transform="translate(-348.557 -169.632)" fill="#38231b"/>
          <path id="Trazado_878591" data-name="Trazado 878591" d="M417.358,191.476a.332.332,0,0,1-.293-.487l2.273-4.288a.331.331,0,1,1,.586.31l-2.273,4.288a.331.331,0,0,1-.293.176" transform="translate(-376.077 -168.209)" fill="#38231b"/>
        </g>
      </g>
    </g>
    <g id="Grupo_1101768" data-name="Grupo 1101768" transform="translate(354.794 2185.195)">
      <g id="Grupo_1101767" data-name="Grupo 1101767" transform="translate(0 0.003)" clip-path="url(#clip-path-2)">
        <path id="Trazado_878592" data-name="Trazado 878592" d="M145.678,598.859H81.816s-2.334,4.22-2.094,14.559,5.579,15.731,8.663,19.06,11.462,6.611,25.6,6.611,22.267-2.188,25.6-6.611,7.326-9.037,8.169-18.886a1.087,1.087,0,0,0,.015-.174c.771-9.917-2.094-14.559-2.094-14.559" transform="translate(-70.374 -528.754)" fill="#edc79f"/>
        <path id="Trazado_878593" data-name="Trazado 878593" d="M73.8,117.953a69.939,69.939,0,0,1-16.428-1.658c-4.613-1.185-7.052-2.921-7.052-5.02a2.715,2.715,0,0,1,.072-.616,17.775,17.775,0,0,1-5.569-3.85A39.462,39.462,0,0,1,34.24,79.86c0-8.95,5.568-20.029,16.1-32.04l.377-.429c3.666-4.167,5.339-6.068,5.339-18.441q0-.592,0-1.178c.015-3.778.03-7.346-1.435-9.927-.7-1.237-2.966-3.269-5.155-5.234-3.765-3.379-5.866-5.345-5.277-6.457.6-1.141,5.265-2.7,9.616-3.736A91.293,91.293,0,0,1,73.832,0C85.711-.064,93.486,1.421,96.313,4.292A3.938,3.938,0,0,1,97.548,7.2c-.036,1.74-.773,3.48-1.705,5.684-.37.876-.754,1.781-1.134,2.784a.4.4,0,0,1-.739-.28c.386-1.017.771-1.929,1.145-2.812a15.729,15.729,0,0,0,1.643-5.392A3.136,3.136,0,0,0,95.75,4.847C94.44,3.516,91.905,2.491,88.218,1.8A78.394,78.394,0,0,0,73.836.8,90.478,90.478,0,0,0,53.994,3.187c-5.726,1.365-8.815,2.8-9.1,3.337,0,0-.166.364,1.286,1.908.989,1.05,2.428,2.342,3.82,3.592,2.339,2.1,4.549,4.083,5.314,5.432,1.568,2.763,1.554,6.434,1.538,10.32q0,.584,0,1.175c0,12.671-1.85,14.774-5.536,18.963l-.376.428C40.531,60.206,35.03,71.105,35.03,79.86A38.674,38.674,0,0,0,45.4,106.271a17.3,17.3,0,0,0,5.629,3.812.4.4,0,0,1,.209.5,2.014,2.014,0,0,0-.13.7c0,1.674,2.294,3.185,6.458,4.254A69.155,69.155,0,0,0,73.8,117.163a69.506,69.506,0,0,0,16.263-1.634c4.184-1.071,6.489-2.581,6.489-4.254a1.881,1.881,0,0,0-.011-.191.4.4,0,0,1,.217-.393,14.016,14.016,0,0,0,3.176-2.119,38.9,38.9,0,0,0,12.7-28.713,26.766,26.766,0,0,0-2.173-9.946.4.4,0,1,1,.732-.3,27.544,27.544,0,0,1,2.231,10.243,39.494,39.494,0,0,1-12.96,29.3,14.579,14.579,0,0,1-3.123,2.123c0,2.1-2.453,3.83-7.083,5.015A70.3,70.3,0,0,1,73.8,117.953" transform="translate(-30.232 -0.003)" fill="#38231b"/>
        <path id="Trazado_878594" data-name="Trazado 878594" d="M539.2,260.676a.4.4,0,0,1-.333-.181c-1.874-2.914-3.866-5.6-5.467-7.762a57.673,57.673,0,0,1-3.326-4.756c-2.819-4.921-4.836-9.255-5.116-20.255-.01-.384-.012-.772-.008-1.152a.4.4,0,0,1,.395-.39h0a.4.4,0,0,1,.39.4c0,.37,0,.747.008,1.122.275,10.815,2.251,15.062,5.012,19.882.654,1.141,1.868,2.78,3.275,4.678,1.607,2.169,3.608,4.869,5.5,7.8a.4.4,0,0,1-.332.609" transform="translate(-463.493 -199.704)" fill="#38231b"/>
        <path id="Trazado_878595" data-name="Trazado 878595" d="M533.281,160.772c-.975,0-2.853-.4-4.555-3.044a5.974,5.974,0,0,1-.173-6.7l.017-.021c2.262-2.615,4.609-5.008,6.879-7.322,4.15-4.231,8.07-8.226,10.115-12.231,1.956-3.829,2-7.406.134-11.6a10.148,10.148,0,0,0-6.231-5.86c-4.215-1.426-10.288-.939-17.561,1.407a68.467,68.467,0,0,0-6.745,2.587.4.4,0,0,1-.444-.086c-.077-.08-1.885-2-1.431-5.951a8.023,8.023,0,0,1,3.746-5.851.39.39,0,0,1,.063-.028c.542-.189,1.089-.373,1.626-.546,9.542-3.078,17.641-3.536,24.071-1.361a20.4,20.4,0,0,1,7.131,4.118,21.476,21.476,0,0,1,5.257,7.357c3.166,7.124,3.043,13.84-.376,20.533-2.768,5.418-7.227,9.963-11.948,14.776a108.378,108.378,0,0,0-8.7,9.6.4.4,0,0,1-.209.14,2.684,2.684,0,0,1-.667.072m-4.1-9.257a5.111,5.111,0,0,0,.213,5.785c1.8,2.806,3.73,2.734,4.229,2.66a110.32,110.32,0,0,1,8.672-9.558c4.679-4.769,9.1-9.273,11.809-14.583,3.3-6.467,3.42-12.961.357-19.853a20.694,20.694,0,0,0-5.062-7.089,19.617,19.617,0,0,0-6.857-3.958c-6.266-2.12-14.2-1.661-23.576,1.364-.519.167-1.047.345-1.572.527a7.356,7.356,0,0,0-3.32,5.236,7.231,7.231,0,0,0,1.048,5.1,69.022,69.022,0,0,1,6.544-2.494c7.435-2.4,13.679-2.884,18.056-1.4a10.9,10.9,0,0,1,6.7,6.288c1.969,4.431,1.922,8.217-.153,12.279-2.1,4.112-6.061,8.149-10.254,12.424-2.259,2.3-4.593,4.682-6.836,7.274" transform="translate(-453.135 -90.785)" fill="#38231b"/>
        <path id="Trazado_878596" data-name="Trazado 878596" d="M195.953,944.484c-12.314,0-18.8-2.286-21.967-3.4-.285-.1-.545-.192-.782-.272a.4.4,0,1,1,.254-.748c.24.081.5.174.79.275,3.206,1.129,9.873,3.479,22.713,3.349,13.244-.133,21.034-2.447,22.4-3.06a.4.4,0,0,1,.324.721c-1.393.627-9.33,3-22.711,3.129q-.515.005-1.017.005" transform="translate(-152.691 -829.998)" fill="#38231b"/>
        <path id="Trazado_878597" data-name="Trazado 878597" d="M147.667,57.707a47.769,47.769,0,0,1-16.044-2.31c-.863-.264-1.678-.513-2.5-.72A46.8,46.8,0,0,1,124,53.023a32.375,32.375,0,0,0-4.8-1.485.4.4,0,0,1,.163-.773,32.987,32.987,0,0,1,4.907,1.517,46.166,46.166,0,0,0,5.049,1.628c.838.212,1.662.464,2.535.73,3.564,1.09,8,2.446,17.57,2.258a54.216,54.216,0,0,0,15.221-2.577c4.344-1.411,6.5-2.8,6.666-3.2a.4.4,0,0,1,.393-.361h.015a.4.4,0,0,1,.38.409c-.055,1.494-6.236,3.585-6.94,3.819a54.879,54.879,0,0,1-15.719,2.7q-.916.018-1.772.018m23.641-6.57h0" transform="translate(-104.969 -44.815)" fill="#38231b"/>
        <path id="Trazado_878598" data-name="Trazado 878598" d="M205.06,106.665a.4.4,0,0,1-.389-.329c-.012-.069-1.173-6.943-1.265-7.45a.4.4,0,0,1,.777-.141c.093.512,1.219,7.177,1.267,7.46a.4.4,0,0,1-.324.455.4.4,0,0,1-.066.006" transform="translate(-179.589 -86.898)" fill="#38231b"/>
        <path id="Trazado_878599" data-name="Trazado 878599" d="M161.6,551.237c0,2.641-14.3,4.783-31.931,4.783s-31.931-2.141-31.931-4.783,14.3-6.45,31.931-6.45,31.931,3.808,31.931,6.45" transform="translate(-86.298 -481.012)" fill="#edc79f"/>
        <path id="Trazado_878600" data-name="Trazado 878600" d="M135.681,611.756a92.55,92.55,0,0,1-19.271-2.044,49.838,49.838,0,0,1-11.237-3.569.4.4,0,0,1,.365-.7,49.061,49.061,0,0,0,11.039,3.5,91.74,91.74,0,0,0,19.1,2.026c15.281,0,28.041-3.772,31.178-5.7a.4.4,0,0,1,.413.674c-1.964,1.2-6.357,2.626-11.465,3.711a98.428,98.428,0,0,1-20.126,2.1" transform="translate(-92.673 -534.364)" fill="#38231b"/>
        <path id="Trazado_878601" data-name="Trazado 878601" d="M79.591,583.622a.4.4,0,0,1-.34-.193,35.51,35.51,0,0,1-4.083-10.547c-.862-5.171.349-15.856,2.537-18.243,2.128-2.321,14.915-4.71,15.458-4.81a.4.4,0,0,1,.144.777c-3.629.672-13.4,2.8-15.019,4.567-1.968,2.147-3.145,12.748-2.34,17.579a35.4,35.4,0,0,0,3.982,10.272.4.4,0,0,1-.339.6" transform="translate(-66.122 -485.459)" fill="#38231b"/>
        <path id="Trazado_878602" data-name="Trazado 878602" d="M222.052,87.181c-12.579,0-19.1-3.28-19.374-3.42a.4.4,0,0,1,.361-.7c.065.033,6.645,3.332,19.012,3.332s19.74-4.035,19.813-4.076a.4.4,0,1,1,.386.69c-.075.042-7.613,4.176-20.2,4.176" transform="translate(-178.762 -72.635)" fill="#38231b"/>
        <path id="Trazado_878603" data-name="Trazado 878603" d="M152.926,17.693a.4.4,0,0,1-.12-.771c.166-.053,4.089-1.308,6.085-1.745.254-.056.568-.135.966-.234a69.973,69.973,0,0,1,18.483-2.1c11.5,0,18.323,2.438,18.39,2.462a.4.4,0,0,1-.27.742c-.066-.024-6.77-2.414-18.12-2.414a69.237,69.237,0,0,0-18.291,2.08c-.4.1-.723.182-.989.24-1.959.429-5.972,1.712-6.013,1.725a.394.394,0,0,1-.121.019" transform="translate(-134.675 -11.336)" fill="#38231b"/>
        <path id="Trazado_878604" data-name="Trazado 878604" d="M20.355,1005.359c.064-1.051-5.392-5.991-12.14-6.119s-8.671,3.315-8.13,5.39,3.434,5.556,10.31,4.587,9.9-2.807,9.959-3.858" transform="translate(0 -882.262)" fill="#bf602e"/>
        <path id="Trazado_878605" data-name="Trazado 878605" d="M18.961,1053.349a14.106,14.106,0,0,1-5.5-.975,4.72,4.72,0,0,1-.66-.33.4.4,0,0,1,.417-.671,4.018,4.018,0,0,0,.55.273c3.125,1.32,6.962.965,10.3.442a.4.4,0,0,1,.122.781,34.185,34.185,0,0,1-5.229.479" transform="translate(-11.135 -928.243)" fill="#38231b"/>
        <path id="Trazado_878606" data-name="Trazado 878606" d="M132.426,1052.3a.4.4,0,0,1-.086-.781c.394-.088.693-.159.969-.231a.4.4,0,1,1,.2.765c-.286.074-.593.147-1,.237a.386.386,0,0,1-.086.01" transform="translate(-116.575 -928.211)" fill="#38231b"/>
        <path id="Trazado_878607" data-name="Trazado 878607" d="M6.559,1028.175a.4.4,0,0,1-.312-.638,2.195,2.195,0,0,1,1.332-.742,3.589,3.589,0,0,0,.535-.167.415.415,0,0,1,.058-.02,22.109,22.109,0,0,1,5.21-.84h.007a.4.4,0,0,1,.007.79,21.3,21.3,0,0,0-5,.807,4.4,4.4,0,0,1-.623.195,1.48,1.48,0,0,0-.905.463.4.4,0,0,1-.312.152" transform="translate(-5.443 -905.688)" fill="#38231b"/>
        <path id="Trazado_878608" data-name="Trazado 878608" d="M106.146,1028.77a.4.4,0,0,1-.1-.013,28.939,28.939,0,0,0-3.948-.7.4.4,0,1,1,.091-.785,29.66,29.66,0,0,1,4.055.724.4.4,0,0,1-.1.778" transform="translate(-89.838 -907.011)" fill="#38231b"/>
        <path id="Trazado_878609" data-name="Trazado 878609" d="M13.722,1008.313a.4.4,0,0,1-.216-.726,11.756,11.756,0,0,1,8.439-1.4.4.4,0,1,1-.178.77,11.159,11.159,0,0,0-7.831,1.291.394.394,0,0,1-.214.063" transform="translate(-11.767 -888.159)" fill="#38231b"/>
        <path id="Trazado_878610" data-name="Trazado 878610" d="M130.771,1097.921c.6,4.7,7.244,3.975,10.778,2.474s9.894-6.714,9.541-7.774-8.481-1.678-13.074-.972-7.686,2.827-7.244,6.272" transform="translate(-115.425 -963.59)" fill="#bf602e"/>
        <path id="Trazado_878611" data-name="Trazado 878611" d="M148.619,1141.852c-.3,0-.606-.013-.923-.039a4.752,4.752,0,0,1-.73-.108.4.4,0,0,1,.187-.768,4.005,4.005,0,0,0,.608.088c3.2.267,5.257-.937,8.372-2.759l.523-.305a.4.4,0,1,1,.4.683l-.522.3c-2.841,1.661-4.966,2.9-7.913,2.9" transform="translate(-129.495 -1004.7)" fill="#38231b"/>
        <path id="Trazado_878612" data-name="Trazado 878612" d="M246.017,1123.219a.4.4,0,0,1-.175-.749c.455-.225,1.053-.524,1.648-.845a.395.395,0,0,1,.375.7c-.606.327-1.212.63-1.673.858a.394.394,0,0,1-.175.041" transform="translate(-216.868 -990.281)" fill="#38231b"/>
        <path id="Trazado_878613" data-name="Trazado 878613" d="M205.582,1112.869a.4.4,0,0,1-.141-.764,14.317,14.317,0,0,1,2.262-.67.4.4,0,1,1,.116.782,13.844,13.844,0,0,0-2.1.626.393.393,0,0,1-.141.026" transform="translate(-181.166 -981.322)" fill="#38231b"/>
        <path id="Trazado_878614" data-name="Trazado 878614" d="M245.747,1106.058a.4.4,0,0,1-.1-.777,6.763,6.763,0,0,1,1.377-.206.4.4,0,0,1,.024.79,6.068,6.068,0,0,0-1.195.179.4.4,0,0,1-.1.014" transform="translate(-216.63 -975.712)" fill="#38231b"/>
        <path id="Trazado_878615" data-name="Trazado 878615" d="M136.784,1127.589a.4.4,0,0,1-.366-.544,4.922,4.922,0,0,1,1.7-1.714,18.792,18.792,0,0,1,4.584-2.06.4.4,0,1,1,.26.746,18.515,18.515,0,0,0-4.369,1.946,4.907,4.907,0,0,0-1.439,1.379.4.4,0,0,1-.366.246" transform="translate(-120.423 -991.758)" fill="#38231b"/>
        <path id="Trazado_878616" data-name="Trazado 878616" d="M144.333,1106.523a.395.395,0,0,1-.28-.673c.09-.091,2.272-2.233,6.936-2.655a.4.4,0,0,1,.071.787,10.971,10.971,0,0,0-6.448,2.426.394.394,0,0,1-.279.115" transform="translate(-127.088 -974.049)" fill="#38231b"/>
        <path id="Trazado_878617" data-name="Trazado 878617" d="M413.942,998.174c.133-4.594-6.344-4.907-9.959-4s-6.927,4.29-6.748,5.359,4.3,3.543,8.814,3.56,7.8-1.548,7.894-4.918" transform="translate(-350.726 -877.432)" fill="#bf602e"/>
        <path id="Trazado_878618" data-name="Trazado 878618" d="M409.7,1033.407c-.327,0-.654-.012-.978-.04a38.045,38.045,0,0,1-4.612-.54.4.4,0,1,1,.192-.766,39.623,39.623,0,0,0,4.487.52,20.107,20.107,0,0,0,7.682-1.342.4.4,0,0,1,.293.734,21.746,21.746,0,0,1-7.064,1.436" transform="translate(-356.541 -910.492)" fill="#38231b"/>
        <path id="Trazado_878619" data-name="Trazado 878619" d="M434.015,1016.421a.4.4,0,0,1-.1-.776c.375-.1.755-.194,1.13-.271a.4.4,0,1,1,.159.774c-.359.074-.722.161-1.081.259a.4.4,0,0,1-.1.014" transform="translate(-382.859 -896.503)" fill="#38231b"/>
        <path id="Trazado_878620" data-name="Trazado 878620" d="M475.25,1014.056a.394.394,0,0,1-.177-.042,7.414,7.414,0,0,0-2.9-.585c-.393-.027-.8-.054-1.2-.1a.4.4,0,0,1,.1-.784c.384.047.779.074,1.161.1a8.124,8.124,0,0,1,3.207.667.4.4,0,0,1-.178.748" transform="translate(-415.525 -894.006)" fill="#38231b"/>
        <path id="Trazado_878621" data-name="Trazado 878621" d="M490.613,999.656a.4.4,0,0,1-.311-.151,6.266,6.266,0,0,0-4.581-2.235.4.4,0,1,1-.024-.79,6.953,6.953,0,0,1,5.225,2.536.4.4,0,0,1-.31.639" transform="translate(-428.502 -879.827)" fill="#38231b"/>
        <path id="Trazado_878622" data-name="Trazado 878622" d="M466.876,1057.878a10.105,10.105,0,0,1-1.212-.072.395.395,0,1,1,.094-.784,10.239,10.239,0,0,0,4.489-.505.395.395,0,1,1,.291.734,10.826,10.826,0,0,1-3.663.627" transform="translate(-410.845 -932.812)" fill="#38231b"/>
      </g>
    </g>
  </g>
</svg>
