<svg id="Grupo_1102076" data-name="Grupo 1102076" xmlns="http://www.w3.org/2000/svg" xmlns:xlink="http://www.w3.org/1999/xlink" width="335" height="334.871" viewBox="0 0 335 334.871">
  <defs>
    <clipPath id="clip-path">
      <rect id="Rectángulo_402107" data-name="Rectángulo 402107" width="335" height="334.871" fill="none"/>
    </clipPath>
  </defs>
  <g id="Grupo_1102075" data-name="Grupo 1102075" clip-path="url(#clip-path)">
    <path id="Trazado_882357" data-name="Trazado 882357" d="M300.576,248.821c-.271.364-.538.725-.8,1.081-.093.125-.186.247-.279.368-.279.372-.562.745-.84,1.113q-1.261,1.657-2.527,3.253-1.388,1.754-2.777,3.436-.612.747-1.225,1.481a.091.091,0,0,0-.016.021c-.04.044-.077.093-.117.137s-.065.077-.1.113q-2.37,2.829-4.7,5.435c-.186.206-.372.417-.558.623-.218.243-.437.485-.655.724-2.377,2.626-4.693,5.066-6.9,7.312q-.933.954-1.843,1.854-1.407,1.4-2.741,2.687l0,0c-2.87,2.764-5.469,5.131-7.7,7.1,0,0,0,0-.008,0-2.2,1.93-4.026,3.464-5.377,4.569q-2.3,1.888-4.648,3.69a198.011,198.011,0,0,1-80.007,36.505,210.428,210.428,0,0,1-26.626,3.857,208.208,208.208,0,0,1-21.549.627,200.4,200.4,0,0,1-38.449-4.556,170.255,170.255,0,0,1-38.574-13.31c-14.742-7.252-37.8-18.6-47.678-42.583C-5.332,252,3.54,234.719,13.088,202.276v0A359.052,359.052,0,0,0,21.682,166.9c1.585-8.409,2.676-15.9,3.4-22.637,5.012-46.521-7.377-56.876,6.031-82.5C55.527,15.116,124.636-4.162,177.564.743c63.887,5.92,139.763,50.32,154.868,126.811,9.826,49.754-10.219,92.018-31.856,121.267" transform="translate(0 0)" fill="#fce7d5"/>
    <path id="Trazado_882358" data-name="Trazado 882358" d="M265.167,349.672a77.332,77.332,0,0,1-49.047-17.164c-11.768-9.311-22.238-22.39-31.119-38.873a218.311,218.311,0,0,1-18.758-49.3A148.435,148.435,0,0,1,204.474,251a92.167,92.167,0,0,1,34.577,19.891c9.627,8.981,17.256,20.472,22.675,34.155,5.024,12.684,8.294,27.6,9.742,44.4-2.127.148-4.229.223-6.291.223Z" transform="translate(-99.104 -145.66)" fill="#99b9ff"/>
    <path id="Trazado_882359" data-name="Trazado 882359" d="M467.919,349.672a77.334,77.334,0,0,0,49.048-17.164c11.768-9.311,22.238-22.39,31.118-38.873a218.3,218.3,0,0,0,18.758-49.3A148.435,148.435,0,0,0,528.612,251a92.167,92.167,0,0,0-34.577,19.891c-9.627,8.981-17.256,20.472-22.675,34.155-5.024,12.684-8.294,27.6-9.742,44.4,2.127.148,4.229.223,6.29.223Z" transform="translate(-275.189 -145.66)" fill="#31a854"/>
    <path id="Trazado_882360" data-name="Trazado 882360" d="M239.382,475.385c-20.328,0-37.792-3.337-52.075-9.935,10.289-7.612,29.718-19.6,50.007-19.6a45.751,45.751,0,0,1,24.429,6.883c6.786,4.2,13.045,10.385,18.676,18.451a213.911,213.911,0,0,1-41.037,4.2" transform="translate(-111.661 -265.788)" fill="#99b9ff"/>
    <path id="Trazado_882361" data-name="Trazado 882361" d="M515.48,475.385a213.985,213.985,0,0,1-41.037-4.2c5.631-8.066,11.89-14.254,18.676-18.451a45.752,45.752,0,0,1,24.429-6.883c20.288,0,39.715,11.989,50.007,19.6-14.282,6.6-31.746,9.935-52.07,9.935Z" transform="translate(-282.835 -265.788)" fill="#acdbb9"/>
    <path id="Trazado_882362" data-name="Trazado 882362" d="M376.21,242.1c-28.449-19.642-44.09-43.035-46.511-69.583-4.227-46.345,32.37-90.6,45.624-104.976,19.449,20.309,33.312,40.173,41.254,59.12,7.124,17,9.56,33.471,7.24,48.967-2.768,18.491-12.1,35.578-27.724,50.786A122.718,122.718,0,0,1,376.21,242.1" transform="translate(-196.346 -40.266)" fill="#d5eddc"/>
    <path id="Trazado_882363" data-name="Trazado 882363" d="M158.9,272.629a.607.607,0,0,1-.554-.361A224.983,224.983,0,0,1,143.6,226.01a.605.605,0,0,1,.135-.5.572.572,0,0,1,.468-.214,197.609,197.609,0,0,1,22.554,1.485.606.606,0,1,1-.152,1.2,195.42,195.42,0,0,0-21.676-1.467,226.855,226.855,0,0,0,14.528,45.258.605.605,0,0,1-.309.8.6.6,0,0,1-.245.052" transform="translate(-85.598 -134.31)" fill="#99b9ff"/>
    <path id="Trazado_882364" data-name="Trazado 882364" d="M281.449,349.894a84.219,84.219,0,0,1-50.39-16.248c-14.484-10.466-27.107-25.9-37.519-45.868a.606.606,0,1,1,1.074-.56c16.407,31.468,47.006,67.464,99.711,60.611-3.955-66.674-33.183-104.082-89.342-114.349a.606.606,0,0,1,.218-1.192c27.555,5.038,49.094,17,64.019,35.553,15.538,19.315,24.4,46.393,26.347,80.481a.606.606,0,0,1-.523.634,101.338,101.338,0,0,1-13.6.938" transform="translate(-115.336 -138.471)" fill="#fff"/>
    <path id="Trazado_882365" data-name="Trazado 882365" d="M456.247,345.733a101.268,101.268,0,0,1-13.588-.937.605.605,0,0,1-.523-.634C443.291,323.9,446.9,306,452.85,290.967c5.827-14.713,14.074-27.111,24.512-36.847A99.51,99.51,0,0,1,514.688,232.6c14.177-4.645,30.689-7.1,49.077-7.3a.6.6,0,0,1,.468.214.606.606,0,0,1,.135.5c-.058.33-6.013,33.347-23.882,64.309-10.512,18.214-23.031,32.172-37.209,41.486a84.07,84.07,0,0,1-47.031,13.927m-12.869-2.064c49.892,6.482,79.769-25.729,96.06-53.955,16.3-28.249,22.627-58.205,23.6-63.193-75.9,1.077-115.051,39.4-119.661,117.149" transform="translate(-263.574 -134.311)" fill="#fff"/>
    <path id="Trazado_882366" data-name="Trazado 882366" d="M220.666,471.858c-20.007,0-44.683-3.2-64.878-15.674a.606.606,0,0,1-.1-.958,127.173,127.173,0,0,1,21.944-15.6c12.087-6.816,30.42-14.343,49.117-11.5,18.454,2.8,33.964,15.024,46.1,36.318a.606.606,0,0,1-.363.883,214.068,214.068,0,0,1-40.856,6.224c-3.439.194-7.118.313-10.969.313m-63.551-16.283c23.7,14.318,53.519,15.941,74.451,14.761a216.813,216.813,0,0,0,39.843-5.98c-11.882-20.534-26.965-32.322-44.837-35.037-18.355-2.789-36.419,4.638-48.34,11.359a128.782,128.782,0,0,0-21.118,14.9" transform="translate(-92.7 -254.853)" fill="#fff"/>
    <path id="Trazado_882367" data-name="Trazado 882367" d="M498.294,471.858c-3.852,0-7.528-.119-10.968-.313a214.07,214.07,0,0,1-40.856-6.224.606.606,0,0,1-.363-.883c12.135-21.295,27.645-33.514,46.1-36.318,18.7-2.839,37.03,4.687,49.117,11.5a127.2,127.2,0,0,1,21.945,15.6.606.606,0,0,1-.1.959c-20.193,12.472-44.871,15.674-64.878,15.674m-50.743-7.5a216.97,216.97,0,0,0,39.869,5.981c20.924,1.178,50.729-.449,74.424-14.762A128.907,128.907,0,0,0,540.7,440.663c-11.915-6.715-29.97-14.134-48.317-11.344-17.87,2.717-32.951,14.5-44.832,35.036" transform="translate(-265.895 -254.853)" fill="#fff"/>
    <path id="Trazado_882368" data-name="Trazado 882368" d="M365.028,235.437a.6.6,0,0,1-.332-.1c-32.651-21.42-50.593-47.483-53.327-77.464-1.258-13.794.727-28.474,5.9-43.633a169.906,169.906,0,0,1,18.325-36.973,216.4,216.4,0,0,1,28.333-35.255.607.607,0,0,1,.847.01c42.35,42.4,60.994,82.611,55.413,119.509-3.81,25.195-18.529,43.929-30.206,55.208a122.59,122.59,0,0,1-24.671,18.626.606.606,0,0,1-.283.07M364.34,43.3A218.255,218.255,0,0,0,336.6,77.95c-12.512,19.376-26.837,48.951-24.02,79.818,2.692,29.5,20.347,55.188,52.481,76.357a123.314,123.314,0,0,0,24.112-18.284c11.533-11.147,26.067-29.651,29.823-54.5,5.5-36.372-12.891-76.082-54.651-118.037" transform="translate(-185.401 -24.946)" fill="#fff"/>
    <path id="Trazado_882369" data-name="Trazado 882369" d="M440.58,164.961a8.812,8.812,0,1,1-8.812-8.812,8.812,8.812,0,0,1,8.812,8.812" transform="translate(-252.141 -93.087)" fill="#caddff"/>
    <path id="Trazado_882370" data-name="Trazado 882370" d="M556.055,82.885a.6.6,0,0,1-.469-.222C529.145,50.4,492.3,30.466,454.511,27.974a.606.606,0,0,1,.08-1.209,134.2,134.2,0,0,1,55.827,16.518A156.91,156.91,0,0,1,556.523,81.9a.606.606,0,0,1-.468.99" transform="translate(-270.615 -15.955)"/>
    <path id="Trazado_882371" data-name="Trazado 882371" d="M560.276,92.459a.6.6,0,0,1-.44-.189c-20.311-21.416-45.2-35.416-71.984-40.487a.606.606,0,1,1,.225-1.19c27.033,5.118,52.151,19.241,72.638,40.843a.606.606,0,0,1-.439,1.023" transform="translate(-290.534 -30.155)"/>
    <path id="Trazado_882372" data-name="Trazado 882372" d="M674.534,166.5a.6.6,0,0,1-.236-.048l-5.1-2.161a.606.606,0,0,1-.159-1.017c1.954-1.685,4.064-3.209,4.086-3.225a.606.606,0,0,1,.949.374l1.06,5.354a.606.606,0,0,1-.594.723m-3.96-2.941,3.144,1.332-.652-3.294c-.618.465-1.539,1.173-2.492,1.963" transform="translate(-398.713 -95.346)"/>
    <path id="Trazado_882373" data-name="Trazado 882373" d="M728.495,192.169a3.34,3.34,0,1,1,1.99-.658,3.342,3.342,0,0,1-1.99.658m1.629-1.145h0Zm-1.638-4.331a2.141,2.141,0,1,0,.315.023,2.117,2.117,0,0,0-.315-.023" transform="translate(-432.289 -110.573)"/>
    <path id="Trazado_882374" data-name="Trazado 882374" d="M45.986,539.572a3.477,3.477,0,0,1-.495-.036,3.332,3.332,0,1,1,.495.036m-.01-5.476a2.132,2.132,0,1,0,1.714.859,2.121,2.121,0,0,0-1.714-.859" transform="translate(-25.417 -317.675)"/>
    <path id="Trazado_882375" data-name="Trazado 882375" d="M222.412,46.318a.606.606,0,0,1-.581-.435l-.886-3.006a.606.606,0,0,1,1.162-.342l.886,3.005a.606.606,0,0,1-.581.777" transform="translate(-131.7 -25.098)"/>
    <path id="Trazado_882376" data-name="Trazado 882376" d="M227.522,63.652a.606.606,0,0,1-.581-.435l-.886-3.006a.606.606,0,0,1,1.162-.342l.885,3.005a.607.607,0,0,1-.581.777" transform="translate(-134.746 -35.431)"/>
    <path id="Trazado_882377" data-name="Trazado 882377" d="M212.79,58.044a.606.606,0,0,1-.171-1.187l3.005-.886a.606.606,0,0,1,.343,1.162l-3.005.886a.6.6,0,0,1-.172.025" transform="translate(-126.491 -33.352)"/>
    <path id="Trazado_882378" data-name="Trazado 882378" d="M230.124,52.936a.606.606,0,0,1-.171-1.187l3.006-.886a.606.606,0,1,1,.342,1.162l-3.005.886a.6.6,0,0,1-.172.025" transform="translate(-136.825 -30.307)"/>
    <path id="Trazado_882379" data-name="Trazado 882379" d="M744.609,336.535a.606.606,0,0,1-.581-.435l-.886-3.005a.606.606,0,0,1,1.162-.342l.886,3.005a.607.607,0,0,1-.582.777" transform="translate(-443.003 -198.108)"/>
    <path id="Trazado_882380" data-name="Trazado 882380" d="M749.719,353.87a.607.607,0,0,1-.581-.435l-.885-3.006a.606.606,0,0,1,1.162-.342l.885,3.005a.606.606,0,0,1-.41.752.613.613,0,0,1-.171.025" transform="translate(-446.049 -208.442)"/>
    <path id="Trazado_882381" data-name="Trazado 882381" d="M734.987,348.262a.606.606,0,0,1-.171-1.187l3.005-.886a.606.606,0,0,1,.343,1.162l-3.005.886a.605.605,0,0,1-.172.025" transform="translate(-437.795 -206.363)"/>
    <path id="Trazado_882382" data-name="Trazado 882382" d="M752.321,343.152a.606.606,0,0,1-.171-1.186l3.005-.886a.606.606,0,1,1,.342,1.162l-3.005.886a.619.619,0,0,1-.172.025" transform="translate(-448.128 -203.316)"/>
    <path id="Trazado_882383" data-name="Trazado 882383" d="M105,160.493a.6.6,0,0,1-.107-.009.606.606,0,0,1-.491-.7,91.691,91.691,0,0,1,27.4-50.751.606.606,0,1,1,.835.877,90.482,90.482,0,0,0-27.04,50.085.606.606,0,0,1-.6.5" transform="translate(-62.234 -64.898)"/>
    <path id="Trazado_882384" data-name="Trazado 882384" d="M79.486,149.027a.607.607,0,0,1-.6-.691,96.325,96.325,0,0,1,7.467-25.954,98.436,98.436,0,0,1,29.153-37.072.606.606,0,1,1,.753.95,97.23,97.23,0,0,0-28.8,36.618,95.148,95.148,0,0,0-7.373,25.628.606.606,0,0,1-.6.521" transform="translate(-47.023 -50.779)"/>
    <path id="Trazado_882385" data-name="Trazado 882385" d="M75.855,685.806a.6.6,0,0,1-.248-.053c-.266-.12-26.807-12.318-43.083-43.451a.606.606,0,0,1,1.073-.561c16.074,30.746,42.244,42.79,42.507,42.908a.606.606,0,0,1-.249,1.158" transform="translate(-19.348 -382.374)"/>
    <path id="Trazado_882386" data-name="Trazado 882386" d="M82.5,727.337a.6.6,0,0,1-.306-.083A72.218,72.218,0,0,1,62.467,710.18a.606.606,0,0,1,.975-.719,70.925,70.925,0,0,0,19.364,16.747.606.606,0,0,1-.307,1.128" transform="translate(-37.169 -422.792)"/>
    <path id="Trazado_882387" data-name="Trazado 882387" d="M341.121,711.933a210.474,210.474,0,0,1-26.6,3.849,208.181,208.181,0,0,1-21.53.626c-.565-34.122-5.945-54.085-9.414-63.5-.024-.065-.048-.133-.073-.2a44.073,44.073,0,0,0-2.847-6.474l13.3-.218,9.555-.154L320,645.6l14.846-.242a3.245,3.245,0,0,1,.162.541c.258,1.082.751,3.679,1.349,7.512q.242,1.563.509,3.392c.3,2.1.618,4.471.941,7.063.032.267.065.533.1.808q.388,3.193.771,6.813c.073.678.141,1.369.214,2.072,1.078,10.771,2.007,23.961,2.229,38.379" transform="translate(-167.31 -384.721)"/>
    <path id="Trazado_882388" data-name="Trazado 882388" d="M272.7,708.26a208.2,208.2,0,0,1-21.53.626,200.5,200.5,0,0,1-38.415-4.547c-.557-2.027-.957-3.736-1.187-5.089-1.906-11.284-1-24.022.743-35.156a203.113,203.113,0,0,1,6.32-27.374c.335-1.066.529-1.644.529-1.644l29.583-2.342,3.4,5.763,5.666,9.616.283.481,3.134,5.319Z" transform="translate(-125.487 -377.199)"/>
    <path id="Trazado_882389" data-name="Trazado 882389" d="M171.958,238.5a22.517,22.517,0,0,0,3.364-7.758c1.242-5.84,1.879-15.727-7.492-22.822-23.479-17.777-37.086,2.1-44.369,3.113-9.255,1.283-15.659-6.6-27.534-7.8-5.513-.558-26.226-2.966-34.521,22.119a52.513,52.513,0,0,0-1.94,8.512c-.562,3.65-1.487,18.539-16.681,20.059-29.338,2.935-51.653,48.733-27.838,66.456,18.476,13.749,36.128-4.466,48.161-3.079,13.519,1.559,48.608,26.907,52.564-21.254,1.112-13.538,12.846-20.409,18.511-21.873,4.6-1.188,26.539,1.972,28.535.99,12.134-5.972,10.8-18.471,8.21-25.987-1.911-5.55-.354-8.6,1.029-10.679" transform="translate(-2.927 -119.563)"/>
    <path id="Trazado_882390" data-name="Trazado 882390" d="M389.272,489.5c.632-14.554,3.742-14.524,14.57-15.631,4.619-.473,7.506-2.345,13.329,10.466,1.585,3.487,17.32,35.1,21.485,39.2,7.794,7.679,25.671,6.467,32.169,4.495,2.836-.86,9.387-15.742,14.553-14.348,5.485,1.48-2.516,9.771-1.577,9.927,3.484.578,6.275-.606,9.027-1.442,4.466-1.357,8.1-3.76,9.767-4.271,2.115-.646,3.474,1.311,3.175,3.5-.429,3.133-1.918,8.131-6.007,10.943-7.311,5.028-21.877,6.727-26.985,7.233-3.891.386-46.414,16.039-57.34-.39-2.273-3.418-26.432-43.562-26.166-49.687" transform="translate(-232.06 -282.273)" fill="#fff"/>
    <path id="Trazado_882391" data-name="Trazado 882391" d="M434.127,546.4c-8.54,0-16.217-1.913-20.088-7.733-1.432-2.153-26.554-43.45-26.267-50.049.641-14.738,4.1-15.09,14.369-16.132l.744-.076c.445-.045.874-.1,1.291-.161,4.471-.613,7.475-.41,12.652,10.98,1.912,4.207,17.369,35.093,21.359,39.023,7.7,7.583,25.458,6.2,31.568,4.346.867-.263,2.558-2.718,4.2-5.092,3.309-4.8,7.059-10.239,10.691-9.261a2.987,2.987,0,0,1,2.2,1.762c.813,2.129-1.215,5.237-2.557,7.293-.2.311-.434.665-.6.948a16.374,16.374,0,0,0,6.873-1.132c.4-.13.807-.259,1.208-.381a43.127,43.127,0,0,0,6.989-3,20.544,20.544,0,0,1,2.776-1.273,2.849,2.849,0,0,1,2.769.507,4.069,4.069,0,0,1,1.183,3.656c-.321,2.341-1.573,8.134-6.264,11.36-6.849,4.71-20.025,6.618-27.269,7.337-.569.057-2.278.536-4.44,1.143-7.1,1.993-21.124,5.931-33.375,5.931m-27.7-73.144a15.615,15.615,0,0,0-2.089.193c-.43.059-.872.12-1.332.166l-.746.076c-10.251,1.041-12.686,1.288-13.281,14.979-.255,5.86,23.746,45.838,26.065,49.325,8.934,13.434,40.314,4.623,52.127,1.306a43.478,43.478,0,0,1,4.648-1.183c7.128-.706,20.076-2.573,26.7-7.129,4.293-2.952,5.452-8.344,5.75-10.526a2.9,2.9,0,0,0-.768-2.569,1.655,1.655,0,0,0-1.63-.271,20.629,20.629,0,0,0-2.582,1.195,44.159,44.159,0,0,1-7.186,3.077c-.395.12-.791.247-1.189.375-2.452.788-4.987,1.6-8.113,1.084a.689.689,0,0,1-.523-.4c-.212-.482.113-.98.983-2.312,1.134-1.738,3.032-4.648,2.439-6.2a1.833,1.833,0,0,0-1.381-1.025c-2.807-.755-6.6,4.755-9.378,8.779-2.279,3.307-3.628,5.2-4.84,5.564-6.313,1.915-24.709,3.3-32.77-4.643-4.326-4.262-20.2-36.279-21.611-39.384-4.061-8.935-6.571-10.474-9.3-10.474m-18.053,15.389h0Z" transform="translate(-231.165 -281.413)"/>
    <path id="Trazado_882392" data-name="Trazado 882392" d="M200.158,398.982a33.849,33.849,0,0,1,23.637-26.494,80.483,80.483,0,0,1,34.35-2.955c31.372,3.934,39.478,40.9,40.961,49.624a1.673,1.673,0,0,1-1.553,1.95l-8.543.521,1.806,65.054s-9.8,14.948-70,0c0,0-17.577-6.822-23.563,20.105,0,0-12.215-1.648-12.078-15.154.1-10.006,9.907-64.884,14.982-92.651" transform="translate(-110.39 -219.888)" fill="#f08c32"/>
    <path id="Trazado_882393" data-name="Trazado 882393" d="M218.548,430.254s-16.784.958-19.662,1.007c-7.194.123-19.69.285-19.039-.092.912-.528,5.913-44.506,38.4-51.182Z" transform="translate(-107.2 -226.525)" fill="#f08c32"/>
    <path id="Trazado_882394" data-name="Trazado 882394" d="M180.184,426.294a1.547,1.547,0,0,1-1.54-1.728,75.367,75.367,0,0,1,9.326-27.9c8.972-15.263,22.533-23.956,40.306-25.839a.606.606,0,1,1,.128,1.2C187.5,376.366,180.78,416.67,179.849,424.7a.335.335,0,0,0,.084.268.323.323,0,0,0,.257.11c5.032-.088,36.608-.627,40.883-.7l3.075-14.056a.606.606,0,1,1,1.183.258l-3.279,14.992-.479.009s-35.962.614-41.361.708Z" transform="translate(-106.491 -221.064)"/>
    <path id="Trazado_882395" data-name="Trazado 882395" d="M524.394,618.1c0-11.89-41.988-21.529-93.784-21.529s-93.784,9.639-93.784,21.529l.14,7.488c0,11.89,41.988,21.529,93.784,21.529s93.784-9.639,93.784-21.529Z" transform="translate(-200.796 -355.642)" fill="#acdbb9"/>
    <path id="Trazado_882396" data-name="Trazado 882396" d="M429.856,646.831c-25.095,0-48.694-2.245-66.451-6.322-18.017-4.136-27.939-9.752-27.939-15.814l-.14-7.476c0-6.073,9.922-11.689,27.939-15.825,17.757-4.077,41.356-6.321,66.451-6.321s48.694,2.245,66.451,6.321c18.01,4.134,27.932,9.749,27.939,15.807l.14,7.483c0,6.073-9.922,11.689-27.939,15.825-17.756,4.077-41.356,6.322-66.451,6.322m-.14-50.547c-25.006,0-48.51,2.234-66.18,6.291-17.158,3.939-27,9.273-27,14.633l.14,7.476c0,5.372,9.841,10.706,27,14.644,17.67,4.057,41.173,6.291,66.18,6.291s48.509-2.234,66.18-6.291c17.158-3.938,27-9.272,27-14.633l-.14-7.476v-.011c0-5.36-9.84-10.694-27-14.633-17.67-4.056-41.173-6.291-66.18-6.291m94.39,20.924h0Z" transform="translate(-199.901 -354.747)"/>
    <path id="Trazado_882397" data-name="Trazado 882397" d="M436.43,679.014c-40.921,0-76.923-6.028-89.585-15a.606.606,0,1,1,.7-.988c12.474,8.838,48.195,14.775,88.885,14.775,42.763,0,79.963-6.591,90.466-16.029a.606.606,0,1,1,.81.9c-10.706,9.621-48.24,16.34-91.276,16.34" transform="translate(-206.616 -394.418)" fill="#99b9ff"/>
    <path id="Trazado_882398" data-name="Trazado 882398" d="M655.377,621.573a.44.44,0,0,0-.387.667l4.48,7.452a2.854,2.854,0,0,0,1.559,1.174c6.4,2.261,22.644,3.066,32.208-.132a2.273,2.273,0,0,0,1.13-.743l5.835-7.405Z" transform="translate(-390.428 -370.545)"/>
    <path id="Trazado_882399" data-name="Trazado 882399" d="M700.493,613.066c0,3.167-10.345,5.734-23.106,5.734s-23.106-2.567-23.106-5.734,10.345-5.734,23.106-5.734,23.106,2.567,23.106,5.734" transform="translate(-390.044 -362.055)"/>
    <path id="Trazado_882400" data-name="Trazado 882400" d="M700.819,615.333c0,2.807-10.325,5.082-23.061,5.082s-22.092-2.138-22.092-4.945,9.355-5.219,22.092-5.219,23.061,2.275,23.061,5.082" transform="translate(-390.869 -363.796)" fill="#caddff"/>
    <path id="Trazado_882401" data-name="Trazado 882401" d="M701.087,618.456c0,2.36-9.239,4.273-20.636,4.273s-20.636-1.913-20.636-4.273,9.239-4.273,20.636-4.273,20.636,1.913,20.636,4.273" transform="translate(-393.343 -366.14)" fill="#99b9ff"/>
    <path id="Trazado_882402" data-name="Trazado 882402" d="M701.468,620.226a7.894,7.894,0,0,0,3.13-.1,1.251,1.251,0,0,0,.969-1.7c-.081-.248-.274-.3-.461-.375-1.692.981-3.72,1.627-5.148.462-.646-.669-.885-.752-.64-.144a4.029,4.029,0,0,0,2.15,1.851" transform="translate(-416.836 -368.394)" fill="#5479f7"/>
    <path id="Trazado_882403" data-name="Trazado 882403" d="M682.454,627.8c-1.718,0-3.241-.05-4.487-.113-4.8-.244-12.708-1.169-13.5-2.615a.606.606,0,0,1,1.043-.615c1.312,1.229,21.171,4.285,35.847-.395a.606.606,0,1,1,.368,1.154,65.817,65.817,0,0,1-19.274,2.583" transform="translate(-396.074 -372.009)" fill="#caddff"/>
    <path id="Trazado_882404" data-name="Trazado 882404" d="M391.161,605.557l5.4,11.1a3.315,3.315,0,0,0,1.72,1.6c7.065,3.083,24.983,4.181,35.534-.18a2.538,2.538,0,0,0,1.247-1.013l6.437-10.1Z" transform="translate(-233.187 -360.997)"/>
    <path id="Trazado_882405" data-name="Trazado 882405" d="M442.384,594.016c0,4.318-11.413,7.819-25.492,7.819s-25.492-3.5-25.492-7.819,11.413-7.819,25.492-7.819,25.492,3.5,25.492,7.819" transform="translate(-233.33 -349.456)"/>
    <path id="Trazado_882406" data-name="Trazado 882406" d="M442.743,597.108c0,3.827-11.391,6.93-25.443,6.93s-24.373-2.916-24.373-6.743,10.321-7.118,24.373-7.118,25.443,3.1,25.443,6.93" transform="translate(-234.24 -351.829)" fill="#caddff"/>
    <path id="Trazado_882407" data-name="Trazado 882407" d="M442.539,599.188c0,3.218-10.193,5.827-22.767,5.827a68.25,68.25,0,0,1-15.123-1.471c-2.626-.6-6.643-1.429-7.8-4.247a2.032,2.032,0,0,1-.122-1.349,1.963,1.963,0,0,1,1.572-1.374c.369-.053.82-.035,1.02-.35.168-.266.053-.644.229-.905.305-.456,1.073-.111,1.54-.4.235-.145.349-.428.564-.6.666-.538,1.708.264,2.493-.079.635-.278,1-1.256,1.672-1.086a3.77,3.77,0,0,1,.4.178c.876.336,1.787-.863,2.672-.552.245.086.441.28.687.364a1.672,1.672,0,0,0,.827-.008,20.848,20.848,0,0,0,3.11-.54c.943-.332,1.568-.831,2.643-.517.345.1.725.267,1.046.1.142-.072.251-.2.4-.261.437-.174.822.322,1.244.528,1.04.51,2.287-.81,3.358-.367a2.2,2.2,0,0,0,.6.247,1.22,1.22,0,0,0,.585-.158,2.7,2.7,0,0,1,1.337-.276,1.32,1.32,0,0,1,1.1.727,2.535,2.535,0,0,1,1.593-.046c.229.1.423.261.645.374,1.363.692,3.2-.7,4.47.149.254.447.874.486,1.386.444a1.853,1.853,0,0,1,.924.072.592.592,0,0,1,.337.762c.408.3.978.121,1.486.086s1.167.34.985.815a2.861,2.861,0,0,1,1.62.384,13.16,13.16,0,0,1,2.062,1.752c.59.5,1.2.878,1.2,1.772" transform="translate(-236.468 -352.847)" fill="#99b9ff"/>
    <path id="Trazado_882408" data-name="Trazado 882408" d="M420.341,600.042l2.151-1,2.151-.287,2.58.143-2.088.557a.9.9,0,0,1-.126.024Z" transform="translate(-250.582 -356.94)" fill="#caddff"/>
    <path id="Trazado_882409" data-name="Trazado 882409" d="M451.875,614.356l.109-.6a.389.389,0,0,1,.357-.318l1.737-.116a.39.39,0,0,1,.21.045l.408.22a.388.388,0,0,1-.184.73h-.824a.394.394,0,0,0-.139.026l-1.151.443a.388.388,0,0,1-.522-.432" transform="translate(-269.377 -365.627)" fill="#caddff"/>
    <path id="Trazado_882410" data-name="Trazado 882410" d="M479.623,603.012l1.466.533a.527.527,0,0,0,.228.03l1.361-.124a.519.519,0,0,0,.188-.053l.081-.04a.526.526,0,1,1,.338.987l-1.665.333a.526.526,0,0,1-.475-.144Z" transform="translate(-285.923 -359.48)" fill="#caddff"/>
    <path id="Trazado_882411" data-name="Trazado 882411" d="M415.946,608.434l.813.731a.279.279,0,0,1,.017.4l-1.125,1.206a.279.279,0,0,1-.477-.249l.216-1.005c0-.01,0-.021,0-.031l.087-.87a.279.279,0,0,1,.464-.18" transform="translate(-247.498 -362.669)" fill="#caddff"/>
    <path id="Trazado_882412" data-name="Trazado 882412" d="M427.677,657.172l6.16,9.869a3.583,3.583,0,0,0,1.963,1.424c8.065,2.742,28.517,3.719,40.561-.16a2.876,2.876,0,0,0,1.423-.9l7.348-8.982Z" transform="translate(-254.956 -391.767)"/>
    <path id="Trazado_882413" data-name="Trazado 882413" d="M486.147,646.907c0,3.841-13.027,6.954-29.1,6.954s-29.1-3.113-29.1-6.954,13.027-6.954,29.1-6.954,29.1,3.113,29.1,6.954" transform="translate(-255.12 -381.502)"/>
    <path id="Trazado_882414" data-name="Trazado 882414" d="M486.557,649.657c0,3.4-13,6.164-29.042,6.164s-27.821-2.593-27.821-6,11.781-6.331,27.821-6.331,29.042,2.76,29.042,6.164" transform="translate(-256.158 -383.612)" fill="#99b9ff"/>
    <path id="Trazado_882415" data-name="Trazado 882415" d="M486.895,653.445c0,2.862-11.635,5.183-25.988,5.183s-25.988-2.321-25.988-5.183,11.635-5.183,25.988-5.183,25.988,2.32,25.988,5.183" transform="translate(-259.273 -386.455)" fill="#caddff"/>
    <path id="Trazado_882416" data-name="Trazado 882416" d="M452.805,663.641c0,.3-.738.538-1.649.538s-1.649-.241-1.649-.538.738-.538,1.649-.538,1.649.241,1.649.538" transform="translate(-267.97 -395.303)" fill="#99b9ff"/>
    <path id="Trazado_882417" data-name="Trazado 882417" d="M492.745,655.441c0,.277-.818.5-1.828.5s-1.828-.225-1.828-.5.818-.5,1.828-.5,1.828.225,1.828.5" transform="translate(-291.566 -390.436)" fill="#99b9ff"/>
    <path id="Trazado_882418" data-name="Trazado 882418" d="M502.185,657.321c0,.237-.786.43-1.756.43s-1.756-.193-1.756-.43.786-.43,1.756-.43,1.756.193,1.756.43" transform="translate(-297.279 -391.599)" fill="#99b9ff"/>
    <path id="Trazado_882419" data-name="Trazado 882419" d="M500.939,651.928c0,.4-.706.717-1.577.717s-1.577-.321-1.577-.717.706-.717,1.577-.717,1.577.321,1.577.717" transform="translate(-296.75 -388.213)" fill="#99b9ff"/>
    <path id="Trazado_882420" data-name="Trazado 882420" d="M528.983,661.867c0,.4-.706.717-1.577.717s-1.577-.321-1.577-.717.706-.717,1.577-.717,1.577.321,1.577.717" transform="translate(-313.468 -394.138)" fill="#99b9ff"/>
    <path id="Trazado_882421" data-name="Trazado 882421" d="M539.274,660.126c0,.317-.626.574-1.4.574s-1.4-.257-1.4-.574.626-.573,1.4-.573,1.4.257,1.4.573" transform="translate(-319.817 -393.186)" fill="#99b9ff"/>
    <path id="Trazado_882422" data-name="Trazado 882422" d="M509.1,653.348c0,.4-.706.717-1.577.717s-1.577-.321-1.577-.717.706-.717,1.577-.717,1.577.321,1.577.717" transform="translate(-301.617 -389.06)" fill="#99b9ff"/>
    <path id="Trazado_882423" data-name="Trazado 882423" d="M517.48,653.133c0,.277-.674.5-1.505.5s-1.506-.225-1.506-.5.674-.5,1.506-.5,1.505.225,1.505.5" transform="translate(-306.696 -389.06)" fill="#99b9ff"/>
    <path id="Trazado_882424" data-name="Trazado 882424" d="M484.686,657.817c0,.218-.8.394-1.792.394s-1.792-.177-1.792-.394.8-.394,1.792-.394,1.792.177,1.792.394" transform="translate(-286.805 -391.917)" fill="#99b9ff"/>
    <path id="Trazado_882425" data-name="Trazado 882425" d="M447.234,660.125c0,.218-.8.394-1.792.394s-1.792-.177-1.792-.394.8-.394,1.792-.394,1.792.177,1.792.394" transform="translate(-264.478 -393.293)" fill="#99b9ff"/>
    <path id="Trazado_882426" data-name="Trazado 882426" d="M493.519,659.168c0,.277-.674.5-1.505.5s-1.506-.225-1.506-.5.674-.5,1.506-.5,1.505.225,1.505.5" transform="translate(-292.412 -392.658)" fill="#99b9ff"/>
    <path id="Trazado_882427" data-name="Trazado 882427" d="M491.567,650.648c0,.277-.674.5-1.505.5s-1.506-.225-1.506-.5.674-.5,1.506-.5,1.505.225,1.505.5" transform="translate(-291.248 -387.579)" fill="#99b9ff"/>
    <path id="Trazado_882428" data-name="Trazado 882428" d="M570.669,544.074c.011.116.018.232.018.349,0,6.34-16.281,9.866-36.364,9.866-19.376,0-35.211-3.17-36.3-9.2l1.13,10.493c1.43,13.279,12.852,23.8,27.25,24.992a92.156,92.156,0,0,0,17.42-.259c13.6-1.467,24.309-11.376,25.809-23.935l1.327-11.109a2.646,2.646,0,0,0-.289-1.2" transform="translate(-296.891 -324.345)" fill="#fff"/>
    <path id="Trazado_882429" data-name="Trazado 882429" d="M532.747,580.578q-3.691,0-7.289-.3c-14.647-1.21-26.339-11.948-27.8-25.531l-1.13-10.494a.606.606,0,0,1,1.2-.172c.942,5.205,15.29,8.7,35.706,8.7,21.054,0,35.758-3.808,35.758-9.26,0-.1-.006-.2-.015-.292a.606.606,0,0,1,1.144-.329,3.239,3.239,0,0,1,.353,1.468.606.606,0,0,1,0,.071l-1.327,11.108c-1.54,12.9-12.374,22.958-26.346,24.466a95.626,95.626,0,0,1-10.246.558m-34.7-33.537.816,7.58c1.4,13.006,12.629,23.29,26.7,24.452a91.527,91.527,0,0,0,17.3-.258c13.407-1.447,23.8-11.072,25.273-23.4l1.051-8.8C564.619,552,547.983,554,533.43,554c-14.608,0-30.419-1.884-35.386-6.958" transform="translate(-295.997 -323.45)"/>
    <path id="Trazado_882430" data-name="Trazado 882430" d="M570.6,530.186c0,5.475-16.281,9.914-36.364,9.914s-36.364-4.439-36.364-9.914,16.28-9.914,36.364-9.914,36.364,4.439,36.364,9.914" transform="translate(-296.799 -310.155)" fill="#caddff"/>
    <path id="Trazado_882431" data-name="Trazado 882431" d="M502.312,537.328c2.636,3.39,16.5,7.683,32.463,7.683,17.354,0,34.036-3.34,37.661-8.587-4.891-4.617-18.515-8.067-34.48-8.067-17.354,0-32.02,3.724-35.644,8.971" transform="translate(-299.449 -314.975)" fill="#f3f9ff"/>
    <path id="Trazado_882432" data-name="Trazado 882432" d="M624.972,537.714c0,.3-.561.537-1.254.537s-1.254-.241-1.254-.537.561-.538,1.254-.538,1.254.241,1.254.538" transform="translate(-371.076 -320.233)" fill="#caddff"/>
    <path id="Trazado_882433" data-name="Trazado 882433" d="M665.336,550.355c0,.3-.561.537-1.254.537s-1.254-.241-1.254-.537.561-.538,1.254-.538,1.254.241,1.254.538" transform="translate(-395.139 -327.768)" fill="#99b9ff"/>
    <path id="Trazado_882434" data-name="Trazado 882434" d="M579.541,561.55c0,.3-.561.538-1.254.538s-1.254-.241-1.254-.538.561-.537,1.254-.537,1.254.241,1.254.537" transform="translate(-343.993 -334.443)" fill="#caddff"/>
    <path id="Trazado_882435" data-name="Trazado 882435" d="M585.8,549.97c-.925,0-5.539-.089-5.539-1.848s4.614-1.849,5.539-1.849,5.539.089,5.539,1.849-4.615,1.848-5.539,1.848m-4.181-1.848a14.044,14.044,0,0,0,8.362,0,14.043,14.043,0,0,0-8.362,0m8.544.132h0Z" transform="translate(-345.918 -325.656)" fill="#caddff"/>
    <path id="Trazado_882436" data-name="Trazado 882436" d="M535.693,540.437c-.925,0-5.539-.089-5.539-1.848s4.614-1.849,5.539-1.849,5.539.089,5.539,1.849-4.615,1.848-5.539,1.848m-4.181-1.848a14.044,14.044,0,0,0,8.362,0,14.043,14.043,0,0,0-8.362,0m8.544.132h0Z" transform="translate(-316.046 -319.973)" fill="#caddff"/>
    <path id="Trazado_882437" data-name="Trazado 882437" d="M533.338,539.812c-18.173,0-36.97-3.935-36.97-10.519s18.8-10.52,36.97-10.52,36.97,3.935,36.97,10.52-18.8,10.519-36.97,10.519m0-19.827c-21.39,0-35.758,4.813-35.758,9.308s14.368,9.308,35.758,9.308,35.758-4.813,35.758-9.308-14.368-9.308-35.758-9.308" transform="translate(-295.905 -309.262)"/>
    <path id="Trazado_882438" data-name="Trazado 882438" d="M568.642,528.717a5.128,5.128,0,0,1-1.614-1.279,1.748,1.748,0,0,1-.174-1.939,1.323,1.323,0,0,1,1.693-.4c.624.357.884,1.195,1.548,1.471a1.832,1.832,0,0,0,1.642-.318,7.829,7.829,0,0,1,1.468-.927,1.273,1.273,0,0,1,1.547.4c.134.241.157.55.359.737a.816.816,0,0,0,.417.181,3.923,3.923,0,0,0,1.905-.321,3.19,3.19,0,0,1,1.91-.209,1.175,1.175,0,0,1,.831,1.5,4.555,4.555,0,0,1-1.966.664c-.675.188-1.381.828-1.124,1.48.115.291.411.541.353.849a.71.71,0,0,1-.275.386c-1,.829-4.171,1.739-5.358.957-.5-.33-.527-1.145-.891-1.586a7.9,7.9,0,0,0-2.27-1.649" transform="translate(-337.792 -312.942)" fill="#99b9ff"/>
    <path id="Trazado_882439" data-name="Trazado 882439" d="M615.985,546.753c2.83,1.519,7.25.636,12.3-1.188l.421-5.622c-4.8,2.735-9.347,4.913-12.659,4.325a.277.277,0,0,0-.317.309Z" transform="translate(-367.059 -321.882)" fill="#99b9ff"/>
    <path id="Trazado_882440" data-name="Trazado 882440" d="M645.879,542.927c-.159,1.559-.074,2.844.192,2.871s.61-1.214.77-2.772.073-2.844-.192-2.871-.61,1.214-.77,2.772" transform="translate(-384.987 -322.008)" fill="#caddff"/>
    <path id="Trazado_882441" data-name="Trazado 882441" d="M549.316,551.348c-2.268,2.073-6.575,2.293-11.682,1.786l-1.712-5.114c5.092,1.409,9.823,2.361,12.755,1.037a.265.265,0,0,1,.367.212Z" transform="translate(-319.485 -326.696)" fill="#99b9ff"/>
    <path id="Trazado_882442" data-name="Trazado 882442" d="M537.154,550.608c.514,1.408.736,2.62.5,2.708s-.851-.983-1.365-2.39-.736-2.62-.5-2.708.851.983,1.365,2.39" transform="translate(-319.348 -326.812)" fill="#caddff"/>
    <path id="Trazado_882443" data-name="Trazado 882443" d="M606.533,656,569.46,665.12s-5.738.193-5.528-4.69,7.188-3.721,9.724-3.133,32.877-1.3,32.877-1.3" transform="translate(-336.179 -391.068)" fill="#5479f7"/>
    <path id="Trazado_882444" data-name="Trazado 882444" d="M572.837,670.374a2.823,2.823,0,0,1-.945-.16.606.606,0,0,1,.407-1.142,1.851,1.851,0,1,0,.9-3.583,1.372,1.372,0,0,0-1.253.4.808.808,0,0,0-.023,1.013.528.528,0,0,0,.445.115.383.383,0,0,0,.275-.168.606.606,0,0,1,1.091.528,1.544,1.544,0,0,1-1.167.836,1.713,1.713,0,0,1-1.5-.458,2.011,2.011,0,0,1-.051-2.637,2.558,2.558,0,0,1,2.37-.828,3.027,3.027,0,0,1,.962,5.7,3.2,3.2,0,0,1-1.508.387" transform="translate(-340.126 -395.991)"/>
    <path id="Trazado_882445" data-name="Trazado 882445" d="M575.716,650.689l51.864-13.136s4.371-7.01-3.147-8.2L569.9,641.062s4.293-.775,5.887,3.162-.075,6.465-.075,6.465" transform="translate(-339.743 -375.181)" fill="#fff"/>
    <path id="Trazado_882446" data-name="Trazado 882446" d="M639.109,669.711l-37.073,9.121s-5.738.193-5.528-4.69,7.187-3.722,9.723-3.133,32.877-1.3,32.877-1.3" transform="translate(-355.6 -399.242)"/>
    <path id="Trazado_882447" data-name="Trazado 882447" d="M600.752,678.45a7.363,7.363,0,0,1-4.919-1.775,4.819,4.819,0,0,1-1.324-3.759,4.129,4.129,0,0,1,1.615-3.275c2.387-1.814,6.725-1.161,9.1-.61,1.776.413,20.5-.562,32.645-1.317l.243,1.591-37.155,9.141-.084,0-.119,0m-.158-8.379a5.921,5.921,0,0,0-3.493.856,2.555,2.555,0,0,0-.978,2.059,3.23,3.23,0,0,0,.853,2.548,5.8,5.8,0,0,0,3.767,1.3l28.411-6.99c-9.275.518-22.543,1.168-24.3.76a20.231,20.231,0,0,0-4.263-.534" transform="translate(-354.407 -398.052)"/>
    <path id="Trazado_882448" data-name="Trazado 882448" d="M604.857,681.434a3.156,3.156,0,0,1-1.062-.18.606.606,0,0,1,.406-1.141,2.238,2.238,0,1,0,1.091-4.333,1.683,1.683,0,0,0-1.538.5,1.036,1.036,0,0,0-.021,1.3.7.7,0,0,0,.6.161.526.526,0,0,0,.389-.247.606.606,0,1,1,1.09.528,1.7,1.7,0,0,1-1.28.915,1.917,1.917,0,0,1-1.659-.5,2.23,2.23,0,0,1-.052-2.924,2.864,2.864,0,0,1,2.655-.925A3.408,3.408,0,0,1,606.557,681a3.617,3.617,0,0,1-1.7.437" transform="translate(-359.056 -402.124)" fill="#5479f7"/>
    <path id="Trazado_882449" data-name="Trazado 882449" d="M609.51,665.868l47.33-12.142s4.371-7.01-3.146-8.2L603.7,656.241s4.293-.775,5.887,3.162-.075,6.465-.075,6.465" transform="translate(-359.89 -384.822)" fill="#5479f7"/>
    <path id="Trazado_882450" data-name="Trazado 882450" d="M608.616,665.58a.606.606,0,0,1-.508-.937c.061-.094,1.463-2.344.021-5.907-1.393-3.44-5.061-2.821-5.217-2.793a.606.606,0,0,1-.235-1.188l49.994-10.719a.6.6,0,0,1,.222-.006c2.325.37,3.85,1.315,4.532,2.81,1.241,2.72-.875,6.168-.966,6.313a.607.607,0,0,1-.364.267l-47.329,12.142a.618.618,0,0,1-.151.019m-2.285-10.369a5.492,5.492,0,0,1,2.921,3.071,8.527,8.527,0,0,1,.408,5.8l45.888-11.773c.393-.714,1.6-3.163.774-4.969-.493-1.079-1.674-1.784-3.508-2.095Z" transform="translate(-358.996 -383.928)"/>
    <path id="Trazado_882451" data-name="Trazado 882451" d="M298.066,586.364a108.248,108.248,0,0,1-11.85-9.831,15.635,15.635,0,0,1-3.331-4.592v0a1.664,1.664,0,0,1,1.518-2.381l8.866.092a3.74,3.74,0,0,0,.088-7.479l-19.841-.258s-42.423-11.827-43.544-19.653a146.742,146.742,0,0,1-.6-37.467l-27.342.624s2.493,29.481,3.946,44.945c1.765,18.787,59.381,22.888,59.382,22.888,7.606,1.585,4.425,8.207,14.509,12.418l17.239,5.807c2.8-.147,3.258-3.5.964-5.11" transform="translate(-120.437 -300.926)" fill="#fff"/>
    <path id="Trazado_882452" data-name="Trazado 882452" d="M296.209,591.186a.608.608,0,0,1-.193-.031l-17.239-5.807-.04-.015a16.083,16.083,0,0,1-8.608-7.673c-1.32-2.226-2.364-3.985-5.753-4.7-2.9-.213-58.124-4.526-59.9-23.433-1.437-15.289-3.921-44.656-3.946-44.951a.606.606,0,0,1,.59-.657l27.342-.624a.623.623,0,0,1,.467.2.6.6,0,0,1,.147.488,147.553,147.553,0,0,0,.6,37.3c.872,6.086,31.283,15.854,43.031,19.135l19.762.257A4.366,4.366,0,0,1,296.759,565a4.314,4.314,0,0,1-1.284,3.1,4.392,4.392,0,0,1-3.106,1.262l-8.866-.091a1.027,1.027,0,0,0-.9.489,1.038,1.038,0,0,0-.063,1.025,14.986,14.986,0,0,0,3.2,4.417,106.64,106.64,0,0,0,11.78,9.773h0a3.756,3.756,0,0,1,1.6,4.047,2.992,2.992,0,0,1-2.877,2.164h-.032m-17.025-6.98,17.1,5.762a1.782,1.782,0,0,0,1.666-1.28,2.539,2.539,0,0,0-1.128-2.722,107.872,107.872,0,0,1-11.92-9.888,16.191,16.191,0,0,1-3.459-4.77,2.255,2.255,0,0,1,.133-2.2,2.279,2.279,0,0,1,1.937-1.049l8.865.091a3.134,3.134,0,0,0,.073-6.268l-19.841-.258a.626.626,0,0,1-.155-.022c-4.381-1.221-42.837-12.164-43.981-20.151a151.261,151.261,0,0,1-.691-36.931l-25.995.593c.373,4.4,2.573,30.274,3.891,44.3,1.691,17.992,58.249,22.3,58.82,22.34a.651.651,0,0,1,.082.012c3.942.821,5.227,2.986,6.586,5.278a14.851,14.851,0,0,0,8.013,7.166" transform="translate(-119.543 -300.032)"/>
    <path id="Trazado_882453" data-name="Trazado 882453" d="M303.635,267.972a1.111,1.111,0,0,0,1.6-.543c1.209-3.008,4.854-7.652,8.884-8.607,5.166-1.225,11.123.323,12.455,4.242,1.163,3.419.078,5.5,3.89,9.91.365.423.059,1.107-.386,1.446l-2.361,2a4.154,4.154,0,0,0-.973,2.275c-.174,1.93-.494,5.921-1.054,6.568-1.632,1.882-8.595,1.671-8.595,1.671l-4.364,16.948c-.476,2.321.406,3.022.406,3.022l2.777,4.606s-1.087,4.145-16.654,2.059c-11.69-1.567-10.4-3.325-10.4-3.325s12.446-7.1,14.892-29.922a1.42,1.42,0,0,0-.576-1.294c-1.563-1.145-5.773-4.518-5.069-7.978.748-3.673,3.509-4.253,5.534-3.081" transform="translate(-172.173 -154.05)" fill="#fff"/>
    <path id="Trazado_882454" data-name="Trazado 882454" d="M306.088,313.881a59.338,59.338,0,0,1-7.807-.59c-10.028-1.344-10.669-2.848-10.88-3.342a.957.957,0,0,1,.069-.941.607.607,0,0,1,.189-.168c.121-.07,12.21-7.252,14.59-29.461a.814.814,0,0,0-.331-.74c-2.293-1.678-6.03-5.025-5.3-8.587a4.841,4.841,0,0,1,2.613-3.781,4.159,4.159,0,0,1,3.818.3.518.518,0,0,0,.429.044.5.5,0,0,0,.3-.289c1.248-3.1,4.96-7.941,9.307-8.971,5.159-1.221,11.661.2,13.169,4.637a16.8,16.8,0,0,1,.671,3.007,11.28,11.28,0,0,0,3.1,6.7,1.3,1.3,0,0,1,.3,1,2,2,0,0,1-.778,1.325L327.21,276a3.669,3.669,0,0,0-.762,1.867l-.037.41c-.332,3.728-.615,5.868-1.164,6.5-1.561,1.8-6.858,1.906-8.585,1.889l-4.245,16.484c-.372,1.82.212,2.408.217,2.414a.469.469,0,0,1,.122.144l2.777,4.606a.6.6,0,0,1,.067.466c-.1.381-1.111,3.1-9.513,3.1m-17.427-4.24c.462.4,2.338,1.451,9.781,2.449,12.512,1.677,15.326-.723,15.875-1.444l-2.557-4.241c-.285-.3-.979-1.289-.521-3.523l4.371-16.977a.6.6,0,0,1,.6-.454c2.582.079,7.069-.251,8.119-1.462.4-.544.743-4.373.872-5.814l.037-.412a4.632,4.632,0,0,1,1.21-2.7l2.336-1.985a.846.846,0,0,0,.332-.506c.006-.059-.008-.076-.013-.082a12.438,12.438,0,0,1-3.383-7.308,15.811,15.811,0,0,0-.621-2.8c-1.248-3.67-7.079-4.953-11.742-3.848-3.882.92-7.344,5.463-8.462,8.244a1.717,1.717,0,0,1-2.461.841,2.97,2.97,0,0,0-2.714-.239,3.789,3.789,0,0,0-1.923,2.917c-.613,3.01,3.176,6.156,4.833,7.369a2.027,2.027,0,0,1,.82,1.847c-2.233,20.836-12.576,28.679-14.793,30.134" transform="translate(-171.278 -153.167)"/>
  </g>
</svg>
