<svg id="Grupo_1102074" data-name="Grupo 1102074" xmlns="http://www.w3.org/2000/svg" xmlns:xlink="http://www.w3.org/1999/xlink" width="335" height="334.383" viewBox="0 0 335 334.383">
  <defs>
    <clipPath id="clip-path">
      <rect id="Rectángulo_402106" data-name="Rectángulo 402106" width="335" height="334.383" fill="none"/>
    </clipPath>
  </defs>
  <g id="Grupo_1102073" data-name="Grupo 1102073" clip-path="url(#clip-path)">
    <path id="Trazado_882171" data-name="Trazado 882171" d="M319.39,216.334c-18.733,39.048-49.341,65.533-58.365,72.93C197.659,341.2,109.611,344.509,51.641,316c-14.706-7.232-37.716-18.548-47.569-42.455C-7.981,244.3,11.006,223.767,21.838,166.4c1.1-5.795,1.953-11.154,2.613-16.132,6.934-51.922-7.18-62,6.793-88.687C55.6,15.072,124.563-4.149,177.371.74c63.741,5.9,139.446,50.171,154.518,126.431,6.672,33.757-.459,64.055-12.5,89.163" transform="translate(-0.122 0)" fill="#fce7d5"/>
    <path id="Trazado_882172" data-name="Trazado 882172" d="M553.916,85.4a.6.6,0,0,1-.465-.218C526.8,53.149,489.865,33.513,452.1,31.308a.6.6,0,0,1,.07-1.206,133.98,133.98,0,0,1,55.873,16.082A156.688,156.688,0,0,1,554.38,84.408a.6.6,0,0,1-.464.99" transform="translate(-269.709 -17.98)"/>
    <path id="Trazado_882173" data-name="Trazado 882173" d="M558.3,95a.6.6,0,0,1-.435-.185c-20.444-21.242-45.407-35.04-72.189-39.9a.6.6,0,1,1,.216-1.188c27.034,4.909,52.223,18.829,72.844,40.255A.6.6,0,0,1,558.3,95" transform="translate(-289.806 -32.083)"/>
    <path id="Trazado_882174" data-name="Trazado 882174" d="M673.524,168.38a.61.61,0,0,1-.232-.046l-5.114-2.121a.6.6,0,0,1-.166-1.012c1.939-1.7,4.035-3.237,4.055-3.252a.6.6,0,0,1,.949.366l1.1,5.34a.6.6,0,0,1-.591.726m-3.975-2.907,3.153,1.308-.677-3.289c-.613.469-1.529,1.185-2.476,1.981" transform="translate(-398.89 -96.664)"/>
    <path id="Trazado_882175" data-name="Trazado 882175" d="M736.731,198.623a3.357,3.357,0,0,1-.494-.036,3.327,3.327,0,1,1,.494.036m-.012-5.471a2.131,2.131,0,1,0,1.275,3.842h0a2.133,2.133,0,0,0-1.275-3.842" transform="translate(-438.063 -114.651)"/>
    <path id="Trazado_882176" data-name="Trazado 882176" d="M229.862,52.5a.6.6,0,0,1-.579-.433l-.885-3a.6.6,0,0,1,1.159-.341l.884,3a.6.6,0,0,1-.409.75.612.612,0,0,1-.171.025" transform="translate(-136.411 -28.844)"/>
    <path id="Trazado_882177" data-name="Trazado 882177" d="M234.979,69.868a.6.6,0,0,1-.579-.433l-.885-3a.6.6,0,0,1,1.159-.341l.884,3a.6.6,0,0,1-.409.75.612.612,0,0,1-.171.025" transform="translate(-139.467 -39.218)"/>
    <path id="Trazado_882178" data-name="Trazado 882178" d="M220.227,64.255a.6.6,0,0,1-.171-1.184l3-.885a.6.6,0,1,1,.342,1.159l-3,.885a.6.6,0,0,1-.171.025" transform="translate(-131.184 -37.13)"/>
    <path id="Trazado_882179" data-name="Trazado 882179" d="M237.588,59.136a.6.6,0,0,1-.171-1.183l3-.885a.6.6,0,1,1,.341,1.159l-3,.885a.6.6,0,0,1-.171.025" transform="translate(-141.554 -34.073)"/>
    <path id="Trazado_882180" data-name="Trazado 882180" d="M711.951,240.262a.6.6,0,0,1-.579-.434l-.885-3a.6.6,0,1,1,1.159-.341l.884,3a.605.605,0,0,1-.58.775" transform="translate(-424.37 -140.997)"/>
    <path id="Trazado_882181" data-name="Trazado 882181" d="M717.068,257.629a.6.6,0,0,1-.579-.433l-.885-3a.6.6,0,0,1,1.159-.341l.885,3a.6.6,0,0,1-.409.75.6.6,0,0,1-.171.025" transform="translate(-427.426 -151.371)"/>
    <path id="Trazado_882182" data-name="Trazado 882182" d="M702.316,252.017a.6.6,0,0,1-.171-1.183l3-.885a.6.6,0,1,1,.341,1.159l-3,.885a.6.6,0,0,1-.171.025" transform="translate(-419.143 -149.283)"/>
    <path id="Trazado_882183" data-name="Trazado 882183" d="M719.678,246.9a.6.6,0,0,1-.171-1.183l3-.885a.6.6,0,1,1,.342,1.159l-3,.885a.6.6,0,0,1-.171.025" transform="translate(-429.513 -146.225)"/>
    <path id="Trazado_882184" data-name="Trazado 882184" d="M99.494,155.475a.632.632,0,0,1-.106-.009.6.6,0,0,1-.49-.7,91.615,91.615,0,0,1,27.36-50.7.6.6,0,0,1,.834.875,90.4,90.4,0,0,0-27,50.034.6.6,0,0,1-.594.5" transform="translate(-59.068 -62.061)"/>
    <path id="Trazado_882185" data-name="Trazado 882185" d="M164.2,76.494a.6.6,0,0,1-.376-1.077c1.422-1.128,2.9-2.241,4.4-3.31a.6.6,0,1,1,.7.983c-1.479,1.058-2.942,2.159-4.348,3.274a.6.6,0,0,1-.375.131" transform="translate(-97.72 -43.003)"/>
    <path id="Trazado_882186" data-name="Trazado 882186" d="M73.938,143.952a.6.6,0,0,1-.6-.689A96.262,96.262,0,0,1,80.8,117.336,98.325,98.325,0,0,1,109.91,80.3a.6.6,0,1,1,.75.946A97.141,97.141,0,0,0,81.9,117.83a95.08,95.08,0,0,0-7.364,25.6.6.6,0,0,1-.6.52" transform="translate(-43.803 -47.887)"/>
    <path id="Trazado_882187" data-name="Trazado 882187" d="M43.074,551.272C29.5,550.009,27.919,531.49,27.919,520.645l-7.985-49.453c-2.671-16.539,9.7-31.923,26.45-32.379q.417-.011.838-.012H94.639c17.018,0,30.651,12.964,30.651,29.028v25.407c0,24.848,21.421,44.991,47.744,44.991l.041.059a49.741,49.741,0,0,1,32.126,11.78Z" transform="translate(-11.69 -262.103)" fill="#f08c32"/>
    <path id="Trazado_882188" data-name="Trazado 882188" d="M166.066,665.942a128.252,128.252,0,0,1-1.393,19.075h-30.8c.431-15.226.294-27.987-1.148-30.983,0,0-.483,14.247-8.352,30.983H89.918c.089-.205.181-.411.27-.616,9.991-22.921,20.122-53.839,17.134-80.211v0a68.781,68.781,0,0,0-2-10.558c-.052-.205-.113-.411-.169-.616-.129-.451-.262-.9-.4-1.349l11.766-.773,2.243-.145h.008l1.687-.113,9.536-.624,13.168-.866.813-.052,5.279-.346s.5,1.1,1.333,3.113c3.979,9.685,15.524,40.655,15.483,74.086" transform="translate(-53.709 -351.665)"/>
    <path id="Trazado_882189" data-name="Trazado 882189" d="M80.617,460.106a24.757,24.757,0,0,1,10.113-4.554l6.393-2.027a45.619,45.619,0,0,1,35.081,3.141l20.21,30.246a2.943,2.943,0,0,1-2.2,4.567l-8.619.732a2.886,2.886,0,0,0-2.62,3.227,13.045,13.045,0,0,1-11.995,14.6l-54.956,4.027s-.165-51.3,8.589-53.958" transform="translate(-43.023 -269.623)" fill="#fff"/>
    <path id="Trazado_882190" data-name="Trazado 882190" d="M174.891,519.739a.6.6,0,0,1-.55-.853,31.649,31.649,0,0,0,2.447-11.423.6.6,0,1,1,1.208,0,32.352,32.352,0,0,1-2.555,11.921.6.6,0,0,1-.55.355" transform="translate(-104.104 -302.754)"/>
    <path id="Trazado_882191" data-name="Trazado 882191" d="M126.583,607.964c-1.208.862-2.732.01-4.315.614H75.19c-1.272-.209-2.362,1.162-3.481.96-2.871-.507-5.2-.974-6.757-1.3a1.79,1.79,0,0,1-1.285-2.44c2.175-5.207,7.949-19.941,10.409-35.07A139.27,139.27,0,0,0,74.745,536c-.205-1.909-.4-3.209-.515-3.725-.773-3.564-6.185-3.471-10.172-5.481a7.515,7.515,0,0,1-3.375-3.065c-4.369-7.925.834-32.931,2.71-45.439a20.8,20.8,0,0,1,12.922-16.256,22.93,22.93,0,0,1,2.3,1.164c2.831,1.6,7.615,4.9,10.417,10.091,1.24,2.3,5.126,15.133,9.975,32.03.1.346.2.7.3,1.055.338,1.188.685,2.4,1.035,3.628.507,1.784,1.027,3.608,1.55,5.46.028.1.056.2.085.306.117.407.23.813.346,1.224.06.205.117.415.177.624q.8,2.851,1.623,5.775c9.954,35.485,21.306,77.638,22.868,83.453a1.032,1.032,0,0,1-.407,1.119" transform="translate(-35.23 -275.98)" fill="#f9d0ac"/>
    <path id="Trazado_882192" data-name="Trazado 882192" d="M176.621,449.381a.348.348,0,0,1,.351-.485c2.668.244,14.661,2.506,19.254,6.9,18.446,17.665,19.558,11.928,27.292,16.216,5.07,2.81,5.715,11.756,1.628,17.863-5.787,8.648-16.308,4.546-20.309,2.037a.248.248,0,0,0-.361.313c2.684,5.874,16.972,37.7,18.482,52.989,1.388,14.055,3.5,29.626,4.167,34.449a1.7,1.7,0,0,1-1.279,1.881c-3.222.787-10.929,2.533-15.631,2.468l-5.563.018a1.7,1.7,0,0,1-1.7-1.584c-.844-12.725-6.918-98.124-19.229-119.459a126.008,126.008,0,0,1-7.1-13.61" transform="translate(-105.481 -268.131)" fill="#f9d0ac"/>
    <path id="Trazado_882193" data-name="Trazado 882193" d="M189.432,561.053s.622-8.748-4.492-9.178-6.182,3.078-6.182,3.078-.166-5.967-4.379-7.167c-5.624-1.6-8.735,4.089-8.735,4.089s-1.906-2.177-4.194-1.608-5.135,3.962-6.633,10.786Z" transform="translate(-92.474 -327.031)" fill="#99b9ff"/>
    <path id="Trazado_882194" data-name="Trazado 882194" d="M188.536,560.762H153.919a.6.6,0,0,1-.59-.734c1.624-7.4,4.721-10.656,7.078-11.242a4.876,4.876,0,0,1,4.229,1.255c1.079-1.524,4.2-5.1,9.01-3.73,3.108.885,4.213,4,4.6,6,.943-1.05,2.706-2.2,5.842-1.932,5.644.474,5.071,9.441,5.044,9.822a.6.6,0,0,1-.6.561m-33.857-1.208h33.273c.026-1.851-.194-7.655-3.96-7.972-4.576-.382-5.544,2.621-5.553,2.652a.6.6,0,0,1-1.182-.158c0-.055-.209-5.541-3.941-6.6-5.084-1.447-7.922,3.584-8.04,3.8a.6.6,0,0,1-.984.107c-.016-.018-1.7-1.891-3.594-1.42-1.843.458-4.481,3.252-6.02,9.6" transform="translate(-91.578 -326.136)"/>
    <path id="Trazado_882195" data-name="Trazado 882195" d="M149.008,582.767h38.265l5.537-10.618H143.471Z" transform="translate(-85.697 -341.753)" fill="#fff"/>
    <path id="Trazado_882196" data-name="Trazado 882196" d="M186.376,582.476H148.111a.6.6,0,0,1-.536-.325l-5.537-10.618a.6.6,0,0,1,.536-.883h49.339a.6.6,0,0,1,.536.883l-5.537,10.618a.6.6,0,0,1-.536.325m-37.9-1.208H186.01l4.907-9.41H143.57Z" transform="translate(-84.801 -340.858)"/>
    <path id="Trazado_882197" data-name="Trazado 882197" d="M123.081,584.167c1.627-.2.867,1.148-.481,2.108-1,.71-6.06,2.911-5.868,2.942a58.828,58.828,0,0,0,13.461.716c-3.074,9.943-19.513,6.136-21.451,5.97-1.506-.13-12.973,6.723-12.973,6.723a57.009,57.009,0,0,1-16.637,7.234c-9.626,2.53-7.248-12.644-7.368-16.5,0,0,26.429-2.006,37.055-4.789a16.817,16.817,0,0,0,3.988-1.645c1.449-.817,4.469-2.04,10.275-2.76" transform="translate(-42.76 -348.919)" fill="#fff"/>
    <path id="Trazado_882198" data-name="Trazado 882198" d="M76.24,609.851A5,5,0,0,1,73,608.771c-3.318-2.682-2.994-9.723-2.8-13.929.044-.967.083-1.8.066-2.358a.6.6,0,0,1,.558-.621c.264-.02,26.5-2.034,36.947-4.771a16.249,16.249,0,0,0,3.845-1.587c1.59-.9,4.7-2.115,10.5-2.833,1.019-.126,1.4.269,1.535.623.419,1.077-1.252,2.336-1.591,2.577a42.121,42.121,0,0,1-4.156,2.1l-.071.033a57.447,57.447,0,0,0,11.415.432.6.6,0,0,1,.632.78c-1.25,4.044-4.677,6.423-10.184,7.07a41.007,41.007,0,0,1-10.9-.532c-.456-.072-.817-.129-1-.145h0c-.934,0-7.143,3.374-12.609,6.64a58.159,58.159,0,0,1-16.794,7.3,8.492,8.492,0,0,1-2.151.3m-4.763-16.828c-.008.527-.037,1.166-.069,1.874-.183,3.979-.489,10.637,2.353,12.935,1.059.856,2.473,1.035,4.323.549a56.974,56.974,0,0,0,16.452-7.149c2.76-1.65,11.794-6.964,13.365-6.826.222.019.583.076,1.082.155,4.091.647,16.25,2.57,19.432-4.86a61.8,61.8,0,0,1-12.673-.784.613.613,0,0,1-.506-.516c-.067-.483-.067-.483,2.153-1.523,1.365-.64,3.428-1.607,3.968-1.991a4.068,4.068,0,0,0,1.051-1.03c-.042,0-.091.007-.146.013-5.6.695-8.557,1.845-10.052,2.687a17.472,17.472,0,0,1-4.132,1.7c-9.7,2.539-32.711,4.452-36.6,4.763" transform="translate(-41.866 -348.024)"/>
    <path id="Trazado_882199" data-name="Trazado 882199" d="M270.5,455.653c6.012-.429,14.309-15.3,15.143-17.107s2.83-8.575,5.4-11.736a40.786,40.786,0,0,0,4.8-7.223,2.308,2.308,0,0,1,2.786-1.2c.729.306,1.3,1.987.4,3.784-.665,1.322-1.081,2.416-1.633,3.722a1.585,1.585,0,0,0,.547,1.9c1.841,1.33,4.166,3.985,1.862,8.091-2.357,4.2-5.7,3.383-6.842,5.592s-9.551,26.679-13.231,31.551c-3.55,4.7-10.185,1.275-19.77-1.786C254.215,469.4,266,455.973,270.5,455.653" transform="translate(-154.357 -249.831)" fill="#fff"/>
    <path id="Trazado_882200" data-name="Trazado 882200" d="M273.936,475.058c-2.868,0-6.408-1.213-10.61-2.653-1.417-.486-2.882-.987-4.437-1.484a2.731,2.731,0,0,1-1.938-3.221c.541-4.53,8.674-13.264,12.612-13.544,5.613-.4,13.744-14.828,14.638-16.758.206-.445.506-1.262.854-2.209,1.058-2.88,2.658-7.235,4.625-9.655a40.2,40.2,0,0,0,4.737-7.121,2.9,2.9,0,0,1,3.554-1.481,1.987,1.987,0,0,1,1.017,1.2,4.392,4.392,0,0,1-.31,3.41c-.495.985-.854,1.853-1.235,2.772-.123.3-.248.6-.382.915a.981.981,0,0,0,.345,1.179c1.864,1.347,4.608,4.292,2.036,8.876a8.858,8.858,0,0,1-4.729,4.059,3.861,3.861,0,0,0-2.1,1.515c-.317.612-1.293,3.217-2.529,6.515-3.224,8.6-8.1,21.6-10.756,25.122a6.272,6.272,0,0,1-5.39,2.563m-4.287-19.7c-3.127.223-10.989,8.224-11.5,12.482a1.539,1.539,0,0,0,1.106,1.928c1.568.5,3.039,1,4.462,1.492,7.188,2.463,11.936,4.09,14.644.505,2.553-3.381,7.583-16.8,10.588-24.818,1.3-3.465,2.238-5.969,2.587-6.646a4.854,4.854,0,0,1,2.683-2.063,7.719,7.719,0,0,0,4.169-3.548c2.008-3.578.19-5.947-1.69-7.3a2.184,2.184,0,0,1-.75-2.629c.132-.312.257-.612.378-.906.389-.94.757-1.827,1.272-2.853a3.1,3.1,0,0,0,.257-2.448.892.892,0,0,0-.351-.506,1.719,1.719,0,0,0-2.016.923,41.366,41.366,0,0,1-4.872,7.326c-1.84,2.264-3.4,6.5-4.428,9.31-.372,1.011-.665,1.81-.892,2.3-.079.169-8.776,16.965-15.648,17.456Zm-.043-.6h0Z" transform="translate(-153.462 -248.935)"/>
    <path id="Trazado_882201" data-name="Trazado 882201" d="M136.678,351.1a6.019,6.019,0,0,0-4.056-3.85l-8.189-2.32a13.533,13.533,0,0,0-13.136,3.331l-.077.075a13.845,13.845,0,0,0-2.863,4.034c-.48,1.3-1.237,4.408-1.237,4.408a13.841,13.841,0,0,0,1.043,6.968l1.234,2.868a13.13,13.13,0,0,0,10.632,7.864l16.035-19.9a3.663,3.663,0,0,0,.616-3.479" transform="translate(-63.935 -205.727)"/>
    <path id="Trazado_882202" data-name="Trazado 882202" d="M57,354.781l2.643-4.341s-3.608-4.289-8.6-4.559c-5.08-.275-11.549,3.547-12.318,12.349-.4,4.573-4.579,6.182-8.748,8.936-.894.591-1.822,1.129-2.755,1.657-6.731,3.812-6.59,9.182-6.59,9.182a5.917,5.917,0,0,1,2.308-2.4c-2.486,7.573,1.927,16.806,9.194,19.773,6.876,2.808,16.486-.33,19.355-5.443,2.785-4.963,2.795-12.836,1.235-19.092S50.9,356.5,57,354.781" transform="translate(-12.326 -206.591)"/>
    <path id="Trazado_882203" data-name="Trazado 882203" d="M118.079,371.09a.835.835,0,0,0,1.114-.6c.514-2.383,2.627-6.288,5.493-7.508,3.674-1.563,8.285-1.172,9.77,1.564,1.3,2.387.756,4.064,4.141,6.851.325.268.184.813-.1,1.121L137,374.3a3.128,3.128,0,0,0-.432,1.81c.116,1.453.48,4.521.052,5-.834.937-5.732,1.511-5.732,1.511l-1.51,13.934a.937.937,0,0,0,.867,1.036l5.073.35s-2.956,6.2-14.695,7.5a26.018,26.018,0,0,1-13.287-2.059s13.479-5.926,12.4-23.156a1.068,1.068,0,0,0-.591-.885c-1.3-.65-4.853-2.616-4.77-5.27.088-2.817,2.061-3.6,3.711-2.986" transform="translate(-64.112 -216.266)" fill="#fff"/>
    <path id="Trazado_882204" data-name="Trazado 882204" d="M116.952,405.319a26.06,26.06,0,0,1-10.785-2.275.6.6,0,0,1,.027-1.093c.535-.237,13.08-5.979,12.037-22.565a.464.464,0,0,0-.258-.383c-1.944-.969-5.192-3.014-5.1-5.829a3.781,3.781,0,0,1,1.523-3.252,3.276,3.276,0,0,1,3-.281h0a.239.239,0,0,0,.2-.013.223.223,0,0,0,.113-.154c.537-2.49,2.706-6.6,5.847-7.936,3.728-1.587,8.818-1.337,10.538,1.831a12.732,12.732,0,0,1,.89,2.168,8.266,8.266,0,0,0,3.1,4.506,1.127,1.127,0,0,1,.4.807,1.656,1.656,0,0,1-.448,1.192l-1.474,1.762a2.729,2.729,0,0,0-.294,1.374c.018.223.041.483.067.767.261,2.879.3,4.167-.166,4.685-.817.918-4.085,1.447-5.635,1.651l-1.459,13.459a.334.334,0,0,0,.308.368l5.072.349a.6.6,0,0,1,.5.863c-.126.266-3.238,6.518-15.173,7.844a25.82,25.82,0,0,1-2.839.157m-9.116-2.881a26.115,26.115,0,0,0,11.822,1.524c8.7-.967,12.445-4.715,13.7-6.371l-4.049-.279a1.541,1.541,0,0,1-1.426-1.7l1.51-13.934a.6.6,0,0,1,.53-.535c2.206-.258,4.833-.819,5.326-1.287a18.012,18.012,0,0,0-.11-3.8c-.026-.288-.05-.554-.068-.78a3.591,3.591,0,0,1,.593-2.269l1.474-1.762a.55.55,0,0,0,.148-.294,9.456,9.456,0,0,1-3.448-5.027,11.568,11.568,0,0,0-.806-1.975c-1.352-2.491-5.747-2.681-9-1.3-2.595,1.1-4.652,4.821-5.139,7.079a1.435,1.435,0,0,1-.713.958,1.45,1.45,0,0,1-1.2.086,2.085,2.085,0,0,0-1.907.151,2.713,2.713,0,0,0-.99,2.288c-.07,2.222,3.079,4.034,4.435,4.71a1.676,1.676,0,0,1,.925,1.388c.907,14.413-8.293,21.175-11.6,23.127" transform="translate(-63.216 -215.382)"/>
    <path id="Trazado_882205" data-name="Trazado 882205" d="M530.74,551.272c13.577-1.263,15.155-19.781,15.155-30.627l7.985-49.453c2.671-16.539-9.7-31.923-26.45-32.379q-.417-.011-.838-.012H479.176c-17.018,0-30.651,12.964-30.651,29.028v25.407c0,24.848-21.421,44.991-47.745,44.991l-.041.059a49.741,49.741,0,0,0-32.126,11.78Z" transform="translate(-220.178 -262.103)" fill="#f08c32"/>
    <path id="Trazado_882206" data-name="Trazado 882206" d="M62.719,724H9.568A8.067,8.067,0,0,1,1.5,715.935V661.363A8.067,8.067,0,0,1,9.568,653.3H327.225a8.067,8.067,0,0,1,8.067,8.067v54.572A8.067,8.067,0,0,1,327.225,724H62.719Z" transform="translate(-0.897 -390.223)" fill="#fff"/>
    <path id="Trazado_882207" data-name="Trazado 882207" d="M326.328,723.71h-29.2a.6.6,0,1,1,0-1.208h29.2a7.472,7.472,0,0,0,7.464-7.463V660.468A7.472,7.472,0,0,0,326.328,653H8.671a7.472,7.472,0,0,0-7.463,7.463v54.571A7.472,7.472,0,0,0,8.671,722.5h53.15a.6.6,0,1,1,0,1.208H8.671A8.681,8.681,0,0,1,0,715.039V660.468A8.681,8.681,0,0,1,8.671,651.8H326.328A8.682,8.682,0,0,1,335,660.468v54.571a8.682,8.682,0,0,1-8.672,8.671" transform="translate(0 -389.327)"/>
    <path id="Trazado_882208" data-name="Trazado 882208" d="M585.729,464.765c-2.672-5.884-9.786-9.685-15.316-11.845a36.866,36.866,0,0,0-11.976-2.467l-14.5-.568A77.622,77.622,0,0,0,524.965,451a39.458,39.458,0,0,0-23.721,14.164c-2.7,3.344-5.079,6.24-5.272,6.3-7.841,11.007-9.41,16.509-15.076,20.616-9.462,6.859-26.023,1.266-26.023,1.266-5.518-.825-7.519,3.293-8.525,5.583-1.208,2.75-.038,6.1,1.027,8.258a6.287,6.287,0,0,0,3.269,3.034c7.1,2.894,31.252,11.913,42.326,5.638,9.23-5.23,15.43-16.149,20.375-21.512a.768.768,0,0,1,1.33.592c-1.047,12.05-10.976,26.353-14,30.46a3.27,3.27,0,0,1-2.267,1.313L476.555,529.2a2.5,2.5,0,0,0-.951.32,5.086,5.086,0,0,0-2.58,3.834c-.345,2.573-.128,7.4.663,8.953l.75,1.474a3.6,3.6,0,0,0,3.149,1.968c11.614.189,60.684.452,74.617-.383,12.977-.777,21.785-5.974,28.723-24.1,2.757-7.2,11.937-40.789,4.8-56.5" transform="translate(-266.304 -268.621)" fill="#f9d0ac"/>
    <path id="Trazado_882209" data-name="Trazado 882209" d="M479.161,648.726a3.887,3.887,0,0,0-2.129-1.9,15.082,15.082,0,0,1-1.941-.884l-8.632-4.574c-1.617-.791-3.929,1.053-5.607,1.6-5.065,1.662-15.553,5.576-14.689,9.253.932,3.967,9.945,2.09,13.145,1.289.731-.183,7.353,2.213,9.447,2.371,2.893.219,3.561-.516,4.976-1.258a4.6,4.6,0,0,1,2.142-.5,3.937,3.937,0,0,0,3.073-1.438l.018-.022a3.34,3.34,0,0,0,.366-3.61Z" transform="translate(-266.47 -382.98)" fill="#fff"/>
    <path id="Trazado_882210" data-name="Trazado 882210" d="M468.832,655.627c-.309,0-.646-.013-1.016-.041a37.016,37.016,0,0,1-5.58-1.4,30.783,30.783,0,0,0-3.7-.978h0c-3.4.848-9.494,2-12.354.255a3.13,3.13,0,0,1-1.494-2c-.9-3.848,7.706-7.543,15.088-9.966a12.486,12.486,0,0,0,1.558-.7c1.453-.729,3.1-1.556,4.5-.87l8.65,4.583a14.216,14.216,0,0,0,1.862.849,4.472,4.472,0,0,1,2.462,2.2l.17.331a3.95,3.95,0,0,1-.433,4.263,4.548,4.548,0,0,1-3.557,1.686,3.984,3.984,0,0,0-1.866.427c-.217.114-.416.228-.609.338a6.3,6.3,0,0,1-3.677,1.028M458.513,652a21.194,21.194,0,0,1,4.066,1.026,37.993,37.993,0,0,0,5.328,1.356,5.634,5.634,0,0,0,4-.832c.2-.117.416-.238.647-.359a5.225,5.225,0,0,1,2.419-.565,3.332,3.332,0,0,0,2.6-1.212,2.748,2.748,0,0,0,.318-2.979l-.17-.331a3.268,3.268,0,0,0-1.795-1.611,15.443,15.443,0,0,1-2.019-.919L465.282,641c-.847-.415-2.21.27-3.413.873a13.162,13.162,0,0,1-1.722.77c-9.332,3.062-14.808,6.335-14.289,8.542a1.936,1.936,0,0,0,.947,1.244c2.659,1.621,9.446.1,11.463-.4a.992.992,0,0,1,.246-.027m.048,1.2h0" transform="translate(-265.576 -382.083)"/>
    <path id="Trazado_882211" data-name="Trazado 882211" d="M539.026,608.429a.6.6,0,0,1-.08-1.2c1.9-.255,5.034-.349,9-.469,18.779-.565,57.856-1.74,67.2-24.273a.6.6,0,0,1,1.116.463c-9.646,23.256-49.25,24.446-68.283,25.018-3.933.118-7.039.212-8.878.458a.561.561,0,0,1-.081.006" transform="translate(-321.608 -347.704)"/>
    <path id="Trazado_882212" data-name="Trazado 882212" d="M516.445,587.961a.6.6,0,0,1-.5-.944c4.041-5.938,10.947-17.369,11.8-27.209a.159.159,0,0,0-.1-.172.15.15,0,0,0-.185.041c-1.4,1.523-2.952,3.554-4.59,5.7-4.122,5.408-9.252,12.14-15.932,15.925-9.38,5.315-27.718-.018-37.814-3.67a.6.6,0,1,1,.411-1.136c9.9,3.582,27.849,8.832,36.808,3.755,6.465-3.664,11.512-10.286,15.567-15.606,1.655-2.172,3.219-4.225,4.662-5.789a1.372,1.372,0,0,1,2.376,1.054c-.879,10.114-7.9,21.749-12.007,27.784a.6.6,0,0,1-.5.264" transform="translate(-279.978 -333.548)"/>
    <path id="Trazado_882213" data-name="Trazado 882213" d="M599.248,515.56a.614.614,0,0,1-.169-.024.6.6,0,0,1-.412-.749c4.695-16.161,8.318-39.128,3.078-50.665-2.591-5.7-9.579-9.42-14.986-11.532a36.174,36.174,0,0,0-11.779-2.426l-14.5-.568a77.754,77.754,0,0,0-18.843,1.1,38.827,38.827,0,0,0-23.357,13.948c-3.79,4.7-4.877,5.957-5.29,6.326-2.848,4-4.9,7.336-6.554,10.017-2.973,4.825-4.938,8.013-8.619,10.681-7.144,5.178-17.969,3.557-23.786,2.13a.6.6,0,0,1,.288-1.173c4.52,1.109,15.788,3.14,22.789-1.935,3.487-2.528,5.4-5.635,8.3-10.337,1.669-2.709,3.747-6.08,6.639-10.141a.606.606,0,0,1,.17-.161c.184-.169,1.06-1.131,5.124-6.166a40.037,40.037,0,0,1,24.086-14.379,78.928,78.928,0,0,1,19.121-1.119l14.479.567a37.388,37.388,0,0,1,12.172,2.508c5.615,2.194,12.888,6.084,15.646,12.158,6.933,15.265-1.3,45.579-3.018,51.5a.6.6,0,0,1-.58.436M512.36,469.988h0m0,0h0" transform="translate(-282.871 -267.728)"/>
    <path id="Trazado_882214" data-name="Trazado 882214" d="M397.587,541.057c3.816.039,5.15-2.537,7.574-1.55,2.108.859,8.2,7.581,14.673,8.934a4.675,4.675,0,0,1,3.669,3.993,7.631,7.631,0,0,1-.186,3.338c-.906,2.617-1.182,6.247-12.028.105a69.1,69.1,0,0,0-7.259-4.565s-.667,16.475-11.315,1.908c-1.925-2.633-2.56-12.238,4.872-12.162" transform="translate(-233.819 -322.121)" fill="#fff"/>
    <path id="Trazado_882215" data-name="Trazado 882215" d="M419.123,558.946c-2.007,0-4.938-1.123-9.034-3.443a.641.641,0,0,1-.075-.05,64.923,64.923,0,0,0-6.354-4.036c-.205,2.071-.964,6.557-3.707,7.391-2.282.695-5.1-1.311-8.628-6.131-1.309-1.791-2.122-6.509-.417-9.826a5.972,5.972,0,0,1,5.783-3.3,8.513,8.513,0,0,0,3.919-1.014c1.221-.567,2.374-1.1,3.877-.491a17.283,17.283,0,0,1,3.26,2.329c2.8,2.262,7.041,5.681,11.309,6.573a5.28,5.28,0,0,1,4.144,4.508,8.075,8.075,0,0,1-.215,3.611c-.058.167-.113.337-.168.51-.387,1.2-.826,2.559-2.277,3.126a3.879,3.879,0,0,1-1.417.24m-8.4-4.473c4.7,2.657,7.854,3.7,9.38,3.107.917-.358,1.233-1.336,1.566-2.371.058-.18.116-.36.177-.534a6.922,6.922,0,0,0,.158-3.063,4.072,4.072,0,0,0-3.194-3.478c-4.553-.952-8.926-4.48-11.82-6.815a18.214,18.214,0,0,0-2.957-2.15c-1.016-.414-1.77-.063-2.912.468a9.59,9.59,0,0,1-4.441,1.127,4.822,4.822,0,0,0-4.7,2.641c-1.423,2.767-.8,7.034.317,8.561,3.909,5.348,6.128,6.044,7.3,5.688,2.184-.664,2.851-5.469,2.923-7.264a.6.6,0,0,1,.9-.5,72.084,72.084,0,0,1,7.293,4.584" transform="translate(-232.918 -321.223)"/>
    <path id="Trazado_882216" data-name="Trazado 882216" d="M418.214,543.026H405.207L402.7,511.908h18.031Z" transform="translate(-240.536 -305.77)" fill="#fff"/>
    <path id="Trazado_882217" data-name="Trazado 882217" d="M406.134,554.507h13.007l1.887-23.378H404.247Z" transform="translate(-241.463 -317.251)" fill="#99b9ff"/>
    <path id="Trazado_882218" data-name="Trazado 882218" d="M434.266,507.359a.6.6,0,0,1-.588-.744l3.186-13.374a3.785,3.785,0,0,1,3.695-2.918h6.087a.6.6,0,0,1,0,1.208h-6.087a2.582,2.582,0,0,0-2.52,1.99l-3.186,13.374a.6.6,0,0,1-.587.464" transform="translate(-259.032 -292.877)"/>
    <path id="Trazado_882219" data-name="Trazado 882219" d="M414.821,552.744a.6.6,0,0,1-.587-.747l5.013-20.59a.6.6,0,0,1,1.174.286l-5.013,20.59a.6.6,0,0,1-.587.461" transform="translate(-247.418 -317.142)" fill="#5479f7"/>
    <path id="Trazado_882220" data-name="Trazado 882220" d="M417.319,542.734H404.312a.6.6,0,0,1-.6-.555L401.2,511.06a.6.6,0,0,1,.6-.652h18.031a.6.6,0,0,1,.6.652l-2.512,31.118a.6.6,0,0,1-.6.555m-12.45-1.208h11.892l2.414-29.91H402.455Z" transform="translate(-239.64 -304.874)"/>
    <path id="Trazado_882221" data-name="Trazado 882221" d="M440.028,548.77s-7.113-1.818-8.99-6.286c-2.226-5.294-7.1-2.586-6.53,1.1.591,3.846,1.927,4.8,4.195,6.384,2.235,1.563,3.153,1.471,3.153,1.471Z" transform="translate(-253.538 -322.265)" fill="#fff"/>
    <path id="Trazado_882222" data-name="Trazado 882222" d="M431.817,551.713a.59.59,0,0,1-.153-.02,14.529,14.529,0,0,1-4.2-2.118c-2.3-1.605-3.812-2.666-4.446-6.787a4.14,4.14,0,0,1,2.78-4.635c1.537-.434,3.632.179,4.9,3.2,1.742,4.143,8.515,5.917,8.583,5.935a.6.6,0,0,1-.3,1.17c-.3-.077-7.426-1.946-9.4-6.637-.82-1.951-2.115-2.89-3.461-2.51a2.915,2.915,0,0,0-1.914,3.289c.555,3.61,1.759,4.452,3.944,5.981a13.648,13.648,0,0,0,3.815,1.939.6.6,0,0,1-.154,1.188" transform="translate(-252.645 -321.373)"/>
    <path id="Trazado_882223" data-name="Trazado 882223" d="M404.218,568.272c-.455-.141-.815-.852-1.651-1.607-2.23-2.016-.479-10.834-.479-10.834.077,0,5.659,1.313,7.02,4.641s-.979,6.8-2.624,7.312c-1.028.321-1.506.724-2.265.489" transform="translate(-239.782 -332.006)" fill="#fff"/>
    <path id="Trazado_882224" data-name="Trazado 882224" d="M404.161,567.925a3.092,3.092,0,0,1-.9-.117.6.6,0,0,1,.358-1.154,5.78,5.78,0,0,0,2.763-.343,4.214,4.214,0,0,0,2.048-2.229,5.33,5.33,0,0,0,.2-4.277c-1.217-2.979-6.331-4.222-6.55-4.272a.6.6,0,0,1,.091-1.2c.362,0,6.128,1.468,7.578,5.016a6.467,6.467,0,0,1-.222,5.249,5.354,5.354,0,0,1-2.781,2.867,9.479,9.479,0,0,1-2.577.462" transform="translate(-239.856 -331.11)"/>
    <path id="Trazado_882225" data-name="Trazado 882225" d="M615.084,539.849h-.036a.6.6,0,0,1-.567-.638,63.739,63.739,0,0,1,4.241-19.194.6.6,0,1,1,1.127.435,62.532,62.532,0,0,0-4.162,18.83.6.6,0,0,1-.6.569" transform="translate(-367.038 -310.382)"/>
    <path id="Trazado_882226" data-name="Trazado 882226" d="M700.137,427.844l2.005-19.454-16.774,5.584-1.46,11.4a6.528,6.528,0,0,0,1.969,5.154c2.829,2.843,7.354,3.1,10.94,1.322l.83-.411a4.526,4.526,0,0,0,2.489-3.6" transform="translate(-408.488 -243.937)" fill="#fff"/>
    <path id="Trazado_882227" data-name="Trazado 882227" d="M691.178,432.695a9.256,9.256,0,0,1-6.625-2.636,7.082,7.082,0,0,1-2.142-5.648L683.872,413a.6.6,0,0,1,.409-.5l16.774-5.584a.6.6,0,0,1,.792.635l-2,19.454a5.1,5.1,0,0,1-2.823,4.076l-.831.411a11.326,11.326,0,0,1-5.01,1.2m-6.156-19.164-1.412,11.024a5.964,5.964,0,0,0,1.777,4.631c2.486,2.5,6.7,2.993,10.265,1.228l.831-.411a3.9,3.9,0,0,0,2.156-3.117l1.909-18.523Zm14.218,13.417h0Z" transform="translate(-407.591 -243.041)"/>
    <path id="Trazado_882228" data-name="Trazado 882228" d="M668.977,338.837c4.194.394-1.677,3.881,14.376,1.732,6.393-.856,2.219,5.829,3.878,5.611,6.126-.8,5.917-.783,8.67.409,1.823.789,2.531,4.481,1.781,7.043-.991,3.383-3.972,3.841-7.59,10.757-2.541,4.856-2.575,8.038-4.739,8.473-2.188.44-3.3-2.582-5.728-2.283-3.141.387-3.33,5.7-6.589,7.422-2.054,1.084-6.453,1.061-12.844-3.352a2.632,2.632,0,0,1-.907-3.229c.655-1.479,1.494-3.344,2.443-5.058,4.525-8.168,7.9-9.657,7.119-12.071-1.193-3.7-7.982-2.717-8.633-5.705-.676-3.1,3.022-10.289,8.764-9.749" transform="translate(-393.666 -202.375)"/>
    <path id="Trazado_882229" data-name="Trazado 882229" d="M684.581,372.793l-1.524,2.043a25.979,25.979,0,0,0-1.947,3.025c-1.086,1.974-2.979,5.355-4.183,7.167-1.769,2.662-10.372-2.232-10.372-2.232l-.284-1.854-1-.6a1.29,1.29,0,0,1-.474-.467,1.247,1.247,0,0,1,.166-1.459c1.939-2.1,6.039-6.867,7.938-11.415a13.514,13.514,0,0,1,11.675,5.788" transform="translate(-396.999 -219.204)" fill="#fff"/>
    <path id="Trazado_882230" data-name="Trazado 882230" d="M674.079,385.522c-3.064,0-7.59-2.46-8.719-3.1a.6.6,0,0,1-.3-.434l-.241-1.572-.751-.449a1.889,1.889,0,0,1-.691-.691,1.851,1.851,0,0,1,.249-2.162c1.723-1.87,5.932-6.708,7.825-11.239a.605.605,0,0,1,.5-.368,14,14,0,0,1,12.228,6.038.6.6,0,0,1-.008.712l-1.524,2.043a25.5,25.5,0,0,0-1.9,2.955c-1.046,1.9-2.983,5.364-4.209,7.21a2.751,2.751,0,0,1-2.455,1.061m-7.867-4.009c3.37,1.87,8.337,3.753,9.315,2.28,1.2-1.809,3.121-5.24,4.157-7.124a26.887,26.887,0,0,1,1.992-3.095l1.256-1.684a13.014,13.014,0,0,0-10.516-5.2c-1.948,4.427-5.764,8.921-7.9,11.241a.645.645,0,0,0-.083.755.7.7,0,0,0,.256.244l1,.6a.6.6,0,0,1,.287.427Z" transform="translate(-396.103 -218.303)"/>
    <path id="Trazado_882231" data-name="Trazado 882231" d="M707.089,395.147s3.658-4.916,5.528-2.766-2.292,7.46-5.528,2.766" transform="translate(-422.355 -234.05)" fill="#fff"/>
    <path id="Trazado_882232" data-name="Trazado 882232" d="M236.318,710.072c0,12.353-24.358,22.368-54.4,22.368s-54.4-10.014-54.4-22.368,24.358-22.368,54.4-22.368,54.4,10.014,54.4,22.368" transform="translate(-76.163 -410.776)" fill="#fff"/>
    <path id="Trazado_882233" data-name="Trazado 882233" d="M181.017,732.147c-14.609,0-28.353-2.343-38.7-6.6-10.517-4.324-16.309-10.139-16.309-16.375s5.792-12.051,16.309-16.375c10.347-4.254,24.091-6.6,38.7-6.6s28.353,2.343,38.7,6.6c10.517,4.324,16.309,10.139,16.309,16.375s-5.792,12.051-16.309,16.375c-10.347,4.254-24.09,6.6-38.7,6.6m0-44.735c-29.666,0-53.8,9.763-53.8,21.764s24.135,21.763,53.8,21.763,53.8-9.763,53.8-21.763-24.135-21.764-53.8-21.764" transform="translate(-75.267 -409.88)"/>
    <path id="Trazado_882234" data-name="Trazado 882234" d="M195.074,734.357c-12.177,0-23.634-1.824-32.261-5.135-8.81-3.382-13.661-7.951-13.661-12.866s4.852-9.484,13.661-12.866c8.627-3.312,20.084-5.135,32.261-5.135s23.634,1.824,32.261,5.135c8.81,3.382,13.661,7.951,13.661,12.866s-4.852,9.484-13.661,12.866c-8.627,3.312-20.084,5.135-32.261,5.135m0-34.794c-12.033,0-23.336,1.8-31.828,5.055-8.309,3.19-12.886,7.359-12.886,11.738s4.577,8.548,12.886,11.738c8.492,3.26,19.8,5.055,31.828,5.055s23.336-1.8,31.828-5.055c8.309-3.19,12.886-7.359,12.886-11.738s-4.577-8.548-12.886-11.738c-8.492-3.26-19.8-5.055-31.828-5.055" transform="translate(-89.091 -417.137)" fill="#caddff"/>
    <path id="Trazado_882235" data-name="Trazado 882235" d="M195.89,703.3c-3.929.745-10.335,1.066-21.281,5.126-3.912,1.451-9.249,4.135-11.121,8.2-2.175,4.727,5.406,9.793,9.4,10.134,1.233.105,2.481,0,3.707.17a4.537,4.537,0,0,1,3.19,1.682c.37.536.562,1.181.937,1.714a5.534,5.534,0,0,0,3.6,1.831,34.408,34.408,0,0,0,16.65-.783c4.451-1.343,7.732-.709,12.257-.131,1.906.244,3.821.823,5.708.977,3.559.29,8.3-.97,11.016-3.352a21.14,21.14,0,0,0,4.2-4.573,2.561,2.561,0,0,0,.42-1.008c.137-1.113-.967-1.923-1.852-2.611-1.941-1.509-4.682-3.975-4.731-6.633-.037-1.974,1.377-2.226,2.672-3.074a.482.482,0,0,0,.243-.7,3.351,3.351,0,0,0-1.761-1.8,1.9,1.9,0,0,1-.516-.269,1.978,1.978,0,0,1-.329-.445,4.991,4.991,0,0,0-3.257-1.852c-4.55-.995-8.94-2.857-13.616-3.271a56.748,56.748,0,0,0-15.542.665" transform="translate(-97.424 -419.547)" fill="#99b9ff"/>
    <path id="Trazado_882236" data-name="Trazado 882236" d="M164.96,723.431c2.719-7.1,11.692-11.286,25.934-13.031a.631.631,0,0,1,.709.721.382.382,0,0,1-.242.3c-9.882,4.246-13.152.1-25.475,12.841a.389.389,0,0,1-.278.116.694.694,0,0,1-.647-.95" transform="translate(-98.505 -424.329)" fill="#caddff"/>
    <path id="Trazado_882237" data-name="Trazado 882237" d="M173.629,713.356a6.143,6.143,0,0,1,.972-4.729,2.057,2.057,0,0,1,2.272-.646q10.293,3.474,20.861,7.893a.628.628,0,0,1-.277,1.207c-9.053-.517-17.448-1.089-22.023-1.99a2.285,2.285,0,0,1-1.8-1.735" transform="translate(-103.639 -422.821)" fill="#5479f7"/>
    <path id="Trazado_882238" data-name="Trazado 882238" d="M185.083,712.968a.6.6,0,0,1-.593-.495c-.432-2.35.637-3.086,1.609-3.289a.6.6,0,0,1,.248,1.182c-.342.072-.979.205-.669,1.889a.6.6,0,0,1-.595.713" transform="translate(-110.139 -423.598)" fill="#99b9ff"/>
    <path id="Trazado_882239" data-name="Trazado 882239" d="M199.754,724.55a.622.622,0,0,1-.406-.149c-.571-.489-.631-1.631-.155-2.909a.6.6,0,1,1,1.132.422,2.213,2.213,0,0,0-.174,1.588.6.6,0,0,1-.4,1.048" transform="translate(-118.791 -430.723)" fill="#99b9ff"/>
    <path id="Trazado_882240" data-name="Trazado 882240" d="M217.362,722.886a.614.614,0,0,1-.129-.014.6.6,0,0,1-.462-.719l.259-1.191a.6.6,0,1,1,1.18.256l-.259,1.191a.6.6,0,0,1-.59.476" transform="translate(-129.472 -430.357)" fill="#99b9ff"/>
    <path id="Trazado_882241" data-name="Trazado 882241" d="M337.139,719.963c1.03.689,2.562,1.142,5.967.71a2.544,2.544,0,0,0,2.23-2.536,17.122,17.122,0,0,0-1.591-8.077,2.418,2.418,0,0,0-.776-.842c-1.642-1.1-3.193-1.577-4.577-.939a2.471,2.471,0,0,0-1.308,1.548,19.6,19.6,0,0,0-1.022,8.451,2.524,2.524,0,0,0,1.076,1.684" transform="translate(-200.651 -422.895)" fill="#5479f7"/>
    <path id="Trazado_882242" data-name="Trazado 882242" d="M209.908,723.31c-.989,2.19-1.154,4.336,6.664,6.051,15.031,3.09,17.37,2.737,23.057,2.419,9.437,1,12.129.487,11.05-.864-.508-4.658-9.422-5.279-14.458-19.326-3.469-2.068-9.307-3.128-8.969,2.847.226.433-.152.945-.539.728-8.132-4.55-12.288,1.645-16.806,8.144" transform="translate(-125.095 -424.069)" fill="#caddff"/>
    <path id="Trazado_882243" data-name="Trazado 882243" d="M214.537,711.737c-.989,2.19-1.154,4.337,6.664,6.051,15.031,3.09,17.37,2.737,23.057,2.419,9.437,1,12.129.487,11.05-.864-.508-4.658-9.422-5.279-14.458-19.326-3.469-2.068-9.307-3.128-8.969,2.847.226.433-.152.945-.539.728-8.132-4.55-12.288,1.645-16.806,8.144" transform="translate(-127.86 -417.157)" fill="#caddff"/>
    <path id="Trazado_882244" data-name="Trazado 882244" d="M225.874,742.347l-.045,0c-5.94-.433-9.693-1.835-11.474-4.286a.6.6,0,0,1,.977-.71c1.559,2.145,5.021,3.385,10.585,3.791a.6.6,0,0,1-.043,1.207" transform="translate(-127.969 -440.281)" fill="#99b9ff"/>
    <path id="Trazado_882245" data-name="Trazado 882245" d="M348.03,757.409c2.518-.828.739-2.794-1.38-2.08-.626.211-3.955,1.76-1.828,2.236a6.084,6.084,0,0,0,3.208-.156" transform="translate(-205.548 -451.077)" fill="#99b9ff"/>
    <path id="Trazado_882246" data-name="Trazado 882246" d="M187.18,733.51c.445.03.909.46.741.873a1.006,1.006,0,0,1-.658.469c-1.014.358-4.1,2.249-4.428.375-.3-1.7,3.255-1.791,4.346-1.717" transform="translate(-109.199 -438.126)" fill="#fff"/>
    <path id="Trazado_882247" data-name="Trazado 882247" d="M301.115,774.363c-.313-3.267,1.825-5.891,7.806-5.747.21,3.44-2.508,5.292-7.806,5.747" transform="translate(-179.843 -459.102)" fill="#5479f7"/>
    <path id="Trazado_882248" data-name="Trazado 882248" d="M302.58,774.4a.6.6,0,0,1-.354-1.094l5.543-4.007a.6.6,0,0,1,.708.979l-5.543,4.007a.6.6,0,0,1-.354.114" transform="translate(-180.374 -459.445)" fill="#99b9ff"/>
    <path id="Trazado_882249" data-name="Trazado 882249" d="M296.546,771.327c-2.4-.923-3.529-3.4-1.562-7.764,2.646.931,3.23,3.512,1.991,7.55a.328.328,0,0,1-.429.213" transform="translate(-175.597 -456.087)" fill="#5479f7"/>
    <path id="Trazado_882250" data-name="Trazado 882250" d="M296.854,770.312a.6.6,0,0,1-.592-.486L295.5,766a.6.6,0,0,1,1.185-.236l.762,3.829a.6.6,0,0,1-.475.71.629.629,0,0,1-.118.012" transform="translate(-176.499 -457.11)" fill="#99b9ff"/>
    <path id="Trazado_882251" data-name="Trazado 882251" d="M183.994,726.8s-.087-10.3,19.236-14.856,26.616-2.183,32.257-13.173l2.185.668s3.053,24.536-18.168,31.269-35.51-3.909-35.51-3.909" transform="translate(-109.902 -417.386)" fill="#fff"/>
    <path id="Trazado_882252" data-name="Trazado 882252" d="M204.706,732.627c-13.387,0-21.858-6.157-21.969-6.24a.605.605,0,0,1-.243-.48c0-.44.134-10.831,19.7-15.449,5.128-1.21,9.329-1.919,13.035-2.545,10.171-1.717,14.812-2.5,18.824-10.316a.6.6,0,0,1,.714-.3l2.185.668a.6.6,0,0,1,.422.5,38.093,38.093,0,0,1-1.142,13.342c-1.763,6.509-6.22,15.016-17.442,18.577a46.4,46.4,0,0,1-14.085,2.24M183.723,725.6c2.036,1.366,15.594,9.7,34.7,3.634,8.58-2.722,14.176-8.679,16.631-17.7A38.084,38.084,0,0,0,236.215,699l-1.321-.4c-4.242,7.937-9.389,8.806-19.463,10.506-3.688.623-7.868,1.328-12.958,2.53-16.8,3.965-18.565,12.292-18.749,13.967" transform="translate(-109.006 -416.49)"/>
    <path id="Trazado_882253" data-name="Trazado 882253" d="M256.39,699.942l-1.075-.329c-.716,6.194-2.754,13.528-8.026,18.257-10.634,9.539-27.048-9.607-25.483,3.79.891,7.627-2.585,10.217-6.476,10.836a44.069,44.069,0,0,0,22.892-1.285c21.221-6.733,18.168-31.269,18.168-31.269" transform="translate(-128.62 -417.889)" fill="#caddff"/>
    <path id="Trazado_882254" data-name="Trazado 882254" d="M204.706,732.627c-13.387,0-21.858-6.157-21.969-6.24a.605.605,0,0,1-.243-.48c0-.44.134-10.831,19.7-15.449,5.128-1.21,9.329-1.919,13.035-2.545,10.171-1.717,14.812-2.5,18.824-10.316a.6.6,0,0,1,.714-.3l2.185.668a.6.6,0,0,1,.422.5,38.093,38.093,0,0,1-1.142,13.342c-1.763,6.509-6.22,15.016-17.442,18.577a46.4,46.4,0,0,1-14.085,2.24M183.723,725.6c2.036,1.366,15.594,9.7,34.7,3.634,8.58-2.722,14.176-8.679,16.631-17.7A38.084,38.084,0,0,0,236.215,699l-1.321-.4c-4.242,7.937-9.389,8.806-19.463,10.506-3.688.623-7.868,1.328-12.958,2.53-16.8,3.965-18.565,12.292-18.749,13.967" transform="translate(-109.006 -416.49)"/>
    <path id="Trazado_882255" data-name="Trazado 882255" d="M217.34,755.341a.6.6,0,0,1-.546-.861c4.3-9.169-4.009-14.547-4.365-14.772a.6.6,0,0,1,.645-1.022c.1.061,9.559,6.184,4.813,16.307a.6.6,0,0,1-.547.347" transform="translate(-126.719 -441.173)"/>
    <path id="Trazado_882256" data-name="Trazado 882256" d="M205.754,752.416a1.314,1.314,0,1,1-1.314-1.314,1.313,1.313,0,0,1,1.314,1.314" transform="translate(-121.33 -448.644)" fill="#5479f7"/>
    <path id="Trazado_882257" data-name="Trazado 882257" d="M301.94,681.588s-8.142-3.5-7.33-14.455c0,0,10.247,3.714,8.322,11.787a18.606,18.606,0,0,1,13.664-5.084s-2.121,10.521-14.655,7.753" transform="translate(-175.941 -398.488)" fill="#5479f7"/>
    <path id="Trazado_882258" data-name="Trazado 882258" d="M318.483,692.027c-.142,0-.231,0-.257-.006a.6.6,0,0,1,.067-1.206,12.4,12.4,0,0,0,9.842-5.227.6.6,0,1,1,.972.718,13.5,13.5,0,0,1-10.624,5.721" transform="translate(-189.74 -409.366)"/>
    <path id="Trazado_882259" data-name="Trazado 882259" d="M301.466,682.924a.6.6,0,0,1-.415-.165,15.986,15.986,0,0,1-4.947-10.272.6.6,0,1,1,1.207-.04,15.043,15.043,0,0,0,4.569,9.435.6.6,0,0,1-.415,1.043" transform="translate(-176.867 -401.313)"/>
    <path id="Trazado_882260" data-name="Trazado 882260" d="M244.367,752.9a.708.708,0,0,0-.188,1.339c1.545.75,3.736,2.484,5.791,6.493q.18.35.358.68a9.228,9.228,0,0,0,12.558,3.678s-4.819.105-7.1-5.323a11.212,11.212,0,0,0-11.423-6.867" transform="translate(-145.61 -449.664)" fill="#5479f7"/>
    <path id="Trazado_882261" data-name="Trazado 882261" d="M266.232,771.193a.586.586,0,0,1-.075,0c-2.982-.369-7.09-2.122-9.725-8.369-.031-.074-.056-.133-.074-.175a.631.631,0,0,1-.038-.061.6.6,0,0,1,.243-.819.61.61,0,0,1,.49-.039c.268.094.343.271.492.624,2.411,5.716,6.1,7.31,8.761,7.64a.6.6,0,0,1-.074,1.2" transform="translate(-153.06 -454.97)"/>
    <path id="Trazado_882262" data-name="Trazado 882262" d="M595.214,721.909c0,5.351-15.911,9.689-35.538,9.689S524.5,727.73,524.5,722.379s15.548-10.159,35.175-10.159,35.538,4.338,35.538,9.689" transform="translate(-313.292 -425.419)"/>
    <path id="Trazado_882263" data-name="Trazado 882263" d="M558.779,731.3C541,731.3,523,727.931,523,721.483c0-5.935,16.051-10.763,35.779-10.763,17.765,0,36.142,3.85,36.142,10.293S576.545,731.3,558.779,731.3m0-19.377c-20.373,0-34.571,5.036-34.571,9.555,0,4.234,12.932,8.614,34.571,8.614,20.9,0,34.934-4.7,34.934-9.084s-14.037-9.085-34.934-9.085" transform="translate(-312.396 -424.523)"/>
    <path id="Trazado_882264" data-name="Trazado 882264" d="M528.974,734.254c4.738,3.488,18.448,6.154,33.915,6.154,16.813,0,30.3-3.122,33.811-7.086-4.738-3.488-17.876-6-33.343-6-16.813,0-30.873,2.964-34.384,6.928" transform="translate(-315.964 -434.442)" fill="#caddff"/>
    <path id="Trazado_882265" data-name="Trazado 882265" d="M530.806,726.494a18.147,18.147,0,0,1,4.06-1.859,11.435,11.435,0,0,1,3.2-.719c.966-.041,1.931.132,2.9.122a27.282,27.282,0,0,0,3.812-.545,17.6,17.6,0,0,1,7.879.589.792.792,0,0,1,.535.36.78.78,0,0,1,.031.372q-.114,1.439-.228,2.88a2.175,2.175,0,0,1-.2.882,1.838,1.838,0,0,1-.513.55,14.629,14.629,0,0,1-3.745,1.761A23.142,23.142,0,0,0,540.7,736a7.6,7.6,0,0,1-2.8,2.134,5.405,5.405,0,0,1-4.064-.689,21.787,21.787,0,0,1-6.53-5.322c-1.525-1.912,1.977-4.639,3.5-5.627" transform="translate(-314.746 -432.032)" fill="#caddff"/>
    <path id="Trazado_882266" data-name="Trazado 882266" d="M527.274,733.653a1.41,1.41,0,0,1-1.1-2.289c2.643-3.31,7.767-6.778,12.007-6.692.309.006.618.023.927.041a7.463,7.463,0,0,0,3.288-.351c.361-.1.735-.2,1.125-.287a11.831,11.831,0,0,1,4.435-.109,6.819,6.819,0,0,1,4.642,2.655,1.409,1.409,0,1,1-2.338,1.573,4.239,4.239,0,0,0-2.769-1.448,8.991,8.991,0,0,0-3.368.083c-.317.069-.64.158-.981.252a10.116,10.116,0,0,1-4.191.447c-.277-.015-.553-.031-.829-.037-3.186-.068-7.541,2.872-9.745,5.632a1.407,1.407,0,0,1-1.1.53" transform="translate(-314.107 -432.34)" fill="#99b9ff"/>
    <path id="Trazado_882267" data-name="Trazado 882267" d="M538.374,738.363q-.2,0-.4-.011a4.68,4.68,0,0,1-3.3-1.61,3.249,3.249,0,0,1-.491-.831,1.471,1.471,0,0,1-.385-.048,2.164,2.164,0,0,1-1.422-1.5,2.414,2.414,0,0,1,.193-2.186c1.209-1.609,3.153-3.829,6.056-4.514a20.824,20.824,0,0,1,3.28-.5,58.368,58.368,0,0,0,6.717-.989l.071-.015a7.2,7.2,0,0,1,3.793-.065,3.715,3.715,0,0,1,2.2,2.037,2.809,2.809,0,0,1-.049,2.362,4.1,4.1,0,0,1-1.977,1.723l-8.691,4.393a12.6,12.6,0,0,1-5.6,1.753m1.052-6.8c0,.007,0,.015,0,.021a2.336,2.336,0,0,1-.891,1.664c-.256.225-.521.421-.776.61-.414.307-.929.689-.967.931,0,.02-.01.066.078.175a1.926,1.926,0,0,0,1.269.568,9.663,9.663,0,0,0,4.564-1.444l8.691-4.393a3.181,3.181,0,0,0,.712-.442.854.854,0,0,0-.507-.489,4.921,4.921,0,0,0-2.33.149l-.072.015c-1.784.37-3.6.662-5.418.871a1.41,1.41,0,0,1-1.159,1.211Zm-1.338.811h0" transform="translate(-317.892 -433.566)" fill="#99b9ff"/>
    <path id="Trazado_882268" data-name="Trazado 882268" d="M545.744,737.963a1.534,1.534,0,0,1-.773-.207,1.47,1.47,0,0,1-.676-1.694,1.626,1.626,0,0,1,1.684-1.128,8.485,8.485,0,0,0,5.9-1.949c.213-.192.417-.4.622-.607a6.621,6.621,0,0,1,2.832-1.965,5.637,5.637,0,0,1,.954-.178,1.406,1.406,0,0,1,.092-1.27,1.972,1.972,0,0,1,1.756-.946A2.163,2.163,0,0,1,560,729.1a2.465,2.465,0,0,1-.6,3.022,3.792,3.792,0,0,1-2.068.84c-.154.02-.309.035-.464.051a4.46,4.46,0,0,0-.741.111,4.372,4.372,0,0,0-1.613,1.24c-.234.236-.475.48-.736.716a11.161,11.161,0,0,1-7.252,2.679,1.525,1.525,0,0,1-.775.21m-1.13-.711v0m0,0h0" transform="translate(-325.078 -434.855)" fill="#99b9ff"/>
    <path id="Trazado_882269" data-name="Trazado 882269" d="M546.621,737.008a1.66,1.66,0,0,1-1.076-.4,1.786,1.786,0,0,1-.611-1.637,2.29,2.29,0,0,1,.829-1.348,9.076,9.076,0,0,1,2.086-1.493,9.209,9.209,0,0,1,2.112-.632,7.2,7.2,0,0,0,1.436-.4,7.674,7.674,0,0,0,.971-.571,5.681,5.681,0,0,1,2.921-1.156,1.409,1.409,0,0,1,.093,2.817,3.43,3.43,0,0,0-1.475.7,10.082,10.082,0,0,1-1.353.78,9.574,9.574,0,0,1-2.016.588,6.864,6.864,0,0,0-1.481.42,4.739,4.739,0,0,0-.976.668,1.41,1.41,0,0,1-.94,1.58,1.639,1.639,0,0,1-.521.085" transform="translate(-325.484 -435.662)" fill="#99b9ff"/>
    <path id="Trazado_882270" data-name="Trazado 882270" d="M526.138,729.66a1.457,1.457,0,0,1-1.054-.461c-.806-.883-.194-1.8.454-2.779a9.151,9.151,0,0,1,1-1.339,17.084,17.084,0,0,1,4.959-3.074c.435-.2.9-.413,1.393-.655l.209-.1a10.6,10.6,0,0,1,2.25-.917,8.129,8.129,0,0,0,.865-.25,5.3,5.3,0,0,1,2.973-.338,1.409,1.409,0,0,1-.693,2.732,3.5,3.5,0,0,0-1.408.285,10.193,10.193,0,0,1-1.193.335,12.245,12.245,0,0,0-1.547.679l-.223.11c-.517.251-.995.472-1.446.68a14.506,14.506,0,0,0-4.179,2.543c-.16.2-.546.762-.809,1.175a1.374,1.374,0,0,1-.447.9,1.623,1.623,0,0,1-1.1.471m2.314-2.51-.015.013.015-.013" transform="translate(-313.411 -429.853)" fill="#99b9ff"/>
    <path id="Trazado_882271" data-name="Trazado 882271" d="M571.461,725.164a1.411,1.411,0,0,1-1.389-1.171c-.082,0-.164,0-.245,0-.2,0-.406.008-.607,0a7.4,7.4,0,0,1-2-.463,6.162,6.162,0,0,0-1.126-.308,6.409,6.409,0,0,0-2.431.426,7.2,7.2,0,0,1-4.273.35,1.409,1.409,0,0,1,.818-2.7,4.942,4.942,0,0,0,2.646-.353,8.666,8.666,0,0,1,3.588-.522,8.482,8.482,0,0,1,1.68.435,5.138,5.138,0,0,0,1.25.319c.128.007.257,0,.386,0a4.356,4.356,0,0,1,1.405.137,2.525,2.525,0,0,1,1.549,1.32,2.024,2.024,0,0,1,.04,1.675,1.41,1.41,0,0,1-1.3.854" transform="translate(-333.536 -430.296)" fill="#99b9ff"/>
    <path id="Trazado_882272" data-name="Trazado 882272" d="M534.04,749.518a2.979,2.979,0,0,1-1.885-.636,3.815,3.815,0,0,1-.826-1,3.22,3.22,0,0,0-.187-.278,3.628,3.628,0,0,0-.623-.537l-3.884-2.922a1.409,1.409,0,1,1,1.695-2.253l3.884,2.922a5.891,5.891,0,0,1,1.142,1.045,5.819,5.819,0,0,1,.354.515,2.41,2.41,0,0,0,.22.316.744.744,0,0,0,.33-.028,4.222,4.222,0,0,0,1.072-.618l2.975-2.087a1.409,1.409,0,1,1,1.618,2.308l-2.975,2.087a6.547,6.547,0,0,1-1.889,1.013,3.6,3.6,0,0,1-1.022.151" transform="translate(-314.232 -442.975)" fill="#99b9ff"/>
    <path id="Trazado_882273" data-name="Trazado 882273" d="M600.548,713.539a20.094,20.094,0,0,1,4.587-.51,12.619,12.619,0,0,1,3.371.281c.962.247,1.853.689,2.807.964a29.873,29.873,0,0,0,3.919.622,18.811,18.811,0,0,1,7.547,2.859c.187.123.389.276.409.488a.713.713,0,0,1-.09.351l-1.153,2.576a2.105,2.105,0,0,1-.477.752,1.964,1.964,0,0,1-.681.354,16.167,16.167,0,0,1-4.246.513,25.413,25.413,0,0,0-9.346,2.386,8.294,8.294,0,0,1-3.435,1.135c-1.459,0-9.135-1.414-10.15-2.382-1.916-1.827,2.645-3.858,1.688-6.253-.88-2.2,3.439-3.675,5.249-4.136" transform="translate(-354.289 -425.899)" fill="#5479f7"/>
    <path id="Trazado_882274" data-name="Trazado 882274" d="M626.488,722.385a.6.6,0,0,1-.578-.429,4.938,4.938,0,0,0-2.661-2.6,10.658,10.658,0,0,0-3.653-1c-.358-.032-.714-.046-1.092-.061a13.489,13.489,0,0,1-2.05-.188,13.245,13.245,0,0,1-1.931-.582c-.276-.1-.552-.2-.83-.287a13.372,13.372,0,0,0-10.834,1.275.6.6,0,0,1-.634-1.028,14.609,14.609,0,0,1,11.838-1.4c.292.094.58.2.869.3a12.115,12.115,0,0,0,1.755.533,12.323,12.323,0,0,0,1.867.167c.375.015.763.031,1.15.065a11.9,11.9,0,0,1,4.071,1.118,5.96,5.96,0,0,1,3.292,3.342.6.6,0,0,1-.578.779" transform="translate(-359.547 -427.329)" fill="#99b9ff"/>
    <path id="Trazado_882275" data-name="Trazado 882275" d="M609.969,727.108a8.118,8.118,0,0,1-2.763-.432,3.847,3.847,0,0,1-2.268-2.069,2.034,2.034,0,0,1,.1-1.742,3.806,3.806,0,0,1,2.438-1.535c.286-.09.557-.176.8-.276l.07-.029a.63.63,0,0,1-.066-.07.6.6,0,0,1-.1-.575l.2-.576a.589.589,0,0,1,.1-.174,10.273,10.273,0,0,0-4.373,1.57.661.661,0,0,0-.136.121.6.6,0,0,1-.827.833.892.892,0,0,1-.445-.757,1.555,1.555,0,0,1,.745-1.206,11.627,11.627,0,0,1,7.108-1.814,22.638,22.638,0,0,1,3.1.517l.5.106a65.076,65.076,0,0,0,7.017,1.085l.075.007a6.976,6.976,0,0,1,3.323.906,2.751,2.751,0,0,1,1.183,1.989,1.915,1.915,0,0,1-.58,1.574,3.563,3.563,0,0,1-2.007.765L613.2,726.8a22.056,22.056,0,0,1-3.231.31m-.255-6.4a1,1,0,0,1-.033.641,1.6,1.6,0,0,1-.953.823c-.291.117-.6.214-.892.307-.756.239-1.471.465-1.741.962a.837.837,0,0,0-.028.735,2.676,2.676,0,0,0,1.548,1.361,11.37,11.37,0,0,0,5.407.064l9.952-1.474a2.565,2.565,0,0,0,1.352-.445.71.71,0,0,0,.208-.6,1.556,1.556,0,0,0-.661-1.089,6,6,0,0,0-2.759-.7l-.076-.008c-2.187-.217-4.383-.546-6.537-.979a.6.6,0,0,1-.564.958Zm.594-1.14,1.763.232a14.7,14.7,0,0,0-1.611-.221l-.153-.01" transform="translate(-359.999 -429.078)" fill="#99b9ff"/>
    <path id="Trazado_882276" data-name="Trazado 882276" d="M619.988,729.815a12.691,12.691,0,0,1-3.669-.554l-.013.007a.723.723,0,0,1-.869-.179.659.659,0,0,1-.033-.828.831.831,0,0,1,1-.24,10.3,10.3,0,0,0,7.085-.078c.286-.12.568-.257.851-.394a5.061,5.061,0,0,1,4.113-.718c.136.027.272.055.409.078a2.1,2.1,0,0,0,1.127-.035c.221-.089.371-.289.349-.4,0,0-.163-.206-1.1-.206a24.106,24.106,0,0,0-6.579,1.4.6.6,0,0,1-.361-1.153c4.593-1.439,7.406-1.8,8.6-1.1a1.257,1.257,0,0,1,.623.813,1.617,1.617,0,0,1-1.077,1.764,3.3,3.3,0,0,1-1.784.106c-.149-.025-.3-.055-.445-.085a5.484,5.484,0,0,0-.926-.135,5.414,5.414,0,0,0-2.421.757c-.3.147-.6.292-.909.42a10.274,10.274,0,0,1-3.972.758m-4.537-.961h0" transform="translate(-367.513 -433.097)" fill="#99b9ff"/>
    <path id="Trazado_882277" data-name="Trazado 882277" d="M620.466,727.928c-1.458,0-2.4-.486-2.8-1.455a.715.715,0,0,1,.007-.573,1.133,1.133,0,0,1,.747-.543c.038-.013.074-.025.1-.038a9.176,9.176,0,0,1,2.292-.695,9.293,9.293,0,0,1,2.067.045,8.685,8.685,0,0,0,1.732.056,9.129,9.129,0,0,0,1.273-.263,5.36,5.36,0,0,1,2.762-.2.6.6,0,1,1-.311,1.167,4.418,4.418,0,0,0-2.153.207,10.2,10.2,0,0,1-1.445.294,9.693,9.693,0,0,1-1.976-.056,8.262,8.262,0,0,0-1.8-.047,7.721,7.721,0,0,0-1.886.574c.505.387,1.508.435,2.994.143a1.894,1.894,0,0,1,.331-.05h.008a.6.6,0,0,1,.045,1.206l-.15.029a9.66,9.66,0,0,1-1.846.2" transform="translate(-368.909 -432.544)" fill="#99b9ff"/>
    <path id="Trazado_882278" data-name="Trazado 882278" d="M600.587,715.636a.6.6,0,0,1-.6-.6c0-.448.287-.8.863-1.043a31.7,31.7,0,0,1,8.222-2.245,7.626,7.626,0,0,1,1.83-.075,8.142,8.142,0,0,1,3.2,1.287.6.6,0,0,1-.61,1.043,7.229,7.229,0,0,0-2.721-1.129,6.578,6.578,0,0,0-1.539.071,30.492,30.492,0,0,0-7.909,2.16,1.188,1.188,0,0,0-.145.071.6.6,0,0,1-.583.461Z" transform="translate(-358.379 -425.076)" fill="#99b9ff"/>
    <path id="Trazado_882279" data-name="Trazado 882279" d="M648.318,721.108a.6.6,0,0,1-.44-1.018.567.567,0,0,0-.22-.283,2.869,2.869,0,0,0-.76-.283c-.179-.05-.358-.1-.53-.161a6.913,6.913,0,0,1-1.608-.908,6.963,6.963,0,0,0-1.154-.7,7.667,7.667,0,0,0-2.88-.4,7.03,7.03,0,0,1-3.827-.793.6.6,0,0,1,.657-1.014,6.076,6.076,0,0,0,3.193.6,8.649,8.649,0,0,1,3.338.5,7.976,7.976,0,0,1,1.362.812,5.91,5.91,0,0,0,1.327.764c.145.052.295.093.444.134a3.856,3.856,0,0,1,1.092.431,1.671,1.671,0,0,1,.755,1.158,1.178,1.178,0,0,1-.308.969.6.6,0,0,1-.44.19" transform="translate(-380.264 -427.351)" fill="#99b9ff"/>
    <path id="Trazado_882280" data-name="Trazado 882280" d="M605.258,732.326h-.074a2.461,2.461,0,0,1-2-.946,2.884,2.884,0,0,1-.388-.942,3.643,3.643,0,0,0-.117-.381,3.9,3.9,0,0,0-.532-.843A28.149,28.149,0,0,0,599.7,726.7a28.1,28.1,0,0,1-2.574-2.659.6.6,0,0,1,.966-.725,28.307,28.307,0,0,0,2.444,2.512,28.105,28.105,0,0,1,2.574,2.659,4.873,4.873,0,0,1,.69,1.127,4.679,4.679,0,0,1,.158.507,1.892,1.892,0,0,0,.214.569,1.311,1.311,0,0,0,1.032.428,5.343,5.343,0,0,0,1.537-.289l3.6-1.04a.6.6,0,0,1,.335,1.161l-3.6,1.04a6.559,6.559,0,0,1-1.823.337" transform="translate(-356.602 -431.903)" fill="#99b9ff"/>
    <path id="Trazado_882281" data-name="Trazado 882281" d="M634.161,736.587c-.812.4-1.568.546-1.688.336s.441-.7,1.253-1.1,1.568-.546,1.688-.336-.441.7-1.253,1.1" transform="translate(-377.776 -439.263)" fill="#fff"/>
    <path id="Trazado_882282" data-name="Trazado 882282" d="M664.512,728.094c.1.584-2.29,1.255-5.327,1.5s-5.577-.032-5.672-.616,2.29-1.255,5.327-1.5,5.577.031,5.672.615" transform="translate(-390.351 -434.481)" fill="#5479f7"/>
    <path id="Trazado_882283" data-name="Trazado 882283" d="M653.374,728.587l-.1-.99,10.975-.882.124.989Z" transform="translate(-390.21 -434.077)" fill="#5479f7"/>
    <path id="Trazado_882284" data-name="Trazado 882284" d="M664.274,725.689c.1.584-2.29,1.255-5.327,1.5s-5.577-.032-5.672-.616,2.29-1.255,5.327-1.5,5.577.031,5.672.615" transform="translate(-390.209 -433.044)" fill="#caddff"/>
    <path id="Trazado_882285" data-name="Trazado 882285" d="M677.961,731.658c.1.625-2.288,1.32-5.327,1.551s-5.582-.088-5.679-.713,2.288-1.32,5.327-1.551,5.582.088,5.679.713" transform="translate(-398.38 -436.559)" fill="#5479f7"/>
    <path id="Trazado_882286" data-name="Trazado 882286" d="M666.812,732.129l-.1-1.06,10.982-.835.127,1.057Z" transform="translate(-398.235 -436.179)" fill="#5479f7"/>
    <path id="Trazado_882287" data-name="Trazado 882287" d="M677.715,729.085c.1.625-2.288,1.32-5.327,1.551s-5.582-.088-5.679-.714,2.288-1.319,5.327-1.551,5.582.088,5.679.714" transform="translate(-398.233 -435.022)" fill="#99b9ff"/>
    <path id="Trazado_882288" data-name="Trazado 882288" d="M681.755,737.989c.109.72-2.268,1.482-5.309,1.7s-5.594-.187-5.7-.907,2.268-1.482,5.309-1.7,5.594.187,5.7.907" transform="translate(-400.643 -440.234)" fill="#5479f7"/>
    <path id="Trazado_882289" data-name="Trazado 882289" d="M670.573,738.448l-.122-1.22,10.987-.792.146,1.218Z" transform="translate(-400.47 -439.884)" fill="#5479f7"/>
    <path id="Trazado_882290" data-name="Trazado 882290" d="M681.462,735.027c.109.72-2.268,1.482-5.309,1.7s-5.594-.187-5.7-.907,2.268-1.482,5.309-1.7,5.594.187,5.7.907" transform="translate(-400.468 -438.465)" fill="#99b9ff"/>
    <path id="Trazado_882291" data-name="Trazado 882291" d="M679.424,744.576c.049.71-2.386,1.368-5.44,1.47s-5.57-.391-5.619-1.1,2.386-1.368,5.44-1.47,5.57.391,5.619,1.1" transform="translate(-399.224 -444.081)" fill="#5479f7"/>
    <path id="Trazado_882292" data-name="Trazado 882292" d="M668.338,744.856l-.021-1.2,11.034-.368.046,1.2Z" transform="translate(-399.195 -443.977)" fill="#5479f7"/>
    <path id="Trazado_882293" data-name="Trazado 882293" d="M679.375,741.662c.049.71-2.386,1.368-5.44,1.47s-5.57-.391-5.619-1.1,2.386-1.368,5.44-1.47,5.57.391,5.619,1.1" transform="translate(-399.195 -442.34)" fill="#99b9ff"/>
    <path id="Trazado_882294" data-name="Trazado 882294" d="M672.039,738.029c.092.584-2.3,1.25-5.335,1.486s-5.577-.045-5.669-.63,2.3-1.25,5.335-1.486,5.577.045,5.669.63" transform="translate(-394.844 -440.409)" fill="#5479f7"/>
    <path id="Trazado_882295" data-name="Trazado 882295" d="M660.9,738.507l-.094-.991,10.979-.854.119.989Z" transform="translate(-394.711 -440.019)" fill="#5479f7"/>
    <path id="Trazado_882296" data-name="Trazado 882296" d="M671.813,735.624c.092.584-2.3,1.25-5.335,1.486s-5.577-.046-5.669-.63,2.3-1.25,5.335-1.486,5.577.046,5.669.63" transform="translate(-394.709 -438.973)" fill="#caddff"/>
    <path id="Trazado_882297" data-name="Trazado 882297" d="M660.879,733.276c.1.584-2.29,1.255-5.327,1.5s-5.577-.031-5.672-.615,2.29-1.255,5.327-1.5,5.577.032,5.672.616" transform="translate(-388.181 -437.576)" fill="#5479f7"/>
    <path id="Trazado_882298" data-name="Trazado 882298" d="M649.741,733.769l-.1-.99,10.975-.882.124.989Z" transform="translate(-388.04 -437.173)" fill="#5479f7"/>
    <path id="Trazado_882299" data-name="Trazado 882299" d="M660.641,730.871c.1.584-2.29,1.255-5.327,1.5s-5.577-.032-5.672-.616,2.29-1.255,5.327-1.5,5.577.031,5.672.615" transform="translate(-388.039 -436.139)" fill="#99b9ff"/>
    <path id="Trazado_882300" data-name="Trazado 882300" d="M670.49,744.208c-.812.4-1.568.546-1.688.336s.441-.7,1.254-1.1,1.567-.546,1.687-.336-.441.7-1.253,1.1" transform="translate(-399.476 -443.815)" fill="#fff"/>
    <path id="Trazado_882301" data-name="Trazado 882301" d="M642.253,735.673c-.812.4-1.568.546-1.688.336s.441-.7,1.253-1.1,1.568-.546,1.688-.336-.441.7-1.253,1.1" transform="translate(-382.609 -438.717)" fill="#fff"/>
    <path id="Trazado_882302" data-name="Trazado 882302" d="M642.947,753.709c-.582.655-1.215,1.064-1.414.914s.112-.8.695-1.458,1.215-1.064,1.414-.914-.112.8-.695,1.458" transform="translate(-383.161 -449.312)" fill="#fff"/>
    <path id="Trazado_882303" data-name="Trazado 882303" d="M636.308,746.037c-.812.4-1.568.546-1.688.336s.441-.7,1.254-1.1,1.567-.546,1.687-.336-.441.7-1.253,1.1" transform="translate(-379.058 -444.908)" fill="#fff"/>
    <path id="Trazado_882304" data-name="Trazado 882304" d="M637.9,735.753c-.908.122-1.675.031-1.712-.2s.669-.524,1.578-.646,1.675-.031,1.712.2-.669.524-1.578.646" transform="translate(-380.005 -438.936)" fill="#fff"/>
    <path id="Trazado_882305" data-name="Trazado 882305" d="M649,736.506c-.885-.224-1.548-.591-1.481-.82s.841-.233,1.727-.009,1.548.591,1.48.82-.841.233-1.726.009" transform="translate(-386.769 -439.332)" fill="#fff"/>
    <path id="Trazado_882306" data-name="Trazado 882306" d="M673.106,745.651c-.885-.224-1.548-.591-1.48-.82s.841-.233,1.726-.009,1.548.591,1.48.82-.841.233-1.726.009" transform="translate(-401.169 -444.795)" fill="#fff"/>
    <path id="Trazado_882307" data-name="Trazado 882307" d="M678.556,749.919c-.885-.224-1.548-.591-1.48-.82s.841-.233,1.726-.009,1.548.591,1.48.82-.841.233-1.726.009" transform="translate(-404.424 -447.344)" fill="#fff"/>
    <path id="Trazado_882308" data-name="Trazado 882308" d="M627.2,740.012c-.885-.224-1.548-.591-1.481-.82s.841-.233,1.727-.009,1.548.591,1.48.82-.841.233-1.726.009" transform="translate(-373.749 -441.427)" fill="#fff"/>
    <path id="Trazado_882309" data-name="Trazado 882309" d="M638.429,749.615c-.886-.224-1.548-.591-1.48-.82s.841-.233,1.726-.009,1.548.591,1.48.82-.841.233-1.726.009" transform="translate(-380.456 -447.162)" fill="#fff"/>
    <path id="Trazado_882310" data-name="Trazado 882310" d="M640.411,751.748c-.885-.224-1.548-.591-1.48-.82s.841-.233,1.726-.009,1.548.591,1.48.82-.841.233-1.726.009" transform="translate(-381.64 -448.437)" fill="#fff"/>
    <path id="Trazado_882311" data-name="Trazado 882311" d="M641.071,753.729c-.885-.224-1.548-.591-1.48-.82s.841-.233,1.726-.009,1.548.591,1.48.82-.841.233-1.726.009" transform="translate(-382.034 -449.62)" fill="#fff"/>
    <path id="Trazado_882312" data-name="Trazado 882312" d="M666.5,742.451c-.886-.224-1.548-.591-1.48-.82s.841-.232,1.726-.008,1.548.591,1.48.819-.841.233-1.726.009" transform="translate(-397.224 -442.883)" fill="#fff"/>
    <path id="Trazado_882313" data-name="Trazado 882313" d="M677.417,748.67c-.918,0-1.662-.193-1.662-.43s.744-.43,1.662-.43,1.662.193,1.662.43-.744.43-1.662.43" transform="translate(-403.638 -446.678)" fill="#fff"/>
    <path id="Trazado_882314" data-name="Trazado 882314" d="M657.286,739.17c-.9.183-1.668.143-1.724-.088s.626-.568,1.523-.751,1.668-.143,1.723.088-.626.568-1.523.751" transform="translate(-391.575 -440.947)" fill="#fff"/>
    <path id="Trazado_882315" data-name="Trazado 882315" d="M654.644,737.646c-.9.183-1.668.143-1.724-.088s.626-.568,1.523-.751,1.668-.143,1.724.089-.626.568-1.523.751" transform="translate(-389.997 -440.037)" fill="#fff"/>
    <path id="Trazado_882316" data-name="Trazado 882316" d="M662.7,740.186c-.91-.11-1.621-.391-1.587-.626s.8-.336,1.709-.226,1.621.391,1.587.626-.8.337-1.709.226" transform="translate(-394.894 -441.588)" fill="#fff"/>
    <path id="Trazado_882317" data-name="Trazado 882317" d="M628.193,741.862c-.91-.11-1.621-.391-1.587-.626s.8-.336,1.709-.226,1.621.391,1.587.626-.8.337-1.709.226" transform="translate(-374.28 -442.59)" fill="#fff"/>
    <path id="Trazado_882318" data-name="Trazado 882318" d="M630.285,744.9c-.795-.424-1.335-.934-1.207-1.139s.877-.029,1.672.4,1.335.934,1.207,1.139-.877.029-1.672-.4" transform="translate(-375.746 -444.208)" fill="#fff"/>
    <path id="Trazado_882319" data-name="Trazado 882319" d="M633.72,735.875a7.8,7.8,0,0,1,3.606.224l2.993.749a24.571,24.571,0,0,1,4.333,1.374,23.367,23.367,0,0,1,4.053,2.584c.565.418,1.191.983,1.037,1.635-.135.576-.813.878-1.422,1.055-2.907.844-6.034.727-9.024,1.269-1.457.264-2.884.685-4.36.836a.615.615,0,0,1-.389-.047.478.478,0,0,1-.181-.3c-.286-1.072.264-2.326-.4-3.246a4.611,4.611,0,0,0-2.352-1.2c-1.389-.494-3.437-2.026-3.094-3.627.178-.83,1-.858,1.762-.939l3.435-.364" transform="translate(-375.404 -439.486)" fill="#fff"/>
    <path id="Trazado_882320" data-name="Trazado 882320" d="M624.422,739.79a1.264,1.264,0,0,1,.583.044l6.3,2.02a2.842,2.842,0,0,1,.979.534l4.675,3.983-2.342.327-13-6.465Z" transform="translate(-371.301 -441.878)" fill="#caddff"/>
    <path id="Trazado_882321" data-name="Trazado 882321" d="M563.031,741.844a6.979,6.979,0,0,1,3.305-1.508,33.366,33.366,0,0,0,3.582-.793c1.386-.47,2.717-1.309,4.178-1.231a21.014,21.014,0,0,1,2.287.473,13.939,13.939,0,0,0,3.8-.193,19.519,19.519,0,0,1,5.255.135.781.781,0,0,1,.392.141c.424.36.22,1.169.457,1.674a11.368,11.368,0,0,1,4.356,2.439,2.657,2.657,0,0,1,.925,1.6c.1,1.108-.917,2.011-1.953,2.391a11.243,11.243,0,0,1-3.748.475l-5.489.073a72.379,72.379,0,0,1-12.278-.539c-2.417-.382-9.019-1.487-5.067-5.137" transform="translate(-335.57 -441.002)" fill="#fff"/>
    <path id="Trazado_882322" data-name="Trazado 882322" d="M575.532,745.567c1.72-.1,3-1.645,4.612-2.247a2.22,2.22,0,0,1,.883-.166,5.442,5.442,0,0,1,1.232.355,6.422,6.422,0,0,0,2.96-.061l3.387-.6a15.148,15.148,0,0,1-5.621,1.753c-1.437.153-3.106.2-3.974,1.371a7.363,7.363,0,0,1-.669.965,2.457,2.457,0,0,1-1.638.538c-.836.039-4.453,0-4.786-1.04-.484-1.511,3.028-.828,3.614-.863" transform="translate(-341.588 -443.712)" fill="#caddff"/>
    <path id="Trazado_882323" data-name="Trazado 882323" d="M618.361,751.073a2.617,2.617,0,0,0,1.529-.95.621.621,0,0,0,.106-.279.783.783,0,0,0-.127-.413,7.6,7.6,0,0,0-1.411-1.992,3.23,3.23,0,0,0-2.183-.953,7.275,7.275,0,0,1,1.774,2.221,1.182,1.182,0,0,1,.167.531.883.883,0,0,1-.193.512,3.378,3.378,0,0,1-1.57.908,1.9,1.9,0,0,0-1.086.843c.712.406,2.228-.192,3-.428" transform="translate(-367.567 -445.887)" fill="#caddff"/>
    <path id="Trazado_882324" data-name="Trazado 882324" d="M596.929,746.289l2.442-.443a4.43,4.43,0,0,0,1.584-.5,5.783,5.783,0,0,0,1.46-1.683,2.72,2.72,0,0,1,1.749-1.289,4.86,4.86,0,0,0-1.723,2.4,1.913,1.913,0,0,1-.263.61,1.5,1.5,0,0,1-.606.4,30.732,30.732,0,0,1-3.6,1.25c-.54.163-2.637,1.162-3.086.586-.659-.847,1.5-1.231,2.047-1.331" transform="translate(-355.258 -443.43)" fill="#caddff"/>
    <path id="Trazado_882325" data-name="Trazado 882325" d="M566.975,743.856a2.177,2.177,0,0,1,1.589-.553,8.288,8.288,0,0,1,1.212-.021,5.922,5.922,0,0,0,1.263.075,6.356,6.356,0,0,0,2-1.02,3.9,3.9,0,0,1,2.092-.457c-.383,0-.678.318-.97.568-1.444,1.235-3.578,1.069-5.358,1.72a2.631,2.631,0,0,0-1.15.728,1.839,1.839,0,0,0-.35,1.214c-.91-.144-.791-1.7-.327-2.254" transform="translate(-338.451 -443.131)" fill="#caddff"/>
    <path id="Trazado_882326" data-name="Trazado 882326" d="M625.64,739.451,632.92,742a2.573,2.573,0,0,1,1.184.839l3.18,4.08-.975.573-7.636-5.855-3.092-.855Z" transform="translate(-373.669 -441.685)" fill="#99b9ff"/>
    <path id="Trazado_882327" data-name="Trazado 882327" d="M624.26,741.118l6.425,2.357a2.4,2.4,0,0,1,.853.534l4.071,3.983-2.039.327Z" transform="translate(-372.88 -442.681)" fill="#caddff"/>
    <path id="Trazado_882328" data-name="Trazado 882328" d="M622.388,740l6.306,3.571a2.575,2.575,0,0,1,.954.679l3.334,3.811-3.679.163Z" transform="translate(-371.761 -442.013)" fill="#99b9ff"/>
    <path id="Trazado_882329" data-name="Trazado 882329" d="M621.588,740.344l.1,1.475a.056.056,0,0,0,.026.044l4.3,2.917a.058.058,0,0,1,.024.032l1.043,3.447a.065.065,0,0,0,.073.043l1.469-.226a.061.061,0,0,0,.052-.074l-.953-3.52a.058.058,0,0,0-.02-.031l-4.152-3.343-1.411-1.033a.342.342,0,0,0-.551.266" transform="translate(-371.283 -442.019)" fill="#caddff"/>
    <path id="Trazado_882330" data-name="Trazado 882330" d="M573.331,717.535q.17.093.336.192a1.185,1.185,0,0,1,.374.3.8.8,0,0,1-.3,1.062,3.729,3.729,0,0,1-1.2.453,7.082,7.082,0,0,0-2.484,1.262c-.519.412-.971.9-1.524,1.269a7.875,7.875,0,0,1-1.966.883,26.264,26.264,0,0,1-4.543,1.05c-1.688.235-3.4.307-5.085.558a24.5,24.5,0,0,0-4.562,1.135,17.373,17.373,0,0,1-4,1.182,3.963,3.963,0,0,1-3.7-1.382,4.775,4.775,0,0,0-.435-.662,1.664,1.664,0,0,0-.821-.457c-.273-.071-.729,0-.945-.166a.713.713,0,0,1-.2-.275c-.673-1.455,1.258-2.564,2.367-3.2,3.592-2.067,7.953-3.126,12.066-3.869a56.522,56.522,0,0,1,5.688-.741c3.645-.28,7.705-.358,10.946,1.407" transform="translate(-323.82 -427.662)" fill="#fff"/>
    <path id="Trazado_882331" data-name="Trazado 882331" d="M573.222,716.4c-5.3,1.193-6.643,3.82-6.627,3.9.25,1.18,3.667,1.557,7.632.841s6.975-2.253,6.725-3.433a9.469,9.469,0,0,0-7.73-1.307" transform="translate(-338.435 -427.751)" fill="#99b9ff"/>
    <path id="Trazado_882332" data-name="Trazado 882332" d="M589.093,717.182c-.027.165-.5.238-1.053.162s-.985-.271-.958-.436.5-.238,1.054-.162.984.271.958.436" transform="translate(-350.672 -428.104)" fill="#fff"/>
    <path id="Trazado_882333" data-name="Trazado 882333" d="M595.2,735.548a2.684,2.684,0,0,1,.018.295c0,5.351-15.736,9.191-35.363,9.191-18.936,0-34.283-3.63-35.35-8.72l1.482,11.052c2.686,11.311,15.973,18.128,30.044,19.133,5.447.389,4.483.545,10.33,0,13.287-1.238,24.365-9.1,26.834-19.334l2.287-10.607a1.993,1.993,0,0,0-.282-1.009" transform="translate(-313.292 -439.354)"/>
    <path id="Trazado_882334" data-name="Trazado 882334" d="M362.182,681.9l38.792,2.883-2.667,3.366-37.8-3.311Z" transform="translate(-215.337 -407.31)" fill="#31a854"/>
    <path id="Trazado_882335" data-name="Trazado 882335" d="M454.373,692.427a50.38,50.38,0,0,0,8.885,3.938l4.288-4.629c-1.7-1.791-5.725-2.1-10.506-2.676Z" transform="translate(-271.404 -411.586)" fill="#31a854"/>
    <path id="Trazado_882336" data-name="Trazado 882336" d="M478.9,709.839a.6.6,0,0,1-.538-.327,14.158,14.158,0,0,0-5.735-6.155.6.6,0,0,1,.588-1.056,15.336,15.336,0,0,1,6.22,6.657.6.6,0,0,1-.536.881" transform="translate(-282.125 -419.449)" fill="#31a854"/>
    <path id="Trazado_882337" data-name="Trazado 882337" d="M490.419,702.759a.6.6,0,0,1-.538-.327,14.158,14.158,0,0,0-5.734-6.155.6.6,0,0,1,.588-1.055,15.327,15.327,0,0,1,6.22,6.656.6.6,0,0,1-.536.881" transform="translate(-289.003 -415.22)" fill="#31a854"/>
    <path id="Trazado_882338" data-name="Trazado 882338" d="M484.661,706.3a.6.6,0,0,1-.538-.327,14.153,14.153,0,0,0-5.734-6.155.6.6,0,0,1,.588-1.055,15.324,15.324,0,0,1,6.22,6.657.6.6,0,0,1-.536.881" transform="translate(-285.564 -417.335)" fill="#31a854"/>
    <path id="Trazado_882339" data-name="Trazado 882339" d="M378.886,706.759l56.468,9.385c-10.8,3.812-20.9,5.412-30.014,3.9l-2.1-2.175a10.678,10.678,0,0,0-5.746-3.08l-11.026-2.027a10.2,10.2,0,0,1-5.59-3.5Z" transform="translate(-226.314 -422.158)" fill="#31a854"/>
    <path id="Trazado_882340" data-name="Trazado 882340" d="M236.932,128.389a9.078,9.078,0,0,1,6.263-2.579,8.181,8.181,0,0,1,6.081,3.045,6.37,6.37,0,0,1,4.314-5.063c2.947-.714,5.7,2.086,7.585,4.55a1.479,1.479,0,0,1,.334,1.245,6.46,6.46,0,0,1,4.6-2.735,6.138,6.138,0,0,1,5.006,2.177,6.191,6.191,0,0,1,3.463-3.89,3.3,3.3,0,0,1,4.049,2.233c1.075-3.093,3.8-7.986,6.78-8.4,2.648-.365,5.334,1.9,5.276,5.347-.035,2.1.816,3.039,1.737.857,1.244-2.948,4.36-4.475,6.918-3.389a1.09,1.09,0,0,1,.755.848l.652.16c1.187,2.12,2.3,3.17,2.528,5.893,0,.046.005.092.009.138a5.769,5.769,0,0,1,.921-.567,4.056,4.056,0,0,1,5.639,1.519s.451-5.443,5.819-5.063a7.181,7.181,0,0,1,6.5,5.317s3.512-3.1,7.022-.7,3.1,15.257-4.439,15.065-7.974-9.323-7.974-9.323l-8.876,2.486c-.215.944-5.57-1.459-5.885-.588-3.7,10.221-15.819,10.932-23.559,10.718a76,76,0,0,1-16.186-2.327,86.775,86.775,0,0,1-9.479-2.418,14.741,14.741,0,0,1-7.266-5.483,4.724,4.724,0,0,0-.58-.931c-.664-.642-1.743-.433-2.51-.8-.5-.237-.953-.854-1.5-.909-1.784-.182-2.725,2.4-4.742.915a3.874,3.874,0,0,1-1.417-3.048,6.046,6.046,0,0,1,2.155-4.309" transform="translate(-140.236 -71.044)" fill="#31a854"/>
    <path id="Trazado_882341" data-name="Trazado 882341" d="M324.678,160.257l-3.547,15.1-69.369.172-4.336-15.193Z" transform="translate(-147.792 -95.724)" fill="#f9d0ac"/>
    <path id="Trazado_882342" data-name="Trazado 882342" d="M250.866,175.236a.6.6,0,0,1-.581-.438L245.95,159.6a.6.6,0,0,1,.58-.77l77.252-.078h0a.6.6,0,0,1,.588.742l-3.547,15.1a.6.6,0,0,1-.587.466l-69.369.173Zm-3.535-15.194,3.991,13.984,68.435-.17,3.263-13.891Z" transform="translate(-146.896 -94.828)"/>
    <rect id="Rectángulo_402104" data-name="Rectángulo 402104" width="113.138" height="5.773" transform="translate(66.284 79.462)" fill="#fff"/>
    <path id="Trazado_882343" data-name="Trazado 882343" d="M276.847,202.812H163.709a.6.6,0,0,1-.6-.6v-5.773a.6.6,0,0,1,.6-.6H276.847a.6.6,0,0,1,.6.6v5.773a.6.6,0,0,1-.6.6M164.313,201.6h111.93v-4.565H164.313Z" transform="translate(-97.425 -116.973)" fill="#31a854"/>
    <rect id="Rectángulo_402105" data-name="Rectángulo 402105" width="113.138" height="5.773" transform="translate(130.47 134.64)" fill="#fff"/>
    <path id="Trazado_882344" data-name="Trazado 882344" d="M436.243,339.837H323.105a.6.6,0,0,1-.6-.6V333.46a.6.6,0,0,1,.6-.6H436.243a.6.6,0,0,1,.6.6v5.773a.6.6,0,0,1-.6.6m-112.534-1.208h111.93v-4.565H323.709Z" transform="translate(-192.635 -198.82)" fill="#31a854"/>
    <path id="Trazado_882345" data-name="Trazado 882345" d="M524.913,227.142s-5.071-1.585-13.376-17.7c-7.012-13.6-.761-26.753.5-35.547a.858.858,0,0,1,1.66-.174c2.1,5.909,5.484,16.653,4.937,23.269-.788,9.534,6.279,30.153,6.279,30.153" transform="translate(-303.594 -103.422)" fill="#acdbb9"/>
    <path id="Trazado_882346" data-name="Trazado 882346" d="M532.895,185.952l-1.806-14.281a32.571,32.571,0,0,1,2.92-18.124,32.579,32.579,0,0,0,.848-26.135l-2.9-7.248a.881.881,0,0,1,1.463-.932l4.074,4.482a38.631,38.631,0,0,1,8.172,37.7l-7.506,23.529Z" transform="translate(-317.073 -71.044)" fill="#31a854"/>
    <path id="Trazado_882347" data-name="Trazado 882347" d="M531.126,240.189a.6.6,0,0,1-.6-.528l-.936-7.4a33.1,33.1,0,0,1,.567-11.543.6.6,0,1,1,1.177.269,31.909,31.909,0,0,0-.546,11.123l.936,7.4a.6.6,0,0,1-.523.675.612.612,0,0,1-.076,0" transform="translate(-316.175 -131.557)" fill="#caddff"/>
    <path id="Trazado_882348" data-name="Trazado 882348" d="M541.739,246.793l6.265-16a15.9,15.9,0,0,1,10.179-9.437l4.272-1.294a.984.984,0,0,1,.876,1.723l-2.626,2.042a12.007,12.007,0,0,0-4.618,9.232,12.052,12.052,0,0,1-1.757,6.024l-4.245,6.964Z" transform="translate(-323.589 -131.417)" fill="#acdbb9"/>
    <path id="Trazado_882349" data-name="Trazado 882349" d="M542.6,186.609a.6.6,0,0,1-.6-.548c-.971-10.387,1.108-17.051,2.942-22.931a60.907,60.907,0,0,0,2.071-7.835c2.159-12.53-5.206-23.408-5.28-23.517a.6.6,0,1,1,.995-.685c.317.459,7.718,11.4,5.476,24.407a61.758,61.758,0,0,1-2.108,7.99c-1.8,5.771-3.841,12.313-2.892,22.459a.6.6,0,0,1-.545.658.554.554,0,0,1-.057,0" transform="translate(-323.518 -78.147)" fill="#caddff"/>
    <path id="Trazado_882350" data-name="Trazado 882350" d="M549.747,245.8a.614.614,0,0,1-.189-.031.6.6,0,0,1-.385-.763,24.01,24.01,0,0,1,4.179-6.971.6.6,0,0,1,.935.764,22.857,22.857,0,0,0-3.967,6.586.606.606,0,0,1-.574.415" transform="translate(-328.011 -142.049)" fill="#caddff"/>
    <path id="Trazado_882351" data-name="Trazado 882351" d="M520.616,212.265a.6.6,0,0,1-.595-.5c-1.722-10.178-1.127-25.8-1.121-25.958a.6.6,0,1,1,1.207.048c-.006.155-.6,15.656,1.1,25.709a.6.6,0,0,1-.495.7.625.625,0,0,1-.1.008" transform="translate(-309.884 -110.636)" fill="#caddff"/>
    <path id="Trazado_882352" data-name="Trazado 882352" d="M559.573,244.136h-.006a.6.6,0,0,1-.6-.61,22.373,22.373,0,0,1,10.7-18.873.6.6,0,0,1,.571,1.065,21.14,21.14,0,0,0-10.067,17.819.6.6,0,0,1-.6.6" transform="translate(-333.88 -134.146)" fill="#caddff"/>
    <path id="Trazado_882353" data-name="Trazado 882353" d="M556.195,200.8a.6.6,0,0,1-.476-.975,24.818,24.818,0,0,0,3.786-7.951.6.6,0,0,1,1.171.294,25.576,25.576,0,0,1-4,8.4.6.6,0,0,1-.477.233" transform="translate(-331.863 -114.339)" fill="#caddff"/>
    <path id="Trazado_882354" data-name="Trazado 882354" d="M527.754,299.374h.127a11.806,11.806,0,0,0,11.806-11.806V276.91H515.948v10.658a11.806,11.806,0,0,0,11.806,11.806" transform="translate(-308.183 -165.402)" fill="#f9d0ac"/>
    <path id="Trazado_882355" data-name="Trazado 882355" d="M526.985,299.082h-.127a12.424,12.424,0,0,1-12.41-12.41V276.014a.6.6,0,0,1,.6-.6h23.739a.6.6,0,0,1,.6.6v10.658a12.424,12.424,0,0,1-12.41,12.41m-11.329-22.464v10.054a11.215,11.215,0,0,0,11.2,11.2h.127a11.215,11.215,0,0,0,11.2-11.2V276.618Z" transform="translate(-307.287 -164.506)"/>
    <path id="Trazado_882356" data-name="Trazado 882356" d="M539.918,286.466H520.833a.6.6,0,1,1,0-1.208h19.084a.6.6,0,0,1,0,1.208" transform="translate(-310.74 -170.389)" fill="#caddff"/>
  </g>
</svg>
