<svg id="Grupo_1102072" data-name="Grupo 1102072" xmlns="http://www.w3.org/2000/svg" xmlns:xlink="http://www.w3.org/1999/xlink" width="315" height="313.866" viewBox="0 0 315 313.866">
  <defs>
    <clipPath id="clip-path">
      <rect id="Rectángulo_402103" data-name="Rectángulo 402103" width="315" height="313.866" fill="none"/>
    </clipPath>
  </defs>
  <g id="Grupo_1102071" data-name="Grupo 1102071" clip-path="url(#clip-path)">
    <path id="Trazado_882062" data-name="Trazado 882062" d="M188.975,0C178.774-.016,85.7,1.4,34.842,78,7.77,118.78-10.394,185.458,16.142,221.788c7.837,10.729,11.944,8.369,53.833,33.763,57.5,34.857,57.23,43.833,81.033,51.809C182,317.743,227.78,317.721,262.075,292.225c38.915-28.93,44.67-77.005,50.433-125.156,5.657-47.254,11.388-95.132-18.7-130.395C262.617.117,212.484.038,188.975,0" transform="translate(-2.625 0)" fill="#fce7d5"/>
    <path id="Trazado_882063" data-name="Trazado 882063" d="M348.214,1060.9c-4.617,9.649-2.424,25.223,8.186,27.365,21.157,4.271,60.587-.017,70.309-6.973,14.476-10.357,8.818-27.94,8.818-27.94s-9.944-20.865-53.989-16.127a41.573,41.573,0,0,0-33.323,23.674" transform="translate(-286.596 -858.75)"/>
    <path id="Trazado_882064" data-name="Trazado 882064" d="M117.855,168.921c2.484-1.706,7.063-2.875,11.675-8.18,2.246-2.583,5.492-6.316,5.15-11.3-.4-5.822-5.753-10.529-11.8-12.115-6.334-1.662-14.005.672-17.183,3.72-3.7,3.549-2.35,6.523-6.26,10.062-5.048,4.569-18.351-7.579-36.907,8.711-8.915,7.826-4.785,21.271-12.692,27.306-9.083,6.932-18.245-1.75-29.38,4.416C10.234,197.2,4.469,212,8.3,221.031c2.655,6.258,7.882,4.959,13.421,12.032,8.63,11.021.682,22.541,6.629,32.3,7.969,13.076,33.112,12.263,48.057,8.851,2.769-.632,31.645-7.666,41.076-31.364,11.443-28.751-12.469-65.11.369-73.928" transform="translate(-5.89 -113.315)"/>
    <path id="Trazado_882065" data-name="Trazado 882065" d="M196.29,478.995a32.368,32.368,0,0,1,1.9-12.778c4.452-11.149,17.519-21.759,29.659-29.386,31.7-19.92,65.759-9.258,78.172,3.632,4.66,4.839,9.44,13.975,12.419,19.876,3.752,7.431,12.479,11.057,12.479,11.057,7.348,3.69,8.766,17.533.966,23.624a17.256,17.256,0,0,1-17.643,2.189c-8.978-4.011-8.467-7.908-11.911-12.131-.584,7.031-.632,7.4-.592,10.931.061,5.422.158,10.318.549,14.533,1.034,11.147,7.92,32.248,9.442,40.392.025.135-.211.158-.58.117a21.821,21.821,0,0,0-9.155,1.061l-3.517,1.151c-5.686,1.407-15.872-13.176-15.872-13.176l-4.657,15.169s-12.762,2.151-17.738.287c-8.61-3.225-9.813-15.534-16.5-15.728-12.141-.353-20.331,20.392-20.3,19.948.048-.69,11.211-51.17,12.8-59.908,1.855-10.2,2.624-26.125-1.3-24.756l-6.718,4.388a7.644,7.644,0,0,0-2.289,10.174l7.546,10.552-21.59,16.557-9.334-15.305a49.887,49.887,0,0,1-6.231-22.47" transform="translate(-162.608 -352.763)" fill="#f9d0ac"/>
    <path id="Trazado_882066" data-name="Trazado 882066" d="M220.71,557.6a.739.739,0,0,1-.184-.026.577.577,0,0,1-.426-.6c.019-.268.918-4.416,3.483-16.2,3.51-16.129,8.317-38.219,9.326-43.768,1.79-9.845,2.214-22.205.1-24.011a.588.588,0,0,0-.6-.127l-6.654,4.346a7.056,7.056,0,0,0-2.121,9.394l7.529,10.528a.567.567,0,0,1-.116.78l-21.59,16.557a.567.567,0,0,1-.829-.155L199.3,499.014a50.693,50.693,0,0,1-6.314-22.748,32.64,32.64,0,0,1,1.937-13c4.794-12,18.9-22.753,29.884-29.656a70.156,70.156,0,0,1,46.694-10.57c12.956,1.65,25.29,7.126,32.188,14.289,4.5,4.67,9.051,13.149,12.517,20.014,3.615,7.161,12.1,10.754,12.19,10.789l.037.017c3.478,1.746,5.939,5.868,6.424,10.755.555,5.6-1.45,10.767-5.364,13.823a17.774,17.774,0,0,1-18.224,2.259c-6.583-2.941-8.257-5.929-9.876-8.819-.418-.747-.846-1.511-1.363-2.28a73.893,73.893,0,0,0-.465,9.375c.056,4.953.144,10.151.546,14.487.647,6.974,3.671,18.132,6.1,27.1,1.484,5.477,2.766,10.207,3.334,13.242a.645.645,0,0,1-.161.562,1.183,1.183,0,0,1-1.039.223,21.14,21.14,0,0,0-8.916,1.036l-3.518,1.151-.04.011c-5.18,1.281-13.39-9.2-15.8-12.47l-4.322,14.079a.567.567,0,0,1-.448.393c-.528.089-12.971,2.155-18.031.259-4.485-1.68-7.018-5.693-9.254-9.233-2.159-3.419-4.023-6.371-7.063-6.46-9.1-.257-16.13,11.846-19.5,19.089-.265.57-.407.874-.736.874m19.957-21.1c.106,0,.211,0,.316,0,3.644.106,5.755,3.449,7.989,6.988,2.14,3.389,4.565,7.23,8.693,8.776,4.33,1.622,15.041.062,17.1-.26l4.553-14.831a.567.567,0,0,1,1.007-.158c2.768,3.961,10.894,14,15.252,12.955l3.5-1.144a22.328,22.328,0,0,1,9.243-1.1c-.605-3-1.815-7.466-3.2-12.587-2.441-9.008-5.48-20.218-6.136-27.29-.406-4.378-.495-9.6-.551-14.579a78.609,78.609,0,0,1,.511-9.989l.083-.995a.567.567,0,0,1,1-.311,23.88,23.88,0,0,1,2.354,3.633c1.6,2.854,3.11,5.551,9.349,8.338a16.643,16.643,0,0,0,17.063-2.118c3.552-2.774,5.442-7.685,4.933-12.817-.446-4.5-2.662-8.266-5.787-9.845-.579-.243-9-3.888-12.748-11.317-3.43-6.794-7.93-15.178-12.322-19.738-6.727-6.986-18.8-12.332-31.514-13.951a69.03,69.03,0,0,0-45.947,10.405c-8.878,5.578-24.507,16.778-29.434,29.116a31.524,31.524,0,0,0-1.856,12.551,49.529,49.529,0,0,0,6.161,22.214l8.992,14.743,20.654-15.839L222.7,487.245a.542.542,0,0,1-.031-.049,8.192,8.192,0,0,1,2.47-10.93l6.719-4.388a.577.577,0,0,1,.123-.061,1.721,1.721,0,0,1,1.769.316c2.855,2.442,1.853,16.407.277,25.076-1.012,5.568-5.822,27.669-9.333,43.806-.993,4.565-1.913,8.791-2.554,11.764,5.579-10.55,12.074-16.283,18.53-16.283" transform="translate(-159.867 -350.018)"/>
    <path id="Trazado_882067" data-name="Trazado 882067" d="M369.654,1023.745l18.5-2.457,1.838-7.527-18.539,2.591Z" transform="translate(-306.254 -839.889)" fill="#fff"/>
    <path id="Trazado_882068" data-name="Trazado 882068" d="M366.914,1021.572a.567.567,0,0,1-.551-.7l1.8-7.394a.567.567,0,0,1,.473-.428l18.539-2.591a.567.567,0,0,1,.629.7l-1.839,7.527a.567.567,0,0,1-.476.428l-18.5,2.457a.568.568,0,0,1-.075.005m2.262-7.453-1.514,6.214,17.3-2.3,1.548-6.339Z" transform="translate(-303.514 -837.149)"/>
    <path id="Trazado_882069" data-name="Trazado 882069" d="M761.6,1022.484l-18.5-1.2-1.839-7.527,18.539,1.329Z" transform="translate(-614.124 -839.89)" fill="#fff"/>
    <path id="Trazado_882070" data-name="Trazado 882070" d="M758.859,1020.31h-.036l-18.5-1.2a.567.567,0,0,1-.514-.432l-1.838-7.527a.567.567,0,0,1,.591-.7l18.539,1.329a.568.568,0,0,1,.511.432l1.8,7.394a.568.568,0,0,1-.551.7m-18.049-2.3,17.315,1.119-1.521-6.242-17.35-1.244Z" transform="translate(-611.385 -837.148)"/>
    <path id="Trazado_882071" data-name="Trazado 882071" d="M457.839,429.061s1.442,22.578.728,42.665c-.61,17.159,18.416,113.119,23.976,140.735a6.869,6.869,0,0,1-6.09,8.2c-16.767,1.588-61.01,2.977-73.935-.762-16.547-4.787,7.649-85.666,9.974-119.521s-.048-72.736-.048-72.736l7.08-1.85s1.469,16.6,2.022,25.694a5.841,5.841,0,0,0,5.928,5.483l17.918-.29a5.842,5.842,0,0,0,5.748-5.655c.239-7.539.553-20.5.037-24.327Z" transform="translate(-328.719 -352.763)" fill="#fff"/>
    <path id="Trazado_882072" data-name="Trazado 882072" d="M432.652,620.091c-13.8,0-26.872-.613-33.006-2.388-11.595-3.354-4.481-40.195,2.4-75.822,3.293-17.057,6.4-33.167,7.167-44.282,2.3-33.431-.024-72.274-.048-72.663a.567.567,0,0,1,.423-.583l7.08-1.85a.567.567,0,0,1,.709.5c.015.166,1.476,16.708,2.023,25.71a5.263,5.263,0,0,0,5.353,4.951l17.918-.289a5.27,5.27,0,0,0,5.19-5.106c.235-7.421.553-20.437.041-24.233a.567.567,0,0,1,.752-.61l6.661,2.364a.567.567,0,0,1,.377.5c.014.226,1.436,22.836.729,42.722-.605,17.021,18.19,111.923,23.965,140.6a7.437,7.437,0,0,1-6.592,8.875c-8.362.792-25.239,1.606-41.14,1.606m-22.33-194.758c.256,4.517,2.184,40.826.02,72.344-.768,11.184-3.885,27.328-7.185,44.419-6.467,33.491-13.8,71.451-3.2,74.517,13.065,3.78,58.165,2.215,73.723.742a6.3,6.3,0,0,0,5.587-7.521c-5.781-28.711-24.6-123.722-23.987-140.867.655-18.428-.523-39.212-.7-42.236l-5.461-1.938c.385,4.716.093,16.56-.127,23.51a6.4,6.4,0,0,1-6.305,6.2l-17.918.289a6.394,6.394,0,0,1-6.5-6.016c-.484-7.955-1.683-21.816-1.963-25.01Z" transform="translate(-326.003 -350.023)"/>
    <path id="Trazado_882073" data-name="Trazado 882073" d="M534.357,1192.328s-27.256,6.571-45.656,0c0,0-3.48,33.48,8.861,40.445,9.369,5.288,29.123,3.614,33.986-3.5,6.223-9.108,2.809-36.941,2.809-36.941" transform="translate(-404.509 -987.83)" fill="#fff"/>
    <path id="Trazado_882074" data-name="Trazado 882074" d="M509.237,1233.7c-5.762,0-11.19-1.135-14.8-3.173-12.521-7.066-9.29-39.616-9.146-41a.567.567,0,0,1,.755-.476c18.032,6.44,45.061.048,45.332-.017a.567.567,0,0,1,.7.482c.14,1.145,3.368,28.151-2.9,37.33-2.351,3.441-8.227,5.927-15.717,6.649-1.41.136-2.823.2-4.215.2m-22.883-43.339c-.406,4.865-2.256,33.029,8.64,39.178,9.4,5.3,28.658,3.375,33.239-3.33,5.523-8.084,3.236-31.772,2.785-35.928-4.14.91-27.894,5.709-44.663.08" transform="translate(-401.661 -985.09)"/>
    <path id="Trazado_882075" data-name="Trazado 882075" d="M575.2,861.972a.567.567,0,0,1-.509-.816c15.113-30.962,26.632-42.173,26.747-42.282a.567.567,0,0,1,.785.82c-.113.109-11.5,11.214-26.512,41.96a.567.567,0,0,1-.51.318" transform="translate(-476.076 -678.297)"/>
    <path id="Trazado_882076" data-name="Trazado 882076" d="M378.847,887.466a1.973,1.973,0,0,1-.333,3.587,3.366,3.366,0,0,1-1.54.175c-2.422-.331-5.191-.674-6.215-.664l-2,.019a15.577,15.577,0,0,0-3.718,1.129,12.191,12.191,0,0,1-3.069,1.023,6.916,6.916,0,0,1-6.069-1.843l-10.477-10.551c-.107-.127,8.257-6.746,8.354-6.611l7.3,10.647,2.686-1.753c1.31-.933,3.293-1.792,4.521-1.1Z" transform="translate(-286.182 -723.874)" fill="#fff"/>
    <path id="Trazado_882077" data-name="Trazado 882077" d="M357.989,890.681a7.525,7.525,0,0,1-5.214-2.119L342.29,878c-.011-.011-.021-.022-.031-.034a.583.583,0,0,1-.094-.581c.063-.161.141-.361,4.278-3.635s4.345-3.3,4.525-3.325a.582.582,0,0,1,.539.234l7,10.2,2.222-1.45c1.5-1.072,3.65-1.94,5.108-1.123l10.556,5.945a2.541,2.541,0,0,1-.429,4.619,3.925,3.925,0,0,1-1.8.2,60.93,60.93,0,0,0-6.133-.659l-1.954.018a15.046,15.046,0,0,0-3.52,1.072,12.786,12.786,0,0,1-3.213,1.071,7.309,7.309,0,0,1-1.355.127M343.5,877.606l10.076,10.148a6.345,6.345,0,0,0,5.562,1.685,11.65,11.65,0,0,0,2.924-.975,16.047,16.047,0,0,1,3.872-1.179.569.569,0,0,1,.09-.008l2-.018a61.515,61.515,0,0,1,6.3.669,2.807,2.807,0,0,0,1.281-.15,1.406,1.406,0,0,0,.237-2.556l-10.555-5.945c-.925-.518-2.678.192-3.913,1.072l-2.705,1.766a.567.567,0,0,1-.778-.154l-7-10.2c-1.425,1.021-6.039,4.671-7.389,5.846" transform="translate(-283.447 -721.135)"/>
    <path id="Trazado_882078" data-name="Trazado 882078" d="M983.922,771.831a11.143,11.143,0,0,0,4.222-.012l15.177-3.039a2.391,2.391,0,0,0,1.9-2.841,2.329,2.329,0,0,0-2.7-1.862c-.929.106-6.257,1.323-6.872,1.279a1.164,1.164,0,0,1-1.056-1.748c.194-.472.356-.908.487-1.287a2.692,2.692,0,0,1,2.036-1.756c1.907-.368,7.587-1.112,8.4-1.424,1.214-.464,3-.956,3.655-2.147l.168-.312a1.849,1.849,0,0,0-1.635-2.733l-13.618.245a7.556,7.556,0,0,0-4.773,1.767l-6.94,5.813a5.245,5.245,0,0,1-5.583.741l-15.878-8.492c-4.73-2.229-8.175,6.909-8.175,6.909a5.247,5.247,0,0,0,3.871,6.267Z" transform="translate(-789.227 -624.409)" fill="#fff"/>
    <path id="Trazado_882079" data-name="Trazado 882079" d="M983.243,769.849a12.67,12.67,0,0,1-2.161-.2h0l-27.3-4.631a5.812,5.812,0,0,1-4.328-6.956.515.515,0,0,1,.021-.07c.091-.242,2.271-5.935,5.688-7.319a3.918,3.918,0,0,1,3.259.1l15.9,8.5a4.69,4.69,0,0,0,4.951-.676l6.94-5.813a8.148,8.148,0,0,1,5.132-1.9l13.613-.244h.026a2.416,2.416,0,0,1,2.118,3.569l-.168.312c-.671,1.216-2.2,1.769-3.425,2.214-.183.066-.36.13-.526.194a46.033,46.033,0,0,1-5.06.9c-1.39.211-2.7.411-3.438.553a2.131,2.131,0,0,0-1.608,1.385c-.154.442-.321.885-.5,1.316a.773.773,0,0,0-.021.691.73.73,0,0,0,.593.276h.01c.37,0,2.513-.441,3.936-.734,1.294-.266,2.411-.5,2.821-.543a2.867,2.867,0,0,1,3.321,2.329,2.958,2.958,0,0,1-2.36,3.5l-15.167,3.037a12.567,12.567,0,0,1-2.265.218m-1.974-1.322a10.587,10.587,0,0,0,4.026-.01l15.166-3.037a1.823,1.823,0,0,0,1.459-2.169,1.75,1.75,0,0,0-2.078-1.414c-.359.041-1.56.288-2.72.527a30.988,30.988,0,0,1-4.256.754,1.818,1.818,0,0,1-1.476-.81,1.861,1.861,0,0,1-.064-1.72c.169-.412.33-.835.476-1.258a3.269,3.269,0,0,1,2.465-2.126c.758-.147,2.082-.348,3.482-.561,1.954-.3,4.386-.668,4.826-.836.172-.066.356-.132.545-.2,1.048-.379,2.353-.852,2.816-1.69l.166-.307a1.282,1.282,0,0,0-.031-1.282,1.259,1.259,0,0,0-1.086-.615h-.014l-13.613.244a7.013,7.013,0,0,0-4.42,1.634L980,759.465a5.838,5.838,0,0,1-6.186.82l-15.906-8.506a2.775,2.775,0,0,0-2.323-.06c-2.836,1.148-4.861,6.175-5.041,6.636A4.681,4.681,0,0,0,954,763.9Z" transform="translate(-786.48 -621.665)"/>
    <path id="Trazado_882080" data-name="Trazado 882080" d="M1145.7,820.015a19.3,19.3,0,0,0,2.416-.2l15.177-3.039a2.39,2.39,0,0,0,1.9-2.841,2.328,2.328,0,0,0-2.7-1.862c-.929.106-6.257,1.323-6.872,1.279a1.164,1.164,0,0,1-1.055-1.748l-5.447,2.467Z" transform="translate(-949.199 -672.401)" fill="#fff"/>
    <path id="Trazado_882081" data-name="Trazado 882081" d="M1134.5,817.843a12.648,12.648,0,0,1-2.161-.2.567.567,0,0,1,.185-1.119,10.587,10.587,0,0,0,4.028-.01l15.166-3.037a1.823,1.823,0,0,0,1.459-2.169,1.751,1.751,0,0,0-2.078-1.414c-.359.041-1.56.288-2.72.527a31,31,0,0,1-4.256.754,1.818,1.818,0,0,1-1.476-.81,1.861,1.861,0,0,1-.064-1.72.567.567,0,0,1,1.05.431.774.774,0,0,0-.021.691.729.729,0,0,0,.593.276h.01c.37,0,2.513-.441,3.935-.734,1.294-.266,2.411-.5,2.821-.543a2.867,2.867,0,0,1,3.321,2.329,2.958,2.958,0,0,1-2.36,3.5l-15.167,3.037a12.585,12.585,0,0,1-2.265.218" transform="translate(-937.734 -669.659)"/>
    <path id="Trazado_882082" data-name="Trazado 882082" d="M574.118,317.019l-2.664,19.752,5.183,1.433a2.25,2.25,0,0,1,.129,4.3c-5.082,1.759-13.584,2.955-24.954-1.566a2.113,2.113,0,0,1,.1-3.969l5.161-1.727,5.944-22.177Z" transform="translate(-456.061 -259.368)" fill="#fff"/>
    <path id="Trazado_882083" data-name="Trazado 882083" d="M564.28,341.9a41.611,41.611,0,0,1-15.416-3.181,2.681,2.681,0,0,1,.128-5.035l4.872-1.63,5.865-21.883a.567.567,0,0,1,.738-.387l11.1,3.957a.567.567,0,0,1,.372.61l-2.6,19.261,4.706,1.3a2.817,2.817,0,0,1,.164,5.38,30.286,30.286,0,0,1-9.933,1.606m-3.614-30.841-5.785,21.583a.567.567,0,0,1-.368.391l-5.161,1.727a1.508,1.508,0,0,0-1.05,1.416,1.525,1.525,0,0,0,.981,1.488c11.176,4.443,19.524,3.3,24.559,1.557a1.683,1.683,0,0,0-.095-3.214l-5.183-1.433a.567.567,0,0,1-.411-.622l2.6-19.3Z" transform="translate(-453.321 -256.629)"/>
    <path id="Trazado_882084" data-name="Trazado 882084" d="M589.529,258.595s-4.814-.1-6.008-3.73,2.437-3.483,2.437-3.483-2.863-5.44,3.121-6.358a35.428,35.428,0,0,0,10.315-3.24s4.54,7.538,6.089,13.91c.934,3.842.782,7.26-2.11,8.344-7.917,2.967-13.843-5.443-13.843-5.443" transform="translate(-483.241 -200.315)" fill="#fff"/>
    <path id="Trazado_882085" data-name="Trazado 882085" d="M597.244,262.494c-5.7,0-9.877-4.961-10.753-6.087-1.112-.085-5.109-.629-6.252-4.1a3.25,3.25,0,0,1,.224-3.085,3.054,3.054,0,0,1,1.925-1.07,5.33,5.33,0,0,1-.013-4.091c.63-1.25,1.934-2.035,3.874-2.333a35.215,35.215,0,0,0,10.133-3.18.567.567,0,0,1,.754.207c.187.311,4.6,7.686,6.155,14.068,1.2,4.918.368,7.949-2.462,9.009a10.148,10.148,0,0,1-3.584.665M583.161,249.21a2.419,2.419,0,0,0-1.794.695,2.231,2.231,0,0,0-.05,2.044c1.052,3.2,5.438,3.339,5.482,3.34a.569.569,0,0,1,.451.24c.057.081,5.773,8.015,13.181,5.239,2.205-.827,2.8-3.41,1.758-7.679-1.3-5.333-4.771-11.584-5.759-13.3a36.691,36.691,0,0,1-10.008,3.055,3.77,3.77,0,0,0-3.032,1.719c-.81,1.6.316,3.793.328,3.815a.568.568,0,0,1-.525.83h-.031" transform="translate(-480.498 -197.576)"/>
    <path id="Trazado_882086" data-name="Trazado 882086" d="M1095.336,632.69c-.042,8.732-5.806,21.253-21.262,21.179-14.741-.07-20.388-12.645-20.346-21.377.041-8.54,5.231-16.738,17.673-16.52.251,0,2.953.807,3.206.808.2,0,3.569-.776,3.768-.775,12.522.06,17,8.1,16.961,16.685" transform="translate(-873.001 -510.322)" fill="#31a854"/>
    <path id="Trazado_882087" data-name="Trazado 882087" d="M1071.47,651.695h-.137c-8.543-.04-13.506-4.189-16.165-7.662a24.07,24.07,0,0,1-4.746-14.284,17.27,17.27,0,0,1,4.848-12.453c3.244-3.172,7.741-4.733,13.4-4.632a11.338,11.338,0,0,1,1.709.416c.542.148,1.272.346,1.49.387.237-.039,1.114-.229,1.767-.371a18.607,18.607,0,0,1,2-.4c5.987.029,10.569,1.826,13.618,5.343,2.579,2.975,3.931,7.094,3.908,11.912a23.646,23.646,0,0,1-4.975,14.244c-2.748,3.427-7.877,7.5-16.719,7.5m-3.32-37.9c-5.083,0-9.158,1.45-12.087,4.315a16.15,16.15,0,0,0-4.507,11.647,22.894,22.894,0,0,0,4.513,13.589c2.5,3.271,7.187,7.179,15.269,7.218h.13c6.649,0,12.123-2.445,15.836-7.075a22.478,22.478,0,0,0,4.726-13.539c.022-4.539-1.234-8.4-3.631-11.163-2.82-3.254-7.107-4.919-12.738-4.952-.19.027-1.108.227-1.783.373a17.128,17.128,0,0,1-2.01.4h0a10.806,10.806,0,0,1-1.783-.432c-.555-.151-1.316-.359-1.464-.379q-.235,0-.468,0" transform="translate(-870.262 -507.58)"/>
    <path id="Trazado_882088" data-name="Trazado 882088" d="M1169.429,561.454c1.874-10.518,9.729-13.083,17.093-14.275,2.191,9.461-6.088,11.787-17.093,14.275" transform="translate(-968.859 -453.332)" fill="#fff"/>
    <path id="Trazado_882089" data-name="Trazado 882089" d="M1165.437,588.805l-1.426-7.45a1.066,1.066,0,0,1,.891-1.253,6.362,6.362,0,0,1,2.539.061,1.226,1.226,0,0,1,.848,1.513l-1.982,7.291c-.31.207-.594.063-.871-.162" transform="translate(-964.355 -480.528)"/>
    <path id="Trazado_882090" data-name="Trazado 882090" d="M1190.079,581.817a.567.567,0,0,1-.255-1.074c4.63-2.321,6.449-3.6,9.27-6.5a.567.567,0,1,1,.814.79c-2.894,2.979-4.863,4.362-9.576,6.725a.562.562,0,0,1-.254.06" transform="translate(-985.496 -475.611)"/>
    <rect id="Rectángulo_402100" data-name="Rectángulo 402100" width="313.866" height="46.891" transform="translate(0.567 266.741)" fill="#5479f7"/>
    <rect id="Rectángulo_402101" data-name="Rectángulo 402101" width="313.866" height="87.304" transform="translate(0.567 209.456)" fill="#fff"/>
    <path id="Trazado_882091" data-name="Trazado 882091" d="M314.433,1219.064H.567a.567.567,0,0,1,0-1.134H314.433a.567.567,0,1,1,0,1.134" transform="translate(0 -1009.041)"/>
    <path id="Trazado_882092" data-name="Trazado 882092" d="M726.987,1270.3c-3.924,5.623-7.924,5.287-9.679,4.768a1,1,0,0,0-1.187.523c-1.669,3.363-10.046,3-12.666-2.613-2.453-5.258-5.661-7.335-5.661-7.335-8.213-5.847-9.839-8.7-10.611-14.817s5.572-7.864,5.572-7.864a10.076,10.076,0,0,1,.717-3.346c1.415-2.932,4.725-6.362,10-4.634,0,0,1.843-4.093,6.267-3.331s17.27,13.184,20.317,30.335a3.931,3.931,0,0,1-2.3,4.478,6.941,6.941,0,0,1-.769,3.836" transform="translate(-569.269 -1020.334)" fill="#31a854"/>
    <path id="Trazado_882093" data-name="Trazado 882093" d="M801.724,1286.531a.567.567,0,0,1-.566-.535c-.237-4.22-3.306-10.949-8.009-17.559-4.585-6.444-9.627-11.177-12.845-12.058a2.345,2.345,0,0,0-2.866.845.567.567,0,0,1-.942-.632,3.419,3.419,0,0,1,4.108-1.308c4.194,1.148,9.708,7.207,13.47,12.494,4.82,6.775,7.969,13.731,8.218,18.153a.568.568,0,0,1-.535.6h-.032" transform="translate(-643.238 -1039.83)" fill="#d5eddc"/>
    <path id="Trazado_882094" data-name="Trazado 882094" d="M786.274,1278.764s1.643.691,2.988-1.633-.535-6.249-1.483-6-.283,2.544-.9,3.766c-.562,1.112-2.268,2.922-.605,3.87" transform="translate(-650.832 -1053.106)" fill="#caddff"/>
    <path id="Trazado_882095" data-name="Trazado 882095" d="M695.758,1238.363s1.538-3.173.7-5.82c-.651-2.052-4.756-5.47-6.57-6.905a1.118,1.118,0,0,1-.169-1.585,4.936,4.936,0,0,1,1.232-1.172,1.5,1.5,0,0,1,1.838.246c1.643,2.021,7.249,8.69,9.359,8.3l2.486-.455-.918,3.844a4.474,4.474,0,0,1-4.219,3.433Z" transform="translate(-571.212 -1012.975)" fill="#acdbb9"/>
    <path id="Trazado_882096" data-name="Trazado 882096" d="M693.018,1236.182a.568.568,0,0,1-.511-.814c.014-.03,1.428-3.007.668-5.4-.421-1.326-2.806-3.8-6.381-6.632a1.685,1.685,0,0,1-.257-2.389,5.1,5.1,0,0,1,1.411-1.318,2.049,2.049,0,0,1,2.538.392c4.049,4.981,7.681,8.313,8.817,8.1l2.486-.454a.567.567,0,0,1,.654.69l-.918,3.844a5.05,5.05,0,0,1-4.754,3.868l-3.737.111h-.017M689,1220.5a1.154,1.154,0,0,0-.531.139,4.023,4.023,0,0,0-1.052,1.027.552.552,0,0,0-.123.412.543.543,0,0,0,.2.369c2.234,1.767,6.083,5.048,6.759,7.178a8.869,8.869,0,0,1-.383,5.4l2.865-.085a3.913,3.913,0,0,0,3.684-3l.716-3-1.629.3a1.461,1.461,0,0,1-.26.023c-2.23,0-6.44-4.589-9.642-8.527a.837.837,0,0,0-.607-.238" transform="translate(-568.472 -1010.227)" fill="#31a854"/>
    <path id="Trazado_882097" data-name="Trazado 882097" d="M693.087,1228.385a1.889,1.889,0,0,1-.7-.132.567.567,0,0,1,.438-1.046.756.756,0,0,0,.569-.027,1.468,1.468,0,0,0,.6-.975.567.567,0,0,1,1.1.293,2.472,2.472,0,0,1-1.214,1.707,1.8,1.8,0,0,1-.791.18" transform="translate(-573.347 -1015.549)" fill="#5479f7"/>
    <path id="Trazado_882098" data-name="Trazado 882098" d="M937.93,1187.237c-2.778,2.359-1.694,5.474-1.621,9.117a24.859,24.859,0,0,1-6.152,17.04c-8.27,9.388-9.536,6.276-14.476,12.852-3.19,4.246-5.024,14.6,5.729,19.635,13.928,6.521,27.02-12.283,29.552-23.388,4.3-18.869-1.168-31.079-2.439-33.282a7,7,0,0,0-10.592-1.974" transform="translate(-756.584 -982.28)" fill="#31a854"/>
    <path id="Trazado_882099" data-name="Trazado 882099" d="M1053.377,1146.858l2.367-1.271s2.382,3.75,2.11,6.406l-1.223.184a10.716,10.716,0,0,0-3.254-5.32" transform="translate(-872.711 -949.106)" fill="#99b9ff"/>
    <path id="Trazado_882100" data-name="Trazado 882100" d="M1053.891,1150.005a.567.567,0,0,1-.558-.469,10.3,10.3,0,0,0-3.086-5.007.568.568,0,0,1,.122-.911l2.367-1.271a.567.567,0,0,1,.747.2c.1.16,2.484,3.948,2.2,6.768a.567.567,0,0,1-.48.5l-1.223.184a.55.55,0,0,1-.085.006m-2.313-5.748a11.677,11.677,0,0,1,2.736,4.543l.255-.039a12.523,12.523,0,0,0-1.775-5.158Z" transform="translate(-869.971 -946.366)" fill="#31a854"/>
    <path id="Trazado_882101" data-name="Trazado 882101" d="M1041.726,1187.468s.331-.115.681-3.876c.4-4.291,7.342-5.157,9.616-3.5,1.9,1.38,3.35,3.868,4.1,4.494a8,8,0,0,1-4.964-2.134,7.321,7.321,0,0,1-1.591,4.293,6.728,6.728,0,0,0-3.432-3.622s-1,3.77-4.413,4.348" transform="translate(-863.058 -977.04)" fill="#acdbb9"/>
    <path id="Trazado_882102" data-name="Trazado 882102" d="M1038.986,1185.275a.567.567,0,0,1-.432-.935,15.212,15.212,0,0,0,.549-3.561,4.93,4.93,0,0,1,3.175-4c2.452-1.109,5.745-1.068,7.34.092a16.762,16.762,0,0,1,3.135,3.333,9.937,9.937,0,0,0,1,1.183.567.567,0,0,1,.168.636.561.561,0,0,1-.546.367,8.766,8.766,0,0,1-4.5-1.573,7.468,7.468,0,0,1-1.608,3.536.567.567,0,0,1-.961-.174,6.489,6.489,0,0,0-2.57-3.039,6.348,6.348,0,0,1-4.649,4.127.557.557,0,0,1-.1.008m-.188-1.1a.548.548,0,0,0-.089.04.539.539,0,0,1,.089-.04m0,0h0m0,0h0Zm7.328-7.063a8.355,8.355,0,0,0-3.382.7,3.869,3.869,0,0,0-2.513,3.072c-.131,1.408-.261,2.35-.387,2.985a6.043,6.043,0,0,0,3.006-3.656.568.568,0,0,1,.753-.383,6.8,6.8,0,0,1,3.324,3.05,7.111,7.111,0,0,0,.927-3.195.567.567,0,0,1,.97-.4,6.869,6.869,0,0,0,3.119,1.722l-.088-.114a15.879,15.879,0,0,0-2.906-3.11,5.1,5.1,0,0,0-2.824-.678" transform="translate(-860.318 -974.279)" fill="#31a854"/>
    <path id="Trazado_882103" data-name="Trazado 882103" d="M1026.179,1248.61c-1.972,4.892-4.7,5.759-4.654,7.717s3.547,2.894,7.246-4.168c3.464-6.613,2.357-16.725.667-16.61-2.583.176-.542,6.318-3.26,13.061" transform="translate(-846.322 -1023.638)" fill="#caddff"/>
    <path id="Trazado_882104" data-name="Trazado 882104" d="M840.181,1276.114a12.281,12.281,0,0,1,1.793.131,18.4,18.4,0,0,0,6.632-.178,14.439,14.439,0,0,1,3.1-.336c8.41,0,15.228,7.224,15.228,16.135S858.812,1308,850.4,1308a13.914,13.914,0,0,1-2.24-.178,20.228,20.228,0,0,0-4.962-.2q-.491.042-1,.042c-7.645,0-15.859-7.062-15.859-15.774s6.2-15.774,13.842-15.774" transform="translate(-684.612 -1056.93)" fill="#acdbb9"/>
    <path id="Trazado_882105" data-name="Trazado 882105" d="M847.661,1305.83a14.535,14.535,0,0,1-2.331-.186,19.68,19.68,0,0,0-4.822-.2c-.345.029-.7.044-1.051.044a16.622,16.622,0,0,1-11.186-4.776,15.958,15.958,0,0,1-5.24-11.565c0-9.01,6.464-16.341,14.41-16.341a12.91,12.91,0,0,1,1.876.137,17.794,17.794,0,0,0,6.428-.171,15.051,15.051,0,0,1,3.224-.349c8.709,0,15.795,7.493,15.795,16.7,0,8.9-7.991,16.7-17.1,16.7m-5.565-1.586a21.243,21.243,0,0,1,3.416.28,13.39,13.39,0,0,0,2.148.171c8.506,0,15.967-7.275,15.967-15.568,0-8.585-6.577-15.568-14.66-15.568a13.905,13.905,0,0,0-2.981.323,18.926,18.926,0,0,1-6.837.185,11.77,11.77,0,0,0-1.71-.125c-7.32,0-13.275,6.822-13.275,15.207,0,8.564,8.22,15.207,15.291,15.207.321,0,.643-.013.955-.04q.835-.071,1.685-.071" transform="translate(-681.872 -1054.19)"/>
    <path id="Trazado_882106" data-name="Trazado 882106" d="M976.361,1292.974l.534-.093a5.248,5.248,0,0,1,4.374,1.206,19.555,19.555,0,0,1,5.222,7.358,3.12,3.12,0,0,1-2.849,4.173,5.244,5.244,0,0,1-5.4-3.273,20.571,20.571,0,0,0-3.4-5.715,2.267,2.267,0,0,1,1.52-3.656" transform="translate(-807.227 -1071.071)" fill="#fff"/>
    <path id="Trazado_882107" data-name="Trazado 882107" d="M914.178,1282.75a10.487,10.487,0,0,1-5.585-1.728.567.567,0,0,1,.6-.963c4.59,2.856,8.094,1.029,8.651.509a.567.567,0,0,1,1.049.333c-.01.155-.03.479-1.084,1.023a8.049,8.049,0,0,1-3.63.826m3.582-1.92Z" transform="translate(-752.538 -1060.443)"/>
    <path id="Trazado_882108" data-name="Trazado 882108" d="M903.636,1214.186s3.593-10.933-7.028-16.3c0,0-5.367,15.858,7.028,16.3" transform="translate(-741.872 -992.436)" fill="#d5eddc"/>
    <path id="Trazado_882109" data-name="Trazado 882109" d="M900.865,1212.013h-.02c-3.223-.114-5.6-1.246-7.06-3.363-3.394-4.913-.6-13.328-.484-13.683a.567.567,0,0,1,.793-.324c10.93,5.521,7.348,16.867,7.311,16.981a.567.567,0,0,1-.539.39m-6.683-16.041c-.566,2.02-2.029,8.322.537,12.035a7.134,7.134,0,0,0,5.726,2.849c.514-1.967,2.093-10.251-6.263-14.884" transform="translate(-739.101 -989.696)"/>
    <path id="Trazado_882110" data-name="Trazado 882110" d="M915.242,1232.438a.565.565,0,0,1-.41-.176c-4.172-4.374-4.523-11.152-4.536-11.439a.567.567,0,0,1,1.133-.051c0,.066.349,6.646,4.223,10.707a.567.567,0,0,1-.41.959" transform="translate(-754.17 -1010.948)"/>
    <path id="Trazado_882111" data-name="Trazado 882111" d="M941.488,1242.707c.153-.012-.592-5.128,2.93-8.159,0,0-.6-2.869-2.6-1.808-4.115,2.184-1.8,10.125-1.8,10.125Z" transform="translate(-778.258 -1021.116)"/>
    <path id="Trazado_882112" data-name="Trazado 882112" d="M757.162,1434.008H737.11a27.686,27.686,0,0,1-27.686-27.686h75.423a27.686,27.686,0,0,1-27.686,27.686" transform="translate(-587.75 -1165.122)" fill="#fce7d5"/>
    <path id="Trazado_882113" data-name="Trazado 882113" d="M754.422,1431.835H734.37a28.285,28.285,0,0,1-28.253-28.253.567.567,0,0,1,.567-.567h75.423a.567.567,0,0,1,.567.567,28.285,28.285,0,0,1-28.253,28.253m-47.164-27.686A27.151,27.151,0,0,0,734.37,1430.7h20.052a27.152,27.152,0,0,0,27.113-26.551Z" transform="translate(-585.01 -1162.382)"/>
    <path id="Trazado_882114" data-name="Trazado 882114" d="M756.424,1428.839c1.98,0,3.661,1.14,3.9,2.664,1.36,8.68,9.09,15.748,19.6,18.219a.531.531,0,0,1,.461.49.6.6,0,0,1-.659.485c-13.732-.238-25.043-8.089-27.188-18.324-.388-1.853,1.461-3.534,3.882-3.534" transform="translate(-623.43 -1183.777)" fill="#fff"/>
    <path id="Trazado_882115" data-name="Trazado 882115" d="M119.218,1534.276H14.061l5.81-19.8h93.537Z" transform="translate(-11.649 -1254.722)" fill="#d5eddc"/>
    <path id="Trazado_882116" data-name="Trazado 882116" d="M116.478,1532.1H11.321a.567.567,0,0,1-.544-.727l5.81-19.8a.567.567,0,0,1,.544-.407h93.538a.567.567,0,0,1,.544.407l5.81,19.8a.567.567,0,0,1-.544.727m-104.4-1.134H115.72l-5.477-18.67H17.555Z" transform="translate(-8.909 -1251.983)"/>
    <path id="Trazado_882117" data-name="Trazado 882117" d="M444.448,1563.626a1.855,1.855,0,0,0-.913,1.4c.03,2.115,6.507,1.4,13.774,4.351,8.414,3.414,10.4,8.888,16.08,7.9,2.73-.476,3.319-1.962,6.421-2.053,4.321-.127,5.3,2.692,8.7,2.559,3.906-.153,8.681-4.119,9.375-8.391.933-5.744-5.765-10.5-10.979-10.327-3.387.112-6.586,2.316-7.022,1.56-.416-.721,2.644-2.477,2.558-4.576-.113-2.749-5.6-5.479-9.268-3.783-3.378,1.561-4.874,6.711-5.823,6.415-.374-.116-.144-.914-.532-1.189-.694-.49-3.144-.244-9.413,6.143a9.914,9.914,0,0,1-5.815,1.016c-3.693-.408-5.432-2.064-7.138-1.026" transform="translate(-367.463 -1285.601)" fill="#f08c32"/>
    <path id="Trazado_882118" data-name="Trazado 882118" d="M544.124,1639.5a162.741,162.741,0,0,1-19.8-1.525.567.567,0,0,1,.142-1.126c14.958,1.888,24.379,2.01,30.547.4a.567.567,0,0,1,.287,1.1,44.707,44.707,0,0,1-11.179,1.157" transform="translate(-433.988 -1356.108)" fill="#caddff"/>
    <path id="Trazado_882119" data-name="Trazado 882119" d="M408.794,1461.888s-3.51,1.137-14.154-1.958a23.8,23.8,0,0,1-13.523-10.575c-.54,1.9-10.575,20.26,9.45,24.3,1.556.314,6.7,1.344,10.939-.948,6.113-3.308,7.177-10.03,7.288-10.819" transform="translate(-313.275 -1200.774)" fill="#31a854"/>
    <path id="Trazado_882120" data-name="Trazado 882120" d="M392.427,1471.979a23.929,23.929,0,0,1-4.716-.507c-5.7-1.151-9.568-3.57-11.488-7.191-3.261-6.148,0-13.95,1.235-16.887.175-.419.327-.781.37-.934a.567.567,0,0,1,1.047-.111,23.427,23.427,0,0,0,13.18,10.3c10.247,2.98,13.791,1.972,13.826,1.962a.57.57,0,0,1,.732.62c-.182,1.29-1.4,7.9-7.58,11.238a13.707,13.707,0,0,1-6.606,1.512m-13.946-24.091c-1.19,2.843-4.245,10.225-1.256,15.862,1.754,3.306,5.357,5.53,10.711,6.61,4.307.869,7.859.57,10.557-.891a14.239,14.239,0,0,0,6.857-9.622c-1.626.181-5.681.2-13.612-2.111a24.294,24.294,0,0,1-13.257-9.849" transform="translate(-310.532 -1198.035)"/>
    <path id="Trazado_882121" data-name="Trazado 882121" d="M420.72,1460.755s-3.51,1.137-14.154-1.958a32.541,32.541,0,0,1-14.85-9.443,19.9,19.9,0,0,0,.66,13.014c.569,1.355,3.629,8.648,11.132,10.426a14.184,14.184,0,0,0,9.925-1.22c6.113-3.308,7.177-10.03,7.288-10.819" transform="translate(-323.874 -1200.773)" fill="#fff"/>
    <path id="Trazado_882122" data-name="Trazado 882122" d="M404.209,1471.021a15.559,15.559,0,0,1-3.558-.414c-6.773-1.605-10.127-7.43-11.524-10.759a20.476,20.476,0,0,1-.682-13.388.567.567,0,0,1,.985-.2A32.259,32.259,0,0,0,404,1455.513c10.357,3.012,13.787,1.974,13.821,1.963a.567.567,0,0,1,.736.618c-.182,1.29-1.4,7.9-7.58,11.238a14.11,14.11,0,0,1-6.767,1.688m-14.933-23.234a19.149,19.149,0,0,0,.9,11.622c1.313,3.131,4.455,8.6,10.74,10.094a13.544,13.544,0,0,0,9.523-1.167,14.236,14.236,0,0,0,6.858-9.622c-1.625.18-5.68.2-13.612-2.111a33.239,33.239,0,0,1-14.406-8.816" transform="translate(-321.148 -1198.035)"/>
    <path id="Trazado_882123" data-name="Trazado 882123" d="M454.238,1506.144s-7.9,3.469-7.865-.52c.045-5.047,7.865.52,7.865.52" transform="translate(-369.815 -1245.639)"/>
    <path id="Trazado_882124" data-name="Trazado 882124" d="M436.406,1499.818a7.34,7.34,0,0,1-7.428-6.683,7.006,7.006,0,0,1,.674-3.523.567.567,0,1,1,1.023.491,5.872,5.872,0,0,0-.565,2.952,6.227,6.227,0,0,0,6.772,5.611,6.369,6.369,0,0,0,5.683-4.424.567.567,0,0,1,1.087.325,7.51,7.51,0,0,1-6.69,5.23c-.186.013-.372.02-.556.02" transform="translate(-355.389 -1233.86)" fill="#caddff"/>
    <path id="Trazado_882125" data-name="Trazado 882125" d="M295.883,1467.259s-3.51,1.137-14.154-1.958a23.8,23.8,0,0,1-13.523-10.575c-.54,1.9-10.575,20.26,9.45,24.3,1.556.314,6.7,1.344,10.939-.948,6.113-3.308,7.177-10.03,7.288-10.819" transform="translate(-219.73 -1205.224)" fill="#31a854"/>
    <path id="Trazado_882126" data-name="Trazado 882126" d="M279.515,1477.35a23.92,23.92,0,0,1-4.716-.507c-5.7-1.151-9.568-3.57-11.488-7.19-3.261-6.148,0-13.95,1.234-16.887.175-.419.327-.781.37-.934a.567.567,0,0,1,1.047-.111,23.426,23.426,0,0,0,13.18,10.3c10.247,2.98,13.791,1.972,13.826,1.962a.57.57,0,0,1,.732.62c-.182,1.29-1.4,7.9-7.58,11.238a13.705,13.705,0,0,1-6.606,1.512m-13.946-24.091c-1.19,2.843-4.245,10.225-1.256,15.862,1.754,3.306,5.357,5.53,10.711,6.61,4.307.869,7.859.57,10.557-.891a14.239,14.239,0,0,0,6.857-9.622c-1.625.181-5.68.2-13.612-2.111a24.292,24.292,0,0,1-13.257-9.849" transform="translate(-216.985 -1202.485)"/>
    <path id="Trazado_882127" data-name="Trazado 882127" d="M307.809,1466.127s-3.51,1.137-14.154-1.958a32.542,32.542,0,0,1-14.85-9.442,19.9,19.9,0,0,0,.66,13.013c.569,1.355,3.629,8.648,11.132,10.426a14.183,14.183,0,0,0,9.924-1.22c6.113-3.308,7.177-10.03,7.288-10.819" transform="translate(-230.329 -1205.224)" fill="#fff"/>
    <path id="Trazado_882128" data-name="Trazado 882128" d="M291.3,1476.392a15.564,15.564,0,0,1-3.558-.414c-6.772-1.605-10.127-7.43-11.524-10.759a20.475,20.475,0,0,1-.682-13.388.568.568,0,0,1,.985-.2,32.256,32.256,0,0,0,14.569,9.257c10.358,3.012,13.787,1.974,13.821,1.963a.567.567,0,0,1,.736.619c-.182,1.29-1.4,7.9-7.58,11.238a14.113,14.113,0,0,1-6.767,1.688m-14.933-23.234a19.149,19.149,0,0,0,.9,11.622c1.314,3.131,4.456,8.6,10.74,10.094a13.544,13.544,0,0,0,9.523-1.168,14.238,14.238,0,0,0,6.857-9.622c-1.625.181-5.68.2-13.612-2.111a33.233,33.233,0,0,1-14.406-8.816" transform="translate(-227.602 -1202.484)"/>
    <path id="Trazado_882129" data-name="Trazado 882129" d="M341.326,1511.516s-7.9,3.469-7.865-.52c.045-5.047,7.865.52,7.865.52" transform="translate(-276.269 -1250.09)"/>
    <path id="Trazado_882130" data-name="Trazado 882130" d="M323.494,1505.189a7.34,7.34,0,0,1-7.428-6.683,7.008,7.008,0,0,1,.674-3.523.567.567,0,1,1,1.023.491,5.872,5.872,0,0,0-.565,2.952,6.229,6.229,0,0,0,6.772,5.611,6.369,6.369,0,0,0,5.683-4.424.567.567,0,1,1,1.087.325,7.51,7.51,0,0,1-6.69,5.23c-.186.013-.372.02-.556.02" transform="translate(-261.842 -1238.31)" fill="#caddff"/>
    <path id="Trazado_882131" data-name="Trazado 882131" d="M162.717,1475.394s-3.51,1.137-14.154-1.958a23.8,23.8,0,0,1-13.523-10.575c-.54,1.9-10.576,20.259,9.45,24.3,1.556.314,6.7,1.344,10.939-.948,6.113-3.308,7.177-10.029,7.288-10.819" transform="translate(-109.403 -1211.964)" fill="#31a854"/>
    <path id="Trazado_882132" data-name="Trazado 882132" d="M146.35,1485.484a23.921,23.921,0,0,1-4.716-.507c-5.7-1.151-9.568-3.57-11.488-7.191-3.261-6.148,0-13.95,1.235-16.887.175-.419.327-.781.37-.934a.567.567,0,0,1,1.047-.111,23.428,23.428,0,0,0,13.18,10.3c10.247,2.98,13.791,1.972,13.825,1.962a.57.57,0,0,1,.732.62c-.182,1.29-1.4,7.9-7.58,11.238a13.709,13.709,0,0,1-6.606,1.512M132.4,1461.393c-1.19,2.843-4.245,10.225-1.256,15.862,1.753,3.306,5.357,5.53,10.71,6.61,4.307.869,7.859.57,10.557-.89a14.238,14.238,0,0,0,6.857-9.622c-1.625.181-5.68.2-13.612-2.111a24.294,24.294,0,0,1-13.257-9.849" transform="translate(-106.66 -1209.224)"/>
    <path id="Trazado_882133" data-name="Trazado 882133" d="M174.644,1474.26s-3.51,1.137-14.154-1.958a32.543,32.543,0,0,1-14.85-9.443,19.9,19.9,0,0,0,.66,13.013c.569,1.355,3.629,8.648,11.132,10.426a14.184,14.184,0,0,0,9.924-1.22c6.113-3.308,7.177-10.03,7.288-10.819" transform="translate(-120.003 -1211.963)" fill="#fff"/>
    <path id="Trazado_882134" data-name="Trazado 882134" d="M158.131,1484.526a15.547,15.547,0,0,1-3.558-.414c-6.772-1.605-10.127-7.43-11.524-10.759a20.475,20.475,0,0,1-.682-13.388.567.567,0,0,1,.985-.2,32.26,32.26,0,0,0,14.57,9.257c10.356,3.012,13.787,1.974,13.821,1.963a.567.567,0,0,1,.736.619c-.182,1.29-1.4,7.9-7.58,11.238a14.113,14.113,0,0,1-6.767,1.688M143.2,1461.292a19.149,19.149,0,0,0,.9,11.622c1.314,3.13,4.456,8.6,10.74,10.094a13.544,13.544,0,0,0,9.523-1.168,14.237,14.237,0,0,0,6.857-9.622c-1.625.181-5.68.2-13.612-2.111a33.235,33.235,0,0,1-14.406-8.816" transform="translate(-117.276 -1209.223)"/>
    <path id="Trazado_882135" data-name="Trazado 882135" d="M208.161,1519.65s-7.9,3.469-7.865-.52c.045-5.047,7.865.52,7.865.52" transform="translate(-165.943 -1256.829)"/>
    <path id="Trazado_882136" data-name="Trazado 882136" d="M190.323,1513.324a7.569,7.569,0,0,1-4.863-1.744,7.008,7.008,0,0,1-1.885-8.462.567.567,0,0,1,1.023.491,5.872,5.872,0,0,0,1.588,7.1,6.464,6.464,0,0,0,4.62,1.465,6.369,6.369,0,0,0,5.683-4.424.567.567,0,0,1,1.087.325,7.51,7.51,0,0,1-6.69,5.23q-.282.02-.562.02" transform="translate(-151.517 -1245.05)" fill="#caddff"/>
    <path id="Trazado_882137" data-name="Trazado 882137" d="M1365.839,1182.551h-52.121l-7.553,80.494c0,3.409,15.049,6.173,33.614,6.173s33.614-2.764,33.614-6.173Z" transform="translate(-1082.142 -979.73)" fill="#acdbb9"/>
    <path id="Trazado_882138" data-name="Trazado 882138" d="M1337.038,1267.045c-16.57,0-34.181-2.363-34.181-6.741,0-.018,0-.035,0-.053l7.554-80.494a.567.567,0,0,1,.565-.514H1363.1a.567.567,0,0,1,.565.514l7.554,80.494a.48.48,0,0,1,0,.053c0,4.378-17.611,6.741-34.181,6.741m-33.047-6.718c.077,2.29,11.838,5.584,33.047,5.584s32.969-3.293,33.047-5.584l-7.5-79.949h-51.088Z" transform="translate(-1079.402 -976.99)"/>
    <path id="Trazado_882139" data-name="Trazado 882139" d="M1384.955,1372.12a15.116,15.116,0,1,0-15.116,15.116,15.116,15.116,0,0,0,15.116-15.116" transform="translate(-1122.373 -1124.263)" fill="#fff"/>
    <path id="Trazado_882140" data-name="Trazado 882140" d="M1367.1,1385.062a15.683,15.683,0,1,1,15.683-15.683,15.7,15.7,0,0,1-15.683,15.683m0-30.232a14.549,14.549,0,1,0,14.548,14.549,14.565,14.565,0,0,0-14.548-14.549" transform="translate(-1119.632 -1121.522)"/>
    <path id="Trazado_882141" data-name="Trazado 882141" d="M1409.156,1394.72a10.072,10.072,0,1,0-10.072,10.072,10.072,10.072,0,0,0,10.072-10.072" transform="translate(-1150.781 -1147.165)" fill="#fff"/>
    <path id="Trazado_882142" data-name="Trazado 882142" d="M1396.345,1402.618a10.639,10.639,0,1,1,10.639-10.639,10.651,10.651,0,0,1-10.639,10.639m0-20.143a9.5,9.5,0,1,0,9.5,9.5,9.515,9.515,0,0,0-9.5-9.5" transform="translate(-1148.042 -1144.425)"/>
    <path id="Trazado_882143" data-name="Trazado 882143" d="M1390.071,1394.72A10.072,10.072,0,1,0,1380,1404.791a10.072,10.072,0,0,0,10.072-10.072" transform="translate(-1134.97 -1147.165)" fill="#fff"/>
    <path id="Trazado_882144" data-name="Trazado 882144" d="M1377.26,1402.618a10.639,10.639,0,1,1,10.639-10.639,10.651,10.651,0,0,1-10.639,10.639m0-20.143a9.5,9.5,0,1,0,9.5,9.5,9.515,9.515,0,0,0-9.5-9.5" transform="translate(-1132.23 -1144.425)"/>
    <path id="Trazado_882145" data-name="Trazado 882145" d="M1617.207,890.526a4.439,4.439,0,0,1-1.742-8.521l21.749-9.268-4.237-26.745H1617.8a4.438,4.438,0,0,1,0-8.876h18.968a4.438,4.438,0,0,1,4.383,3.743l5.372,33.908a4.438,4.438,0,0,1-2.644,4.777l-24.934,10.625a4.422,4.422,0,0,1-1.738.356" transform="translate(-1336.158 -693.541)" fill="#fff"/>
    <path id="Trazado_882146" data-name="Trazado 882146" d="M1614.459,888.353a5.006,5.006,0,0,1-1.964-9.61l21.341-9.094-4.092-25.829h-14.694a5.005,5.005,0,0,1,0-10.01h18.968a4.982,4.982,0,0,1,4.943,4.222l5.372,33.908a5,5,0,0,1-2.982,5.388l-24.933,10.625a4.977,4.977,0,0,1-1.96.4m.592-53.41a3.871,3.871,0,0,0,0,7.741h15.178a.567.567,0,0,1,.56.479l4.237,26.745a.567.567,0,0,1-.338.611l-21.749,9.268a3.871,3.871,0,1,0,3.035,7.121l24.933-10.625a3.866,3.866,0,0,0,2.306-4.166l-5.372-33.908a3.853,3.853,0,0,0-3.823-3.265Z" transform="translate(-1333.41 -690.801)"/>
    <path id="Trazado_882147" data-name="Trazado 882147" d="M1395.03,794.978H1339.1l4.4,54.982a12.487,12.487,0,0,0,12.448,11.492h22.241a12.488,12.488,0,0,0,12.448-11.492Z" transform="translate(-1109.428 -658.63)" fill="#fff"/>
    <path id="Trazado_882148" data-name="Trazado 882148" d="M1375.445,859.278H1353.2a13.123,13.123,0,0,1-13.013-12.014l-4.4-54.982a.567.567,0,0,1,.565-.612h55.931a.567.567,0,0,1,.565.612l-4.4,54.982a13.122,13.122,0,0,1-13.013,12.014M1336.974,792.8l4.348,54.369a11.983,11.983,0,0,0,11.882,10.97h22.241a11.982,11.982,0,0,0,11.882-10.97l4.349-54.369Z" transform="translate(-1106.689 -655.89)"/>
    <path id="Trazado_882149" data-name="Trazado 882149" d="M1439.14,733.846c0,1.637-1.179,3.141-3.18,4.364h-26.538c-2-1.223-3.181-2.732-3.181-4.364a3.932,3.932,0,0,1,.848-2.352c2.189-2.924,8.348-5.035,15.6-5.035s13.417,2.111,15.6,5.035a3.9,3.9,0,0,1,.848,2.352" transform="translate(-1165.055 -601.863)" fill="#31a854"/>
    <path id="Trazado_882150" data-name="Trazado 882150" d="M1433.22,736.038h-26.538a.568.568,0,0,1-.3-.083c-2.258-1.383-3.452-3.059-3.452-4.848a4.482,4.482,0,0,1,.96-2.69c2.358-3.15,8.81-5.264,16.057-5.264s13.7,2.115,16.056,5.262a4.457,4.457,0,0,1,.961,2.692c0,1.792-1.193,3.468-3.452,4.848a.567.567,0,0,1-.3.083m-26.376-1.135h26.215c1.3-.817,2.775-2.117,2.775-3.8a3.349,3.349,0,0,0-.735-2.013c-2.114-2.83-8.343-4.807-15.147-4.807s-13.028,1.977-15.147,4.807a3.375,3.375,0,0,0-.735,2.012c0,1.676,1.478,2.977,2.775,3.8" transform="translate(-1162.315 -599.124)"/>
    <rect id="Rectángulo_402102" data-name="Rectángulo 402102" width="61.775" height="6.716" transform="translate(226.749 129.631)" fill="#31a854"/>
    <path id="Trazado_882151" data-name="Trazado 882151" d="M1381.1,760.356h-61.775a.568.568,0,0,1-.567-.567v-6.716a.568.568,0,0,1,.567-.567H1381.1a.567.567,0,0,1,.567.567v6.716a.567.567,0,0,1-.567.567m-61.208-1.134h60.64V753.64h-60.64Z" transform="translate(-1092.573 -623.443)"/>
    <path id="Trazado_882152" data-name="Trazado 882152" d="M1419.86,1000.015l-1.331,16.666a10.686,10.686,0,0,1-10.646,9.827h-19.024a10.677,10.677,0,0,1-10.641-9.827l-1.331-16.666Z" transform="translate(-1140.735 -828.501)" fill="#acdbb9"/>
    <path id="Trazado_882153" data-name="Trazado 882153" d="M1433.288,1050.389a.567.567,0,0,1-.423-.189l-2.14-2.392a.567.567,0,0,1,.846-.757l2.14,2.392a.567.567,0,0,1-.422.946" transform="translate(-1185.22 -867.314)" fill="#5479f7"/>
    <path id="Trazado_882154" data-name="Trazado 882154" d="M1526.572,1013.219a.567.567,0,0,1-.4-.968c1.087-1.087,2.3-2.341,2.447-2.558a.567.567,0,0,1,.943.63c-.263.394-2.048,2.189-2.589,2.73a.566.566,0,0,1-.4.166" transform="translate(-1264.278 -836.313)" fill="#5479f7"/>
    <path id="Trazado_882155" data-name="Trazado 882155" d="M1536.137,1075.079h-5.162a.567.567,0,0,1,0-1.135h5.162a.567.567,0,0,1,0,1.135" transform="translate(-1267.926 -889.75)" fill="#5479f7"/>
    <path id="Trazado_882156" data-name="Trazado 882156" d="M1486.618,1103.868a.568.568,0,0,1-.459-.233,17.036,17.036,0,0,0-2.407-2.833.563.563,0,0,1-.312-.735.572.572,0,0,1,.742-.314c.68.272,2.105,2.13,2.894,3.214a.567.567,0,0,1-.458.9" transform="translate(-1228.979 -911.099)" fill="#5479f7"/>
    <path id="Trazado_882157" data-name="Trazado 882157" d="M1431.147,1102.989a.567.567,0,0,1-.347-1.016l2.77-2.14a.567.567,0,0,1,.693.9l-2.77,2.14a.564.564,0,0,1-.346.118" transform="translate(-1185.219 -911.101)" fill="#5479f7"/>
    <path id="Trazado_882158" data-name="Trazado 882158" d="M1480.121,1049.115a.561.561,0,0,1-.157-.022,31.045,31.045,0,0,0-5.332-1.2.567.567,0,0,1-.387-1.066c.538-.216,2.568.181,6.033,1.177a.567.567,0,0,1-.156,1.113m-5.455-1.237h0" transform="translate(-1221.099 -867.235)" fill="#5479f7"/>
    <path id="Trazado_882159" data-name="Trazado 882159" d="M1559.477,1109.039a.563.563,0,0,1-.235-.051l-4.281-1.952a.567.567,0,1,1,.471-1.032l4.281,1.951a.567.567,0,0,1-.236,1.083" transform="translate(-1287.993 -916.269)" fill="#5479f7"/>
    <path id="Trazado_882160" data-name="Trazado 882160" d="M209.151,1311.843c.891,2.789-28.147,6.6-39.868,4.659l-5.764-5.962-18.506-3.4c-2.505-.46-7.037-3.7-8.775-5.895l-.694-2.029Z" transform="translate(-112.296 -1076.385)" fill="#fff"/>
    <path id="Trazado_882161" data-name="Trazado 882161" d="M136.093,1310.033,208.7,1322.1c-13.886,4.9-26.871,6.958-38.592,5.018l-2.7-2.8a13.73,13.73,0,0,0-7.388-3.96l-14.178-2.607a13.122,13.122,0,0,1-7.188-4.495Z" transform="translate(-112.752 -1085.347)" fill="#fff"/>
    <path id="Trazado_882162" data-name="Trazado 882162" d="M176.526,1325.679a56.53,56.53,0,0,1-9.251-.74.57.57,0,0,1-.315-.166l-2.7-2.8a13.088,13.088,0,0,0-7.083-3.8L143,1315.572a13.767,13.767,0,0,1-7.531-4.7l-2.557-3.226a.567.567,0,0,1,.538-.912l72.607,12.068a.567.567,0,0,1,.1,1.094c-10.956,3.867-20.735,5.783-29.623,5.783m-8.881-1.829c10.49,1.7,22.292.292,36.011-4.3l-68.946-11.459,1.643,2.073a12.534,12.534,0,0,0,6.847,4.29l14.178,2.607a14.218,14.218,0,0,1,7.693,4.124Z" transform="translate(-110.011 -1082.608)"/>
    <path id="Trazado_882163" data-name="Trazado 882163" d="M1306.961,175.1a.757.757,0,0,1-.733-.571,71.8,71.8,0,0,0-15.371-29.272c-14.515-16.944-36.331-27.953-61.428-31a.756.756,0,1,1,.182-1.5c25.474,3.093,47.633,14.287,62.394,31.518a73.3,73.3,0,0,1,15.689,29.885.757.757,0,0,1-.734.942" transform="translate(-1018.017 -93.414)"/>
    <path id="Trazado_882164" data-name="Trazado 882164" d="M1113.7,130.816a.756.756,0,0,1-.653-.374,76.743,76.743,0,0,0-7.9-11.052c-23.333-27.237-64.905-38.608-105.911-28.968a.756.756,0,1,1-.346-1.472c41.552-9.768,83.71,1.795,107.406,29.456a78.19,78.19,0,0,1,8.058,11.27.757.757,0,0,1-.651,1.139" transform="translate(-827.086 -70.86)"/>
    <path id="Trazado_882165" data-name="Trazado 882165" d="M1115.2,104.624a.753.753,0,0,1-.443-.144,5.643,5.643,0,0,0-3.858-1.414,4.046,4.046,0,0,0-1.437.566,2.325,2.325,0,0,1-3.71-1.018,1.913,1.913,0,0,0-.318-.486c-.158.02-.553.509-.766.772a3.011,3.011,0,0,1-2.426,1.517,3.055,3.055,0,0,1-2.093-1.49c-.279-.361-.625-.81-.851-.813h0c-.175,0-.436.388-.666.73a2.988,2.988,0,0,1-2.115,1.612c-.971.1-1.995-.425-3.122-1.591a.756.756,0,0,1,1.088-1.051c1.015,1.051,1.622,1.163,1.886,1.137.368-.036.626-.383,1.008-.951.423-.63.945-1.414,1.947-1.4a2.775,2.775,0,0,1,2.025,1.4c.335.434.681.883,1,.9.367.024.772-.5,1.145-.96.539-.666,1.211-1.5,2.221-1.307a2.056,2.056,0,0,1,1.369,1.251c.222.409.371.664.635.748.244.077.469-.03,1.009-.331a5.4,5.4,0,0,1,1.964-.742c1.459-.2,3.129.362,4.955,1.687a.756.756,0,0,1-.445,1.369" transform="translate(-905.688 -83.347)"/>
    <path id="Trazado_882166" data-name="Trazado 882166" d="M1085.359,377.294a.567.567,0,0,1-.41-.959l1.785-1.866a.567.567,0,1,1,.82.784l-1.785,1.866a.566.566,0,0,1-.41.175" transform="translate(-898.738 -310.098)"/>
    <path id="Trazado_882167" data-name="Trazado 882167" d="M1048.93,415.369a.567.567,0,0,1-.41-.959l1.785-1.866a.567.567,0,0,1,.82.784l-1.785,1.866a.565.565,0,0,1-.41.175" transform="translate(-868.557 -341.643)"/>
    <path id="Trazado_882168" data-name="Trazado 882168" d="M1050.389,378.263a.565.565,0,0,1-.4-.163l-1.812-1.786a.567.567,0,1,1,.8-.808l1.812,1.786a.567.567,0,0,1-.4.971" transform="translate(-868.264 -310.967)"/>
    <path id="Trazado_882169" data-name="Trazado 882169" d="M1087.37,414.707a.565.565,0,0,1-.4-.163l-1.812-1.786a.567.567,0,1,1,.8-.808l1.812,1.786a.567.567,0,0,1-.4.971" transform="translate(-898.902 -341.16)"/>
    <path id="Trazado_882170" data-name="Trazado 882170" d="M1161.019,280a3.977,3.977,0,0,1-1.442-.272,4.045,4.045,0,0,1-2.26-2.191,4.152,4.152,0,0,1,2.068-5.419,3.949,3.949,0,0,1,3.073-.08,4.044,4.044,0,0,1,2.26,2.191,4.152,4.152,0,0,1-2.068,5.419,3.97,3.97,0,0,1-1.631.353m-1.168-6.848a3.013,3.013,0,0,0-1.491,3.935,2.916,2.916,0,0,0,1.629,1.583,2.822,2.822,0,0,0,2.2-.057,3.013,3.013,0,0,0,1.491-3.935,2.916,2.916,0,0,0-1.628-1.583,2.823,2.823,0,0,0-2.2.057" transform="translate(-958.543 -225.158)"/>
  </g>
</svg>
