<svg xmlns="http://www.w3.org/2000/svg" xmlns:xlink="http://www.w3.org/1999/xlink" width="335" height="335" viewBox="0 0 335 335">
  <defs>
    <clipPath id="clip-path">
      <rect id="Rectángulo_402099" data-name="Rectángulo 402099" width="335" height="335" fill="none"/>
    </clipPath>
  </defs>
  <g id="Grupo_1102070" data-name="Grupo 1102070" transform="translate(0.156 0.156)">
    <g id="Grupo_1102069" data-name="Grupo 1102069" transform="translate(-0.156 -0.156)" clip-path="url(#clip-path)">
      <path id="Trazado_881940" data-name="Trazado 881940" d="M1493.909,1566.356s4.06,13.544,21.605,13.766c19.023.24,28.763-20.819,24.9-36.286-1.955-7.835-5.854-9.157-5.854-9.157Z" transform="translate(-1220.414 -1253.722)" fill="#31a854"/>
      <path id="Trazado_881941" data-name="Trazado 881941" d="M1513.123,1578.027l-.318,0c-17.785-.224-22.136-14.057-22.178-14.2a.605.605,0,0,1,.208-.651l40.656-31.678a.606.606,0,0,1,.566-.1c.172.058,4.236,1.521,6.247,9.584a33.1,33.1,0,0,1-6.076,27.576,24.012,24.012,0,0,1-19.106,9.464m-21.2-14.159c.81,2.213,5.476,12.753,20.9,12.947a22.632,22.632,0,0,0,18.459-9,31.843,31.843,0,0,0,5.851-26.532c-1.535-6.155-4.305-8.115-5.188-8.6Z" transform="translate(-1217.712 -1251.02)"/>
      <path id="Trazado_881942" data-name="Trazado 881942" d="M1494.906,1567.952s12.059,11.841,28.9-5.893,12.234-30.567,6.687-30.2-14.7,9.243-26.84,14.85-15.529,15.1-8.751,21.245" transform="translate(-1218.415 -1251.411)" fill="#fff"/>
      <path id="Trazado_881943" data-name="Trazado 881943" d="M1502.677,1569.728a16.325,16.325,0,0,1-10.88-4.036,10.056,10.056,0,0,1-3.519-9.106c.774-5.053,5.305-9.839,12.432-13.13a111.342,111.342,0,0,0,14.75-8.644c5.115-3.382,9.155-6.052,12.3-6.26,1.941-.128,3.72,1.111,4.753,3.313,2.371,5.056.922,15.4-10.961,27.909-6.17,6.5-12.42,9.843-18.576,9.95l-.3,0m-10.042-4.91a15.47,15.47,0,0,0,10.349,3.7c5.812-.11,11.765-3.331,17.693-9.573,11.463-12.068,12.952-21.851,10.743-26.562-.813-1.734-2.158-2.713-3.577-2.619-2.829.186-6.75,2.779-11.715,6.062a112.361,112.361,0,0,1-14.91,8.734c-6.751,3.118-11.031,7.57-11.742,12.214a8.773,8.773,0,0,0,3.144,8.033l.016.016" transform="translate(-1215.721 -1248.709)"/>
      <path id="Trazado_881944" data-name="Trazado 881944" d="M1555.14,1624.281s3.3,4.287,11.984-2.491,3.977-13.4-3.582-10.757-10.509,9.444-8.4,13.248" transform="translate(-1269.898 -1315.618)"/>
      <path id="Trazado_881945" data-name="Trazado 881945" d="M1563.122,1624.323a.606.606,0,0,1-.566-.821,12.759,12.759,0,0,1,7.886-7.013,8.908,8.908,0,0,1,2.924-.538.605.605,0,0,1,0,1.21,7.7,7.7,0,0,0-2.525.471,11.545,11.545,0,0,0-7.155,6.3.605.605,0,0,1-.565.39" transform="translate(-1276.466 -1320.122)" fill="#caddff"/>
      <path id="Trazado_881946" data-name="Trazado 881946" d="M132.8,9.934C125.5,12.207,93.144,22.773,60.83,50.81,53,57.6,21.361,85.056,7.843,121.966c-23.01,62.825,4.524,158.4,83.831,196.814,92.376,44.74,209.063-10.328,235.676-84.024,11.8-32.686,12.335-86.889-17.4-122.63C286.02,83.36,245.1,69.692,246.682,42.484c.763-13.1,10.652-16.727,7.908-24.98C248.085-2.071,184.342-6.133,132.8,9.934" transform="translate(0.11 0.111)" fill="#f9d0ac"/>
      <path id="Trazado_881947" data-name="Trazado 881947" d="M284.588,670.822c1.348-3.5,10.137-26.819,5.9-40.5a14.764,14.764,0,0,0-4.182-7.216c-5.344-4.708-10.755-.907-15.009-4.344-5.609-4.533.788-13.582-5.329-26.656-1.467-3.136-3.751-8.018-8.791-10.477-5.627-2.745-8.9.358-14.448-1.757-6.922-2.637-6.176-9.112-12.687-15.587-6.859-6.82-20.25-12.124-30.139-6.744-8.623,4.691-11.314,15.727-10.909,23.28.6,11.159,8.259,20.283,16.279,24.5,11.529,6.055,23.2,1.647,24.744,6.032,1.435,4.083-8.625,8.079-8.1,15.725.363,5.339,5.756,10.557,11.268,11.907,7.639,1.871,12.075-4.529,16.633-2.09,4.779,2.558,2.117,10.781,5.533,18.239,2.818,6.152,10.176,12.667,29.246,15.688" transform="translate(-154.262 -453.6)" fill="#fce7d5"/>
      <path id="Trazado_881948" data-name="Trazado 881948" d="M435.057,803.011a.605.605,0,0,1-.591-.48c-9.134-43.155-42.387-69.509-61.4-81.378a.605.605,0,1,1,.641-1.027,158.708,158.708,0,0,1,34.235,28.753c14.3,16.141,23.621,34.107,27.705,53.4a.606.606,0,0,1-.593.731" transform="translate(-304.454 -588.158)" fill="#caddff"/>
      <path id="Trazado_881949" data-name="Trazado 881949" d="M385.471,519.3c16.9-38.465,14.684-55.276,8.587-63.418-1.82-2.43-6.1-6.951-8.7-14.783-3.373-10.157-.637-16.009-.976-24.439-.663-16.488-12.666-32.266-25.983-39.869-9.3-5.31-27.2-11.174-38.2-2.485-4.651,3.674-9.32,10.939-7.267,16.18,2.937,7.5,17.593,3.386,24.591,13.471,3.818,5.5.576,8.29,4.679,14.1,6.467,9.154,17.528,6.492,19.726,12.987,2.129,6.291-7.8,10.431-6.393,18.505,1.61,9.211,15.166,10.461,15.744,19.336.344,5.285-4.391,5.93-4.655,12.068-.322,7.469,6.512,10.593,12.847,21.7a56.106,56.106,0,0,1,6,16.649" transform="translate(-255.146 -302.074)" fill="#fff"/>
      <path id="Trazado_881950" data-name="Trazado 881950" d="M482.34,550.688l-.044,0a.605.605,0,0,1-.56-.647c2.372-32.772-2.9-67.561-14.1-93.06-14.763-33.6-36.582-43.35-36.8-43.445a.605.605,0,0,1,.479-1.112c.229.1,5.694,2.494,13.08,9.143,6.794,6.115,16.533,17.139,24.349,34.926,5.084,11.571,9.124,25.7,11.681,40.85a221.435,221.435,0,0,1,2.522,52.784.605.605,0,0,1-.6.561" transform="translate(-351.579 -336.798)" fill="#caddff"/>
      <path id="Trazado_881951" data-name="Trazado 881951" d="M726.241,387.913s9.8-11.458,6.211-27.021-13.427-22.036-26.26-19.338c0,0-16.842-5.906-27.884,4.179s-15.26,3.251-21.714,14.83c-11.443,20.53,10.506,43.327,28.478,43.4s20.564-23.555,20.564-23.555Z" transform="translate(-533.743 -277.535)"/>
      <path id="Trazado_881952" data-name="Trazado 881952" d="M585.477,226.054s10.571-9.065,7.027-15.158-43.512,1.966-30.263-27.88c6.209-13.987,26.372-7.263,33.943,8.608S617.978,207.1,617.978,207.1Z" transform="translate(-457.049 -143.198)"/>
      <path id="Trazado_881953" data-name="Trazado 881953" d="M1032.844,537.365s-.364-7.758,5.06-7.915,1.188,13.753-5.033,17.154-.027-9.239-.027-9.239" transform="translate(-841.481 -432.449)" fill="#fff"/>
      <path id="Trazado_881954" data-name="Trazado 881954" d="M1028.538,545.089a1.529,1.529,0,0,1-1.1-.412c-1.726-1.65,1.144-8.013,2.18-10.146-.016-.833.032-4.613,2.07-6.811a4.895,4.895,0,0,1,3.582-1.577,2.776,2.776,0,0,1,2.91,2.292c1.127,4.16-2.7,13.3-7.635,16a4.57,4.57,0,0,1-2.012.657m6.856-17.738h-.084a3.678,3.678,0,0,0-2.727,1.188c-1.906,2.053-1.748,6.054-1.746,6.094l.007.155-.068.139c-1.814,3.7-3.25,8.153-2.5,8.874.151.144.683.118,1.69-.432,4.446-2.431,8.051-10.917,7.048-14.619-.332-1.225-1.065-1.4-1.623-1.4" transform="translate(-838.869 -429.746)"/>
      <path id="Trazado_881955" data-name="Trazado 881955" d="M1010.6,370.951s8.821-3.121,8.7-15.48-17.7-17.485-20.676-7.4,11.98,22.879,11.98,22.879" transform="translate(-815.444 -279.891)"/>
      <path id="Trazado_881956" data-name="Trazado 881956" d="M850.492,367.234a.605.605,0,0,1-.472-.983c2.764-3.455,7.644-3.544,10.3-3.289,1.339.128,2.68.363,3.977.59a29.072,29.072,0,0,0,6.527.65c3.149-.164,6.893-1.841,7.672-5.136a.605.605,0,0,1,1.178.279c-.923,3.9-5.2,5.88-8.787,6.066a30.374,30.374,0,0,1-6.8-.667c-1.274-.223-2.591-.454-3.883-.578-1.948-.186-6.746-.283-9.244,2.84a.605.605,0,0,1-.473.227" transform="translate(-694.247 -292.866)" fill="#fff"/>
      <path id="Trazado_881957" data-name="Trazado 881957" d="M670.708,369.707a.605.605,0,0,1-.5-.947,5.926,5.926,0,0,0,.162-6.189,6.824,6.824,0,0,0-5.439-3.259,7.861,7.861,0,0,0-6,2.443c-1.036,1.078-1.81,2.8-1.06,4.033a2.319,2.319,0,0,0,2.994.688,2.928,2.928,0,0,0,1.295-3.068,1.394,1.394,0,0,0-.557-.937.476.476,0,0,0-.386,0c-.028.013-.093.048-.1.1a.605.605,0,1,1-1.181-.262,1.36,1.36,0,0,1,.768-.927,1.683,1.683,0,0,1,1.451.011,2.447,2.447,0,0,1,1.193,1.771,4.125,4.125,0,0,1-1.887,4.368,3.539,3.539,0,0,1-4.62-1.115c-1.09-1.79-.172-4.053,1.221-5.5A9.094,9.094,0,0,1,665,358.1a7.957,7.957,0,0,1,6.42,3.863,7.16,7.16,0,0,1-.212,7.477.6.6,0,0,1-.5.264" transform="translate(-536.131 -292.449)"/>
      <path id="Trazado_881958" data-name="Trazado 881958" d="M593.921,238.868a.6.6,0,0,1-.251-.055,28.005,28.005,0,0,0-7.627-1.843c-2.963-.431-6.027-.876-8.729-2.337a13.528,13.528,0,0,1-6.5-14.94,7.149,7.149,0,0,1,1.805-3.423,4.079,4.079,0,0,1,3.873-1.131,2.971,2.971,0,0,1,2.1,3.5,2.438,2.438,0,0,1-1.778,1.636,2.137,2.137,0,0,1-2.081-.512.605.605,0,0,1,.862-.85.965.965,0,0,0,.92.189,1.247,1.247,0,0,0,.913-.8,1.78,1.78,0,0,0-1.275-2.008,2.858,2.858,0,0,0-2.691.833A6,6,0,0,0,571.983,220a12.452,12.452,0,0,0,5.907,13.571c2.513,1.359,5.337,1.77,8.327,2.2a28.91,28.91,0,0,1,7.956,1.94.605.605,0,0,1-.252,1.156" transform="translate(-465.919 -175.553)" fill="#fff"/>
      <path id="Trazado_881959" data-name="Trazado 881959" d="M700.641,527.83A16.453,16.453,0,0,1,684.3,508.184a.605.605,0,1,1,1.188.234,15.279,15.279,0,0,0,18.418,17.837.605.605,0,1,1,.271,1.18,15.775,15.775,0,0,1-3.537.4" transform="translate(-558.726 -414.677)" fill="#fff"/>
      <path id="Trazado_881960" data-name="Trazado 881960" d="M839.748,489.818c-.5,1.007-12.624,5.339-25.686-1.9-9.087-5.038-11.18,3.9-11.18,3.9l3.664,12.306c.153,1.227-2.824,1.144-2.824,1.144-1.242-2.02-6.023-6.624-8.92-3.092-4.164,5.076,4.351,13.9,10.9,13.334a42.748,42.748,0,0,0,2.719,4.475q.411.591.847,1.171v25.066l25,4.344-3.673-22.03c16.5-8.244,9.746-36.352,9.145-38.716" transform="translate(-648.343 -397.259)" fill="#fff"/>
      <path id="Trazado_881961" data-name="Trazado 881961" d="M832.289,548.6l-26.347-4.577V518.646q-.378-.509-.738-1.026a43.457,43.457,0,0,1-2.574-4.193c-4.552.159-9.336-3.548-11.261-7.2-1.416-2.689-1.331-5.225.241-7.141a3.841,3.841,0,0,1,3.325-1.5c2.71.184,5.364,2.9,6.389,4.376a3.216,3.216,0,0,0,1.9-.44l-3.689-12.388.037-.157c.038-.161.959-3.955,4.181-5.383,2.18-.967,4.832-.6,7.882,1.091,12.313,6.826,23.776,3.2,24.871,2.12l.706-1.421.4,1.583c.794,3.124,7.233,30.568-9.062,39.2ZM807.152,543l23.662,4.111-3.606-21.629.4-.2c6.686-3.341,10.269-10.421,10.65-21.043a65.381,65.381,0,0,0-1.612-16.117,11.6,11.6,0,0,1-1.781.694,31.394,31.394,0,0,1-23.821-3.082c-2.7-1.5-4.989-1.848-6.8-1.043-2.354,1.044-3.263,3.746-3.453,4.406l3.636,12.24a1.231,1.231,0,0,1-.32,1.006c-.763.84-2.733.829-3.122.819l-.327-.009-.171-.279c-.8-1.307-3.361-3.936-5.63-4.09a2.612,2.612,0,0,0-2.307,1.065c-1.678,2.045-.786,4.518-.106,5.81,1.81,3.437,6.453,6.883,10.49,6.538l.4-.034.187.355a42.347,42.347,0,0,0,2.681,4.411q.4.582.834,1.154l.121.161Z" transform="translate(-645.618 -394.549)"/>
      <path id="Trazado_881962" data-name="Trazado 881962" d="M1045.1,504.292s.016.059.042.163a.137.137,0,0,0-.042-.163" transform="translate(-853.735 -411.896)" fill="#fff"/>
      <path id="Trazado_881963" data-name="Trazado 881963" d="M1039.6,496.663l-.439-1.731-.613-2.288,1.635,1.714a.735.735,0,0,1,.146.852Zm-.353-2a.48.48,0,0,0,.061.526l.34-.325Z" transform="translate(-848.388 -402.38)"/>
      <path id="Trazado_881964" data-name="Trazado 881964" d="M913.135,684.655c-7.917,0-13.578-7.651-13.644-7.741a.605.605,0,0,1,.979-.712c.071.1,7.185,9.69,16.277,6.643a.605.605,0,0,1,.385,1.148,12.512,12.512,0,0,1-4,.663" transform="translate(-734.68 -552.143)"/>
      <path id="Trazado_881965" data-name="Trazado 881965" d="M820.6,667.736a4.77,4.77,0,0,1-1.086-.124,4.544,4.544,0,0,1-2.882-2.248,3.773,3.773,0,0,1-.314-3.1,3.508,3.508,0,0,1,2.91-2.179,3,3,0,0,1,2.954,1.2.605.605,0,0,1-.4.936l-1.86.309a.605.605,0,0,1-.2-1.194l.3-.05a2.411,2.411,0,0,0-.642,0,2.325,2.325,0,0,0-1.922,1.384,2.581,2.581,0,0,0,.237,2.113,3.315,3.315,0,0,0,2.095,1.65,4.725,4.725,0,0,0,4.621-1.957,8.792,8.792,0,0,0,1.5-5.324,15.5,15.5,0,0,0-4.5-10.929.605.605,0,0,1,.857-.855,16.722,16.722,0,0,1,4.849,11.788,9.959,9.959,0,0,1-1.744,6.044,6.116,6.116,0,0,1-4.781,2.536" transform="translate(-666.654 -528.645)"/>
      <path id="Trazado_881966" data-name="Trazado 881966" d="M298.055,905.65l-5.64,74.1H416.781l1.72-26.086s4.032,17.159,22.07,19.651,27.756-26.308,19.386-45.8c-4.587-10.682-14.428-31.6-22.385-48.329a54.516,54.516,0,0,0-38.832-30.093c-31.447-6.113-81.118-15.328-96.893-15.759-23.7-.647-77.278,90.275-79.324,102.656s-1.567,34.477,16.6,38.874c30.2,7.308,58.929-69.213,58.929-69.213" transform="translate(-181.014 -680.72)" fill="#acdbb9"/>
      <path id="Trazado_881967" data-name="Trazado 881967" d="M414.184,977.651H289.818a.605.605,0,0,1-.6-.651l5.339-70.137a260.478,260.478,0,0,1-16.717,33.744c-6.394,10.63-12.772,18.8-18.958,24.276-7.832,6.936-15.4,9.583-22.491,7.867-21.6-5.227-18-33.872-17.058-39.561,1.044-6.317,15.094-32.354,31.642-56.457,12.01-17.492,34.151-46.708,48.031-46.708.089,0,.177,0,.266,0,16.064.438,67.663,10.068,96.991,15.77a55.339,55.339,0,0,1,39.263,30.427c7.648,16.075,17.741,37.512,22.395,48.351,5.326,12.4,3.611,29.279-3.989,39.251-4.27,5.6-9.962,8.225-16.036,7.386C424.246,969.326,418.4,959.1,416.31,954l-1.522,23.088a.606.606,0,0,1-.6.565m-123.714-1.21H413.618L415.3,950.92a.605.605,0,0,1,1.193-.1c.04.168,4.163,16.787,21.563,19.191,7.2,1,12.083-3.214,14.908-6.921,7.356-9.652,9.007-26.006,3.84-38.04-4.647-10.821-14.733-32.243-22.376-48.308a54.125,54.125,0,0,0-38.4-29.758c-29.292-5.694-80.817-15.312-96.794-15.748-.079,0-.16,0-.239,0-23.04,0-76.369,89.428-78.472,102.153-.91,5.5-4.407,33.212,16.149,38.187,15.238,3.689,30.228-15.136,40.12-31.577a260.655,260.655,0,0,0,18.1-37.261.605.605,0,0,1,1.17.259Z" transform="translate(-178.417 -678.018)"/>
      <path id="Trazado_881968" data-name="Trazado 881968" d="M754.049,774.736s1.3-10.592-1.521-19.971c0,0,43.569,14.033,62.76,8.79l8.267,20.378s-27.643,6.84-69.506-9.2" transform="translate(-614.705 -616.533)" fill="#acdbb9"/>
      <path id="Trazado_881969" data-name="Trazado 881969" d="M804.624,783.287q-1.368,0-2.839-.035c-11.127-.27-28.948-2.337-50.654-10.651a.606.606,0,0,1-.384-.639c.013-.1,1.249-10.58-1.5-19.724a.605.605,0,0,1,.765-.75c.434.14,43.617,13.917,62.415,8.782a.605.605,0,0,1,.72.356L821.414,781a.605.605,0,0,1-.415.815c-.262.065-6.062,1.468-16.375,1.468M752,771.636c37.385,14.211,63.529,10.044,68.024,9.155l-7.8-19.216c-17.9,4.482-54.61-6.449-61.512-8.6A57.9,57.9,0,0,1,752,771.636" transform="translate(-612.003 -613.831)"/>
      <path id="Trazado_881970" data-name="Trazado 881970" d="M837.041,1170.02l35.631,39.052-5.777.836-34.249-38.546Z" transform="translate(-680.161 -955.796)"/>
      <path id="Trazado_881971" data-name="Trazado 881971" d="M1019.8,1384.252a68.524,68.524,0,0,0,5.1,12.183l8.555-.571c0-3.353-3.692-7.422-7.881-12.448Z" transform="translate(-833.068 -1130.141)"/>
      <path id="Trazado_881972" data-name="Trazado 881972" d="M1048.8,1441.629a20.111,20.111,0,0,1-.073,11.907Z" transform="translate(-856.703 -1177.701)"/>
      <path id="Trazado_881973" data-name="Trazado 881973" d="M1088.378,1449.885a20.111,20.111,0,0,1-.074,11.906Z" transform="translate(-889.034 -1184.446)"/>
      <path id="Trazado_881974" data-name="Trazado 881974" d="M1068.59,1445.758a20.109,20.109,0,0,1-.073,11.906Z" transform="translate(-872.868 -1181.074)"/>
      <path id="Trazado_881975" data-name="Trazado 881975" d="M267.363,1226.151a11.555,11.555,0,0,1,2.343-16.653c21.329-15.188,80.518-57.308,85.888-60.829,11.986-7.859,29.24,8.131,31.884,11.547,0,0-.7,2.214-5.214,1.2,0,0-.78,3.172-5.085,3.124s-17.372.949-17.372.949-26.519,55.208-67.528,66.731c-13.064,3.671-20.627-.77-24.915-6.07" transform="translate(-216.25 -936.599)" fill="#fff"/>
      <path id="Trazado_881976" data-name="Trazado 881976" d="M280.642,1231.51a20.294,20.294,0,0,1-16.461-7.63,11.941,11.941,0,0,1-2.562-9.22,12.279,12.279,0,0,1,5.024-8.306c24.069-17.139,80.623-57.377,85.907-60.842,5.232-3.431,12.173-2.9,20.073,1.523a49.094,49.094,0,0,1,12.622,10.159l.194.251-.1.3c-.034.108-.862,2.55-5.414,1.713-.476,1.015-1.882,3.061-5.469,3.034-3.846-.045-14.881.765-16.975.921a187.633,187.633,0,0,1-18.3,28.837c-10.782,13.979-28.115,31.9-49.458,37.9a33.615,33.615,0,0,1-9.087,1.358m79.64-87.037a12.63,12.63,0,0,0-7.069,2.051c-5.266,3.453-61.8,43.68-85.868,60.815a11.065,11.065,0,0,0-4.527,7.485,10.744,10.744,0,0,0,2.3,8.295c5.551,6.861,13.718,8.835,24.281,5.868,21.025-5.907,38.157-23.639,48.827-37.473a184.046,184.046,0,0,0,18.319-28.937l.151-.315.348-.026c.535-.041,13.158-1,17.425-.951h.088c3.7,0,4.4-2.637,4.4-2.664l.142-.576.578.13c2.92.655,3.991-.113,4.349-.549-2.359-2.74-13.524-13.153-23.751-13.153" transform="translate(-213.537 -933.947)"/>
      <path id="Trazado_881977" data-name="Trazado 881977" d="M1162.614,667.709H1139.99l-4.369-54.125h31.362Z" transform="translate(-927.692 -501.187)" fill="#fff"/>
      <path id="Trazado_881978" data-name="Trazado 881978" d="M1144.841,727.812h22.623l3.283-40.663h-29.189Z" transform="translate(-932.543 -561.29)" fill="#f08c32"/>
      <path id="Trazado_881979" data-name="Trazado 881979" d="M1257.176,562.143a.613.613,0,0,1-.141-.016.605.605,0,0,1-.448-.729l5.542-23.262a6.14,6.14,0,0,1,5.993-4.733h10.586a.605.605,0,0,1,0,1.21h-10.586a4.934,4.934,0,0,0-4.816,3.8l-5.542,23.262a.606.606,0,0,1-.588.465" transform="translate(-1026.508 -435.679)"/>
      <path id="Trazado_881980" data-name="Trazado 881980" d="M1182.757,725.909a.617.617,0,0,1-.144-.017.605.605,0,0,1-.445-.731l8.719-35.814a.605.605,0,1,1,1.176.286l-8.719,35.814a.605.605,0,0,1-.587.462" transform="translate(-965.707 -562.708)" fill="#5479f7"/>
      <path id="Trazado_881981" data-name="Trazado 881981" d="M1159.912,665.612h-22.624a.6.6,0,0,1-.6-.557l-4.369-54.125a.606.606,0,0,1,.6-.654h31.362a.605.605,0,0,1,.6.654l-4.369,54.125a.6.6,0,0,1-.6.557m-22.065-1.211h21.507l4.272-52.915h-30.05Z" transform="translate(-924.99 -498.485)"/>
      <path id="Trazado_881982" data-name="Trazado 881982" d="M1206.749,762.256c.314.12,8.3,59.5,4.068,88.874s39.594,56.581,45.01,15.681-41.919-116.648-41.919-116.648l-24.014-7.474s-2.8,12.048,16.855,19.567" transform="translate(-971.92 -606.667)" fill="#fff"/>
      <path id="Trazado_881983" data-name="Trazado 881983" d="M1236.086,884.732c-4.8,0-10.075-2.009-14.965-5.826-7.515-5.868-15.59-17.587-13.613-31.305,4.049-28.1-3.158-83.942-3.979-88.336-10.134-3.945-14.208-9.134-15.841-12.809a12.45,12.45,0,0,1-1.092-7.347l.148-.634,24.85,7.735.119.19a444.561,444.561,0,0,1,23.027,43.053c10.213,22.015,21.8,52.724,18.979,74-1.775,13.4-7.445,18.381-11.89,20.2a15.106,15.106,0,0,1-5.742,1.086m-48.4-144.7a12.3,12.3,0,0,0,1.141,6.008c1.57,3.476,5.521,8.415,15.427,12.2.4.153.534.2,1.748,10.3.637,5.3,1.567,13.7,2.378,23.684,1.37,16.855,2.539,40.173.324,55.542-1.9,13.205,5.9,24.51,13.16,30.178,6.6,5.157,13.9,6.866,19.5,4.574,5.948-2.432,9.8-9.084,11.148-19.237,2.779-20.981-8.729-51.449-18.872-73.315A445.441,445.441,0,0,0,1210.8,747.23Zm16.135,19.342h0Z" transform="translate(-969.211 -603.223)"/>
      <path id="Trazado_881984" data-name="Trazado 881984" d="M1288.064,849.2a.611.611,0,0,1-.123-.012l-8.151-1.678a.605.605,0,0,1,.244-1.185l8.151,1.678a.605.605,0,0,1-.121,1.2" transform="translate(-1045.083 -691.323)"/>
      <path id="Trazado_881985" data-name="Trazado 881985" d="M1592.241,1053.791a.606.606,0,0,1-.518-.918,144.98,144.98,0,0,0,19.976-61.512.605.605,0,1,1,1.206.11,146.2,146.2,0,0,1-20.145,62.028.605.605,0,0,1-.519.292" transform="translate(-1300.256 -809.382)"/>
      <path id="Trazado_881986" data-name="Trazado 881986" d="M1629.336,1019.886a.606.606,0,0,1-.518-.918c13.559-22.435,20.775-48.753,20.32-74.107a.605.605,0,0,1,.594-.616.613.613,0,0,1,.616.594c.458,25.579-6.819,52.127-20.494,74.755a.606.606,0,0,1-.519.292" transform="translate(-1330.563 -771.337)"/>
      <path id="Trazado_881987" data-name="Trazado 881987" d="M1591.368,1152.732a3.847,3.847,0,1,1,1.9-.507,3.851,3.851,0,0,1-1.9.507m-.011-6.484a2.621,2.621,0,0,0-1.305.348h0a2.638,2.638,0,1,0,1.305-.348m-1.606-.177h0Z" transform="translate(-1296.889 -935.386)"/>
      <path id="Trazado_881988" data-name="Trazado 881988" d="M1601.264,1086.485a.606.606,0,0,1-.312-.087,27.891,27.891,0,0,1-7.435-7,.605.605,0,0,1,.553-.954,14.8,14.8,0,0,0,8.392-2.09.605.605,0,0,1,.914.615l-1.516,9.008a.606.606,0,0,1-.6.505m-6-6.788a27.9,27.9,0,0,0,5.56,5.162l1.153-6.856a16.923,16.923,0,0,1-6.714,1.693" transform="translate(-1301.702 -879.199)"/>
      <path id="Trazado_881989" data-name="Trazado 881989" d="M608.738,110.148a.605.605,0,0,1-.188-1.181,144.057,144.057,0,0,1,66.872-5.1.605.605,0,0,1-.188,1.2,142.844,142.844,0,0,0-66.308,5.058.606.606,0,0,1-.188.03" transform="translate(-496.734 -83.28)"/>
      <path id="Trazado_881990" data-name="Trazado 881990" d="M664.05,66.778a.605.605,0,0,1-.161-1.189,151.106,151.106,0,0,1,70.316-2.073.605.605,0,0,1-.244,1.186,149.885,149.885,0,0,0-69.749,2.055.61.61,0,0,1-.162.022" transform="translate(-541.924 -49.192)"/>
      <path id="Trazado_881991" data-name="Trazado 881991" d="M668.622,38.608c-.05,0-.1,0-.149,0a3.375,3.375,0,1,1,.149,0m-.006-5.536a2.172,2.172,0,1,0,.1,0l-.1,0m-1.868.123h0Z" transform="translate(-543.396 -25.92)"/>
      <path id="Trazado_881992" data-name="Trazado 881992" d="M729.24,15.6a.605.605,0,0,1-.573-.8l2.867-8.432a.605.605,0,0,1,1.056-.17l5.453,7.218a.606.606,0,0,1,.059.635.618.618,0,0,1-.543.335h-.016a40.278,40.278,0,0,0-8.151,1.2.6.6,0,0,1-.151.019m3.072-7.761-2.147,6.315a41.7,41.7,0,0,1,6.206-.942Z" transform="translate(-595.184 -4.76)"/>
      <path id="Trazado_881993" data-name="Trazado 881993" d="M150.126,317.5a.606.606,0,0,1-.58-.78,114.12,114.12,0,0,1,45.059-61.545.605.605,0,1,1,.682,1A112.906,112.906,0,0,0,150.7,317.073a.605.605,0,0,1-.579.43" transform="translate(-122.047 -208.284)"/>
      <path id="Trazado_881994" data-name="Trazado 881994" d="M99.9,274.258a.6.6,0,0,1-.175-.026.6.6,0,0,1-.4-.754A141.772,141.772,0,0,1,155.3,197.023a.605.605,0,1,1,.682,1,140.559,140.559,0,0,0-55.5,75.8.605.605,0,0,1-.579.43" transform="translate(-81.016 -160.772)"/>
      <path id="Trazado_881995" data-name="Trazado 881995" d="M74.811,539.387a3.371,3.371,0,1,1,2.278-.886,3.365,3.365,0,0,1-2.278.886m0-5.534a2.166,2.166,0,1,0,.1,0l-.1,0m-1.868.123h0Z" transform="translate(-58.253 -435.058)"/>
      <path id="Trazado_881996" data-name="Trazado 881996" d="M107.564,481.327a.6.6,0,0,1-.5-.259c-1.491-2.14-2.8-4.42-2.817-4.443a.605.605,0,0,1,.469-.9l5.493-.509a.605.605,0,0,1,.586.895l-2.7,4.908a.6.6,0,0,1-.5.312h-.032m-1.781-4.489c.4.671,1.026,1.68,1.727,2.729l1.678-3.045Z" transform="translate(-84.996 -388.135)"/>
      <path id="Trazado_881997" data-name="Trazado 881997" d="M141.208,370.559a.605.605,0,0,1-.542-.336,5.062,5.062,0,0,1,.061-4.549,4.86,4.86,0,0,1,2.119-1.507,5.4,5.4,0,0,0,2.162-1.492,4.59,4.59,0,0,0,.282-2.319,5.367,5.367,0,0,1,.623-3.384,4.251,4.251,0,0,1,2.688-1.154,4.029,4.029,0,0,0,1.921-.66,3.524,3.524,0,0,0,.283-2.161,4.218,4.218,0,0,1,.109-1.666.605.605,0,1,1,1.128.44,4.1,4.1,0,0,0-.028,1.162,4.323,4.323,0,0,1-.558,2.994,4.445,4.445,0,0,1-2.623,1.078c-.789.154-1.682.327-1.947.685a4.622,4.622,0,0,0-.386,2.634,5.263,5.263,0,0,1-.484,3.021,6.329,6.329,0,0,1-2.64,1.909,4.365,4.365,0,0,0-1.618,1.052,3.866,3.866,0,0,0-.01,3.376.605.605,0,0,1-.541.875" transform="translate(-114.379 -286.613)"/>
      <path id="Trazado_881998" data-name="Trazado 881998" d="M151.089,1130.68a.6.6,0,0,1-.491-.251,85.374,85.374,0,0,1-12.486-25.168.605.605,0,0,1,1.158-.351,84.173,84.173,0,0,0,12.309,24.812.605.605,0,0,1-.491.959" transform="translate(-112.705 -902.25)"/>
      <path id="Trazado_881999" data-name="Trazado 881999" d="M135.98,1172.619a.6.6,0,0,1-.491-.251,123.5,123.5,0,0,1-18.063-36.408.605.605,0,0,1,1.158-.351,122.292,122.292,0,0,0,17.886,36.052.605.605,0,0,1-.491.959" transform="translate(-95.805 -927.33)"/>
      <path id="Trazado_882000" data-name="Trazado 882000" d="M115.393,1234.824a.6.6,0,0,1-.066,0,5.064,5.064,0,0,1-3.8-2.506,4.857,4.857,0,0,1-.126-2.6,5.413,5.413,0,0,0-.089-2.626,4.593,4.593,0,0,0-1.8-1.489,5.366,5.366,0,0,1-2.514-2.35,4.253,4.253,0,0,1,.479-2.886,4.03,4.03,0,0,0,.48-1.974c-.18-.557-.97-1.007-1.667-1.4a4.216,4.216,0,0,1-1.344-.991.605.605,0,0,1,.979-.712,4.1,4.1,0,0,0,.964.651,4.324,4.324,0,0,1,2.22,2.085,4.445,4.445,0,0,1-.507,2.791,3.849,3.849,0,0,0-.473,2.008c.262.688,1.151,1.226,2.01,1.746a5.268,5.268,0,0,1,2.282,2.038,6.33,6.33,0,0,1,.184,3.253,4.36,4.36,0,0,0,.013,1.93,3.9,3.9,0,0,0,2.84,1.829.605.605,0,0,1-.067,1.207" transform="translate(-85.538 -992.576)"/>
      <path id="Trazado_882001" data-name="Trazado 882001" d="M81.76,1169.245a3.371,3.371,0,1,1,2.278-.885,3.363,3.363,0,0,1-2.278.885m-1.463-4.965a2.163,2.163,0,1,0,3.056.132,2.166,2.166,0,0,0-3.056-.132" transform="translate(-63.932 -949.654)"/>
      <path id="Trazado_882002" data-name="Trazado 882002" d="M564.3,1723.263l20.648,9.925a65.478,65.478,0,0,0,21.922,6.14,349.105,349.105,0,0,0,58.811.328,66.057,66.057,0,0,0,26.852-7.831l15.757-8.562Z" transform="translate(-460.927 -1407.796)" fill="#fff"/>
      <path id="Trazado_882003" data-name="Trazado 882003" d="M634.139,1738.626c-10.573,0-20.609-.466-30.026-1.4a65.877,65.877,0,0,1-22.125-6.2l-20.648-9.924a.605.605,0,0,1,.262-1.151H705.593a.605.605,0,0,1,.289,1.137l-15.757,8.562a66.217,66.217,0,0,1-27.1,7.9c-10,.712-19.649,1.068-28.887,1.068m-69.881-17.459,18.254,8.774a64.679,64.679,0,0,0,21.719,6.083,350,350,0,0,0,58.709.327,65.021,65.021,0,0,0,26.606-7.76l13.664-7.425Z" transform="translate(-458.224 -1405.094)"/>
      <path id="Trazado_882004" data-name="Trazado 882004" d="M681.29,1609.635c0,9.082-36.4,16.444-81.307,16.444s-81.307-7.362-81.307-16.444,36.4-16.444,81.307-16.444,81.307,7.362,81.307,16.444" transform="translate(-423.648 -1301.527)" fill="#fff"/>
      <path id="Trazado_882005" data-name="Trazado 882005" d="M620.654,1630.836c-37.616,0-76.525-5.509-76.525-14.729s38.909-14.729,76.525-14.729,76.525,5.509,76.525,14.729-38.909,14.729-76.525,14.729m0-28.247c-45.051,0-75.315,6.99-75.315,13.518s30.263,13.518,75.315,13.518,75.315-6.99,75.315-13.518-30.263-13.518-75.315-13.518" transform="translate(-444.443 -1308.217)" fill="#caddff"/>
      <path id="Trazado_882006" data-name="Trazado 882006" d="M929.753,1651.005c-2.279,0-4.582-.019-6.847-.057a.605.605,0,0,1,.021-1.21c2.257.038,4.554.057,6.826.057,21.679,0,42.054-1.706,57.373-4.8,14.826-3,23.329-7.021,23.329-11.034,0-3.423-6.5-7-17.826-9.8a.605.605,0,1,1,.291-1.175c8.552,2.119,18.746,5.744,18.746,10.978,0,6.039-13.214,9.979-24.3,12.221-15.4,3.114-35.856,4.828-57.613,4.828" transform="translate(-753.418 -1325.848)"/>
      <path id="Trazado_882007" data-name="Trazado 882007" d="M603.143,1513.1a2.848,2.848,0,0,0-.076,2.569c1.731,2.75,9.656-3.365,21.545-5.309,13.766-2.252,20.755,3.336,27.406-2.5,3.2-2.808,2.784-5.227,6.78-7.828,5.566-3.622,9.1-.708,13.451-3.6,5-3.324,8.091-12.346,5.585-18.5-3.37-8.28-15.957-9.158-22.658-4.763-4.352,2.855-6.786,8.3-7.962,7.662-1.122-.614,1.487-5.363-.305-8.048-2.347-3.516-11.723-2.708-15.18,2.451-3.182,4.749-1.025,12.7-2.507,13.071-.583.146-.919-1.084-1.648-1.133-1.3-.087-4.319,2.194-7.432,15.585a15.229,15.229,0,0,1-6.814,5.983c-5.169,2.418-8.774,1.638-10.182,4.363" transform="translate(-492.37 -1201.336)" fill="#31a854"/>
      <path id="Trazado_882008" data-name="Trazado 882008" d="M712.563,1558.175a.605.605,0,0,1-.248-1.157c21.16-9.5,33.639-16.9,40.462-23.971a.605.605,0,0,1,.872.84c-6.935,7.192-19.53,14.667-40.837,24.235a.61.61,0,0,1-.247.053" transform="translate(-581.559 -1252.238)" fill="#acdbb9"/>
      <path id="Trazado_882009" data-name="Trazado 882009" d="M882.534,1562.594a2.6,2.6,0,0,0-.731,2.4c1.088,2.991,10.82-.932,23.584-.011,14.779,1.067,20.575,7.948,28.922,3.99,4.014-1.9,6.645-1.271,11.429-2.795,6.663-2.122,9.145-.47,14.365-2.185,6-1.973,8.541-9.227,7.517-15.606-1.377-8.578-13.216-13.943-21.248-11.355-5.217,1.681-5.179,1.726-6.23.848-1-.838-1.036-.182-2.205-3.126-1.53-3.854-10.706-3.5-15.584.56-4.49,3.736-4.987,9.957-6.611,9.963-.639,0-.674-1.234-1.414-1.449-1.321-.384-5.014,1.066-11.627,12.957a16.817,16.817,0,0,1-8.551,4.057c-5.949,1.08-9.472-.49-11.617,1.751" transform="translate(-720.252 -1251.581)" fill="#31a854"/>
      <path id="Trazado_882010" data-name="Trazado 882010" d="M1006.512,1629.99a.605.605,0,0,1-.1-1.2c24.261-4.05,39.025-8.125,47.871-13.214a.605.605,0,0,1,.6,1.049c-8.976,5.164-23.865,9.284-48.275,13.358a.614.614,0,0,1-.1.008" transform="translate(-821.716 -1319.749)" fill="#99b9ff"/>
      <path id="Trazado_882011" data-name="Trazado 882011" d="M1150.4,1602.621c4.193,7.644,33.481-4.682,30.929-8.913-10.007,5.716-20.105,10.608-30.929,8.913" transform="translate(-939.768 -1301.949)" fill="#fff"/>
      <path id="Trazado_882012" data-name="Trazado 882012" d="M1124.042,1629.336c2.854,8.238,33.792.989,31.985-3.61-10.823,3.96-21.6,7.093-31.985,3.61" transform="translate(-918.232 -1328.108)" fill="#fff"/>
      <path id="Trazado_882013" data-name="Trazado 882013" d="M1138.74,1611.2c.059,8.718,31.687,11.782,31.451,6.847-11.521.277-22.731-.215-31.451-6.847" transform="translate(-930.24 -1316.242)" fill="#fff"/>
      <path id="Trazado_882014" data-name="Trazado 882014" d="M1130.484,1645.721c1.251,8.628,33,7.337,32.092,2.48-11.375,1.85-22.547,2.9-32.092-2.48" transform="translate(-923.495 -1344.444)" fill="#fff"/>
      <path id="Trazado_882015" data-name="Trazado 882015" d="M1173.207,1582.105c-2.667-8.3-33.761-1.751-32.058,2.887,10.91-3.715,21.752-6.6,32.058-2.887" transform="translate(-932.153 -1289.221)" fill="#fff"/>
      <path id="Trazado_882016" data-name="Trazado 882016" d="M1170.723,1598.463c-2.667-8.3-33.761-1.751-32.058,2.887,10.91-3.715,21.752-6.6,32.058-2.887" transform="translate(-930.124 -1302.585)" fill="#fff"/>
      <path id="Trazado_882017" data-name="Trazado 882017" d="M1116.765,1672.9c1.336,8.615,33.072,7.012,32.115,2.164-11.356,1.962-22.517,3.119-32.115-2.164" transform="translate(-912.287 -1366.65)" fill="#fff"/>
      <path id="Trazado_882018" data-name="Trazado 882018" d="M1135.621,1601.052c1.965,8.494,33.5,4.562,32.187-.2-11.182,2.791-22.227,4.766-32.187.2" transform="translate(-927.692 -1307.784)" fill="#fff"/>
      <path id="Trazado_882019" data-name="Trazado 882019" d="M1158.7,1641.088c1.965,8.494,33.5,4.562,32.187-.2-11.182,2.791-22.227,4.765-32.187.2" transform="translate(-946.545 -1340.494)" fill="#fff"/>
      <path id="Trazado_882020" data-name="Trazado 882020" d="M1164.839,1688.789c3.053,8.166,33.806.17,31.888-4.384-10.724,4.221-21.419,7.614-31.888,4.384" transform="translate(-951.563 -1376.049)" fill="#fff"/>
      <path id="Trazado_882021" data-name="Trazado 882021" d="M783.839,1646.325a73.811,73.811,0,0,1,8.99,5.26c.657.5,1.776,1.071,2.1,1.854.813,1.972-1.525,3.947-3.282,4.3a29.479,29.479,0,0,1-8.14.466c-1.245-.1-2.44-.378-3.674-.433a17.072,17.072,0,0,1-3.835-.736q-3.557-1-7.012-2.326c-2.718-1.044-5.893-1.642-8-3.763a22.651,22.651,0,0,1-2.673-3.5l-1.826-2.743a6.014,6.014,0,0,1-.824-1.544c-.547-1.8,1.858-3.508,3.424-3.852a15.248,15.248,0,0,1,5.61-.042c6.25.941,12.286,3.641,17.9,6.433q.623.31,1.242.627" transform="translate(-617.198 -1338.974)" fill="#e9f5ec"/>
      <path id="Trazado_882022" data-name="Trazado 882022" d="M747.344,1650.171a35.362,35.362,0,0,0,9.279,4.731,60.329,60.329,0,0,0,14.277,2.944c3.571.338,7.3.383,10.592-1.044a5.6,5.6,0,0,0,2.493-1.853c1.112-1.643.232-3.585-1.22-4.661a22.485,22.485,0,0,0-3.017-1.641l2.429,1.938a2.473,2.473,0,0,1,1.108,1.5,1.662,1.662,0,0,1-.851,1.5c-1.547.965-3.872.833-5.617.911a39.124,39.124,0,0,1-5.152-.109,55.7,55.7,0,0,1-10.848-2.116,49.157,49.157,0,0,1-9.91-3.754c-2.495-1.382-4.735-3.529-5.442-6.292-.736-2.878,1.461-4.34,4.033-4.674,3.571-.464,7.334.766,10.716,1.816a28.783,28.783,0,0,1,4.718,1.59c-2.848-.924-5.442-2.511-8.315-3.4a17.137,17.137,0,0,0-12.35.41c-1.573.733-3.107,1.932-2.99,3.844a6.16,6.16,0,0,0,.79,2.445,17.807,17.807,0,0,0,5.276,5.908" transform="translate(-605.509 -1337.005)" fill="#99b9ff"/>
      <path id="Trazado_882023" data-name="Trazado 882023" d="M827.084,1651.693a.605.605,0,0,1-.56-.375,3.8,3.8,0,0,0-1.337-1.206c-.205-.138-.4-.27-.568-.4a74.4,74.4,0,0,0-8.9-5.2q-.616-.315-1.236-.624c-5.556-2.762-11.55-5.447-17.724-6.377-.452-.068-.868-.119-1.271-.157a.605.605,0,0,1,.113-1.2c.426.04.864.094,1.339.165,6.34.955,12.438,3.684,18.083,6.49q.626.311,1.249.63a73.851,73.851,0,0,1,9.08,5.317c.151.114.327.232.511.356a4.453,4.453,0,0,1,1.781,1.75.606.606,0,0,1-.559.836" transform="translate(-649.354 -1336.621)" fill="#99b9ff"/>
      <path id="Trazado_882024" data-name="Trazado 882024" d="M747.344,1650.171a35.362,35.362,0,0,0,9.279,4.731,60.329,60.329,0,0,0,14.277,2.944c3.571.338,7.3.383,10.592-1.044a5.6,5.6,0,0,0,2.493-1.853c1.112-1.643.232-3.585-1.22-4.661a22.485,22.485,0,0,0-3.017-1.641l2.429,1.938a2.473,2.473,0,0,1,1.108,1.5,1.662,1.662,0,0,1-.851,1.5c-1.547.965-3.872.833-5.617.911a39.124,39.124,0,0,1-5.152-.109,55.7,55.7,0,0,1-10.848-2.116,49.157,49.157,0,0,1-9.91-3.754c-2.495-1.382-4.735-3.529-5.442-6.292-.736-2.878,1.461-4.34,4.033-4.674,3.571-.464,7.334.766,10.716,1.816a28.783,28.783,0,0,1,4.718,1.59c-2.848-.924-5.442-2.511-8.315-3.4a17.137,17.137,0,0,0-12.35.41c-1.573.733-3.107,1.932-2.99,3.844a6.16,6.16,0,0,0,.79,2.445,17.807,17.807,0,0,0,5.276,5.908" transform="translate(-605.509 -1337.005)" fill="#99b9ff"/>
      <path id="Trazado_882025" data-name="Trazado 882025" d="M747.344,1650.171a35.362,35.362,0,0,0,9.279,4.731,60.329,60.329,0,0,0,14.277,2.944c3.571.338,7.3.383,10.592-1.044a5.6,5.6,0,0,0,2.493-1.853c1.112-1.643.232-3.585-1.22-4.661a22.485,22.485,0,0,0-3.017-1.641l2.429,1.938a2.473,2.473,0,0,1,1.108,1.5,1.662,1.662,0,0,1-.851,1.5c-1.547.965-3.872.833-5.617.911a39.124,39.124,0,0,1-5.152-.109,55.7,55.7,0,0,1-10.848-2.116,49.157,49.157,0,0,1-9.91-3.754c-2.495-1.382-4.735-3.529-5.442-6.292-.736-2.878,1.461-4.34,4.033-4.674,3.571-.464,7.334.766,10.716,1.816a28.783,28.783,0,0,1,4.718,1.59c-2.848-.924-5.442-2.511-8.315-3.4a17.137,17.137,0,0,0-12.35.41c-1.573.733-3.107,1.932-2.99,3.844a6.16,6.16,0,0,0,.79,2.445,17.807,17.807,0,0,0,5.276,5.908" transform="translate(-605.509 -1337.005)" fill="#d5eddc"/>
      <path id="Trazado_882026" data-name="Trazado 882026" d="M770.615,1663.882c-1.009,0-1.878-.034-2.474-.09a60.4,60.4,0,0,1-14.42-2.975,35.552,35.552,0,0,1-9.439-4.817,18.37,18.37,0,0,1-5.45-6.113,6.742,6.742,0,0,1-.859-2.689c-.067-1.091.3-2.663,2.443-3.955a.605.605,0,0,1,.626,1.036c-1.32.8-1.929,1.727-1.861,2.845a5.454,5.454,0,0,0,.722,2.2,17.185,17.185,0,0,0,5.1,5.7,34.356,34.356,0,0,0,9.118,4.646,59.207,59.207,0,0,0,14.133,2.912c2.726.258,9.171-.017,11.179-1.089a.605.605,0,0,1,.57,1.068c-1.861.993-6.286,1.316-9.389,1.316" transform="translate(-602.808 -1342.348)" fill="#5479f7"/>
      <path id="Trazado_882027" data-name="Trazado 882027" d="M788.462,1656.124h-.031q-.725-.037-1.45-.1a56.526,56.526,0,0,1-10.966-2.138,49.4,49.4,0,0,1-10.032-3.805,11.129,11.129,0,0,1-5.735-6.672,3.916,3.916,0,0,1,.455-3.294,5.659,5.659,0,0,1,4.086-2.13,17.734,17.734,0,0,1,6.5.544A.605.605,0,0,1,771,1639.7a16.574,16.574,0,0,0-6.059-.521,4.565,4.565,0,0,0-3.241,1.608,2.761,2.761,0,0,0-.284,2.315c.793,3.1,3.566,5.036,5.148,5.913a48.431,48.431,0,0,0,9.787,3.7,55.339,55.339,0,0,0,10.731,2.094q.7.062,1.405.1a.605.605,0,0,1-.03,1.21" transform="translate(-620.878 -1338.036)" fill="#5479f7"/>
      <path id="Trazado_882028" data-name="Trazado 882028" d="M876.527,1632.13a73.8,73.8,0,0,1,8.99,5.26c.657.5,1.776,1.071,2.1,1.854.813,1.972-1.524,3.947-3.282,4.3a29.488,29.488,0,0,1-8.14.466c-1.244-.1-2.44-.379-3.674-.433a17.07,17.07,0,0,1-3.835-.736q-3.557-1-7.012-2.326c-2.718-1.044-5.893-1.642-8-3.764a22.664,22.664,0,0,1-2.673-3.5l-1.827-2.743a6.02,6.02,0,0,1-.823-1.544c-.547-1.8,1.858-3.509,3.424-3.851a15.248,15.248,0,0,1,5.61-.042c6.25.941,12.286,3.641,17.9,6.433q.623.31,1.242.627" transform="translate(-692.925 -1327.377)" fill="#fff"/>
      <path id="Trazado_882029" data-name="Trazado 882029" d="M840.032,1635.975a35.367,35.367,0,0,0,9.279,4.731,60.325,60.325,0,0,0,14.277,2.944c3.571.338,7.3.383,10.592-1.044a5.6,5.6,0,0,0,2.493-1.854c1.112-1.643.232-3.586-1.22-4.661a22.412,22.412,0,0,0-3.017-1.641l2.43,1.938a2.473,2.473,0,0,1,1.108,1.5,1.662,1.662,0,0,1-.851,1.5c-1.547.965-3.872.833-5.617.91a39.149,39.149,0,0,1-5.152-.109,55.741,55.741,0,0,1-10.848-2.116,49.16,49.16,0,0,1-9.91-3.754c-2.495-1.382-4.735-3.529-5.442-6.293-.736-2.877,1.461-4.339,4.033-4.674,3.572-.464,7.334.766,10.717,1.816a28.8,28.8,0,0,1,4.718,1.59c-2.848-.924-5.442-2.511-8.315-3.4a17.139,17.139,0,0,0-12.35.41c-1.573.733-3.107,1.932-2.99,3.844a6.161,6.161,0,0,0,.79,2.445,17.8,17.8,0,0,0,5.275,5.908" transform="translate(-681.235 -1325.407)" fill="#acdbb9"/>
      <path id="Trazado_882030" data-name="Trazado 882030" d="M919.772,1637.5a.606.606,0,0,1-.56-.375,3.8,3.8,0,0,0-1.337-1.206c-.205-.138-.4-.27-.568-.4a74.354,74.354,0,0,0-8.9-5.2q-.616-.316-1.236-.624c-5.556-2.762-11.55-5.446-17.724-6.377-.452-.068-.867-.119-1.272-.158a.605.605,0,0,1,.113-1.2c.426.04.864.094,1.339.166,6.34.955,12.438,3.683,18.083,6.49q.626.311,1.249.63a73.814,73.814,0,0,1,9.08,5.317c.151.114.326.232.511.356a4.451,4.451,0,0,1,1.781,1.75.606.606,0,0,1-.559.836" transform="translate(-725.081 -1325.023)" fill="#99b9ff"/>
      <path id="Trazado_882031" data-name="Trazado 882031" d="M860.885,1653.15a.6.6,0,0,1-.167-.023c-.232-.066-1.208-.237-2.339-.435-3.093-.541-8.271-1.446-11.94-2.51a30.774,30.774,0,0,1-9.471-4.827,18.376,18.376,0,0,1-5.45-6.113,6.743,6.743,0,0,1-.859-2.689,3.815,3.815,0,0,1,1.279-3.078.605.605,0,1,1,.838.873,2.625,2.625,0,0,0-.909,2.131,5.451,5.451,0,0,0,.722,2.2,17.187,17.187,0,0,0,5.1,5.7,29.543,29.543,0,0,0,9.087,4.636c3.6,1.046,8.742,1.943,11.811,2.48,1.466.256,2.183.383,2.464.463a.605.605,0,0,1-.166,1.187" transform="translate(-678.532 -1334.302)" fill="#5479f7"/>
      <path id="Trazado_882032" data-name="Trazado 882032" d="M884.22,1642.783h-.172c-.424,0-1.092-.009-2.071-.019a.6.6,0,0,1-.269-.066l-1.17-.032a43.887,43.887,0,0,1-11-2.14,49.419,49.419,0,0,1-10.033-3.806,11.131,11.131,0,0,1-5.735-6.672,3.916,3.916,0,0,1,.455-3.294,5.66,5.66,0,0,1,4.087-2.13,17.727,17.727,0,0,1,6.5.544.605.605,0,0,1-.284,1.177,16.575,16.575,0,0,0-6.058-.521,4.565,4.565,0,0,0-3.241,1.609,2.761,2.761,0,0,0-.284,2.315c.793,3.1,3.566,5.036,5.148,5.913a48.447,48.447,0,0,0,9.788,3.7,42.863,42.863,0,0,0,10.7,2.092c.665.02,1.484.041,2.215.059l1.327.035c.173,0,.334.01.477.024h.017c.4.043.657.172.649.614s-.259.555-.669.587v0l-.025,0c-.105.007-.221.009-.345.009" transform="translate(-697.285 -1327.12)" fill="#5479f7"/>
      <path id="Trazado_882033" data-name="Trazado 882033" d="M969.215,1615.429a73.83,73.83,0,0,1,8.99,5.26c.657.5,1.776,1.071,2.1,1.855.813,1.972-1.524,3.947-3.282,4.3a29.485,29.485,0,0,1-8.14.466c-1.244-.1-2.44-.379-3.674-.433a17.063,17.063,0,0,1-3.835-.736q-3.558-1-7.012-2.326c-2.718-1.045-5.893-1.642-8-3.764a22.651,22.651,0,0,1-2.673-3.5l-1.827-2.743a6.006,6.006,0,0,1-.823-1.544c-.548-1.8,1.858-3.508,3.424-3.851a15.245,15.245,0,0,1,5.61-.042c6.25.941,12.286,3.641,17.9,6.433q.623.31,1.242.627" transform="translate(-768.651 -1313.732)" fill="#fff"/>
      <path id="Trazado_882034" data-name="Trazado 882034" d="M932.72,1619.274a35.369,35.369,0,0,0,9.279,4.731,60.337,60.337,0,0,0,14.277,2.944c3.571.338,7.3.383,10.592-1.044a5.6,5.6,0,0,0,2.492-1.853c1.112-1.643.232-3.585-1.22-4.661a22.461,22.461,0,0,0-3.017-1.641l2.43,1.938a2.474,2.474,0,0,1,1.108,1.5,1.662,1.662,0,0,1-.852,1.5c-1.547.965-3.872.833-5.617.911a39.086,39.086,0,0,1-5.152-.11,55.692,55.692,0,0,1-10.848-2.116,49.168,49.168,0,0,1-9.91-3.754c-2.495-1.382-4.735-3.529-5.441-6.292-.736-2.878,1.461-4.34,4.033-4.674,3.572-.464,7.334.766,10.716,1.816a28.772,28.772,0,0,1,4.718,1.59c-2.848-.924-5.442-2.511-8.315-3.4a17.138,17.138,0,0,0-12.35.41c-1.573.733-3.107,1.932-2.99,3.844a6.162,6.162,0,0,0,.79,2.445,17.806,17.806,0,0,0,5.276,5.908" transform="translate(-756.961 -1311.762)" fill="#d5eddc"/>
      <path id="Trazado_882035" data-name="Trazado 882035" d="M1001.115,1613.552a.6.6,0,0,1-.274-.066q-.489-.249-.981-.494c-5.557-2.762-11.55-5.447-17.724-6.377-.45-.068-.866-.119-1.272-.157a.605.605,0,0,1,.113-1.2c.429.04.867.094,1.339.165,6.34.955,12.438,3.683,18.083,6.49q.5.247.992.5a.605.605,0,0,1-.275,1.145" transform="translate(-800.807 -1311.38)" fill="#5479f7"/>
      <path id="Trazado_882036" data-name="Trazado 882036" d="M942.945,1626.758a.6.6,0,0,1-.165-.023c-.97-.275-1.929-.578-2.848-.9a35.553,35.553,0,0,1-9.439-4.816,18.381,18.381,0,0,1-5.451-6.113,6.75,6.75,0,0,1-.858-2.689c-.078-1.275.438-3.079,3.339-4.43q.338-.158.681-.3a.605.605,0,0,1,.455,1.122q-.315.127-.625.272c-1.833.854-2.721,1.95-2.642,3.258a5.464,5.464,0,0,0,.722,2.2,17.191,17.191,0,0,0,5.1,5.7,34.363,34.363,0,0,0,9.119,4.646c.9.315,1.831.61,2.777.878a.605.605,0,0,1-.164,1.188" transform="translate(-754.942 -1313.173)" fill="#5479f7"/>
      <path id="Trazado_882037" data-name="Trazado 882037" d="M972.168,1624.5h-.031q-.724-.037-1.45-.1a56.526,56.526,0,0,1-10.966-2.139,49.412,49.412,0,0,1-10.032-3.805,11.13,11.13,0,0,1-5.735-6.672,3.917,3.917,0,0,1,.455-3.294,5.658,5.658,0,0,1,4.086-2.13c.286-.037.58-.065.875-.082a.605.605,0,0,1,.072,1.208c-.267.016-.533.041-.791.074a4.565,4.565,0,0,0-3.24,1.608,2.761,2.761,0,0,0-.284,2.315c.794,3.1,3.566,5.037,5.148,5.913a48.441,48.441,0,0,0,9.788,3.7,55.331,55.331,0,0,0,10.73,2.094q.7.062,1.405.1a.605.605,0,0,1-.03,1.21" transform="translate(-770.966 -1312.215)" fill="#5479f7"/>
      <path id="Trazado_882038" data-name="Trazado 882038" d="M900.909,1720.11a2.631,2.631,0,1,1-2.631-2.631,2.631,2.631,0,0,1,2.631,2.631" transform="translate(-731.633 -1403.07)" fill="#31a854"/>
      <path id="Trazado_882039" data-name="Trazado 882039" d="M885.015,1736.329a2.606,2.606,0,1,1-2.606-2.606,2.606,2.606,0,0,1,2.606,2.606" transform="translate(-718.688 -1416.342)" fill="#31a854"/>
      <path id="Trazado_882040" data-name="Trazado 882040" d="M941.323,1720.11a2.631,2.631,0,1,1-2.631-2.631,2.631,2.631,0,0,1,2.631,2.631" transform="translate(-764.651 -1403.07)" fill="#31a854"/>
      <path id="Trazado_882041" data-name="Trazado 882041" d="M973.026,1735.19a2.631,2.631,0,1,1-2.631-2.631,2.631,2.631,0,0,1,2.631,2.631" transform="translate(-790.553 -1415.391)" fill="#31a854"/>
      <path id="Trazado_882042" data-name="Trazado 882042" d="M948.238,1738.415a2.631,2.631,0,1,1-2.631-2.631,2.631,2.631,0,0,1,2.631,2.631" transform="translate(-770.3 -1418.026)" fill="#31a854"/>
      <path id="Trazado_882043" data-name="Trazado 882043" d="M916.583,1736.329a2.606,2.606,0,1,1-2.607-2.606,2.606,2.606,0,0,1,2.607,2.606" transform="translate(-744.479 -1416.342)" fill="#31a854"/>
      <path id="Trazado_882044" data-name="Trazado 882044" d="M852.464,1736.329a2.606,2.606,0,1,1-2.606-2.606,2.606,2.606,0,0,1,2.606,2.606" transform="translate(-692.094 -1416.342)" fill="#31a854"/>
      <path id="Trazado_882045" data-name="Trazado 882045" d="M734.326,1684.944c4.193,7.644,33.481-4.681,30.929-8.913-10.007,5.716-20.105,10.608-30.929,8.913" transform="translate(-599.834 -1369.207)" fill="#31a854"/>
      <path id="Trazado_882046" data-name="Trazado 882046" d="M581.312,1638.623c2.854,8.238,33.792.989,31.985-3.61-10.823,3.96-21.6,7.093-31.985,3.61" transform="translate(-474.821 -1335.695)" fill="#5479f7"/>
      <path id="Trazado_882047" data-name="Trazado 882047" d="M596.01,1620.489c.059,8.718,31.687,11.783,31.451,6.847-11.521.277-22.731-.214-31.451-6.847" transform="translate(-486.83 -1323.829)" fill="#31a854"/>
      <path id="Trazado_882048" data-name="Trazado 882048" d="M587.754,1655.008c1.251,8.628,33,7.337,32.092,2.48-11.375,1.85-22.547,2.9-32.092-2.48" transform="translate(-480.085 -1352.031)" fill="#31a854"/>
      <path id="Trazado_882049" data-name="Trazado 882049" d="M757.13,1664.428c-2.667-8.3-33.761-1.751-32.058,2.887,10.909-3.715,21.752-6.6,32.058-2.887" transform="translate(-592.219 -1356.479)" fill="#31a854"/>
      <path id="Trazado_882050" data-name="Trazado 882050" d="M754.647,1680.786c-2.667-8.3-33.762-1.751-32.058,2.887,10.909-3.715,21.752-6.6,32.058-2.887" transform="translate(-590.19 -1369.843)" fill="#31a854"/>
      <path id="Trazado_882051" data-name="Trazado 882051" d="M574.035,1682.188c1.336,8.615,33.072,7.012,32.115,2.164-11.356,1.962-22.517,3.119-32.115-2.164" transform="translate(-468.876 -1374.238)" fill="#31a854"/>
      <path id="Trazado_882052" data-name="Trazado 882052" d="M719.545,1683.375c1.965,8.494,33.5,4.563,32.187-.2-11.181,2.792-22.227,4.766-32.187.2" transform="translate(-587.758 -1375.042)" fill="#31a854"/>
      <path id="Trazado_882053" data-name="Trazado 882053" d="M615.967,1650.375c1.965,8.494,33.5,4.563,32.187-.2-11.182,2.792-22.227,4.766-32.187.2" transform="translate(-503.135 -1348.081)" fill="#31a854"/>
      <path id="Trazado_882054" data-name="Trazado 882054" d="M622.109,1698.076c3.053,8.166,33.806.17,31.888-4.384-10.724,4.221-21.419,7.614-31.888,4.384" transform="translate(-508.153 -1383.636)" fill="#31a854"/>
      <path id="Trazado_882055" data-name="Trazado 882055" d="M1074.041,1705.731a2.631,2.631,0,1,1-2.631-2.631,2.631,2.631,0,0,1,2.631,2.631" transform="translate(-873.081 -1391.323)" fill="#31a854"/>
      <path id="Trazado_882056" data-name="Trazado 882056" d="M1058.145,1721.951a2.606,2.606,0,1,1-2.607-2.606,2.607,2.607,0,0,1,2.607,2.606" transform="translate(-860.135 -1404.595)" fill="#31a854"/>
      <path id="Trazado_882057" data-name="Trazado 882057" d="M1114.453,1705.731a2.631,2.631,0,1,1-2.631-2.631,2.631,2.631,0,0,1,2.631,2.631" transform="translate(-906.098 -1391.323)" fill="#31a854"/>
      <path id="Trazado_882058" data-name="Trazado 882058" d="M1146.157,1720.812a2.631,2.631,0,1,1-2.631-2.631,2.631,2.631,0,0,1,2.631,2.631" transform="translate(-932.001 -1403.644)" fill="#31a854"/>
      <path id="Trazado_882059" data-name="Trazado 882059" d="M1121.368,1724.037a2.631,2.631,0,1,1-2.631-2.631,2.631,2.631,0,0,1,2.631,2.631" transform="translate(-911.748 -1406.279)" fill="#31a854"/>
      <path id="Trazado_882060" data-name="Trazado 882060" d="M1089.713,1721.951a2.606,2.606,0,1,1-2.606-2.606,2.606,2.606,0,0,1,2.606,2.606" transform="translate(-885.926 -1404.595)" fill="#31a854"/>
      <path id="Trazado_882061" data-name="Trazado 882061" d="M1025.594,1721.951a2.606,2.606,0,1,1-2.606-2.606,2.607,2.607,0,0,1,2.606,2.606" transform="translate(-833.541 -1404.595)" fill="#31a854"/>
    </g>
  </g>
</svg>
